G75*
G70*
%OFA0B0*%
%FSLAX24Y24*%
%IPPOS*%
%LPD*%
%AMOC8*
5,1,8,0,0,1.08239X$1,22.5*
%
%ADD10C,0.1260*%
%ADD11C,0.1250*%
%ADD12R,0.0260X0.0800*%
%ADD13C,0.1570*%
%ADD14R,0.0591X0.0591*%
%ADD15C,0.0276*%
%ADD16C,0.0400*%
%ADD17C,0.0512*%
%ADD18C,0.0700*%
%ADD19C,0.0554*%
%ADD20C,0.0850*%
%ADD21C,0.0593*%
%ADD22C,0.0480*%
%ADD23OC8,0.0480*%
%ADD24R,0.0700X0.0700*%
%ADD25C,0.0660*%
%ADD26C,0.0357*%
%ADD27C,0.0396*%
%ADD28R,0.0396X0.0396*%
%ADD29R,0.0660X0.0660*%
%ADD30R,0.0357X0.0357*%
D10*
X007500Y002500D03*
X022500Y002500D03*
X037500Y002500D03*
X052500Y002500D03*
X067500Y002500D03*
X067750Y046500D03*
X052750Y046500D03*
X037750Y046500D03*
X022750Y046500D03*
X007750Y046500D03*
X001250Y076250D03*
X015000Y076250D03*
X030000Y076250D03*
X045000Y076250D03*
X060000Y076250D03*
X073750Y076250D03*
D11*
X070970Y042810D03*
X070970Y032380D03*
X002070Y032380D03*
X002070Y042810D03*
D12*
X002000Y038960D03*
X002500Y038960D03*
X003000Y038960D03*
X003500Y038960D03*
X004000Y038960D03*
X004500Y038960D03*
X005000Y038960D03*
X005500Y038960D03*
X005500Y036540D03*
X005000Y036540D03*
X004500Y036540D03*
X004000Y036540D03*
X003500Y036540D03*
X003000Y036540D03*
X002500Y036540D03*
X002000Y036540D03*
X008500Y036540D03*
X009000Y036540D03*
X009500Y036540D03*
X010000Y036540D03*
X010500Y036540D03*
X011000Y036540D03*
X011500Y036540D03*
X012000Y036540D03*
X012000Y038960D03*
X011500Y038960D03*
X011000Y038960D03*
X010500Y038960D03*
X010000Y038960D03*
X009500Y038960D03*
X009000Y038960D03*
X008500Y038960D03*
X017000Y038960D03*
X017500Y038960D03*
X018000Y038960D03*
X018500Y038960D03*
X019000Y038960D03*
X019500Y038960D03*
X020000Y038960D03*
X020500Y038960D03*
X020500Y036540D03*
X020000Y036540D03*
X019500Y036540D03*
X019000Y036540D03*
X018500Y036540D03*
X018000Y036540D03*
X017500Y036540D03*
X017000Y036540D03*
X023500Y036540D03*
X024000Y036540D03*
X024500Y036540D03*
X025000Y036540D03*
X025500Y036540D03*
X026000Y036540D03*
X026500Y036540D03*
X027000Y036540D03*
X027000Y038960D03*
X026500Y038960D03*
X026000Y038960D03*
X025500Y038960D03*
X025000Y038960D03*
X024500Y038960D03*
X024000Y038960D03*
X023500Y038960D03*
X032000Y038960D03*
X032500Y038960D03*
X033000Y038960D03*
X033500Y038960D03*
X034000Y038960D03*
X034500Y038960D03*
X035000Y038960D03*
X035500Y038960D03*
X035500Y036540D03*
X035000Y036540D03*
X034500Y036540D03*
X034000Y036540D03*
X033500Y036540D03*
X033000Y036540D03*
X032500Y036540D03*
X032000Y036540D03*
X038500Y036540D03*
X039000Y036540D03*
X039500Y036540D03*
X040000Y036540D03*
X040500Y036540D03*
X041000Y036540D03*
X041500Y036540D03*
X042000Y036540D03*
X042000Y038960D03*
X041500Y038960D03*
X041000Y038960D03*
X040500Y038960D03*
X040000Y038960D03*
X039500Y038960D03*
X039000Y038960D03*
X038500Y038960D03*
X047000Y038960D03*
X047500Y038960D03*
X048000Y038960D03*
X048500Y038960D03*
X049000Y038960D03*
X049500Y038960D03*
X050000Y038960D03*
X050500Y038960D03*
X050500Y036540D03*
X050000Y036540D03*
X049500Y036540D03*
X049000Y036540D03*
X048500Y036540D03*
X048000Y036540D03*
X047500Y036540D03*
X047000Y036540D03*
X053500Y036540D03*
X054000Y036540D03*
X054500Y036540D03*
X055000Y036540D03*
X055500Y036540D03*
X056000Y036540D03*
X056500Y036540D03*
X057000Y036540D03*
X057000Y038960D03*
X056500Y038960D03*
X056000Y038960D03*
X055500Y038960D03*
X055000Y038960D03*
X054500Y038960D03*
X054000Y038960D03*
X053500Y038960D03*
X062000Y038960D03*
X062500Y038960D03*
X063000Y038960D03*
X063500Y038960D03*
X064000Y038960D03*
X064500Y038960D03*
X065000Y038960D03*
X065500Y038960D03*
X065500Y036540D03*
X065000Y036540D03*
X064500Y036540D03*
X064000Y036540D03*
X063500Y036540D03*
X063000Y036540D03*
X062500Y036540D03*
X062000Y036540D03*
X068500Y036540D03*
X069000Y036540D03*
X069500Y036540D03*
X070000Y036540D03*
X070500Y036540D03*
X071000Y036540D03*
X071500Y036540D03*
X072000Y036540D03*
X072000Y038960D03*
X071500Y038960D03*
X071000Y038960D03*
X070500Y038960D03*
X070000Y038960D03*
X069500Y038960D03*
X069000Y038960D03*
X068500Y038960D03*
D13*
X071250Y049000D03*
X071250Y056500D03*
X071250Y064000D03*
X071250Y071500D03*
X063750Y071500D03*
X063750Y064000D03*
X063750Y056500D03*
X063750Y049000D03*
X056250Y049000D03*
X056250Y056500D03*
X056250Y064000D03*
X056250Y071500D03*
X048750Y071500D03*
X048750Y064000D03*
X048750Y056500D03*
X048750Y049000D03*
X041250Y049000D03*
X041250Y056500D03*
X041250Y064000D03*
X041250Y071500D03*
X033750Y071500D03*
X026250Y071500D03*
X026250Y064000D03*
X033750Y064000D03*
X033750Y056500D03*
X033750Y049000D03*
X026250Y049000D03*
X026250Y056500D03*
X018750Y056500D03*
X018750Y049000D03*
X011250Y049000D03*
X011250Y056500D03*
X011250Y064000D03*
X011250Y071500D03*
X003750Y071500D03*
X003750Y064000D03*
X003750Y056500D03*
X003750Y049000D03*
X018750Y064000D03*
X018750Y071500D03*
X018750Y026250D03*
X018750Y018750D03*
X018750Y011250D03*
X018750Y003750D03*
X011250Y003750D03*
X011250Y011250D03*
X011250Y018750D03*
X011250Y026250D03*
X003750Y026250D03*
X003750Y018750D03*
X003750Y011250D03*
X003750Y003750D03*
X026250Y003750D03*
X026250Y011250D03*
X033750Y011250D03*
X033750Y003750D03*
X041250Y003750D03*
X041250Y011250D03*
X041250Y018750D03*
X041250Y026250D03*
X033750Y026250D03*
X033750Y018750D03*
X026250Y018750D03*
X026250Y026250D03*
X048750Y026250D03*
X048750Y018750D03*
X048750Y011250D03*
X048750Y003750D03*
X056250Y003750D03*
X056250Y011250D03*
X056250Y018750D03*
X056250Y026250D03*
X063750Y026250D03*
X063750Y018750D03*
X063750Y011250D03*
X063750Y003750D03*
X071250Y003750D03*
X071250Y011250D03*
X071250Y018750D03*
X071250Y026250D03*
D14*
X069750Y028250D03*
X072750Y028250D03*
X072750Y020750D03*
X069750Y020750D03*
X065250Y020750D03*
X062250Y020750D03*
X057750Y020750D03*
X054750Y020750D03*
X050250Y020750D03*
X047250Y020750D03*
X042750Y020750D03*
X039750Y020750D03*
X035250Y020750D03*
X032250Y020750D03*
X027750Y020750D03*
X024750Y020750D03*
X020250Y020750D03*
X017250Y020750D03*
X012750Y020750D03*
X009750Y020750D03*
X005250Y020750D03*
X002250Y020750D03*
X002250Y013250D03*
X005250Y013250D03*
X009750Y013250D03*
X012750Y013250D03*
X017250Y013250D03*
X020250Y013250D03*
X024750Y013250D03*
X027750Y013250D03*
X032250Y013250D03*
X035250Y013250D03*
X039750Y013250D03*
X042750Y013250D03*
X047250Y013250D03*
X050250Y013250D03*
X054750Y013250D03*
X057750Y013250D03*
X062250Y013250D03*
X065250Y013250D03*
X069750Y013250D03*
X072750Y013250D03*
X072750Y005750D03*
X069750Y005750D03*
X065250Y005750D03*
X062250Y005750D03*
X057750Y005750D03*
X054750Y005750D03*
X050250Y005750D03*
X047250Y005750D03*
X042750Y005750D03*
X039750Y005750D03*
X035250Y005750D03*
X032250Y005750D03*
X027750Y005750D03*
X024750Y005750D03*
X020250Y005750D03*
X017250Y005750D03*
X012750Y005750D03*
X009750Y005750D03*
X005250Y005750D03*
X002250Y005750D03*
X002250Y028250D03*
X005250Y028250D03*
X009750Y028250D03*
X012750Y028250D03*
X017250Y028250D03*
X020250Y028250D03*
X024750Y028250D03*
X027750Y028250D03*
X032250Y028250D03*
X035250Y028250D03*
X039750Y028250D03*
X042750Y028250D03*
X047250Y028250D03*
X050250Y028250D03*
X054750Y028250D03*
X057750Y028250D03*
X062250Y028250D03*
X065250Y028250D03*
X065250Y051000D03*
X062250Y051000D03*
X057750Y051000D03*
X054750Y051000D03*
X050250Y051000D03*
X047250Y051000D03*
X042750Y051000D03*
X039750Y051000D03*
X035250Y051000D03*
X032250Y051000D03*
X027750Y051000D03*
X024750Y051000D03*
X020250Y051000D03*
X017250Y051000D03*
X012750Y051000D03*
X009750Y051000D03*
X005250Y051000D03*
X002250Y051000D03*
X002250Y058500D03*
X005250Y058500D03*
X009750Y058500D03*
X012750Y058500D03*
X017250Y058500D03*
X020250Y058500D03*
X024750Y058500D03*
X027750Y058500D03*
X032250Y058500D03*
X035250Y058500D03*
X039750Y058500D03*
X042750Y058500D03*
X047250Y058500D03*
X050250Y058500D03*
X054750Y058500D03*
X057750Y058500D03*
X062250Y058500D03*
X065250Y058500D03*
X069750Y058500D03*
X072750Y058500D03*
X072750Y066000D03*
X069750Y066000D03*
X065250Y066000D03*
X062250Y066000D03*
X057750Y066000D03*
X054750Y066000D03*
X050250Y066000D03*
X047250Y066000D03*
X042750Y066000D03*
X039750Y066000D03*
X035250Y066000D03*
X032250Y066000D03*
X027750Y066000D03*
X024750Y066000D03*
X020250Y066000D03*
X017250Y066000D03*
X012750Y066000D03*
X009750Y066000D03*
X005250Y066000D03*
X002250Y066000D03*
X002250Y073500D03*
X005250Y073500D03*
X009750Y073500D03*
X012750Y073500D03*
X017250Y073500D03*
X020250Y073500D03*
X024750Y073500D03*
X027750Y073500D03*
X032250Y073500D03*
X035250Y073500D03*
X039750Y073500D03*
X042750Y073500D03*
X047250Y073500D03*
X050250Y073500D03*
X054750Y073500D03*
X057750Y073500D03*
X062250Y073500D03*
X065250Y073500D03*
X069750Y073500D03*
X072750Y073500D03*
X072750Y051000D03*
X069750Y051000D03*
D15*
X002250Y000750D03*
X005250Y006750D03*
X002250Y008250D03*
X005250Y014250D03*
X002250Y015750D03*
X005250Y021750D03*
X002250Y023250D03*
X005250Y029250D03*
X009750Y023250D03*
X012750Y021750D03*
X017250Y023250D03*
X020250Y021750D03*
X024750Y023250D03*
X027750Y021750D03*
X032250Y023250D03*
X035250Y021750D03*
X039750Y023250D03*
X042750Y021750D03*
X047250Y023250D03*
X050250Y021750D03*
X054750Y023250D03*
X057750Y021750D03*
X062250Y023250D03*
X065250Y021750D03*
X069750Y023250D03*
X072750Y021750D03*
X069750Y015750D03*
X072750Y014250D03*
X069750Y008250D03*
X072750Y006750D03*
X069750Y000750D03*
X065250Y006750D03*
X062250Y008250D03*
X057750Y006750D03*
X054750Y008250D03*
X050250Y006750D03*
X047250Y008250D03*
X042750Y006750D03*
X039750Y008250D03*
X035250Y006750D03*
X032250Y008250D03*
X027750Y006750D03*
X024750Y008250D03*
X020250Y006750D03*
X017250Y008250D03*
X012750Y006750D03*
X009750Y008250D03*
X012750Y014250D03*
X009750Y015750D03*
X017250Y015750D03*
X020250Y014250D03*
X024750Y015750D03*
X027750Y014250D03*
X032250Y015750D03*
X035250Y014250D03*
X039750Y015750D03*
X042750Y014250D03*
X047250Y015750D03*
X050250Y014250D03*
X054750Y015750D03*
X057750Y014250D03*
X062250Y015750D03*
X065250Y014250D03*
X062250Y000750D03*
X054750Y000750D03*
X047250Y000750D03*
X039750Y000750D03*
X032250Y000750D03*
X024750Y000750D03*
X017250Y000750D03*
X009750Y000750D03*
X012750Y029250D03*
X020250Y029250D03*
X027750Y029250D03*
X035250Y029250D03*
X042750Y029250D03*
X050250Y029250D03*
X057750Y029250D03*
X065250Y029250D03*
X072750Y029250D03*
X069750Y046000D03*
X072750Y052000D03*
X069750Y053500D03*
X065250Y052000D03*
X062250Y053500D03*
X057750Y052000D03*
X054750Y053500D03*
X050250Y052000D03*
X047250Y053500D03*
X042750Y052000D03*
X039750Y053500D03*
X035250Y052000D03*
X032250Y053500D03*
X027750Y052000D03*
X024750Y053500D03*
X020250Y052000D03*
X017250Y053500D03*
X012750Y052000D03*
X009750Y053500D03*
X005250Y052000D03*
X002250Y053500D03*
X005250Y059500D03*
X002250Y061000D03*
X005250Y067000D03*
X002250Y068500D03*
X005250Y074500D03*
X009750Y068500D03*
X012750Y067000D03*
X017250Y068500D03*
X020250Y067000D03*
X024750Y068500D03*
X027750Y067000D03*
X032250Y068500D03*
X035250Y067000D03*
X039750Y068500D03*
X042750Y067000D03*
X047250Y068500D03*
X050250Y067000D03*
X054750Y068500D03*
X057750Y067000D03*
X062250Y068500D03*
X065250Y067000D03*
X069750Y068500D03*
X072750Y067000D03*
X069750Y061000D03*
X072750Y059500D03*
X065250Y059500D03*
X062250Y061000D03*
X057750Y059500D03*
X054750Y061000D03*
X050250Y059500D03*
X047250Y061000D03*
X042750Y059500D03*
X039750Y061000D03*
X035250Y059500D03*
X032250Y061000D03*
X027750Y059500D03*
X024750Y061000D03*
X020250Y059500D03*
X017250Y061000D03*
X012750Y059500D03*
X009750Y061000D03*
X012750Y074500D03*
X020250Y074500D03*
X027750Y074500D03*
X035250Y074500D03*
X042750Y074500D03*
X050250Y074500D03*
X057750Y074500D03*
X065250Y074500D03*
X072750Y074500D03*
X062250Y046000D03*
X054750Y046000D03*
X047250Y046000D03*
X039750Y046000D03*
X032250Y046000D03*
X024750Y046000D03*
X017250Y046000D03*
X009750Y046000D03*
X002250Y046000D03*
D16*
X002100Y047000D02*
X002102Y047024D01*
X002108Y047048D01*
X002117Y047070D01*
X002130Y047090D01*
X002146Y047108D01*
X002165Y047123D01*
X002186Y047136D01*
X002208Y047144D01*
X002232Y047149D01*
X002256Y047150D01*
X002280Y047147D01*
X002303Y047140D01*
X002325Y047130D01*
X002345Y047116D01*
X002362Y047099D01*
X002377Y047080D01*
X002388Y047059D01*
X002396Y047036D01*
X002400Y047012D01*
X002400Y046988D01*
X002396Y046964D01*
X002388Y046941D01*
X002377Y046920D01*
X002362Y046901D01*
X002345Y046884D01*
X002325Y046870D01*
X002303Y046860D01*
X002280Y046853D01*
X002256Y046850D01*
X002232Y046851D01*
X002208Y046856D01*
X002186Y046864D01*
X002165Y046877D01*
X002146Y046892D01*
X002130Y046910D01*
X002117Y046930D01*
X002108Y046952D01*
X002102Y046976D01*
X002100Y047000D01*
X002100Y054500D02*
X002102Y054524D01*
X002108Y054548D01*
X002117Y054570D01*
X002130Y054590D01*
X002146Y054608D01*
X002165Y054623D01*
X002186Y054636D01*
X002208Y054644D01*
X002232Y054649D01*
X002256Y054650D01*
X002280Y054647D01*
X002303Y054640D01*
X002325Y054630D01*
X002345Y054616D01*
X002362Y054599D01*
X002377Y054580D01*
X002388Y054559D01*
X002396Y054536D01*
X002400Y054512D01*
X002400Y054488D01*
X002396Y054464D01*
X002388Y054441D01*
X002377Y054420D01*
X002362Y054401D01*
X002345Y054384D01*
X002325Y054370D01*
X002303Y054360D01*
X002280Y054353D01*
X002256Y054350D01*
X002232Y054351D01*
X002208Y054356D01*
X002186Y054364D01*
X002165Y054377D01*
X002146Y054392D01*
X002130Y054410D01*
X002117Y054430D01*
X002108Y054452D01*
X002102Y054476D01*
X002100Y054500D01*
X002100Y062000D02*
X002102Y062024D01*
X002108Y062048D01*
X002117Y062070D01*
X002130Y062090D01*
X002146Y062108D01*
X002165Y062123D01*
X002186Y062136D01*
X002208Y062144D01*
X002232Y062149D01*
X002256Y062150D01*
X002280Y062147D01*
X002303Y062140D01*
X002325Y062130D01*
X002345Y062116D01*
X002362Y062099D01*
X002377Y062080D01*
X002388Y062059D01*
X002396Y062036D01*
X002400Y062012D01*
X002400Y061988D01*
X002396Y061964D01*
X002388Y061941D01*
X002377Y061920D01*
X002362Y061901D01*
X002345Y061884D01*
X002325Y061870D01*
X002303Y061860D01*
X002280Y061853D01*
X002256Y061850D01*
X002232Y061851D01*
X002208Y061856D01*
X002186Y061864D01*
X002165Y061877D01*
X002146Y061892D01*
X002130Y061910D01*
X002117Y061930D01*
X002108Y061952D01*
X002102Y061976D01*
X002100Y062000D01*
X002100Y069500D02*
X002102Y069524D01*
X002108Y069548D01*
X002117Y069570D01*
X002130Y069590D01*
X002146Y069608D01*
X002165Y069623D01*
X002186Y069636D01*
X002208Y069644D01*
X002232Y069649D01*
X002256Y069650D01*
X002280Y069647D01*
X002303Y069640D01*
X002325Y069630D01*
X002345Y069616D01*
X002362Y069599D01*
X002377Y069580D01*
X002388Y069559D01*
X002396Y069536D01*
X002400Y069512D01*
X002400Y069488D01*
X002396Y069464D01*
X002388Y069441D01*
X002377Y069420D01*
X002362Y069401D01*
X002345Y069384D01*
X002325Y069370D01*
X002303Y069360D01*
X002280Y069353D01*
X002256Y069350D01*
X002232Y069351D01*
X002208Y069356D01*
X002186Y069364D01*
X002165Y069377D01*
X002146Y069392D01*
X002130Y069410D01*
X002117Y069430D01*
X002108Y069452D01*
X002102Y069476D01*
X002100Y069500D01*
X009600Y069500D02*
X009602Y069524D01*
X009608Y069548D01*
X009617Y069570D01*
X009630Y069590D01*
X009646Y069608D01*
X009665Y069623D01*
X009686Y069636D01*
X009708Y069644D01*
X009732Y069649D01*
X009756Y069650D01*
X009780Y069647D01*
X009803Y069640D01*
X009825Y069630D01*
X009845Y069616D01*
X009862Y069599D01*
X009877Y069580D01*
X009888Y069559D01*
X009896Y069536D01*
X009900Y069512D01*
X009900Y069488D01*
X009896Y069464D01*
X009888Y069441D01*
X009877Y069420D01*
X009862Y069401D01*
X009845Y069384D01*
X009825Y069370D01*
X009803Y069360D01*
X009780Y069353D01*
X009756Y069350D01*
X009732Y069351D01*
X009708Y069356D01*
X009686Y069364D01*
X009665Y069377D01*
X009646Y069392D01*
X009630Y069410D01*
X009617Y069430D01*
X009608Y069452D01*
X009602Y069476D01*
X009600Y069500D01*
X009600Y062000D02*
X009602Y062024D01*
X009608Y062048D01*
X009617Y062070D01*
X009630Y062090D01*
X009646Y062108D01*
X009665Y062123D01*
X009686Y062136D01*
X009708Y062144D01*
X009732Y062149D01*
X009756Y062150D01*
X009780Y062147D01*
X009803Y062140D01*
X009825Y062130D01*
X009845Y062116D01*
X009862Y062099D01*
X009877Y062080D01*
X009888Y062059D01*
X009896Y062036D01*
X009900Y062012D01*
X009900Y061988D01*
X009896Y061964D01*
X009888Y061941D01*
X009877Y061920D01*
X009862Y061901D01*
X009845Y061884D01*
X009825Y061870D01*
X009803Y061860D01*
X009780Y061853D01*
X009756Y061850D01*
X009732Y061851D01*
X009708Y061856D01*
X009686Y061864D01*
X009665Y061877D01*
X009646Y061892D01*
X009630Y061910D01*
X009617Y061930D01*
X009608Y061952D01*
X009602Y061976D01*
X009600Y062000D01*
X009600Y054500D02*
X009602Y054524D01*
X009608Y054548D01*
X009617Y054570D01*
X009630Y054590D01*
X009646Y054608D01*
X009665Y054623D01*
X009686Y054636D01*
X009708Y054644D01*
X009732Y054649D01*
X009756Y054650D01*
X009780Y054647D01*
X009803Y054640D01*
X009825Y054630D01*
X009845Y054616D01*
X009862Y054599D01*
X009877Y054580D01*
X009888Y054559D01*
X009896Y054536D01*
X009900Y054512D01*
X009900Y054488D01*
X009896Y054464D01*
X009888Y054441D01*
X009877Y054420D01*
X009862Y054401D01*
X009845Y054384D01*
X009825Y054370D01*
X009803Y054360D01*
X009780Y054353D01*
X009756Y054350D01*
X009732Y054351D01*
X009708Y054356D01*
X009686Y054364D01*
X009665Y054377D01*
X009646Y054392D01*
X009630Y054410D01*
X009617Y054430D01*
X009608Y054452D01*
X009602Y054476D01*
X009600Y054500D01*
X009600Y047000D02*
X009602Y047024D01*
X009608Y047048D01*
X009617Y047070D01*
X009630Y047090D01*
X009646Y047108D01*
X009665Y047123D01*
X009686Y047136D01*
X009708Y047144D01*
X009732Y047149D01*
X009756Y047150D01*
X009780Y047147D01*
X009803Y047140D01*
X009825Y047130D01*
X009845Y047116D01*
X009862Y047099D01*
X009877Y047080D01*
X009888Y047059D01*
X009896Y047036D01*
X009900Y047012D01*
X009900Y046988D01*
X009896Y046964D01*
X009888Y046941D01*
X009877Y046920D01*
X009862Y046901D01*
X009845Y046884D01*
X009825Y046870D01*
X009803Y046860D01*
X009780Y046853D01*
X009756Y046850D01*
X009732Y046851D01*
X009708Y046856D01*
X009686Y046864D01*
X009665Y046877D01*
X009646Y046892D01*
X009630Y046910D01*
X009617Y046930D01*
X009608Y046952D01*
X009602Y046976D01*
X009600Y047000D01*
X017100Y047000D02*
X017102Y047024D01*
X017108Y047048D01*
X017117Y047070D01*
X017130Y047090D01*
X017146Y047108D01*
X017165Y047123D01*
X017186Y047136D01*
X017208Y047144D01*
X017232Y047149D01*
X017256Y047150D01*
X017280Y047147D01*
X017303Y047140D01*
X017325Y047130D01*
X017345Y047116D01*
X017362Y047099D01*
X017377Y047080D01*
X017388Y047059D01*
X017396Y047036D01*
X017400Y047012D01*
X017400Y046988D01*
X017396Y046964D01*
X017388Y046941D01*
X017377Y046920D01*
X017362Y046901D01*
X017345Y046884D01*
X017325Y046870D01*
X017303Y046860D01*
X017280Y046853D01*
X017256Y046850D01*
X017232Y046851D01*
X017208Y046856D01*
X017186Y046864D01*
X017165Y046877D01*
X017146Y046892D01*
X017130Y046910D01*
X017117Y046930D01*
X017108Y046952D01*
X017102Y046976D01*
X017100Y047000D01*
X017100Y054500D02*
X017102Y054524D01*
X017108Y054548D01*
X017117Y054570D01*
X017130Y054590D01*
X017146Y054608D01*
X017165Y054623D01*
X017186Y054636D01*
X017208Y054644D01*
X017232Y054649D01*
X017256Y054650D01*
X017280Y054647D01*
X017303Y054640D01*
X017325Y054630D01*
X017345Y054616D01*
X017362Y054599D01*
X017377Y054580D01*
X017388Y054559D01*
X017396Y054536D01*
X017400Y054512D01*
X017400Y054488D01*
X017396Y054464D01*
X017388Y054441D01*
X017377Y054420D01*
X017362Y054401D01*
X017345Y054384D01*
X017325Y054370D01*
X017303Y054360D01*
X017280Y054353D01*
X017256Y054350D01*
X017232Y054351D01*
X017208Y054356D01*
X017186Y054364D01*
X017165Y054377D01*
X017146Y054392D01*
X017130Y054410D01*
X017117Y054430D01*
X017108Y054452D01*
X017102Y054476D01*
X017100Y054500D01*
X017100Y062000D02*
X017102Y062024D01*
X017108Y062048D01*
X017117Y062070D01*
X017130Y062090D01*
X017146Y062108D01*
X017165Y062123D01*
X017186Y062136D01*
X017208Y062144D01*
X017232Y062149D01*
X017256Y062150D01*
X017280Y062147D01*
X017303Y062140D01*
X017325Y062130D01*
X017345Y062116D01*
X017362Y062099D01*
X017377Y062080D01*
X017388Y062059D01*
X017396Y062036D01*
X017400Y062012D01*
X017400Y061988D01*
X017396Y061964D01*
X017388Y061941D01*
X017377Y061920D01*
X017362Y061901D01*
X017345Y061884D01*
X017325Y061870D01*
X017303Y061860D01*
X017280Y061853D01*
X017256Y061850D01*
X017232Y061851D01*
X017208Y061856D01*
X017186Y061864D01*
X017165Y061877D01*
X017146Y061892D01*
X017130Y061910D01*
X017117Y061930D01*
X017108Y061952D01*
X017102Y061976D01*
X017100Y062000D01*
X017100Y069500D02*
X017102Y069524D01*
X017108Y069548D01*
X017117Y069570D01*
X017130Y069590D01*
X017146Y069608D01*
X017165Y069623D01*
X017186Y069636D01*
X017208Y069644D01*
X017232Y069649D01*
X017256Y069650D01*
X017280Y069647D01*
X017303Y069640D01*
X017325Y069630D01*
X017345Y069616D01*
X017362Y069599D01*
X017377Y069580D01*
X017388Y069559D01*
X017396Y069536D01*
X017400Y069512D01*
X017400Y069488D01*
X017396Y069464D01*
X017388Y069441D01*
X017377Y069420D01*
X017362Y069401D01*
X017345Y069384D01*
X017325Y069370D01*
X017303Y069360D01*
X017280Y069353D01*
X017256Y069350D01*
X017232Y069351D01*
X017208Y069356D01*
X017186Y069364D01*
X017165Y069377D01*
X017146Y069392D01*
X017130Y069410D01*
X017117Y069430D01*
X017108Y069452D01*
X017102Y069476D01*
X017100Y069500D01*
X024600Y069500D02*
X024602Y069524D01*
X024608Y069548D01*
X024617Y069570D01*
X024630Y069590D01*
X024646Y069608D01*
X024665Y069623D01*
X024686Y069636D01*
X024708Y069644D01*
X024732Y069649D01*
X024756Y069650D01*
X024780Y069647D01*
X024803Y069640D01*
X024825Y069630D01*
X024845Y069616D01*
X024862Y069599D01*
X024877Y069580D01*
X024888Y069559D01*
X024896Y069536D01*
X024900Y069512D01*
X024900Y069488D01*
X024896Y069464D01*
X024888Y069441D01*
X024877Y069420D01*
X024862Y069401D01*
X024845Y069384D01*
X024825Y069370D01*
X024803Y069360D01*
X024780Y069353D01*
X024756Y069350D01*
X024732Y069351D01*
X024708Y069356D01*
X024686Y069364D01*
X024665Y069377D01*
X024646Y069392D01*
X024630Y069410D01*
X024617Y069430D01*
X024608Y069452D01*
X024602Y069476D01*
X024600Y069500D01*
X024600Y062000D02*
X024602Y062024D01*
X024608Y062048D01*
X024617Y062070D01*
X024630Y062090D01*
X024646Y062108D01*
X024665Y062123D01*
X024686Y062136D01*
X024708Y062144D01*
X024732Y062149D01*
X024756Y062150D01*
X024780Y062147D01*
X024803Y062140D01*
X024825Y062130D01*
X024845Y062116D01*
X024862Y062099D01*
X024877Y062080D01*
X024888Y062059D01*
X024896Y062036D01*
X024900Y062012D01*
X024900Y061988D01*
X024896Y061964D01*
X024888Y061941D01*
X024877Y061920D01*
X024862Y061901D01*
X024845Y061884D01*
X024825Y061870D01*
X024803Y061860D01*
X024780Y061853D01*
X024756Y061850D01*
X024732Y061851D01*
X024708Y061856D01*
X024686Y061864D01*
X024665Y061877D01*
X024646Y061892D01*
X024630Y061910D01*
X024617Y061930D01*
X024608Y061952D01*
X024602Y061976D01*
X024600Y062000D01*
X024600Y054500D02*
X024602Y054524D01*
X024608Y054548D01*
X024617Y054570D01*
X024630Y054590D01*
X024646Y054608D01*
X024665Y054623D01*
X024686Y054636D01*
X024708Y054644D01*
X024732Y054649D01*
X024756Y054650D01*
X024780Y054647D01*
X024803Y054640D01*
X024825Y054630D01*
X024845Y054616D01*
X024862Y054599D01*
X024877Y054580D01*
X024888Y054559D01*
X024896Y054536D01*
X024900Y054512D01*
X024900Y054488D01*
X024896Y054464D01*
X024888Y054441D01*
X024877Y054420D01*
X024862Y054401D01*
X024845Y054384D01*
X024825Y054370D01*
X024803Y054360D01*
X024780Y054353D01*
X024756Y054350D01*
X024732Y054351D01*
X024708Y054356D01*
X024686Y054364D01*
X024665Y054377D01*
X024646Y054392D01*
X024630Y054410D01*
X024617Y054430D01*
X024608Y054452D01*
X024602Y054476D01*
X024600Y054500D01*
X024600Y047000D02*
X024602Y047024D01*
X024608Y047048D01*
X024617Y047070D01*
X024630Y047090D01*
X024646Y047108D01*
X024665Y047123D01*
X024686Y047136D01*
X024708Y047144D01*
X024732Y047149D01*
X024756Y047150D01*
X024780Y047147D01*
X024803Y047140D01*
X024825Y047130D01*
X024845Y047116D01*
X024862Y047099D01*
X024877Y047080D01*
X024888Y047059D01*
X024896Y047036D01*
X024900Y047012D01*
X024900Y046988D01*
X024896Y046964D01*
X024888Y046941D01*
X024877Y046920D01*
X024862Y046901D01*
X024845Y046884D01*
X024825Y046870D01*
X024803Y046860D01*
X024780Y046853D01*
X024756Y046850D01*
X024732Y046851D01*
X024708Y046856D01*
X024686Y046864D01*
X024665Y046877D01*
X024646Y046892D01*
X024630Y046910D01*
X024617Y046930D01*
X024608Y046952D01*
X024602Y046976D01*
X024600Y047000D01*
X032100Y047000D02*
X032102Y047024D01*
X032108Y047048D01*
X032117Y047070D01*
X032130Y047090D01*
X032146Y047108D01*
X032165Y047123D01*
X032186Y047136D01*
X032208Y047144D01*
X032232Y047149D01*
X032256Y047150D01*
X032280Y047147D01*
X032303Y047140D01*
X032325Y047130D01*
X032345Y047116D01*
X032362Y047099D01*
X032377Y047080D01*
X032388Y047059D01*
X032396Y047036D01*
X032400Y047012D01*
X032400Y046988D01*
X032396Y046964D01*
X032388Y046941D01*
X032377Y046920D01*
X032362Y046901D01*
X032345Y046884D01*
X032325Y046870D01*
X032303Y046860D01*
X032280Y046853D01*
X032256Y046850D01*
X032232Y046851D01*
X032208Y046856D01*
X032186Y046864D01*
X032165Y046877D01*
X032146Y046892D01*
X032130Y046910D01*
X032117Y046930D01*
X032108Y046952D01*
X032102Y046976D01*
X032100Y047000D01*
X032100Y054500D02*
X032102Y054524D01*
X032108Y054548D01*
X032117Y054570D01*
X032130Y054590D01*
X032146Y054608D01*
X032165Y054623D01*
X032186Y054636D01*
X032208Y054644D01*
X032232Y054649D01*
X032256Y054650D01*
X032280Y054647D01*
X032303Y054640D01*
X032325Y054630D01*
X032345Y054616D01*
X032362Y054599D01*
X032377Y054580D01*
X032388Y054559D01*
X032396Y054536D01*
X032400Y054512D01*
X032400Y054488D01*
X032396Y054464D01*
X032388Y054441D01*
X032377Y054420D01*
X032362Y054401D01*
X032345Y054384D01*
X032325Y054370D01*
X032303Y054360D01*
X032280Y054353D01*
X032256Y054350D01*
X032232Y054351D01*
X032208Y054356D01*
X032186Y054364D01*
X032165Y054377D01*
X032146Y054392D01*
X032130Y054410D01*
X032117Y054430D01*
X032108Y054452D01*
X032102Y054476D01*
X032100Y054500D01*
X032100Y062000D02*
X032102Y062024D01*
X032108Y062048D01*
X032117Y062070D01*
X032130Y062090D01*
X032146Y062108D01*
X032165Y062123D01*
X032186Y062136D01*
X032208Y062144D01*
X032232Y062149D01*
X032256Y062150D01*
X032280Y062147D01*
X032303Y062140D01*
X032325Y062130D01*
X032345Y062116D01*
X032362Y062099D01*
X032377Y062080D01*
X032388Y062059D01*
X032396Y062036D01*
X032400Y062012D01*
X032400Y061988D01*
X032396Y061964D01*
X032388Y061941D01*
X032377Y061920D01*
X032362Y061901D01*
X032345Y061884D01*
X032325Y061870D01*
X032303Y061860D01*
X032280Y061853D01*
X032256Y061850D01*
X032232Y061851D01*
X032208Y061856D01*
X032186Y061864D01*
X032165Y061877D01*
X032146Y061892D01*
X032130Y061910D01*
X032117Y061930D01*
X032108Y061952D01*
X032102Y061976D01*
X032100Y062000D01*
X032100Y069500D02*
X032102Y069524D01*
X032108Y069548D01*
X032117Y069570D01*
X032130Y069590D01*
X032146Y069608D01*
X032165Y069623D01*
X032186Y069636D01*
X032208Y069644D01*
X032232Y069649D01*
X032256Y069650D01*
X032280Y069647D01*
X032303Y069640D01*
X032325Y069630D01*
X032345Y069616D01*
X032362Y069599D01*
X032377Y069580D01*
X032388Y069559D01*
X032396Y069536D01*
X032400Y069512D01*
X032400Y069488D01*
X032396Y069464D01*
X032388Y069441D01*
X032377Y069420D01*
X032362Y069401D01*
X032345Y069384D01*
X032325Y069370D01*
X032303Y069360D01*
X032280Y069353D01*
X032256Y069350D01*
X032232Y069351D01*
X032208Y069356D01*
X032186Y069364D01*
X032165Y069377D01*
X032146Y069392D01*
X032130Y069410D01*
X032117Y069430D01*
X032108Y069452D01*
X032102Y069476D01*
X032100Y069500D01*
X039600Y069500D02*
X039602Y069524D01*
X039608Y069548D01*
X039617Y069570D01*
X039630Y069590D01*
X039646Y069608D01*
X039665Y069623D01*
X039686Y069636D01*
X039708Y069644D01*
X039732Y069649D01*
X039756Y069650D01*
X039780Y069647D01*
X039803Y069640D01*
X039825Y069630D01*
X039845Y069616D01*
X039862Y069599D01*
X039877Y069580D01*
X039888Y069559D01*
X039896Y069536D01*
X039900Y069512D01*
X039900Y069488D01*
X039896Y069464D01*
X039888Y069441D01*
X039877Y069420D01*
X039862Y069401D01*
X039845Y069384D01*
X039825Y069370D01*
X039803Y069360D01*
X039780Y069353D01*
X039756Y069350D01*
X039732Y069351D01*
X039708Y069356D01*
X039686Y069364D01*
X039665Y069377D01*
X039646Y069392D01*
X039630Y069410D01*
X039617Y069430D01*
X039608Y069452D01*
X039602Y069476D01*
X039600Y069500D01*
X039600Y062000D02*
X039602Y062024D01*
X039608Y062048D01*
X039617Y062070D01*
X039630Y062090D01*
X039646Y062108D01*
X039665Y062123D01*
X039686Y062136D01*
X039708Y062144D01*
X039732Y062149D01*
X039756Y062150D01*
X039780Y062147D01*
X039803Y062140D01*
X039825Y062130D01*
X039845Y062116D01*
X039862Y062099D01*
X039877Y062080D01*
X039888Y062059D01*
X039896Y062036D01*
X039900Y062012D01*
X039900Y061988D01*
X039896Y061964D01*
X039888Y061941D01*
X039877Y061920D01*
X039862Y061901D01*
X039845Y061884D01*
X039825Y061870D01*
X039803Y061860D01*
X039780Y061853D01*
X039756Y061850D01*
X039732Y061851D01*
X039708Y061856D01*
X039686Y061864D01*
X039665Y061877D01*
X039646Y061892D01*
X039630Y061910D01*
X039617Y061930D01*
X039608Y061952D01*
X039602Y061976D01*
X039600Y062000D01*
X039600Y054500D02*
X039602Y054524D01*
X039608Y054548D01*
X039617Y054570D01*
X039630Y054590D01*
X039646Y054608D01*
X039665Y054623D01*
X039686Y054636D01*
X039708Y054644D01*
X039732Y054649D01*
X039756Y054650D01*
X039780Y054647D01*
X039803Y054640D01*
X039825Y054630D01*
X039845Y054616D01*
X039862Y054599D01*
X039877Y054580D01*
X039888Y054559D01*
X039896Y054536D01*
X039900Y054512D01*
X039900Y054488D01*
X039896Y054464D01*
X039888Y054441D01*
X039877Y054420D01*
X039862Y054401D01*
X039845Y054384D01*
X039825Y054370D01*
X039803Y054360D01*
X039780Y054353D01*
X039756Y054350D01*
X039732Y054351D01*
X039708Y054356D01*
X039686Y054364D01*
X039665Y054377D01*
X039646Y054392D01*
X039630Y054410D01*
X039617Y054430D01*
X039608Y054452D01*
X039602Y054476D01*
X039600Y054500D01*
X039600Y047000D02*
X039602Y047024D01*
X039608Y047048D01*
X039617Y047070D01*
X039630Y047090D01*
X039646Y047108D01*
X039665Y047123D01*
X039686Y047136D01*
X039708Y047144D01*
X039732Y047149D01*
X039756Y047150D01*
X039780Y047147D01*
X039803Y047140D01*
X039825Y047130D01*
X039845Y047116D01*
X039862Y047099D01*
X039877Y047080D01*
X039888Y047059D01*
X039896Y047036D01*
X039900Y047012D01*
X039900Y046988D01*
X039896Y046964D01*
X039888Y046941D01*
X039877Y046920D01*
X039862Y046901D01*
X039845Y046884D01*
X039825Y046870D01*
X039803Y046860D01*
X039780Y046853D01*
X039756Y046850D01*
X039732Y046851D01*
X039708Y046856D01*
X039686Y046864D01*
X039665Y046877D01*
X039646Y046892D01*
X039630Y046910D01*
X039617Y046930D01*
X039608Y046952D01*
X039602Y046976D01*
X039600Y047000D01*
X047100Y047000D02*
X047102Y047024D01*
X047108Y047048D01*
X047117Y047070D01*
X047130Y047090D01*
X047146Y047108D01*
X047165Y047123D01*
X047186Y047136D01*
X047208Y047144D01*
X047232Y047149D01*
X047256Y047150D01*
X047280Y047147D01*
X047303Y047140D01*
X047325Y047130D01*
X047345Y047116D01*
X047362Y047099D01*
X047377Y047080D01*
X047388Y047059D01*
X047396Y047036D01*
X047400Y047012D01*
X047400Y046988D01*
X047396Y046964D01*
X047388Y046941D01*
X047377Y046920D01*
X047362Y046901D01*
X047345Y046884D01*
X047325Y046870D01*
X047303Y046860D01*
X047280Y046853D01*
X047256Y046850D01*
X047232Y046851D01*
X047208Y046856D01*
X047186Y046864D01*
X047165Y046877D01*
X047146Y046892D01*
X047130Y046910D01*
X047117Y046930D01*
X047108Y046952D01*
X047102Y046976D01*
X047100Y047000D01*
X047100Y054500D02*
X047102Y054524D01*
X047108Y054548D01*
X047117Y054570D01*
X047130Y054590D01*
X047146Y054608D01*
X047165Y054623D01*
X047186Y054636D01*
X047208Y054644D01*
X047232Y054649D01*
X047256Y054650D01*
X047280Y054647D01*
X047303Y054640D01*
X047325Y054630D01*
X047345Y054616D01*
X047362Y054599D01*
X047377Y054580D01*
X047388Y054559D01*
X047396Y054536D01*
X047400Y054512D01*
X047400Y054488D01*
X047396Y054464D01*
X047388Y054441D01*
X047377Y054420D01*
X047362Y054401D01*
X047345Y054384D01*
X047325Y054370D01*
X047303Y054360D01*
X047280Y054353D01*
X047256Y054350D01*
X047232Y054351D01*
X047208Y054356D01*
X047186Y054364D01*
X047165Y054377D01*
X047146Y054392D01*
X047130Y054410D01*
X047117Y054430D01*
X047108Y054452D01*
X047102Y054476D01*
X047100Y054500D01*
X047100Y062000D02*
X047102Y062024D01*
X047108Y062048D01*
X047117Y062070D01*
X047130Y062090D01*
X047146Y062108D01*
X047165Y062123D01*
X047186Y062136D01*
X047208Y062144D01*
X047232Y062149D01*
X047256Y062150D01*
X047280Y062147D01*
X047303Y062140D01*
X047325Y062130D01*
X047345Y062116D01*
X047362Y062099D01*
X047377Y062080D01*
X047388Y062059D01*
X047396Y062036D01*
X047400Y062012D01*
X047400Y061988D01*
X047396Y061964D01*
X047388Y061941D01*
X047377Y061920D01*
X047362Y061901D01*
X047345Y061884D01*
X047325Y061870D01*
X047303Y061860D01*
X047280Y061853D01*
X047256Y061850D01*
X047232Y061851D01*
X047208Y061856D01*
X047186Y061864D01*
X047165Y061877D01*
X047146Y061892D01*
X047130Y061910D01*
X047117Y061930D01*
X047108Y061952D01*
X047102Y061976D01*
X047100Y062000D01*
X047100Y069500D02*
X047102Y069524D01*
X047108Y069548D01*
X047117Y069570D01*
X047130Y069590D01*
X047146Y069608D01*
X047165Y069623D01*
X047186Y069636D01*
X047208Y069644D01*
X047232Y069649D01*
X047256Y069650D01*
X047280Y069647D01*
X047303Y069640D01*
X047325Y069630D01*
X047345Y069616D01*
X047362Y069599D01*
X047377Y069580D01*
X047388Y069559D01*
X047396Y069536D01*
X047400Y069512D01*
X047400Y069488D01*
X047396Y069464D01*
X047388Y069441D01*
X047377Y069420D01*
X047362Y069401D01*
X047345Y069384D01*
X047325Y069370D01*
X047303Y069360D01*
X047280Y069353D01*
X047256Y069350D01*
X047232Y069351D01*
X047208Y069356D01*
X047186Y069364D01*
X047165Y069377D01*
X047146Y069392D01*
X047130Y069410D01*
X047117Y069430D01*
X047108Y069452D01*
X047102Y069476D01*
X047100Y069500D01*
X054600Y069500D02*
X054602Y069524D01*
X054608Y069548D01*
X054617Y069570D01*
X054630Y069590D01*
X054646Y069608D01*
X054665Y069623D01*
X054686Y069636D01*
X054708Y069644D01*
X054732Y069649D01*
X054756Y069650D01*
X054780Y069647D01*
X054803Y069640D01*
X054825Y069630D01*
X054845Y069616D01*
X054862Y069599D01*
X054877Y069580D01*
X054888Y069559D01*
X054896Y069536D01*
X054900Y069512D01*
X054900Y069488D01*
X054896Y069464D01*
X054888Y069441D01*
X054877Y069420D01*
X054862Y069401D01*
X054845Y069384D01*
X054825Y069370D01*
X054803Y069360D01*
X054780Y069353D01*
X054756Y069350D01*
X054732Y069351D01*
X054708Y069356D01*
X054686Y069364D01*
X054665Y069377D01*
X054646Y069392D01*
X054630Y069410D01*
X054617Y069430D01*
X054608Y069452D01*
X054602Y069476D01*
X054600Y069500D01*
X054600Y062000D02*
X054602Y062024D01*
X054608Y062048D01*
X054617Y062070D01*
X054630Y062090D01*
X054646Y062108D01*
X054665Y062123D01*
X054686Y062136D01*
X054708Y062144D01*
X054732Y062149D01*
X054756Y062150D01*
X054780Y062147D01*
X054803Y062140D01*
X054825Y062130D01*
X054845Y062116D01*
X054862Y062099D01*
X054877Y062080D01*
X054888Y062059D01*
X054896Y062036D01*
X054900Y062012D01*
X054900Y061988D01*
X054896Y061964D01*
X054888Y061941D01*
X054877Y061920D01*
X054862Y061901D01*
X054845Y061884D01*
X054825Y061870D01*
X054803Y061860D01*
X054780Y061853D01*
X054756Y061850D01*
X054732Y061851D01*
X054708Y061856D01*
X054686Y061864D01*
X054665Y061877D01*
X054646Y061892D01*
X054630Y061910D01*
X054617Y061930D01*
X054608Y061952D01*
X054602Y061976D01*
X054600Y062000D01*
X054600Y054500D02*
X054602Y054524D01*
X054608Y054548D01*
X054617Y054570D01*
X054630Y054590D01*
X054646Y054608D01*
X054665Y054623D01*
X054686Y054636D01*
X054708Y054644D01*
X054732Y054649D01*
X054756Y054650D01*
X054780Y054647D01*
X054803Y054640D01*
X054825Y054630D01*
X054845Y054616D01*
X054862Y054599D01*
X054877Y054580D01*
X054888Y054559D01*
X054896Y054536D01*
X054900Y054512D01*
X054900Y054488D01*
X054896Y054464D01*
X054888Y054441D01*
X054877Y054420D01*
X054862Y054401D01*
X054845Y054384D01*
X054825Y054370D01*
X054803Y054360D01*
X054780Y054353D01*
X054756Y054350D01*
X054732Y054351D01*
X054708Y054356D01*
X054686Y054364D01*
X054665Y054377D01*
X054646Y054392D01*
X054630Y054410D01*
X054617Y054430D01*
X054608Y054452D01*
X054602Y054476D01*
X054600Y054500D01*
X054600Y047000D02*
X054602Y047024D01*
X054608Y047048D01*
X054617Y047070D01*
X054630Y047090D01*
X054646Y047108D01*
X054665Y047123D01*
X054686Y047136D01*
X054708Y047144D01*
X054732Y047149D01*
X054756Y047150D01*
X054780Y047147D01*
X054803Y047140D01*
X054825Y047130D01*
X054845Y047116D01*
X054862Y047099D01*
X054877Y047080D01*
X054888Y047059D01*
X054896Y047036D01*
X054900Y047012D01*
X054900Y046988D01*
X054896Y046964D01*
X054888Y046941D01*
X054877Y046920D01*
X054862Y046901D01*
X054845Y046884D01*
X054825Y046870D01*
X054803Y046860D01*
X054780Y046853D01*
X054756Y046850D01*
X054732Y046851D01*
X054708Y046856D01*
X054686Y046864D01*
X054665Y046877D01*
X054646Y046892D01*
X054630Y046910D01*
X054617Y046930D01*
X054608Y046952D01*
X054602Y046976D01*
X054600Y047000D01*
X062100Y047000D02*
X062102Y047024D01*
X062108Y047048D01*
X062117Y047070D01*
X062130Y047090D01*
X062146Y047108D01*
X062165Y047123D01*
X062186Y047136D01*
X062208Y047144D01*
X062232Y047149D01*
X062256Y047150D01*
X062280Y047147D01*
X062303Y047140D01*
X062325Y047130D01*
X062345Y047116D01*
X062362Y047099D01*
X062377Y047080D01*
X062388Y047059D01*
X062396Y047036D01*
X062400Y047012D01*
X062400Y046988D01*
X062396Y046964D01*
X062388Y046941D01*
X062377Y046920D01*
X062362Y046901D01*
X062345Y046884D01*
X062325Y046870D01*
X062303Y046860D01*
X062280Y046853D01*
X062256Y046850D01*
X062232Y046851D01*
X062208Y046856D01*
X062186Y046864D01*
X062165Y046877D01*
X062146Y046892D01*
X062130Y046910D01*
X062117Y046930D01*
X062108Y046952D01*
X062102Y046976D01*
X062100Y047000D01*
X062100Y054500D02*
X062102Y054524D01*
X062108Y054548D01*
X062117Y054570D01*
X062130Y054590D01*
X062146Y054608D01*
X062165Y054623D01*
X062186Y054636D01*
X062208Y054644D01*
X062232Y054649D01*
X062256Y054650D01*
X062280Y054647D01*
X062303Y054640D01*
X062325Y054630D01*
X062345Y054616D01*
X062362Y054599D01*
X062377Y054580D01*
X062388Y054559D01*
X062396Y054536D01*
X062400Y054512D01*
X062400Y054488D01*
X062396Y054464D01*
X062388Y054441D01*
X062377Y054420D01*
X062362Y054401D01*
X062345Y054384D01*
X062325Y054370D01*
X062303Y054360D01*
X062280Y054353D01*
X062256Y054350D01*
X062232Y054351D01*
X062208Y054356D01*
X062186Y054364D01*
X062165Y054377D01*
X062146Y054392D01*
X062130Y054410D01*
X062117Y054430D01*
X062108Y054452D01*
X062102Y054476D01*
X062100Y054500D01*
X062100Y062000D02*
X062102Y062024D01*
X062108Y062048D01*
X062117Y062070D01*
X062130Y062090D01*
X062146Y062108D01*
X062165Y062123D01*
X062186Y062136D01*
X062208Y062144D01*
X062232Y062149D01*
X062256Y062150D01*
X062280Y062147D01*
X062303Y062140D01*
X062325Y062130D01*
X062345Y062116D01*
X062362Y062099D01*
X062377Y062080D01*
X062388Y062059D01*
X062396Y062036D01*
X062400Y062012D01*
X062400Y061988D01*
X062396Y061964D01*
X062388Y061941D01*
X062377Y061920D01*
X062362Y061901D01*
X062345Y061884D01*
X062325Y061870D01*
X062303Y061860D01*
X062280Y061853D01*
X062256Y061850D01*
X062232Y061851D01*
X062208Y061856D01*
X062186Y061864D01*
X062165Y061877D01*
X062146Y061892D01*
X062130Y061910D01*
X062117Y061930D01*
X062108Y061952D01*
X062102Y061976D01*
X062100Y062000D01*
X062100Y069500D02*
X062102Y069524D01*
X062108Y069548D01*
X062117Y069570D01*
X062130Y069590D01*
X062146Y069608D01*
X062165Y069623D01*
X062186Y069636D01*
X062208Y069644D01*
X062232Y069649D01*
X062256Y069650D01*
X062280Y069647D01*
X062303Y069640D01*
X062325Y069630D01*
X062345Y069616D01*
X062362Y069599D01*
X062377Y069580D01*
X062388Y069559D01*
X062396Y069536D01*
X062400Y069512D01*
X062400Y069488D01*
X062396Y069464D01*
X062388Y069441D01*
X062377Y069420D01*
X062362Y069401D01*
X062345Y069384D01*
X062325Y069370D01*
X062303Y069360D01*
X062280Y069353D01*
X062256Y069350D01*
X062232Y069351D01*
X062208Y069356D01*
X062186Y069364D01*
X062165Y069377D01*
X062146Y069392D01*
X062130Y069410D01*
X062117Y069430D01*
X062108Y069452D01*
X062102Y069476D01*
X062100Y069500D01*
X069600Y069500D02*
X069602Y069524D01*
X069608Y069548D01*
X069617Y069570D01*
X069630Y069590D01*
X069646Y069608D01*
X069665Y069623D01*
X069686Y069636D01*
X069708Y069644D01*
X069732Y069649D01*
X069756Y069650D01*
X069780Y069647D01*
X069803Y069640D01*
X069825Y069630D01*
X069845Y069616D01*
X069862Y069599D01*
X069877Y069580D01*
X069888Y069559D01*
X069896Y069536D01*
X069900Y069512D01*
X069900Y069488D01*
X069896Y069464D01*
X069888Y069441D01*
X069877Y069420D01*
X069862Y069401D01*
X069845Y069384D01*
X069825Y069370D01*
X069803Y069360D01*
X069780Y069353D01*
X069756Y069350D01*
X069732Y069351D01*
X069708Y069356D01*
X069686Y069364D01*
X069665Y069377D01*
X069646Y069392D01*
X069630Y069410D01*
X069617Y069430D01*
X069608Y069452D01*
X069602Y069476D01*
X069600Y069500D01*
X069600Y062000D02*
X069602Y062024D01*
X069608Y062048D01*
X069617Y062070D01*
X069630Y062090D01*
X069646Y062108D01*
X069665Y062123D01*
X069686Y062136D01*
X069708Y062144D01*
X069732Y062149D01*
X069756Y062150D01*
X069780Y062147D01*
X069803Y062140D01*
X069825Y062130D01*
X069845Y062116D01*
X069862Y062099D01*
X069877Y062080D01*
X069888Y062059D01*
X069896Y062036D01*
X069900Y062012D01*
X069900Y061988D01*
X069896Y061964D01*
X069888Y061941D01*
X069877Y061920D01*
X069862Y061901D01*
X069845Y061884D01*
X069825Y061870D01*
X069803Y061860D01*
X069780Y061853D01*
X069756Y061850D01*
X069732Y061851D01*
X069708Y061856D01*
X069686Y061864D01*
X069665Y061877D01*
X069646Y061892D01*
X069630Y061910D01*
X069617Y061930D01*
X069608Y061952D01*
X069602Y061976D01*
X069600Y062000D01*
X069600Y054500D02*
X069602Y054524D01*
X069608Y054548D01*
X069617Y054570D01*
X069630Y054590D01*
X069646Y054608D01*
X069665Y054623D01*
X069686Y054636D01*
X069708Y054644D01*
X069732Y054649D01*
X069756Y054650D01*
X069780Y054647D01*
X069803Y054640D01*
X069825Y054630D01*
X069845Y054616D01*
X069862Y054599D01*
X069877Y054580D01*
X069888Y054559D01*
X069896Y054536D01*
X069900Y054512D01*
X069900Y054488D01*
X069896Y054464D01*
X069888Y054441D01*
X069877Y054420D01*
X069862Y054401D01*
X069845Y054384D01*
X069825Y054370D01*
X069803Y054360D01*
X069780Y054353D01*
X069756Y054350D01*
X069732Y054351D01*
X069708Y054356D01*
X069686Y054364D01*
X069665Y054377D01*
X069646Y054392D01*
X069630Y054410D01*
X069617Y054430D01*
X069608Y054452D01*
X069602Y054476D01*
X069600Y054500D01*
X069600Y047000D02*
X069602Y047024D01*
X069608Y047048D01*
X069617Y047070D01*
X069630Y047090D01*
X069646Y047108D01*
X069665Y047123D01*
X069686Y047136D01*
X069708Y047144D01*
X069732Y047149D01*
X069756Y047150D01*
X069780Y047147D01*
X069803Y047140D01*
X069825Y047130D01*
X069845Y047116D01*
X069862Y047099D01*
X069877Y047080D01*
X069888Y047059D01*
X069896Y047036D01*
X069900Y047012D01*
X069900Y046988D01*
X069896Y046964D01*
X069888Y046941D01*
X069877Y046920D01*
X069862Y046901D01*
X069845Y046884D01*
X069825Y046870D01*
X069803Y046860D01*
X069780Y046853D01*
X069756Y046850D01*
X069732Y046851D01*
X069708Y046856D01*
X069686Y046864D01*
X069665Y046877D01*
X069646Y046892D01*
X069630Y046910D01*
X069617Y046930D01*
X069608Y046952D01*
X069602Y046976D01*
X069600Y047000D01*
X069600Y024250D02*
X069602Y024274D01*
X069608Y024298D01*
X069617Y024320D01*
X069630Y024340D01*
X069646Y024358D01*
X069665Y024373D01*
X069686Y024386D01*
X069708Y024394D01*
X069732Y024399D01*
X069756Y024400D01*
X069780Y024397D01*
X069803Y024390D01*
X069825Y024380D01*
X069845Y024366D01*
X069862Y024349D01*
X069877Y024330D01*
X069888Y024309D01*
X069896Y024286D01*
X069900Y024262D01*
X069900Y024238D01*
X069896Y024214D01*
X069888Y024191D01*
X069877Y024170D01*
X069862Y024151D01*
X069845Y024134D01*
X069825Y024120D01*
X069803Y024110D01*
X069780Y024103D01*
X069756Y024100D01*
X069732Y024101D01*
X069708Y024106D01*
X069686Y024114D01*
X069665Y024127D01*
X069646Y024142D01*
X069630Y024160D01*
X069617Y024180D01*
X069608Y024202D01*
X069602Y024226D01*
X069600Y024250D01*
X062100Y024250D02*
X062102Y024274D01*
X062108Y024298D01*
X062117Y024320D01*
X062130Y024340D01*
X062146Y024358D01*
X062165Y024373D01*
X062186Y024386D01*
X062208Y024394D01*
X062232Y024399D01*
X062256Y024400D01*
X062280Y024397D01*
X062303Y024390D01*
X062325Y024380D01*
X062345Y024366D01*
X062362Y024349D01*
X062377Y024330D01*
X062388Y024309D01*
X062396Y024286D01*
X062400Y024262D01*
X062400Y024238D01*
X062396Y024214D01*
X062388Y024191D01*
X062377Y024170D01*
X062362Y024151D01*
X062345Y024134D01*
X062325Y024120D01*
X062303Y024110D01*
X062280Y024103D01*
X062256Y024100D01*
X062232Y024101D01*
X062208Y024106D01*
X062186Y024114D01*
X062165Y024127D01*
X062146Y024142D01*
X062130Y024160D01*
X062117Y024180D01*
X062108Y024202D01*
X062102Y024226D01*
X062100Y024250D01*
X054600Y024250D02*
X054602Y024274D01*
X054608Y024298D01*
X054617Y024320D01*
X054630Y024340D01*
X054646Y024358D01*
X054665Y024373D01*
X054686Y024386D01*
X054708Y024394D01*
X054732Y024399D01*
X054756Y024400D01*
X054780Y024397D01*
X054803Y024390D01*
X054825Y024380D01*
X054845Y024366D01*
X054862Y024349D01*
X054877Y024330D01*
X054888Y024309D01*
X054896Y024286D01*
X054900Y024262D01*
X054900Y024238D01*
X054896Y024214D01*
X054888Y024191D01*
X054877Y024170D01*
X054862Y024151D01*
X054845Y024134D01*
X054825Y024120D01*
X054803Y024110D01*
X054780Y024103D01*
X054756Y024100D01*
X054732Y024101D01*
X054708Y024106D01*
X054686Y024114D01*
X054665Y024127D01*
X054646Y024142D01*
X054630Y024160D01*
X054617Y024180D01*
X054608Y024202D01*
X054602Y024226D01*
X054600Y024250D01*
X047100Y024250D02*
X047102Y024274D01*
X047108Y024298D01*
X047117Y024320D01*
X047130Y024340D01*
X047146Y024358D01*
X047165Y024373D01*
X047186Y024386D01*
X047208Y024394D01*
X047232Y024399D01*
X047256Y024400D01*
X047280Y024397D01*
X047303Y024390D01*
X047325Y024380D01*
X047345Y024366D01*
X047362Y024349D01*
X047377Y024330D01*
X047388Y024309D01*
X047396Y024286D01*
X047400Y024262D01*
X047400Y024238D01*
X047396Y024214D01*
X047388Y024191D01*
X047377Y024170D01*
X047362Y024151D01*
X047345Y024134D01*
X047325Y024120D01*
X047303Y024110D01*
X047280Y024103D01*
X047256Y024100D01*
X047232Y024101D01*
X047208Y024106D01*
X047186Y024114D01*
X047165Y024127D01*
X047146Y024142D01*
X047130Y024160D01*
X047117Y024180D01*
X047108Y024202D01*
X047102Y024226D01*
X047100Y024250D01*
X039600Y024250D02*
X039602Y024274D01*
X039608Y024298D01*
X039617Y024320D01*
X039630Y024340D01*
X039646Y024358D01*
X039665Y024373D01*
X039686Y024386D01*
X039708Y024394D01*
X039732Y024399D01*
X039756Y024400D01*
X039780Y024397D01*
X039803Y024390D01*
X039825Y024380D01*
X039845Y024366D01*
X039862Y024349D01*
X039877Y024330D01*
X039888Y024309D01*
X039896Y024286D01*
X039900Y024262D01*
X039900Y024238D01*
X039896Y024214D01*
X039888Y024191D01*
X039877Y024170D01*
X039862Y024151D01*
X039845Y024134D01*
X039825Y024120D01*
X039803Y024110D01*
X039780Y024103D01*
X039756Y024100D01*
X039732Y024101D01*
X039708Y024106D01*
X039686Y024114D01*
X039665Y024127D01*
X039646Y024142D01*
X039630Y024160D01*
X039617Y024180D01*
X039608Y024202D01*
X039602Y024226D01*
X039600Y024250D01*
X032100Y024250D02*
X032102Y024274D01*
X032108Y024298D01*
X032117Y024320D01*
X032130Y024340D01*
X032146Y024358D01*
X032165Y024373D01*
X032186Y024386D01*
X032208Y024394D01*
X032232Y024399D01*
X032256Y024400D01*
X032280Y024397D01*
X032303Y024390D01*
X032325Y024380D01*
X032345Y024366D01*
X032362Y024349D01*
X032377Y024330D01*
X032388Y024309D01*
X032396Y024286D01*
X032400Y024262D01*
X032400Y024238D01*
X032396Y024214D01*
X032388Y024191D01*
X032377Y024170D01*
X032362Y024151D01*
X032345Y024134D01*
X032325Y024120D01*
X032303Y024110D01*
X032280Y024103D01*
X032256Y024100D01*
X032232Y024101D01*
X032208Y024106D01*
X032186Y024114D01*
X032165Y024127D01*
X032146Y024142D01*
X032130Y024160D01*
X032117Y024180D01*
X032108Y024202D01*
X032102Y024226D01*
X032100Y024250D01*
X024600Y024250D02*
X024602Y024274D01*
X024608Y024298D01*
X024617Y024320D01*
X024630Y024340D01*
X024646Y024358D01*
X024665Y024373D01*
X024686Y024386D01*
X024708Y024394D01*
X024732Y024399D01*
X024756Y024400D01*
X024780Y024397D01*
X024803Y024390D01*
X024825Y024380D01*
X024845Y024366D01*
X024862Y024349D01*
X024877Y024330D01*
X024888Y024309D01*
X024896Y024286D01*
X024900Y024262D01*
X024900Y024238D01*
X024896Y024214D01*
X024888Y024191D01*
X024877Y024170D01*
X024862Y024151D01*
X024845Y024134D01*
X024825Y024120D01*
X024803Y024110D01*
X024780Y024103D01*
X024756Y024100D01*
X024732Y024101D01*
X024708Y024106D01*
X024686Y024114D01*
X024665Y024127D01*
X024646Y024142D01*
X024630Y024160D01*
X024617Y024180D01*
X024608Y024202D01*
X024602Y024226D01*
X024600Y024250D01*
X017100Y024250D02*
X017102Y024274D01*
X017108Y024298D01*
X017117Y024320D01*
X017130Y024340D01*
X017146Y024358D01*
X017165Y024373D01*
X017186Y024386D01*
X017208Y024394D01*
X017232Y024399D01*
X017256Y024400D01*
X017280Y024397D01*
X017303Y024390D01*
X017325Y024380D01*
X017345Y024366D01*
X017362Y024349D01*
X017377Y024330D01*
X017388Y024309D01*
X017396Y024286D01*
X017400Y024262D01*
X017400Y024238D01*
X017396Y024214D01*
X017388Y024191D01*
X017377Y024170D01*
X017362Y024151D01*
X017345Y024134D01*
X017325Y024120D01*
X017303Y024110D01*
X017280Y024103D01*
X017256Y024100D01*
X017232Y024101D01*
X017208Y024106D01*
X017186Y024114D01*
X017165Y024127D01*
X017146Y024142D01*
X017130Y024160D01*
X017117Y024180D01*
X017108Y024202D01*
X017102Y024226D01*
X017100Y024250D01*
X009600Y024250D02*
X009602Y024274D01*
X009608Y024298D01*
X009617Y024320D01*
X009630Y024340D01*
X009646Y024358D01*
X009665Y024373D01*
X009686Y024386D01*
X009708Y024394D01*
X009732Y024399D01*
X009756Y024400D01*
X009780Y024397D01*
X009803Y024390D01*
X009825Y024380D01*
X009845Y024366D01*
X009862Y024349D01*
X009877Y024330D01*
X009888Y024309D01*
X009896Y024286D01*
X009900Y024262D01*
X009900Y024238D01*
X009896Y024214D01*
X009888Y024191D01*
X009877Y024170D01*
X009862Y024151D01*
X009845Y024134D01*
X009825Y024120D01*
X009803Y024110D01*
X009780Y024103D01*
X009756Y024100D01*
X009732Y024101D01*
X009708Y024106D01*
X009686Y024114D01*
X009665Y024127D01*
X009646Y024142D01*
X009630Y024160D01*
X009617Y024180D01*
X009608Y024202D01*
X009602Y024226D01*
X009600Y024250D01*
X002100Y024250D02*
X002102Y024274D01*
X002108Y024298D01*
X002117Y024320D01*
X002130Y024340D01*
X002146Y024358D01*
X002165Y024373D01*
X002186Y024386D01*
X002208Y024394D01*
X002232Y024399D01*
X002256Y024400D01*
X002280Y024397D01*
X002303Y024390D01*
X002325Y024380D01*
X002345Y024366D01*
X002362Y024349D01*
X002377Y024330D01*
X002388Y024309D01*
X002396Y024286D01*
X002400Y024262D01*
X002400Y024238D01*
X002396Y024214D01*
X002388Y024191D01*
X002377Y024170D01*
X002362Y024151D01*
X002345Y024134D01*
X002325Y024120D01*
X002303Y024110D01*
X002280Y024103D01*
X002256Y024100D01*
X002232Y024101D01*
X002208Y024106D01*
X002186Y024114D01*
X002165Y024127D01*
X002146Y024142D01*
X002130Y024160D01*
X002117Y024180D01*
X002108Y024202D01*
X002102Y024226D01*
X002100Y024250D01*
X002100Y016750D02*
X002102Y016774D01*
X002108Y016798D01*
X002117Y016820D01*
X002130Y016840D01*
X002146Y016858D01*
X002165Y016873D01*
X002186Y016886D01*
X002208Y016894D01*
X002232Y016899D01*
X002256Y016900D01*
X002280Y016897D01*
X002303Y016890D01*
X002325Y016880D01*
X002345Y016866D01*
X002362Y016849D01*
X002377Y016830D01*
X002388Y016809D01*
X002396Y016786D01*
X002400Y016762D01*
X002400Y016738D01*
X002396Y016714D01*
X002388Y016691D01*
X002377Y016670D01*
X002362Y016651D01*
X002345Y016634D01*
X002325Y016620D01*
X002303Y016610D01*
X002280Y016603D01*
X002256Y016600D01*
X002232Y016601D01*
X002208Y016606D01*
X002186Y016614D01*
X002165Y016627D01*
X002146Y016642D01*
X002130Y016660D01*
X002117Y016680D01*
X002108Y016702D01*
X002102Y016726D01*
X002100Y016750D01*
X002100Y009250D02*
X002102Y009274D01*
X002108Y009298D01*
X002117Y009320D01*
X002130Y009340D01*
X002146Y009358D01*
X002165Y009373D01*
X002186Y009386D01*
X002208Y009394D01*
X002232Y009399D01*
X002256Y009400D01*
X002280Y009397D01*
X002303Y009390D01*
X002325Y009380D01*
X002345Y009366D01*
X002362Y009349D01*
X002377Y009330D01*
X002388Y009309D01*
X002396Y009286D01*
X002400Y009262D01*
X002400Y009238D01*
X002396Y009214D01*
X002388Y009191D01*
X002377Y009170D01*
X002362Y009151D01*
X002345Y009134D01*
X002325Y009120D01*
X002303Y009110D01*
X002280Y009103D01*
X002256Y009100D01*
X002232Y009101D01*
X002208Y009106D01*
X002186Y009114D01*
X002165Y009127D01*
X002146Y009142D01*
X002130Y009160D01*
X002117Y009180D01*
X002108Y009202D01*
X002102Y009226D01*
X002100Y009250D01*
X002100Y001750D02*
X002102Y001774D01*
X002108Y001798D01*
X002117Y001820D01*
X002130Y001840D01*
X002146Y001858D01*
X002165Y001873D01*
X002186Y001886D01*
X002208Y001894D01*
X002232Y001899D01*
X002256Y001900D01*
X002280Y001897D01*
X002303Y001890D01*
X002325Y001880D01*
X002345Y001866D01*
X002362Y001849D01*
X002377Y001830D01*
X002388Y001809D01*
X002396Y001786D01*
X002400Y001762D01*
X002400Y001738D01*
X002396Y001714D01*
X002388Y001691D01*
X002377Y001670D01*
X002362Y001651D01*
X002345Y001634D01*
X002325Y001620D01*
X002303Y001610D01*
X002280Y001603D01*
X002256Y001600D01*
X002232Y001601D01*
X002208Y001606D01*
X002186Y001614D01*
X002165Y001627D01*
X002146Y001642D01*
X002130Y001660D01*
X002117Y001680D01*
X002108Y001702D01*
X002102Y001726D01*
X002100Y001750D01*
X009600Y001750D02*
X009602Y001774D01*
X009608Y001798D01*
X009617Y001820D01*
X009630Y001840D01*
X009646Y001858D01*
X009665Y001873D01*
X009686Y001886D01*
X009708Y001894D01*
X009732Y001899D01*
X009756Y001900D01*
X009780Y001897D01*
X009803Y001890D01*
X009825Y001880D01*
X009845Y001866D01*
X009862Y001849D01*
X009877Y001830D01*
X009888Y001809D01*
X009896Y001786D01*
X009900Y001762D01*
X009900Y001738D01*
X009896Y001714D01*
X009888Y001691D01*
X009877Y001670D01*
X009862Y001651D01*
X009845Y001634D01*
X009825Y001620D01*
X009803Y001610D01*
X009780Y001603D01*
X009756Y001600D01*
X009732Y001601D01*
X009708Y001606D01*
X009686Y001614D01*
X009665Y001627D01*
X009646Y001642D01*
X009630Y001660D01*
X009617Y001680D01*
X009608Y001702D01*
X009602Y001726D01*
X009600Y001750D01*
X009600Y009250D02*
X009602Y009274D01*
X009608Y009298D01*
X009617Y009320D01*
X009630Y009340D01*
X009646Y009358D01*
X009665Y009373D01*
X009686Y009386D01*
X009708Y009394D01*
X009732Y009399D01*
X009756Y009400D01*
X009780Y009397D01*
X009803Y009390D01*
X009825Y009380D01*
X009845Y009366D01*
X009862Y009349D01*
X009877Y009330D01*
X009888Y009309D01*
X009896Y009286D01*
X009900Y009262D01*
X009900Y009238D01*
X009896Y009214D01*
X009888Y009191D01*
X009877Y009170D01*
X009862Y009151D01*
X009845Y009134D01*
X009825Y009120D01*
X009803Y009110D01*
X009780Y009103D01*
X009756Y009100D01*
X009732Y009101D01*
X009708Y009106D01*
X009686Y009114D01*
X009665Y009127D01*
X009646Y009142D01*
X009630Y009160D01*
X009617Y009180D01*
X009608Y009202D01*
X009602Y009226D01*
X009600Y009250D01*
X009600Y016750D02*
X009602Y016774D01*
X009608Y016798D01*
X009617Y016820D01*
X009630Y016840D01*
X009646Y016858D01*
X009665Y016873D01*
X009686Y016886D01*
X009708Y016894D01*
X009732Y016899D01*
X009756Y016900D01*
X009780Y016897D01*
X009803Y016890D01*
X009825Y016880D01*
X009845Y016866D01*
X009862Y016849D01*
X009877Y016830D01*
X009888Y016809D01*
X009896Y016786D01*
X009900Y016762D01*
X009900Y016738D01*
X009896Y016714D01*
X009888Y016691D01*
X009877Y016670D01*
X009862Y016651D01*
X009845Y016634D01*
X009825Y016620D01*
X009803Y016610D01*
X009780Y016603D01*
X009756Y016600D01*
X009732Y016601D01*
X009708Y016606D01*
X009686Y016614D01*
X009665Y016627D01*
X009646Y016642D01*
X009630Y016660D01*
X009617Y016680D01*
X009608Y016702D01*
X009602Y016726D01*
X009600Y016750D01*
X017100Y016750D02*
X017102Y016774D01*
X017108Y016798D01*
X017117Y016820D01*
X017130Y016840D01*
X017146Y016858D01*
X017165Y016873D01*
X017186Y016886D01*
X017208Y016894D01*
X017232Y016899D01*
X017256Y016900D01*
X017280Y016897D01*
X017303Y016890D01*
X017325Y016880D01*
X017345Y016866D01*
X017362Y016849D01*
X017377Y016830D01*
X017388Y016809D01*
X017396Y016786D01*
X017400Y016762D01*
X017400Y016738D01*
X017396Y016714D01*
X017388Y016691D01*
X017377Y016670D01*
X017362Y016651D01*
X017345Y016634D01*
X017325Y016620D01*
X017303Y016610D01*
X017280Y016603D01*
X017256Y016600D01*
X017232Y016601D01*
X017208Y016606D01*
X017186Y016614D01*
X017165Y016627D01*
X017146Y016642D01*
X017130Y016660D01*
X017117Y016680D01*
X017108Y016702D01*
X017102Y016726D01*
X017100Y016750D01*
X017100Y009250D02*
X017102Y009274D01*
X017108Y009298D01*
X017117Y009320D01*
X017130Y009340D01*
X017146Y009358D01*
X017165Y009373D01*
X017186Y009386D01*
X017208Y009394D01*
X017232Y009399D01*
X017256Y009400D01*
X017280Y009397D01*
X017303Y009390D01*
X017325Y009380D01*
X017345Y009366D01*
X017362Y009349D01*
X017377Y009330D01*
X017388Y009309D01*
X017396Y009286D01*
X017400Y009262D01*
X017400Y009238D01*
X017396Y009214D01*
X017388Y009191D01*
X017377Y009170D01*
X017362Y009151D01*
X017345Y009134D01*
X017325Y009120D01*
X017303Y009110D01*
X017280Y009103D01*
X017256Y009100D01*
X017232Y009101D01*
X017208Y009106D01*
X017186Y009114D01*
X017165Y009127D01*
X017146Y009142D01*
X017130Y009160D01*
X017117Y009180D01*
X017108Y009202D01*
X017102Y009226D01*
X017100Y009250D01*
X017100Y001750D02*
X017102Y001774D01*
X017108Y001798D01*
X017117Y001820D01*
X017130Y001840D01*
X017146Y001858D01*
X017165Y001873D01*
X017186Y001886D01*
X017208Y001894D01*
X017232Y001899D01*
X017256Y001900D01*
X017280Y001897D01*
X017303Y001890D01*
X017325Y001880D01*
X017345Y001866D01*
X017362Y001849D01*
X017377Y001830D01*
X017388Y001809D01*
X017396Y001786D01*
X017400Y001762D01*
X017400Y001738D01*
X017396Y001714D01*
X017388Y001691D01*
X017377Y001670D01*
X017362Y001651D01*
X017345Y001634D01*
X017325Y001620D01*
X017303Y001610D01*
X017280Y001603D01*
X017256Y001600D01*
X017232Y001601D01*
X017208Y001606D01*
X017186Y001614D01*
X017165Y001627D01*
X017146Y001642D01*
X017130Y001660D01*
X017117Y001680D01*
X017108Y001702D01*
X017102Y001726D01*
X017100Y001750D01*
X024600Y001750D02*
X024602Y001774D01*
X024608Y001798D01*
X024617Y001820D01*
X024630Y001840D01*
X024646Y001858D01*
X024665Y001873D01*
X024686Y001886D01*
X024708Y001894D01*
X024732Y001899D01*
X024756Y001900D01*
X024780Y001897D01*
X024803Y001890D01*
X024825Y001880D01*
X024845Y001866D01*
X024862Y001849D01*
X024877Y001830D01*
X024888Y001809D01*
X024896Y001786D01*
X024900Y001762D01*
X024900Y001738D01*
X024896Y001714D01*
X024888Y001691D01*
X024877Y001670D01*
X024862Y001651D01*
X024845Y001634D01*
X024825Y001620D01*
X024803Y001610D01*
X024780Y001603D01*
X024756Y001600D01*
X024732Y001601D01*
X024708Y001606D01*
X024686Y001614D01*
X024665Y001627D01*
X024646Y001642D01*
X024630Y001660D01*
X024617Y001680D01*
X024608Y001702D01*
X024602Y001726D01*
X024600Y001750D01*
X024600Y009250D02*
X024602Y009274D01*
X024608Y009298D01*
X024617Y009320D01*
X024630Y009340D01*
X024646Y009358D01*
X024665Y009373D01*
X024686Y009386D01*
X024708Y009394D01*
X024732Y009399D01*
X024756Y009400D01*
X024780Y009397D01*
X024803Y009390D01*
X024825Y009380D01*
X024845Y009366D01*
X024862Y009349D01*
X024877Y009330D01*
X024888Y009309D01*
X024896Y009286D01*
X024900Y009262D01*
X024900Y009238D01*
X024896Y009214D01*
X024888Y009191D01*
X024877Y009170D01*
X024862Y009151D01*
X024845Y009134D01*
X024825Y009120D01*
X024803Y009110D01*
X024780Y009103D01*
X024756Y009100D01*
X024732Y009101D01*
X024708Y009106D01*
X024686Y009114D01*
X024665Y009127D01*
X024646Y009142D01*
X024630Y009160D01*
X024617Y009180D01*
X024608Y009202D01*
X024602Y009226D01*
X024600Y009250D01*
X024600Y016750D02*
X024602Y016774D01*
X024608Y016798D01*
X024617Y016820D01*
X024630Y016840D01*
X024646Y016858D01*
X024665Y016873D01*
X024686Y016886D01*
X024708Y016894D01*
X024732Y016899D01*
X024756Y016900D01*
X024780Y016897D01*
X024803Y016890D01*
X024825Y016880D01*
X024845Y016866D01*
X024862Y016849D01*
X024877Y016830D01*
X024888Y016809D01*
X024896Y016786D01*
X024900Y016762D01*
X024900Y016738D01*
X024896Y016714D01*
X024888Y016691D01*
X024877Y016670D01*
X024862Y016651D01*
X024845Y016634D01*
X024825Y016620D01*
X024803Y016610D01*
X024780Y016603D01*
X024756Y016600D01*
X024732Y016601D01*
X024708Y016606D01*
X024686Y016614D01*
X024665Y016627D01*
X024646Y016642D01*
X024630Y016660D01*
X024617Y016680D01*
X024608Y016702D01*
X024602Y016726D01*
X024600Y016750D01*
X032100Y016750D02*
X032102Y016774D01*
X032108Y016798D01*
X032117Y016820D01*
X032130Y016840D01*
X032146Y016858D01*
X032165Y016873D01*
X032186Y016886D01*
X032208Y016894D01*
X032232Y016899D01*
X032256Y016900D01*
X032280Y016897D01*
X032303Y016890D01*
X032325Y016880D01*
X032345Y016866D01*
X032362Y016849D01*
X032377Y016830D01*
X032388Y016809D01*
X032396Y016786D01*
X032400Y016762D01*
X032400Y016738D01*
X032396Y016714D01*
X032388Y016691D01*
X032377Y016670D01*
X032362Y016651D01*
X032345Y016634D01*
X032325Y016620D01*
X032303Y016610D01*
X032280Y016603D01*
X032256Y016600D01*
X032232Y016601D01*
X032208Y016606D01*
X032186Y016614D01*
X032165Y016627D01*
X032146Y016642D01*
X032130Y016660D01*
X032117Y016680D01*
X032108Y016702D01*
X032102Y016726D01*
X032100Y016750D01*
X032100Y009250D02*
X032102Y009274D01*
X032108Y009298D01*
X032117Y009320D01*
X032130Y009340D01*
X032146Y009358D01*
X032165Y009373D01*
X032186Y009386D01*
X032208Y009394D01*
X032232Y009399D01*
X032256Y009400D01*
X032280Y009397D01*
X032303Y009390D01*
X032325Y009380D01*
X032345Y009366D01*
X032362Y009349D01*
X032377Y009330D01*
X032388Y009309D01*
X032396Y009286D01*
X032400Y009262D01*
X032400Y009238D01*
X032396Y009214D01*
X032388Y009191D01*
X032377Y009170D01*
X032362Y009151D01*
X032345Y009134D01*
X032325Y009120D01*
X032303Y009110D01*
X032280Y009103D01*
X032256Y009100D01*
X032232Y009101D01*
X032208Y009106D01*
X032186Y009114D01*
X032165Y009127D01*
X032146Y009142D01*
X032130Y009160D01*
X032117Y009180D01*
X032108Y009202D01*
X032102Y009226D01*
X032100Y009250D01*
X032100Y001750D02*
X032102Y001774D01*
X032108Y001798D01*
X032117Y001820D01*
X032130Y001840D01*
X032146Y001858D01*
X032165Y001873D01*
X032186Y001886D01*
X032208Y001894D01*
X032232Y001899D01*
X032256Y001900D01*
X032280Y001897D01*
X032303Y001890D01*
X032325Y001880D01*
X032345Y001866D01*
X032362Y001849D01*
X032377Y001830D01*
X032388Y001809D01*
X032396Y001786D01*
X032400Y001762D01*
X032400Y001738D01*
X032396Y001714D01*
X032388Y001691D01*
X032377Y001670D01*
X032362Y001651D01*
X032345Y001634D01*
X032325Y001620D01*
X032303Y001610D01*
X032280Y001603D01*
X032256Y001600D01*
X032232Y001601D01*
X032208Y001606D01*
X032186Y001614D01*
X032165Y001627D01*
X032146Y001642D01*
X032130Y001660D01*
X032117Y001680D01*
X032108Y001702D01*
X032102Y001726D01*
X032100Y001750D01*
X039600Y001750D02*
X039602Y001774D01*
X039608Y001798D01*
X039617Y001820D01*
X039630Y001840D01*
X039646Y001858D01*
X039665Y001873D01*
X039686Y001886D01*
X039708Y001894D01*
X039732Y001899D01*
X039756Y001900D01*
X039780Y001897D01*
X039803Y001890D01*
X039825Y001880D01*
X039845Y001866D01*
X039862Y001849D01*
X039877Y001830D01*
X039888Y001809D01*
X039896Y001786D01*
X039900Y001762D01*
X039900Y001738D01*
X039896Y001714D01*
X039888Y001691D01*
X039877Y001670D01*
X039862Y001651D01*
X039845Y001634D01*
X039825Y001620D01*
X039803Y001610D01*
X039780Y001603D01*
X039756Y001600D01*
X039732Y001601D01*
X039708Y001606D01*
X039686Y001614D01*
X039665Y001627D01*
X039646Y001642D01*
X039630Y001660D01*
X039617Y001680D01*
X039608Y001702D01*
X039602Y001726D01*
X039600Y001750D01*
X039600Y009250D02*
X039602Y009274D01*
X039608Y009298D01*
X039617Y009320D01*
X039630Y009340D01*
X039646Y009358D01*
X039665Y009373D01*
X039686Y009386D01*
X039708Y009394D01*
X039732Y009399D01*
X039756Y009400D01*
X039780Y009397D01*
X039803Y009390D01*
X039825Y009380D01*
X039845Y009366D01*
X039862Y009349D01*
X039877Y009330D01*
X039888Y009309D01*
X039896Y009286D01*
X039900Y009262D01*
X039900Y009238D01*
X039896Y009214D01*
X039888Y009191D01*
X039877Y009170D01*
X039862Y009151D01*
X039845Y009134D01*
X039825Y009120D01*
X039803Y009110D01*
X039780Y009103D01*
X039756Y009100D01*
X039732Y009101D01*
X039708Y009106D01*
X039686Y009114D01*
X039665Y009127D01*
X039646Y009142D01*
X039630Y009160D01*
X039617Y009180D01*
X039608Y009202D01*
X039602Y009226D01*
X039600Y009250D01*
X039600Y016750D02*
X039602Y016774D01*
X039608Y016798D01*
X039617Y016820D01*
X039630Y016840D01*
X039646Y016858D01*
X039665Y016873D01*
X039686Y016886D01*
X039708Y016894D01*
X039732Y016899D01*
X039756Y016900D01*
X039780Y016897D01*
X039803Y016890D01*
X039825Y016880D01*
X039845Y016866D01*
X039862Y016849D01*
X039877Y016830D01*
X039888Y016809D01*
X039896Y016786D01*
X039900Y016762D01*
X039900Y016738D01*
X039896Y016714D01*
X039888Y016691D01*
X039877Y016670D01*
X039862Y016651D01*
X039845Y016634D01*
X039825Y016620D01*
X039803Y016610D01*
X039780Y016603D01*
X039756Y016600D01*
X039732Y016601D01*
X039708Y016606D01*
X039686Y016614D01*
X039665Y016627D01*
X039646Y016642D01*
X039630Y016660D01*
X039617Y016680D01*
X039608Y016702D01*
X039602Y016726D01*
X039600Y016750D01*
X047100Y016750D02*
X047102Y016774D01*
X047108Y016798D01*
X047117Y016820D01*
X047130Y016840D01*
X047146Y016858D01*
X047165Y016873D01*
X047186Y016886D01*
X047208Y016894D01*
X047232Y016899D01*
X047256Y016900D01*
X047280Y016897D01*
X047303Y016890D01*
X047325Y016880D01*
X047345Y016866D01*
X047362Y016849D01*
X047377Y016830D01*
X047388Y016809D01*
X047396Y016786D01*
X047400Y016762D01*
X047400Y016738D01*
X047396Y016714D01*
X047388Y016691D01*
X047377Y016670D01*
X047362Y016651D01*
X047345Y016634D01*
X047325Y016620D01*
X047303Y016610D01*
X047280Y016603D01*
X047256Y016600D01*
X047232Y016601D01*
X047208Y016606D01*
X047186Y016614D01*
X047165Y016627D01*
X047146Y016642D01*
X047130Y016660D01*
X047117Y016680D01*
X047108Y016702D01*
X047102Y016726D01*
X047100Y016750D01*
X047100Y009250D02*
X047102Y009274D01*
X047108Y009298D01*
X047117Y009320D01*
X047130Y009340D01*
X047146Y009358D01*
X047165Y009373D01*
X047186Y009386D01*
X047208Y009394D01*
X047232Y009399D01*
X047256Y009400D01*
X047280Y009397D01*
X047303Y009390D01*
X047325Y009380D01*
X047345Y009366D01*
X047362Y009349D01*
X047377Y009330D01*
X047388Y009309D01*
X047396Y009286D01*
X047400Y009262D01*
X047400Y009238D01*
X047396Y009214D01*
X047388Y009191D01*
X047377Y009170D01*
X047362Y009151D01*
X047345Y009134D01*
X047325Y009120D01*
X047303Y009110D01*
X047280Y009103D01*
X047256Y009100D01*
X047232Y009101D01*
X047208Y009106D01*
X047186Y009114D01*
X047165Y009127D01*
X047146Y009142D01*
X047130Y009160D01*
X047117Y009180D01*
X047108Y009202D01*
X047102Y009226D01*
X047100Y009250D01*
X047100Y001750D02*
X047102Y001774D01*
X047108Y001798D01*
X047117Y001820D01*
X047130Y001840D01*
X047146Y001858D01*
X047165Y001873D01*
X047186Y001886D01*
X047208Y001894D01*
X047232Y001899D01*
X047256Y001900D01*
X047280Y001897D01*
X047303Y001890D01*
X047325Y001880D01*
X047345Y001866D01*
X047362Y001849D01*
X047377Y001830D01*
X047388Y001809D01*
X047396Y001786D01*
X047400Y001762D01*
X047400Y001738D01*
X047396Y001714D01*
X047388Y001691D01*
X047377Y001670D01*
X047362Y001651D01*
X047345Y001634D01*
X047325Y001620D01*
X047303Y001610D01*
X047280Y001603D01*
X047256Y001600D01*
X047232Y001601D01*
X047208Y001606D01*
X047186Y001614D01*
X047165Y001627D01*
X047146Y001642D01*
X047130Y001660D01*
X047117Y001680D01*
X047108Y001702D01*
X047102Y001726D01*
X047100Y001750D01*
X054600Y001750D02*
X054602Y001774D01*
X054608Y001798D01*
X054617Y001820D01*
X054630Y001840D01*
X054646Y001858D01*
X054665Y001873D01*
X054686Y001886D01*
X054708Y001894D01*
X054732Y001899D01*
X054756Y001900D01*
X054780Y001897D01*
X054803Y001890D01*
X054825Y001880D01*
X054845Y001866D01*
X054862Y001849D01*
X054877Y001830D01*
X054888Y001809D01*
X054896Y001786D01*
X054900Y001762D01*
X054900Y001738D01*
X054896Y001714D01*
X054888Y001691D01*
X054877Y001670D01*
X054862Y001651D01*
X054845Y001634D01*
X054825Y001620D01*
X054803Y001610D01*
X054780Y001603D01*
X054756Y001600D01*
X054732Y001601D01*
X054708Y001606D01*
X054686Y001614D01*
X054665Y001627D01*
X054646Y001642D01*
X054630Y001660D01*
X054617Y001680D01*
X054608Y001702D01*
X054602Y001726D01*
X054600Y001750D01*
X054600Y009250D02*
X054602Y009274D01*
X054608Y009298D01*
X054617Y009320D01*
X054630Y009340D01*
X054646Y009358D01*
X054665Y009373D01*
X054686Y009386D01*
X054708Y009394D01*
X054732Y009399D01*
X054756Y009400D01*
X054780Y009397D01*
X054803Y009390D01*
X054825Y009380D01*
X054845Y009366D01*
X054862Y009349D01*
X054877Y009330D01*
X054888Y009309D01*
X054896Y009286D01*
X054900Y009262D01*
X054900Y009238D01*
X054896Y009214D01*
X054888Y009191D01*
X054877Y009170D01*
X054862Y009151D01*
X054845Y009134D01*
X054825Y009120D01*
X054803Y009110D01*
X054780Y009103D01*
X054756Y009100D01*
X054732Y009101D01*
X054708Y009106D01*
X054686Y009114D01*
X054665Y009127D01*
X054646Y009142D01*
X054630Y009160D01*
X054617Y009180D01*
X054608Y009202D01*
X054602Y009226D01*
X054600Y009250D01*
X054600Y016750D02*
X054602Y016774D01*
X054608Y016798D01*
X054617Y016820D01*
X054630Y016840D01*
X054646Y016858D01*
X054665Y016873D01*
X054686Y016886D01*
X054708Y016894D01*
X054732Y016899D01*
X054756Y016900D01*
X054780Y016897D01*
X054803Y016890D01*
X054825Y016880D01*
X054845Y016866D01*
X054862Y016849D01*
X054877Y016830D01*
X054888Y016809D01*
X054896Y016786D01*
X054900Y016762D01*
X054900Y016738D01*
X054896Y016714D01*
X054888Y016691D01*
X054877Y016670D01*
X054862Y016651D01*
X054845Y016634D01*
X054825Y016620D01*
X054803Y016610D01*
X054780Y016603D01*
X054756Y016600D01*
X054732Y016601D01*
X054708Y016606D01*
X054686Y016614D01*
X054665Y016627D01*
X054646Y016642D01*
X054630Y016660D01*
X054617Y016680D01*
X054608Y016702D01*
X054602Y016726D01*
X054600Y016750D01*
X062100Y016750D02*
X062102Y016774D01*
X062108Y016798D01*
X062117Y016820D01*
X062130Y016840D01*
X062146Y016858D01*
X062165Y016873D01*
X062186Y016886D01*
X062208Y016894D01*
X062232Y016899D01*
X062256Y016900D01*
X062280Y016897D01*
X062303Y016890D01*
X062325Y016880D01*
X062345Y016866D01*
X062362Y016849D01*
X062377Y016830D01*
X062388Y016809D01*
X062396Y016786D01*
X062400Y016762D01*
X062400Y016738D01*
X062396Y016714D01*
X062388Y016691D01*
X062377Y016670D01*
X062362Y016651D01*
X062345Y016634D01*
X062325Y016620D01*
X062303Y016610D01*
X062280Y016603D01*
X062256Y016600D01*
X062232Y016601D01*
X062208Y016606D01*
X062186Y016614D01*
X062165Y016627D01*
X062146Y016642D01*
X062130Y016660D01*
X062117Y016680D01*
X062108Y016702D01*
X062102Y016726D01*
X062100Y016750D01*
X062100Y009250D02*
X062102Y009274D01*
X062108Y009298D01*
X062117Y009320D01*
X062130Y009340D01*
X062146Y009358D01*
X062165Y009373D01*
X062186Y009386D01*
X062208Y009394D01*
X062232Y009399D01*
X062256Y009400D01*
X062280Y009397D01*
X062303Y009390D01*
X062325Y009380D01*
X062345Y009366D01*
X062362Y009349D01*
X062377Y009330D01*
X062388Y009309D01*
X062396Y009286D01*
X062400Y009262D01*
X062400Y009238D01*
X062396Y009214D01*
X062388Y009191D01*
X062377Y009170D01*
X062362Y009151D01*
X062345Y009134D01*
X062325Y009120D01*
X062303Y009110D01*
X062280Y009103D01*
X062256Y009100D01*
X062232Y009101D01*
X062208Y009106D01*
X062186Y009114D01*
X062165Y009127D01*
X062146Y009142D01*
X062130Y009160D01*
X062117Y009180D01*
X062108Y009202D01*
X062102Y009226D01*
X062100Y009250D01*
X062100Y001750D02*
X062102Y001774D01*
X062108Y001798D01*
X062117Y001820D01*
X062130Y001840D01*
X062146Y001858D01*
X062165Y001873D01*
X062186Y001886D01*
X062208Y001894D01*
X062232Y001899D01*
X062256Y001900D01*
X062280Y001897D01*
X062303Y001890D01*
X062325Y001880D01*
X062345Y001866D01*
X062362Y001849D01*
X062377Y001830D01*
X062388Y001809D01*
X062396Y001786D01*
X062400Y001762D01*
X062400Y001738D01*
X062396Y001714D01*
X062388Y001691D01*
X062377Y001670D01*
X062362Y001651D01*
X062345Y001634D01*
X062325Y001620D01*
X062303Y001610D01*
X062280Y001603D01*
X062256Y001600D01*
X062232Y001601D01*
X062208Y001606D01*
X062186Y001614D01*
X062165Y001627D01*
X062146Y001642D01*
X062130Y001660D01*
X062117Y001680D01*
X062108Y001702D01*
X062102Y001726D01*
X062100Y001750D01*
X069600Y001750D02*
X069602Y001774D01*
X069608Y001798D01*
X069617Y001820D01*
X069630Y001840D01*
X069646Y001858D01*
X069665Y001873D01*
X069686Y001886D01*
X069708Y001894D01*
X069732Y001899D01*
X069756Y001900D01*
X069780Y001897D01*
X069803Y001890D01*
X069825Y001880D01*
X069845Y001866D01*
X069862Y001849D01*
X069877Y001830D01*
X069888Y001809D01*
X069896Y001786D01*
X069900Y001762D01*
X069900Y001738D01*
X069896Y001714D01*
X069888Y001691D01*
X069877Y001670D01*
X069862Y001651D01*
X069845Y001634D01*
X069825Y001620D01*
X069803Y001610D01*
X069780Y001603D01*
X069756Y001600D01*
X069732Y001601D01*
X069708Y001606D01*
X069686Y001614D01*
X069665Y001627D01*
X069646Y001642D01*
X069630Y001660D01*
X069617Y001680D01*
X069608Y001702D01*
X069602Y001726D01*
X069600Y001750D01*
X069600Y009250D02*
X069602Y009274D01*
X069608Y009298D01*
X069617Y009320D01*
X069630Y009340D01*
X069646Y009358D01*
X069665Y009373D01*
X069686Y009386D01*
X069708Y009394D01*
X069732Y009399D01*
X069756Y009400D01*
X069780Y009397D01*
X069803Y009390D01*
X069825Y009380D01*
X069845Y009366D01*
X069862Y009349D01*
X069877Y009330D01*
X069888Y009309D01*
X069896Y009286D01*
X069900Y009262D01*
X069900Y009238D01*
X069896Y009214D01*
X069888Y009191D01*
X069877Y009170D01*
X069862Y009151D01*
X069845Y009134D01*
X069825Y009120D01*
X069803Y009110D01*
X069780Y009103D01*
X069756Y009100D01*
X069732Y009101D01*
X069708Y009106D01*
X069686Y009114D01*
X069665Y009127D01*
X069646Y009142D01*
X069630Y009160D01*
X069617Y009180D01*
X069608Y009202D01*
X069602Y009226D01*
X069600Y009250D01*
X069600Y016750D02*
X069602Y016774D01*
X069608Y016798D01*
X069617Y016820D01*
X069630Y016840D01*
X069646Y016858D01*
X069665Y016873D01*
X069686Y016886D01*
X069708Y016894D01*
X069732Y016899D01*
X069756Y016900D01*
X069780Y016897D01*
X069803Y016890D01*
X069825Y016880D01*
X069845Y016866D01*
X069862Y016849D01*
X069877Y016830D01*
X069888Y016809D01*
X069896Y016786D01*
X069900Y016762D01*
X069900Y016738D01*
X069896Y016714D01*
X069888Y016691D01*
X069877Y016670D01*
X069862Y016651D01*
X069845Y016634D01*
X069825Y016620D01*
X069803Y016610D01*
X069780Y016603D01*
X069756Y016600D01*
X069732Y016601D01*
X069708Y016606D01*
X069686Y016614D01*
X069665Y016627D01*
X069646Y016642D01*
X069630Y016660D01*
X069617Y016680D01*
X069608Y016702D01*
X069602Y016726D01*
X069600Y016750D01*
D17*
X070000Y016750D02*
X070002Y016781D01*
X070008Y016812D01*
X070018Y016842D01*
X070031Y016870D01*
X070048Y016897D01*
X070068Y016921D01*
X070091Y016943D01*
X070116Y016961D01*
X070144Y016976D01*
X070173Y016988D01*
X070203Y016996D01*
X070234Y017000D01*
X070266Y017000D01*
X070297Y016996D01*
X070327Y016988D01*
X070356Y016976D01*
X070384Y016961D01*
X070409Y016943D01*
X070432Y016921D01*
X070452Y016897D01*
X070469Y016870D01*
X070482Y016842D01*
X070492Y016812D01*
X070498Y016781D01*
X070500Y016750D01*
X070498Y016719D01*
X070492Y016688D01*
X070482Y016658D01*
X070469Y016630D01*
X070452Y016603D01*
X070432Y016579D01*
X070409Y016557D01*
X070384Y016539D01*
X070356Y016524D01*
X070327Y016512D01*
X070297Y016504D01*
X070266Y016500D01*
X070234Y016500D01*
X070203Y016504D01*
X070173Y016512D01*
X070144Y016524D01*
X070116Y016539D01*
X070091Y016557D01*
X070068Y016579D01*
X070048Y016603D01*
X070031Y016630D01*
X070018Y016658D01*
X070008Y016688D01*
X070002Y016719D01*
X070000Y016750D01*
X062500Y016750D02*
X062502Y016781D01*
X062508Y016812D01*
X062518Y016842D01*
X062531Y016870D01*
X062548Y016897D01*
X062568Y016921D01*
X062591Y016943D01*
X062616Y016961D01*
X062644Y016976D01*
X062673Y016988D01*
X062703Y016996D01*
X062734Y017000D01*
X062766Y017000D01*
X062797Y016996D01*
X062827Y016988D01*
X062856Y016976D01*
X062884Y016961D01*
X062909Y016943D01*
X062932Y016921D01*
X062952Y016897D01*
X062969Y016870D01*
X062982Y016842D01*
X062992Y016812D01*
X062998Y016781D01*
X063000Y016750D01*
X062998Y016719D01*
X062992Y016688D01*
X062982Y016658D01*
X062969Y016630D01*
X062952Y016603D01*
X062932Y016579D01*
X062909Y016557D01*
X062884Y016539D01*
X062856Y016524D01*
X062827Y016512D01*
X062797Y016504D01*
X062766Y016500D01*
X062734Y016500D01*
X062703Y016504D01*
X062673Y016512D01*
X062644Y016524D01*
X062616Y016539D01*
X062591Y016557D01*
X062568Y016579D01*
X062548Y016603D01*
X062531Y016630D01*
X062518Y016658D01*
X062508Y016688D01*
X062502Y016719D01*
X062500Y016750D01*
X062500Y009250D02*
X062502Y009281D01*
X062508Y009312D01*
X062518Y009342D01*
X062531Y009370D01*
X062548Y009397D01*
X062568Y009421D01*
X062591Y009443D01*
X062616Y009461D01*
X062644Y009476D01*
X062673Y009488D01*
X062703Y009496D01*
X062734Y009500D01*
X062766Y009500D01*
X062797Y009496D01*
X062827Y009488D01*
X062856Y009476D01*
X062884Y009461D01*
X062909Y009443D01*
X062932Y009421D01*
X062952Y009397D01*
X062969Y009370D01*
X062982Y009342D01*
X062992Y009312D01*
X062998Y009281D01*
X063000Y009250D01*
X062998Y009219D01*
X062992Y009188D01*
X062982Y009158D01*
X062969Y009130D01*
X062952Y009103D01*
X062932Y009079D01*
X062909Y009057D01*
X062884Y009039D01*
X062856Y009024D01*
X062827Y009012D01*
X062797Y009004D01*
X062766Y009000D01*
X062734Y009000D01*
X062703Y009004D01*
X062673Y009012D01*
X062644Y009024D01*
X062616Y009039D01*
X062591Y009057D01*
X062568Y009079D01*
X062548Y009103D01*
X062531Y009130D01*
X062518Y009158D01*
X062508Y009188D01*
X062502Y009219D01*
X062500Y009250D01*
X055000Y009250D02*
X055002Y009281D01*
X055008Y009312D01*
X055018Y009342D01*
X055031Y009370D01*
X055048Y009397D01*
X055068Y009421D01*
X055091Y009443D01*
X055116Y009461D01*
X055144Y009476D01*
X055173Y009488D01*
X055203Y009496D01*
X055234Y009500D01*
X055266Y009500D01*
X055297Y009496D01*
X055327Y009488D01*
X055356Y009476D01*
X055384Y009461D01*
X055409Y009443D01*
X055432Y009421D01*
X055452Y009397D01*
X055469Y009370D01*
X055482Y009342D01*
X055492Y009312D01*
X055498Y009281D01*
X055500Y009250D01*
X055498Y009219D01*
X055492Y009188D01*
X055482Y009158D01*
X055469Y009130D01*
X055452Y009103D01*
X055432Y009079D01*
X055409Y009057D01*
X055384Y009039D01*
X055356Y009024D01*
X055327Y009012D01*
X055297Y009004D01*
X055266Y009000D01*
X055234Y009000D01*
X055203Y009004D01*
X055173Y009012D01*
X055144Y009024D01*
X055116Y009039D01*
X055091Y009057D01*
X055068Y009079D01*
X055048Y009103D01*
X055031Y009130D01*
X055018Y009158D01*
X055008Y009188D01*
X055002Y009219D01*
X055000Y009250D01*
X055000Y016750D02*
X055002Y016781D01*
X055008Y016812D01*
X055018Y016842D01*
X055031Y016870D01*
X055048Y016897D01*
X055068Y016921D01*
X055091Y016943D01*
X055116Y016961D01*
X055144Y016976D01*
X055173Y016988D01*
X055203Y016996D01*
X055234Y017000D01*
X055266Y017000D01*
X055297Y016996D01*
X055327Y016988D01*
X055356Y016976D01*
X055384Y016961D01*
X055409Y016943D01*
X055432Y016921D01*
X055452Y016897D01*
X055469Y016870D01*
X055482Y016842D01*
X055492Y016812D01*
X055498Y016781D01*
X055500Y016750D01*
X055498Y016719D01*
X055492Y016688D01*
X055482Y016658D01*
X055469Y016630D01*
X055452Y016603D01*
X055432Y016579D01*
X055409Y016557D01*
X055384Y016539D01*
X055356Y016524D01*
X055327Y016512D01*
X055297Y016504D01*
X055266Y016500D01*
X055234Y016500D01*
X055203Y016504D01*
X055173Y016512D01*
X055144Y016524D01*
X055116Y016539D01*
X055091Y016557D01*
X055068Y016579D01*
X055048Y016603D01*
X055031Y016630D01*
X055018Y016658D01*
X055008Y016688D01*
X055002Y016719D01*
X055000Y016750D01*
X047500Y016750D02*
X047502Y016781D01*
X047508Y016812D01*
X047518Y016842D01*
X047531Y016870D01*
X047548Y016897D01*
X047568Y016921D01*
X047591Y016943D01*
X047616Y016961D01*
X047644Y016976D01*
X047673Y016988D01*
X047703Y016996D01*
X047734Y017000D01*
X047766Y017000D01*
X047797Y016996D01*
X047827Y016988D01*
X047856Y016976D01*
X047884Y016961D01*
X047909Y016943D01*
X047932Y016921D01*
X047952Y016897D01*
X047969Y016870D01*
X047982Y016842D01*
X047992Y016812D01*
X047998Y016781D01*
X048000Y016750D01*
X047998Y016719D01*
X047992Y016688D01*
X047982Y016658D01*
X047969Y016630D01*
X047952Y016603D01*
X047932Y016579D01*
X047909Y016557D01*
X047884Y016539D01*
X047856Y016524D01*
X047827Y016512D01*
X047797Y016504D01*
X047766Y016500D01*
X047734Y016500D01*
X047703Y016504D01*
X047673Y016512D01*
X047644Y016524D01*
X047616Y016539D01*
X047591Y016557D01*
X047568Y016579D01*
X047548Y016603D01*
X047531Y016630D01*
X047518Y016658D01*
X047508Y016688D01*
X047502Y016719D01*
X047500Y016750D01*
X047500Y009250D02*
X047502Y009281D01*
X047508Y009312D01*
X047518Y009342D01*
X047531Y009370D01*
X047548Y009397D01*
X047568Y009421D01*
X047591Y009443D01*
X047616Y009461D01*
X047644Y009476D01*
X047673Y009488D01*
X047703Y009496D01*
X047734Y009500D01*
X047766Y009500D01*
X047797Y009496D01*
X047827Y009488D01*
X047856Y009476D01*
X047884Y009461D01*
X047909Y009443D01*
X047932Y009421D01*
X047952Y009397D01*
X047969Y009370D01*
X047982Y009342D01*
X047992Y009312D01*
X047998Y009281D01*
X048000Y009250D01*
X047998Y009219D01*
X047992Y009188D01*
X047982Y009158D01*
X047969Y009130D01*
X047952Y009103D01*
X047932Y009079D01*
X047909Y009057D01*
X047884Y009039D01*
X047856Y009024D01*
X047827Y009012D01*
X047797Y009004D01*
X047766Y009000D01*
X047734Y009000D01*
X047703Y009004D01*
X047673Y009012D01*
X047644Y009024D01*
X047616Y009039D01*
X047591Y009057D01*
X047568Y009079D01*
X047548Y009103D01*
X047531Y009130D01*
X047518Y009158D01*
X047508Y009188D01*
X047502Y009219D01*
X047500Y009250D01*
X040000Y009250D02*
X040002Y009281D01*
X040008Y009312D01*
X040018Y009342D01*
X040031Y009370D01*
X040048Y009397D01*
X040068Y009421D01*
X040091Y009443D01*
X040116Y009461D01*
X040144Y009476D01*
X040173Y009488D01*
X040203Y009496D01*
X040234Y009500D01*
X040266Y009500D01*
X040297Y009496D01*
X040327Y009488D01*
X040356Y009476D01*
X040384Y009461D01*
X040409Y009443D01*
X040432Y009421D01*
X040452Y009397D01*
X040469Y009370D01*
X040482Y009342D01*
X040492Y009312D01*
X040498Y009281D01*
X040500Y009250D01*
X040498Y009219D01*
X040492Y009188D01*
X040482Y009158D01*
X040469Y009130D01*
X040452Y009103D01*
X040432Y009079D01*
X040409Y009057D01*
X040384Y009039D01*
X040356Y009024D01*
X040327Y009012D01*
X040297Y009004D01*
X040266Y009000D01*
X040234Y009000D01*
X040203Y009004D01*
X040173Y009012D01*
X040144Y009024D01*
X040116Y009039D01*
X040091Y009057D01*
X040068Y009079D01*
X040048Y009103D01*
X040031Y009130D01*
X040018Y009158D01*
X040008Y009188D01*
X040002Y009219D01*
X040000Y009250D01*
X040000Y016750D02*
X040002Y016781D01*
X040008Y016812D01*
X040018Y016842D01*
X040031Y016870D01*
X040048Y016897D01*
X040068Y016921D01*
X040091Y016943D01*
X040116Y016961D01*
X040144Y016976D01*
X040173Y016988D01*
X040203Y016996D01*
X040234Y017000D01*
X040266Y017000D01*
X040297Y016996D01*
X040327Y016988D01*
X040356Y016976D01*
X040384Y016961D01*
X040409Y016943D01*
X040432Y016921D01*
X040452Y016897D01*
X040469Y016870D01*
X040482Y016842D01*
X040492Y016812D01*
X040498Y016781D01*
X040500Y016750D01*
X040498Y016719D01*
X040492Y016688D01*
X040482Y016658D01*
X040469Y016630D01*
X040452Y016603D01*
X040432Y016579D01*
X040409Y016557D01*
X040384Y016539D01*
X040356Y016524D01*
X040327Y016512D01*
X040297Y016504D01*
X040266Y016500D01*
X040234Y016500D01*
X040203Y016504D01*
X040173Y016512D01*
X040144Y016524D01*
X040116Y016539D01*
X040091Y016557D01*
X040068Y016579D01*
X040048Y016603D01*
X040031Y016630D01*
X040018Y016658D01*
X040008Y016688D01*
X040002Y016719D01*
X040000Y016750D01*
X032500Y016750D02*
X032502Y016781D01*
X032508Y016812D01*
X032518Y016842D01*
X032531Y016870D01*
X032548Y016897D01*
X032568Y016921D01*
X032591Y016943D01*
X032616Y016961D01*
X032644Y016976D01*
X032673Y016988D01*
X032703Y016996D01*
X032734Y017000D01*
X032766Y017000D01*
X032797Y016996D01*
X032827Y016988D01*
X032856Y016976D01*
X032884Y016961D01*
X032909Y016943D01*
X032932Y016921D01*
X032952Y016897D01*
X032969Y016870D01*
X032982Y016842D01*
X032992Y016812D01*
X032998Y016781D01*
X033000Y016750D01*
X032998Y016719D01*
X032992Y016688D01*
X032982Y016658D01*
X032969Y016630D01*
X032952Y016603D01*
X032932Y016579D01*
X032909Y016557D01*
X032884Y016539D01*
X032856Y016524D01*
X032827Y016512D01*
X032797Y016504D01*
X032766Y016500D01*
X032734Y016500D01*
X032703Y016504D01*
X032673Y016512D01*
X032644Y016524D01*
X032616Y016539D01*
X032591Y016557D01*
X032568Y016579D01*
X032548Y016603D01*
X032531Y016630D01*
X032518Y016658D01*
X032508Y016688D01*
X032502Y016719D01*
X032500Y016750D01*
X032500Y009250D02*
X032502Y009281D01*
X032508Y009312D01*
X032518Y009342D01*
X032531Y009370D01*
X032548Y009397D01*
X032568Y009421D01*
X032591Y009443D01*
X032616Y009461D01*
X032644Y009476D01*
X032673Y009488D01*
X032703Y009496D01*
X032734Y009500D01*
X032766Y009500D01*
X032797Y009496D01*
X032827Y009488D01*
X032856Y009476D01*
X032884Y009461D01*
X032909Y009443D01*
X032932Y009421D01*
X032952Y009397D01*
X032969Y009370D01*
X032982Y009342D01*
X032992Y009312D01*
X032998Y009281D01*
X033000Y009250D01*
X032998Y009219D01*
X032992Y009188D01*
X032982Y009158D01*
X032969Y009130D01*
X032952Y009103D01*
X032932Y009079D01*
X032909Y009057D01*
X032884Y009039D01*
X032856Y009024D01*
X032827Y009012D01*
X032797Y009004D01*
X032766Y009000D01*
X032734Y009000D01*
X032703Y009004D01*
X032673Y009012D01*
X032644Y009024D01*
X032616Y009039D01*
X032591Y009057D01*
X032568Y009079D01*
X032548Y009103D01*
X032531Y009130D01*
X032518Y009158D01*
X032508Y009188D01*
X032502Y009219D01*
X032500Y009250D01*
X025000Y009250D02*
X025002Y009281D01*
X025008Y009312D01*
X025018Y009342D01*
X025031Y009370D01*
X025048Y009397D01*
X025068Y009421D01*
X025091Y009443D01*
X025116Y009461D01*
X025144Y009476D01*
X025173Y009488D01*
X025203Y009496D01*
X025234Y009500D01*
X025266Y009500D01*
X025297Y009496D01*
X025327Y009488D01*
X025356Y009476D01*
X025384Y009461D01*
X025409Y009443D01*
X025432Y009421D01*
X025452Y009397D01*
X025469Y009370D01*
X025482Y009342D01*
X025492Y009312D01*
X025498Y009281D01*
X025500Y009250D01*
X025498Y009219D01*
X025492Y009188D01*
X025482Y009158D01*
X025469Y009130D01*
X025452Y009103D01*
X025432Y009079D01*
X025409Y009057D01*
X025384Y009039D01*
X025356Y009024D01*
X025327Y009012D01*
X025297Y009004D01*
X025266Y009000D01*
X025234Y009000D01*
X025203Y009004D01*
X025173Y009012D01*
X025144Y009024D01*
X025116Y009039D01*
X025091Y009057D01*
X025068Y009079D01*
X025048Y009103D01*
X025031Y009130D01*
X025018Y009158D01*
X025008Y009188D01*
X025002Y009219D01*
X025000Y009250D01*
X025000Y016750D02*
X025002Y016781D01*
X025008Y016812D01*
X025018Y016842D01*
X025031Y016870D01*
X025048Y016897D01*
X025068Y016921D01*
X025091Y016943D01*
X025116Y016961D01*
X025144Y016976D01*
X025173Y016988D01*
X025203Y016996D01*
X025234Y017000D01*
X025266Y017000D01*
X025297Y016996D01*
X025327Y016988D01*
X025356Y016976D01*
X025384Y016961D01*
X025409Y016943D01*
X025432Y016921D01*
X025452Y016897D01*
X025469Y016870D01*
X025482Y016842D01*
X025492Y016812D01*
X025498Y016781D01*
X025500Y016750D01*
X025498Y016719D01*
X025492Y016688D01*
X025482Y016658D01*
X025469Y016630D01*
X025452Y016603D01*
X025432Y016579D01*
X025409Y016557D01*
X025384Y016539D01*
X025356Y016524D01*
X025327Y016512D01*
X025297Y016504D01*
X025266Y016500D01*
X025234Y016500D01*
X025203Y016504D01*
X025173Y016512D01*
X025144Y016524D01*
X025116Y016539D01*
X025091Y016557D01*
X025068Y016579D01*
X025048Y016603D01*
X025031Y016630D01*
X025018Y016658D01*
X025008Y016688D01*
X025002Y016719D01*
X025000Y016750D01*
X017500Y016750D02*
X017502Y016781D01*
X017508Y016812D01*
X017518Y016842D01*
X017531Y016870D01*
X017548Y016897D01*
X017568Y016921D01*
X017591Y016943D01*
X017616Y016961D01*
X017644Y016976D01*
X017673Y016988D01*
X017703Y016996D01*
X017734Y017000D01*
X017766Y017000D01*
X017797Y016996D01*
X017827Y016988D01*
X017856Y016976D01*
X017884Y016961D01*
X017909Y016943D01*
X017932Y016921D01*
X017952Y016897D01*
X017969Y016870D01*
X017982Y016842D01*
X017992Y016812D01*
X017998Y016781D01*
X018000Y016750D01*
X017998Y016719D01*
X017992Y016688D01*
X017982Y016658D01*
X017969Y016630D01*
X017952Y016603D01*
X017932Y016579D01*
X017909Y016557D01*
X017884Y016539D01*
X017856Y016524D01*
X017827Y016512D01*
X017797Y016504D01*
X017766Y016500D01*
X017734Y016500D01*
X017703Y016504D01*
X017673Y016512D01*
X017644Y016524D01*
X017616Y016539D01*
X017591Y016557D01*
X017568Y016579D01*
X017548Y016603D01*
X017531Y016630D01*
X017518Y016658D01*
X017508Y016688D01*
X017502Y016719D01*
X017500Y016750D01*
X017500Y009250D02*
X017502Y009281D01*
X017508Y009312D01*
X017518Y009342D01*
X017531Y009370D01*
X017548Y009397D01*
X017568Y009421D01*
X017591Y009443D01*
X017616Y009461D01*
X017644Y009476D01*
X017673Y009488D01*
X017703Y009496D01*
X017734Y009500D01*
X017766Y009500D01*
X017797Y009496D01*
X017827Y009488D01*
X017856Y009476D01*
X017884Y009461D01*
X017909Y009443D01*
X017932Y009421D01*
X017952Y009397D01*
X017969Y009370D01*
X017982Y009342D01*
X017992Y009312D01*
X017998Y009281D01*
X018000Y009250D01*
X017998Y009219D01*
X017992Y009188D01*
X017982Y009158D01*
X017969Y009130D01*
X017952Y009103D01*
X017932Y009079D01*
X017909Y009057D01*
X017884Y009039D01*
X017856Y009024D01*
X017827Y009012D01*
X017797Y009004D01*
X017766Y009000D01*
X017734Y009000D01*
X017703Y009004D01*
X017673Y009012D01*
X017644Y009024D01*
X017616Y009039D01*
X017591Y009057D01*
X017568Y009079D01*
X017548Y009103D01*
X017531Y009130D01*
X017518Y009158D01*
X017508Y009188D01*
X017502Y009219D01*
X017500Y009250D01*
X010000Y009250D02*
X010002Y009281D01*
X010008Y009312D01*
X010018Y009342D01*
X010031Y009370D01*
X010048Y009397D01*
X010068Y009421D01*
X010091Y009443D01*
X010116Y009461D01*
X010144Y009476D01*
X010173Y009488D01*
X010203Y009496D01*
X010234Y009500D01*
X010266Y009500D01*
X010297Y009496D01*
X010327Y009488D01*
X010356Y009476D01*
X010384Y009461D01*
X010409Y009443D01*
X010432Y009421D01*
X010452Y009397D01*
X010469Y009370D01*
X010482Y009342D01*
X010492Y009312D01*
X010498Y009281D01*
X010500Y009250D01*
X010498Y009219D01*
X010492Y009188D01*
X010482Y009158D01*
X010469Y009130D01*
X010452Y009103D01*
X010432Y009079D01*
X010409Y009057D01*
X010384Y009039D01*
X010356Y009024D01*
X010327Y009012D01*
X010297Y009004D01*
X010266Y009000D01*
X010234Y009000D01*
X010203Y009004D01*
X010173Y009012D01*
X010144Y009024D01*
X010116Y009039D01*
X010091Y009057D01*
X010068Y009079D01*
X010048Y009103D01*
X010031Y009130D01*
X010018Y009158D01*
X010008Y009188D01*
X010002Y009219D01*
X010000Y009250D01*
X010000Y016750D02*
X010002Y016781D01*
X010008Y016812D01*
X010018Y016842D01*
X010031Y016870D01*
X010048Y016897D01*
X010068Y016921D01*
X010091Y016943D01*
X010116Y016961D01*
X010144Y016976D01*
X010173Y016988D01*
X010203Y016996D01*
X010234Y017000D01*
X010266Y017000D01*
X010297Y016996D01*
X010327Y016988D01*
X010356Y016976D01*
X010384Y016961D01*
X010409Y016943D01*
X010432Y016921D01*
X010452Y016897D01*
X010469Y016870D01*
X010482Y016842D01*
X010492Y016812D01*
X010498Y016781D01*
X010500Y016750D01*
X010498Y016719D01*
X010492Y016688D01*
X010482Y016658D01*
X010469Y016630D01*
X010452Y016603D01*
X010432Y016579D01*
X010409Y016557D01*
X010384Y016539D01*
X010356Y016524D01*
X010327Y016512D01*
X010297Y016504D01*
X010266Y016500D01*
X010234Y016500D01*
X010203Y016504D01*
X010173Y016512D01*
X010144Y016524D01*
X010116Y016539D01*
X010091Y016557D01*
X010068Y016579D01*
X010048Y016603D01*
X010031Y016630D01*
X010018Y016658D01*
X010008Y016688D01*
X010002Y016719D01*
X010000Y016750D01*
X002500Y016750D02*
X002502Y016781D01*
X002508Y016812D01*
X002518Y016842D01*
X002531Y016870D01*
X002548Y016897D01*
X002568Y016921D01*
X002591Y016943D01*
X002616Y016961D01*
X002644Y016976D01*
X002673Y016988D01*
X002703Y016996D01*
X002734Y017000D01*
X002766Y017000D01*
X002797Y016996D01*
X002827Y016988D01*
X002856Y016976D01*
X002884Y016961D01*
X002909Y016943D01*
X002932Y016921D01*
X002952Y016897D01*
X002969Y016870D01*
X002982Y016842D01*
X002992Y016812D01*
X002998Y016781D01*
X003000Y016750D01*
X002998Y016719D01*
X002992Y016688D01*
X002982Y016658D01*
X002969Y016630D01*
X002952Y016603D01*
X002932Y016579D01*
X002909Y016557D01*
X002884Y016539D01*
X002856Y016524D01*
X002827Y016512D01*
X002797Y016504D01*
X002766Y016500D01*
X002734Y016500D01*
X002703Y016504D01*
X002673Y016512D01*
X002644Y016524D01*
X002616Y016539D01*
X002591Y016557D01*
X002568Y016579D01*
X002548Y016603D01*
X002531Y016630D01*
X002518Y016658D01*
X002508Y016688D01*
X002502Y016719D01*
X002500Y016750D01*
X002500Y009250D02*
X002502Y009281D01*
X002508Y009312D01*
X002518Y009342D01*
X002531Y009370D01*
X002548Y009397D01*
X002568Y009421D01*
X002591Y009443D01*
X002616Y009461D01*
X002644Y009476D01*
X002673Y009488D01*
X002703Y009496D01*
X002734Y009500D01*
X002766Y009500D01*
X002797Y009496D01*
X002827Y009488D01*
X002856Y009476D01*
X002884Y009461D01*
X002909Y009443D01*
X002932Y009421D01*
X002952Y009397D01*
X002969Y009370D01*
X002982Y009342D01*
X002992Y009312D01*
X002998Y009281D01*
X003000Y009250D01*
X002998Y009219D01*
X002992Y009188D01*
X002982Y009158D01*
X002969Y009130D01*
X002952Y009103D01*
X002932Y009079D01*
X002909Y009057D01*
X002884Y009039D01*
X002856Y009024D01*
X002827Y009012D01*
X002797Y009004D01*
X002766Y009000D01*
X002734Y009000D01*
X002703Y009004D01*
X002673Y009012D01*
X002644Y009024D01*
X002616Y009039D01*
X002591Y009057D01*
X002568Y009079D01*
X002548Y009103D01*
X002531Y009130D01*
X002518Y009158D01*
X002508Y009188D01*
X002502Y009219D01*
X002500Y009250D01*
X002500Y001750D02*
X002502Y001781D01*
X002508Y001812D01*
X002518Y001842D01*
X002531Y001870D01*
X002548Y001897D01*
X002568Y001921D01*
X002591Y001943D01*
X002616Y001961D01*
X002644Y001976D01*
X002673Y001988D01*
X002703Y001996D01*
X002734Y002000D01*
X002766Y002000D01*
X002797Y001996D01*
X002827Y001988D01*
X002856Y001976D01*
X002884Y001961D01*
X002909Y001943D01*
X002932Y001921D01*
X002952Y001897D01*
X002969Y001870D01*
X002982Y001842D01*
X002992Y001812D01*
X002998Y001781D01*
X003000Y001750D01*
X002998Y001719D01*
X002992Y001688D01*
X002982Y001658D01*
X002969Y001630D01*
X002952Y001603D01*
X002932Y001579D01*
X002909Y001557D01*
X002884Y001539D01*
X002856Y001524D01*
X002827Y001512D01*
X002797Y001504D01*
X002766Y001500D01*
X002734Y001500D01*
X002703Y001504D01*
X002673Y001512D01*
X002644Y001524D01*
X002616Y001539D01*
X002591Y001557D01*
X002568Y001579D01*
X002548Y001603D01*
X002531Y001630D01*
X002518Y001658D01*
X002508Y001688D01*
X002502Y001719D01*
X002500Y001750D01*
X010000Y001750D02*
X010002Y001781D01*
X010008Y001812D01*
X010018Y001842D01*
X010031Y001870D01*
X010048Y001897D01*
X010068Y001921D01*
X010091Y001943D01*
X010116Y001961D01*
X010144Y001976D01*
X010173Y001988D01*
X010203Y001996D01*
X010234Y002000D01*
X010266Y002000D01*
X010297Y001996D01*
X010327Y001988D01*
X010356Y001976D01*
X010384Y001961D01*
X010409Y001943D01*
X010432Y001921D01*
X010452Y001897D01*
X010469Y001870D01*
X010482Y001842D01*
X010492Y001812D01*
X010498Y001781D01*
X010500Y001750D01*
X010498Y001719D01*
X010492Y001688D01*
X010482Y001658D01*
X010469Y001630D01*
X010452Y001603D01*
X010432Y001579D01*
X010409Y001557D01*
X010384Y001539D01*
X010356Y001524D01*
X010327Y001512D01*
X010297Y001504D01*
X010266Y001500D01*
X010234Y001500D01*
X010203Y001504D01*
X010173Y001512D01*
X010144Y001524D01*
X010116Y001539D01*
X010091Y001557D01*
X010068Y001579D01*
X010048Y001603D01*
X010031Y001630D01*
X010018Y001658D01*
X010008Y001688D01*
X010002Y001719D01*
X010000Y001750D01*
X017500Y001750D02*
X017502Y001781D01*
X017508Y001812D01*
X017518Y001842D01*
X017531Y001870D01*
X017548Y001897D01*
X017568Y001921D01*
X017591Y001943D01*
X017616Y001961D01*
X017644Y001976D01*
X017673Y001988D01*
X017703Y001996D01*
X017734Y002000D01*
X017766Y002000D01*
X017797Y001996D01*
X017827Y001988D01*
X017856Y001976D01*
X017884Y001961D01*
X017909Y001943D01*
X017932Y001921D01*
X017952Y001897D01*
X017969Y001870D01*
X017982Y001842D01*
X017992Y001812D01*
X017998Y001781D01*
X018000Y001750D01*
X017998Y001719D01*
X017992Y001688D01*
X017982Y001658D01*
X017969Y001630D01*
X017952Y001603D01*
X017932Y001579D01*
X017909Y001557D01*
X017884Y001539D01*
X017856Y001524D01*
X017827Y001512D01*
X017797Y001504D01*
X017766Y001500D01*
X017734Y001500D01*
X017703Y001504D01*
X017673Y001512D01*
X017644Y001524D01*
X017616Y001539D01*
X017591Y001557D01*
X017568Y001579D01*
X017548Y001603D01*
X017531Y001630D01*
X017518Y001658D01*
X017508Y001688D01*
X017502Y001719D01*
X017500Y001750D01*
X025000Y001750D02*
X025002Y001781D01*
X025008Y001812D01*
X025018Y001842D01*
X025031Y001870D01*
X025048Y001897D01*
X025068Y001921D01*
X025091Y001943D01*
X025116Y001961D01*
X025144Y001976D01*
X025173Y001988D01*
X025203Y001996D01*
X025234Y002000D01*
X025266Y002000D01*
X025297Y001996D01*
X025327Y001988D01*
X025356Y001976D01*
X025384Y001961D01*
X025409Y001943D01*
X025432Y001921D01*
X025452Y001897D01*
X025469Y001870D01*
X025482Y001842D01*
X025492Y001812D01*
X025498Y001781D01*
X025500Y001750D01*
X025498Y001719D01*
X025492Y001688D01*
X025482Y001658D01*
X025469Y001630D01*
X025452Y001603D01*
X025432Y001579D01*
X025409Y001557D01*
X025384Y001539D01*
X025356Y001524D01*
X025327Y001512D01*
X025297Y001504D01*
X025266Y001500D01*
X025234Y001500D01*
X025203Y001504D01*
X025173Y001512D01*
X025144Y001524D01*
X025116Y001539D01*
X025091Y001557D01*
X025068Y001579D01*
X025048Y001603D01*
X025031Y001630D01*
X025018Y001658D01*
X025008Y001688D01*
X025002Y001719D01*
X025000Y001750D01*
X032500Y001750D02*
X032502Y001781D01*
X032508Y001812D01*
X032518Y001842D01*
X032531Y001870D01*
X032548Y001897D01*
X032568Y001921D01*
X032591Y001943D01*
X032616Y001961D01*
X032644Y001976D01*
X032673Y001988D01*
X032703Y001996D01*
X032734Y002000D01*
X032766Y002000D01*
X032797Y001996D01*
X032827Y001988D01*
X032856Y001976D01*
X032884Y001961D01*
X032909Y001943D01*
X032932Y001921D01*
X032952Y001897D01*
X032969Y001870D01*
X032982Y001842D01*
X032992Y001812D01*
X032998Y001781D01*
X033000Y001750D01*
X032998Y001719D01*
X032992Y001688D01*
X032982Y001658D01*
X032969Y001630D01*
X032952Y001603D01*
X032932Y001579D01*
X032909Y001557D01*
X032884Y001539D01*
X032856Y001524D01*
X032827Y001512D01*
X032797Y001504D01*
X032766Y001500D01*
X032734Y001500D01*
X032703Y001504D01*
X032673Y001512D01*
X032644Y001524D01*
X032616Y001539D01*
X032591Y001557D01*
X032568Y001579D01*
X032548Y001603D01*
X032531Y001630D01*
X032518Y001658D01*
X032508Y001688D01*
X032502Y001719D01*
X032500Y001750D01*
X040000Y001750D02*
X040002Y001781D01*
X040008Y001812D01*
X040018Y001842D01*
X040031Y001870D01*
X040048Y001897D01*
X040068Y001921D01*
X040091Y001943D01*
X040116Y001961D01*
X040144Y001976D01*
X040173Y001988D01*
X040203Y001996D01*
X040234Y002000D01*
X040266Y002000D01*
X040297Y001996D01*
X040327Y001988D01*
X040356Y001976D01*
X040384Y001961D01*
X040409Y001943D01*
X040432Y001921D01*
X040452Y001897D01*
X040469Y001870D01*
X040482Y001842D01*
X040492Y001812D01*
X040498Y001781D01*
X040500Y001750D01*
X040498Y001719D01*
X040492Y001688D01*
X040482Y001658D01*
X040469Y001630D01*
X040452Y001603D01*
X040432Y001579D01*
X040409Y001557D01*
X040384Y001539D01*
X040356Y001524D01*
X040327Y001512D01*
X040297Y001504D01*
X040266Y001500D01*
X040234Y001500D01*
X040203Y001504D01*
X040173Y001512D01*
X040144Y001524D01*
X040116Y001539D01*
X040091Y001557D01*
X040068Y001579D01*
X040048Y001603D01*
X040031Y001630D01*
X040018Y001658D01*
X040008Y001688D01*
X040002Y001719D01*
X040000Y001750D01*
X047500Y001750D02*
X047502Y001781D01*
X047508Y001812D01*
X047518Y001842D01*
X047531Y001870D01*
X047548Y001897D01*
X047568Y001921D01*
X047591Y001943D01*
X047616Y001961D01*
X047644Y001976D01*
X047673Y001988D01*
X047703Y001996D01*
X047734Y002000D01*
X047766Y002000D01*
X047797Y001996D01*
X047827Y001988D01*
X047856Y001976D01*
X047884Y001961D01*
X047909Y001943D01*
X047932Y001921D01*
X047952Y001897D01*
X047969Y001870D01*
X047982Y001842D01*
X047992Y001812D01*
X047998Y001781D01*
X048000Y001750D01*
X047998Y001719D01*
X047992Y001688D01*
X047982Y001658D01*
X047969Y001630D01*
X047952Y001603D01*
X047932Y001579D01*
X047909Y001557D01*
X047884Y001539D01*
X047856Y001524D01*
X047827Y001512D01*
X047797Y001504D01*
X047766Y001500D01*
X047734Y001500D01*
X047703Y001504D01*
X047673Y001512D01*
X047644Y001524D01*
X047616Y001539D01*
X047591Y001557D01*
X047568Y001579D01*
X047548Y001603D01*
X047531Y001630D01*
X047518Y001658D01*
X047508Y001688D01*
X047502Y001719D01*
X047500Y001750D01*
X055000Y001750D02*
X055002Y001781D01*
X055008Y001812D01*
X055018Y001842D01*
X055031Y001870D01*
X055048Y001897D01*
X055068Y001921D01*
X055091Y001943D01*
X055116Y001961D01*
X055144Y001976D01*
X055173Y001988D01*
X055203Y001996D01*
X055234Y002000D01*
X055266Y002000D01*
X055297Y001996D01*
X055327Y001988D01*
X055356Y001976D01*
X055384Y001961D01*
X055409Y001943D01*
X055432Y001921D01*
X055452Y001897D01*
X055469Y001870D01*
X055482Y001842D01*
X055492Y001812D01*
X055498Y001781D01*
X055500Y001750D01*
X055498Y001719D01*
X055492Y001688D01*
X055482Y001658D01*
X055469Y001630D01*
X055452Y001603D01*
X055432Y001579D01*
X055409Y001557D01*
X055384Y001539D01*
X055356Y001524D01*
X055327Y001512D01*
X055297Y001504D01*
X055266Y001500D01*
X055234Y001500D01*
X055203Y001504D01*
X055173Y001512D01*
X055144Y001524D01*
X055116Y001539D01*
X055091Y001557D01*
X055068Y001579D01*
X055048Y001603D01*
X055031Y001630D01*
X055018Y001658D01*
X055008Y001688D01*
X055002Y001719D01*
X055000Y001750D01*
X062500Y001750D02*
X062502Y001781D01*
X062508Y001812D01*
X062518Y001842D01*
X062531Y001870D01*
X062548Y001897D01*
X062568Y001921D01*
X062591Y001943D01*
X062616Y001961D01*
X062644Y001976D01*
X062673Y001988D01*
X062703Y001996D01*
X062734Y002000D01*
X062766Y002000D01*
X062797Y001996D01*
X062827Y001988D01*
X062856Y001976D01*
X062884Y001961D01*
X062909Y001943D01*
X062932Y001921D01*
X062952Y001897D01*
X062969Y001870D01*
X062982Y001842D01*
X062992Y001812D01*
X062998Y001781D01*
X063000Y001750D01*
X062998Y001719D01*
X062992Y001688D01*
X062982Y001658D01*
X062969Y001630D01*
X062952Y001603D01*
X062932Y001579D01*
X062909Y001557D01*
X062884Y001539D01*
X062856Y001524D01*
X062827Y001512D01*
X062797Y001504D01*
X062766Y001500D01*
X062734Y001500D01*
X062703Y001504D01*
X062673Y001512D01*
X062644Y001524D01*
X062616Y001539D01*
X062591Y001557D01*
X062568Y001579D01*
X062548Y001603D01*
X062531Y001630D01*
X062518Y001658D01*
X062508Y001688D01*
X062502Y001719D01*
X062500Y001750D01*
X070000Y001750D02*
X070002Y001781D01*
X070008Y001812D01*
X070018Y001842D01*
X070031Y001870D01*
X070048Y001897D01*
X070068Y001921D01*
X070091Y001943D01*
X070116Y001961D01*
X070144Y001976D01*
X070173Y001988D01*
X070203Y001996D01*
X070234Y002000D01*
X070266Y002000D01*
X070297Y001996D01*
X070327Y001988D01*
X070356Y001976D01*
X070384Y001961D01*
X070409Y001943D01*
X070432Y001921D01*
X070452Y001897D01*
X070469Y001870D01*
X070482Y001842D01*
X070492Y001812D01*
X070498Y001781D01*
X070500Y001750D01*
X070498Y001719D01*
X070492Y001688D01*
X070482Y001658D01*
X070469Y001630D01*
X070452Y001603D01*
X070432Y001579D01*
X070409Y001557D01*
X070384Y001539D01*
X070356Y001524D01*
X070327Y001512D01*
X070297Y001504D01*
X070266Y001500D01*
X070234Y001500D01*
X070203Y001504D01*
X070173Y001512D01*
X070144Y001524D01*
X070116Y001539D01*
X070091Y001557D01*
X070068Y001579D01*
X070048Y001603D01*
X070031Y001630D01*
X070018Y001658D01*
X070008Y001688D01*
X070002Y001719D01*
X070000Y001750D01*
X070000Y009250D02*
X070002Y009281D01*
X070008Y009312D01*
X070018Y009342D01*
X070031Y009370D01*
X070048Y009397D01*
X070068Y009421D01*
X070091Y009443D01*
X070116Y009461D01*
X070144Y009476D01*
X070173Y009488D01*
X070203Y009496D01*
X070234Y009500D01*
X070266Y009500D01*
X070297Y009496D01*
X070327Y009488D01*
X070356Y009476D01*
X070384Y009461D01*
X070409Y009443D01*
X070432Y009421D01*
X070452Y009397D01*
X070469Y009370D01*
X070482Y009342D01*
X070492Y009312D01*
X070498Y009281D01*
X070500Y009250D01*
X070498Y009219D01*
X070492Y009188D01*
X070482Y009158D01*
X070469Y009130D01*
X070452Y009103D01*
X070432Y009079D01*
X070409Y009057D01*
X070384Y009039D01*
X070356Y009024D01*
X070327Y009012D01*
X070297Y009004D01*
X070266Y009000D01*
X070234Y009000D01*
X070203Y009004D01*
X070173Y009012D01*
X070144Y009024D01*
X070116Y009039D01*
X070091Y009057D01*
X070068Y009079D01*
X070048Y009103D01*
X070031Y009130D01*
X070018Y009158D01*
X070008Y009188D01*
X070002Y009219D01*
X070000Y009250D01*
X070000Y024250D02*
X070002Y024281D01*
X070008Y024312D01*
X070018Y024342D01*
X070031Y024370D01*
X070048Y024397D01*
X070068Y024421D01*
X070091Y024443D01*
X070116Y024461D01*
X070144Y024476D01*
X070173Y024488D01*
X070203Y024496D01*
X070234Y024500D01*
X070266Y024500D01*
X070297Y024496D01*
X070327Y024488D01*
X070356Y024476D01*
X070384Y024461D01*
X070409Y024443D01*
X070432Y024421D01*
X070452Y024397D01*
X070469Y024370D01*
X070482Y024342D01*
X070492Y024312D01*
X070498Y024281D01*
X070500Y024250D01*
X070498Y024219D01*
X070492Y024188D01*
X070482Y024158D01*
X070469Y024130D01*
X070452Y024103D01*
X070432Y024079D01*
X070409Y024057D01*
X070384Y024039D01*
X070356Y024024D01*
X070327Y024012D01*
X070297Y024004D01*
X070266Y024000D01*
X070234Y024000D01*
X070203Y024004D01*
X070173Y024012D01*
X070144Y024024D01*
X070116Y024039D01*
X070091Y024057D01*
X070068Y024079D01*
X070048Y024103D01*
X070031Y024130D01*
X070018Y024158D01*
X070008Y024188D01*
X070002Y024219D01*
X070000Y024250D01*
X062500Y024250D02*
X062502Y024281D01*
X062508Y024312D01*
X062518Y024342D01*
X062531Y024370D01*
X062548Y024397D01*
X062568Y024421D01*
X062591Y024443D01*
X062616Y024461D01*
X062644Y024476D01*
X062673Y024488D01*
X062703Y024496D01*
X062734Y024500D01*
X062766Y024500D01*
X062797Y024496D01*
X062827Y024488D01*
X062856Y024476D01*
X062884Y024461D01*
X062909Y024443D01*
X062932Y024421D01*
X062952Y024397D01*
X062969Y024370D01*
X062982Y024342D01*
X062992Y024312D01*
X062998Y024281D01*
X063000Y024250D01*
X062998Y024219D01*
X062992Y024188D01*
X062982Y024158D01*
X062969Y024130D01*
X062952Y024103D01*
X062932Y024079D01*
X062909Y024057D01*
X062884Y024039D01*
X062856Y024024D01*
X062827Y024012D01*
X062797Y024004D01*
X062766Y024000D01*
X062734Y024000D01*
X062703Y024004D01*
X062673Y024012D01*
X062644Y024024D01*
X062616Y024039D01*
X062591Y024057D01*
X062568Y024079D01*
X062548Y024103D01*
X062531Y024130D01*
X062518Y024158D01*
X062508Y024188D01*
X062502Y024219D01*
X062500Y024250D01*
X055000Y024250D02*
X055002Y024281D01*
X055008Y024312D01*
X055018Y024342D01*
X055031Y024370D01*
X055048Y024397D01*
X055068Y024421D01*
X055091Y024443D01*
X055116Y024461D01*
X055144Y024476D01*
X055173Y024488D01*
X055203Y024496D01*
X055234Y024500D01*
X055266Y024500D01*
X055297Y024496D01*
X055327Y024488D01*
X055356Y024476D01*
X055384Y024461D01*
X055409Y024443D01*
X055432Y024421D01*
X055452Y024397D01*
X055469Y024370D01*
X055482Y024342D01*
X055492Y024312D01*
X055498Y024281D01*
X055500Y024250D01*
X055498Y024219D01*
X055492Y024188D01*
X055482Y024158D01*
X055469Y024130D01*
X055452Y024103D01*
X055432Y024079D01*
X055409Y024057D01*
X055384Y024039D01*
X055356Y024024D01*
X055327Y024012D01*
X055297Y024004D01*
X055266Y024000D01*
X055234Y024000D01*
X055203Y024004D01*
X055173Y024012D01*
X055144Y024024D01*
X055116Y024039D01*
X055091Y024057D01*
X055068Y024079D01*
X055048Y024103D01*
X055031Y024130D01*
X055018Y024158D01*
X055008Y024188D01*
X055002Y024219D01*
X055000Y024250D01*
X047500Y024250D02*
X047502Y024281D01*
X047508Y024312D01*
X047518Y024342D01*
X047531Y024370D01*
X047548Y024397D01*
X047568Y024421D01*
X047591Y024443D01*
X047616Y024461D01*
X047644Y024476D01*
X047673Y024488D01*
X047703Y024496D01*
X047734Y024500D01*
X047766Y024500D01*
X047797Y024496D01*
X047827Y024488D01*
X047856Y024476D01*
X047884Y024461D01*
X047909Y024443D01*
X047932Y024421D01*
X047952Y024397D01*
X047969Y024370D01*
X047982Y024342D01*
X047992Y024312D01*
X047998Y024281D01*
X048000Y024250D01*
X047998Y024219D01*
X047992Y024188D01*
X047982Y024158D01*
X047969Y024130D01*
X047952Y024103D01*
X047932Y024079D01*
X047909Y024057D01*
X047884Y024039D01*
X047856Y024024D01*
X047827Y024012D01*
X047797Y024004D01*
X047766Y024000D01*
X047734Y024000D01*
X047703Y024004D01*
X047673Y024012D01*
X047644Y024024D01*
X047616Y024039D01*
X047591Y024057D01*
X047568Y024079D01*
X047548Y024103D01*
X047531Y024130D01*
X047518Y024158D01*
X047508Y024188D01*
X047502Y024219D01*
X047500Y024250D01*
X040000Y024250D02*
X040002Y024281D01*
X040008Y024312D01*
X040018Y024342D01*
X040031Y024370D01*
X040048Y024397D01*
X040068Y024421D01*
X040091Y024443D01*
X040116Y024461D01*
X040144Y024476D01*
X040173Y024488D01*
X040203Y024496D01*
X040234Y024500D01*
X040266Y024500D01*
X040297Y024496D01*
X040327Y024488D01*
X040356Y024476D01*
X040384Y024461D01*
X040409Y024443D01*
X040432Y024421D01*
X040452Y024397D01*
X040469Y024370D01*
X040482Y024342D01*
X040492Y024312D01*
X040498Y024281D01*
X040500Y024250D01*
X040498Y024219D01*
X040492Y024188D01*
X040482Y024158D01*
X040469Y024130D01*
X040452Y024103D01*
X040432Y024079D01*
X040409Y024057D01*
X040384Y024039D01*
X040356Y024024D01*
X040327Y024012D01*
X040297Y024004D01*
X040266Y024000D01*
X040234Y024000D01*
X040203Y024004D01*
X040173Y024012D01*
X040144Y024024D01*
X040116Y024039D01*
X040091Y024057D01*
X040068Y024079D01*
X040048Y024103D01*
X040031Y024130D01*
X040018Y024158D01*
X040008Y024188D01*
X040002Y024219D01*
X040000Y024250D01*
X032500Y024250D02*
X032502Y024281D01*
X032508Y024312D01*
X032518Y024342D01*
X032531Y024370D01*
X032548Y024397D01*
X032568Y024421D01*
X032591Y024443D01*
X032616Y024461D01*
X032644Y024476D01*
X032673Y024488D01*
X032703Y024496D01*
X032734Y024500D01*
X032766Y024500D01*
X032797Y024496D01*
X032827Y024488D01*
X032856Y024476D01*
X032884Y024461D01*
X032909Y024443D01*
X032932Y024421D01*
X032952Y024397D01*
X032969Y024370D01*
X032982Y024342D01*
X032992Y024312D01*
X032998Y024281D01*
X033000Y024250D01*
X032998Y024219D01*
X032992Y024188D01*
X032982Y024158D01*
X032969Y024130D01*
X032952Y024103D01*
X032932Y024079D01*
X032909Y024057D01*
X032884Y024039D01*
X032856Y024024D01*
X032827Y024012D01*
X032797Y024004D01*
X032766Y024000D01*
X032734Y024000D01*
X032703Y024004D01*
X032673Y024012D01*
X032644Y024024D01*
X032616Y024039D01*
X032591Y024057D01*
X032568Y024079D01*
X032548Y024103D01*
X032531Y024130D01*
X032518Y024158D01*
X032508Y024188D01*
X032502Y024219D01*
X032500Y024250D01*
X025000Y024250D02*
X025002Y024281D01*
X025008Y024312D01*
X025018Y024342D01*
X025031Y024370D01*
X025048Y024397D01*
X025068Y024421D01*
X025091Y024443D01*
X025116Y024461D01*
X025144Y024476D01*
X025173Y024488D01*
X025203Y024496D01*
X025234Y024500D01*
X025266Y024500D01*
X025297Y024496D01*
X025327Y024488D01*
X025356Y024476D01*
X025384Y024461D01*
X025409Y024443D01*
X025432Y024421D01*
X025452Y024397D01*
X025469Y024370D01*
X025482Y024342D01*
X025492Y024312D01*
X025498Y024281D01*
X025500Y024250D01*
X025498Y024219D01*
X025492Y024188D01*
X025482Y024158D01*
X025469Y024130D01*
X025452Y024103D01*
X025432Y024079D01*
X025409Y024057D01*
X025384Y024039D01*
X025356Y024024D01*
X025327Y024012D01*
X025297Y024004D01*
X025266Y024000D01*
X025234Y024000D01*
X025203Y024004D01*
X025173Y024012D01*
X025144Y024024D01*
X025116Y024039D01*
X025091Y024057D01*
X025068Y024079D01*
X025048Y024103D01*
X025031Y024130D01*
X025018Y024158D01*
X025008Y024188D01*
X025002Y024219D01*
X025000Y024250D01*
X017500Y024250D02*
X017502Y024281D01*
X017508Y024312D01*
X017518Y024342D01*
X017531Y024370D01*
X017548Y024397D01*
X017568Y024421D01*
X017591Y024443D01*
X017616Y024461D01*
X017644Y024476D01*
X017673Y024488D01*
X017703Y024496D01*
X017734Y024500D01*
X017766Y024500D01*
X017797Y024496D01*
X017827Y024488D01*
X017856Y024476D01*
X017884Y024461D01*
X017909Y024443D01*
X017932Y024421D01*
X017952Y024397D01*
X017969Y024370D01*
X017982Y024342D01*
X017992Y024312D01*
X017998Y024281D01*
X018000Y024250D01*
X017998Y024219D01*
X017992Y024188D01*
X017982Y024158D01*
X017969Y024130D01*
X017952Y024103D01*
X017932Y024079D01*
X017909Y024057D01*
X017884Y024039D01*
X017856Y024024D01*
X017827Y024012D01*
X017797Y024004D01*
X017766Y024000D01*
X017734Y024000D01*
X017703Y024004D01*
X017673Y024012D01*
X017644Y024024D01*
X017616Y024039D01*
X017591Y024057D01*
X017568Y024079D01*
X017548Y024103D01*
X017531Y024130D01*
X017518Y024158D01*
X017508Y024188D01*
X017502Y024219D01*
X017500Y024250D01*
X010000Y024250D02*
X010002Y024281D01*
X010008Y024312D01*
X010018Y024342D01*
X010031Y024370D01*
X010048Y024397D01*
X010068Y024421D01*
X010091Y024443D01*
X010116Y024461D01*
X010144Y024476D01*
X010173Y024488D01*
X010203Y024496D01*
X010234Y024500D01*
X010266Y024500D01*
X010297Y024496D01*
X010327Y024488D01*
X010356Y024476D01*
X010384Y024461D01*
X010409Y024443D01*
X010432Y024421D01*
X010452Y024397D01*
X010469Y024370D01*
X010482Y024342D01*
X010492Y024312D01*
X010498Y024281D01*
X010500Y024250D01*
X010498Y024219D01*
X010492Y024188D01*
X010482Y024158D01*
X010469Y024130D01*
X010452Y024103D01*
X010432Y024079D01*
X010409Y024057D01*
X010384Y024039D01*
X010356Y024024D01*
X010327Y024012D01*
X010297Y024004D01*
X010266Y024000D01*
X010234Y024000D01*
X010203Y024004D01*
X010173Y024012D01*
X010144Y024024D01*
X010116Y024039D01*
X010091Y024057D01*
X010068Y024079D01*
X010048Y024103D01*
X010031Y024130D01*
X010018Y024158D01*
X010008Y024188D01*
X010002Y024219D01*
X010000Y024250D01*
X002500Y024250D02*
X002502Y024281D01*
X002508Y024312D01*
X002518Y024342D01*
X002531Y024370D01*
X002548Y024397D01*
X002568Y024421D01*
X002591Y024443D01*
X002616Y024461D01*
X002644Y024476D01*
X002673Y024488D01*
X002703Y024496D01*
X002734Y024500D01*
X002766Y024500D01*
X002797Y024496D01*
X002827Y024488D01*
X002856Y024476D01*
X002884Y024461D01*
X002909Y024443D01*
X002932Y024421D01*
X002952Y024397D01*
X002969Y024370D01*
X002982Y024342D01*
X002992Y024312D01*
X002998Y024281D01*
X003000Y024250D01*
X002998Y024219D01*
X002992Y024188D01*
X002982Y024158D01*
X002969Y024130D01*
X002952Y024103D01*
X002932Y024079D01*
X002909Y024057D01*
X002884Y024039D01*
X002856Y024024D01*
X002827Y024012D01*
X002797Y024004D01*
X002766Y024000D01*
X002734Y024000D01*
X002703Y024004D01*
X002673Y024012D01*
X002644Y024024D01*
X002616Y024039D01*
X002591Y024057D01*
X002568Y024079D01*
X002548Y024103D01*
X002531Y024130D01*
X002518Y024158D01*
X002508Y024188D01*
X002502Y024219D01*
X002500Y024250D01*
X002500Y047000D02*
X002502Y047031D01*
X002508Y047062D01*
X002518Y047092D01*
X002531Y047120D01*
X002548Y047147D01*
X002568Y047171D01*
X002591Y047193D01*
X002616Y047211D01*
X002644Y047226D01*
X002673Y047238D01*
X002703Y047246D01*
X002734Y047250D01*
X002766Y047250D01*
X002797Y047246D01*
X002827Y047238D01*
X002856Y047226D01*
X002884Y047211D01*
X002909Y047193D01*
X002932Y047171D01*
X002952Y047147D01*
X002969Y047120D01*
X002982Y047092D01*
X002992Y047062D01*
X002998Y047031D01*
X003000Y047000D01*
X002998Y046969D01*
X002992Y046938D01*
X002982Y046908D01*
X002969Y046880D01*
X002952Y046853D01*
X002932Y046829D01*
X002909Y046807D01*
X002884Y046789D01*
X002856Y046774D01*
X002827Y046762D01*
X002797Y046754D01*
X002766Y046750D01*
X002734Y046750D01*
X002703Y046754D01*
X002673Y046762D01*
X002644Y046774D01*
X002616Y046789D01*
X002591Y046807D01*
X002568Y046829D01*
X002548Y046853D01*
X002531Y046880D01*
X002518Y046908D01*
X002508Y046938D01*
X002502Y046969D01*
X002500Y047000D01*
X002500Y054500D02*
X002502Y054531D01*
X002508Y054562D01*
X002518Y054592D01*
X002531Y054620D01*
X002548Y054647D01*
X002568Y054671D01*
X002591Y054693D01*
X002616Y054711D01*
X002644Y054726D01*
X002673Y054738D01*
X002703Y054746D01*
X002734Y054750D01*
X002766Y054750D01*
X002797Y054746D01*
X002827Y054738D01*
X002856Y054726D01*
X002884Y054711D01*
X002909Y054693D01*
X002932Y054671D01*
X002952Y054647D01*
X002969Y054620D01*
X002982Y054592D01*
X002992Y054562D01*
X002998Y054531D01*
X003000Y054500D01*
X002998Y054469D01*
X002992Y054438D01*
X002982Y054408D01*
X002969Y054380D01*
X002952Y054353D01*
X002932Y054329D01*
X002909Y054307D01*
X002884Y054289D01*
X002856Y054274D01*
X002827Y054262D01*
X002797Y054254D01*
X002766Y054250D01*
X002734Y054250D01*
X002703Y054254D01*
X002673Y054262D01*
X002644Y054274D01*
X002616Y054289D01*
X002591Y054307D01*
X002568Y054329D01*
X002548Y054353D01*
X002531Y054380D01*
X002518Y054408D01*
X002508Y054438D01*
X002502Y054469D01*
X002500Y054500D01*
X002500Y062000D02*
X002502Y062031D01*
X002508Y062062D01*
X002518Y062092D01*
X002531Y062120D01*
X002548Y062147D01*
X002568Y062171D01*
X002591Y062193D01*
X002616Y062211D01*
X002644Y062226D01*
X002673Y062238D01*
X002703Y062246D01*
X002734Y062250D01*
X002766Y062250D01*
X002797Y062246D01*
X002827Y062238D01*
X002856Y062226D01*
X002884Y062211D01*
X002909Y062193D01*
X002932Y062171D01*
X002952Y062147D01*
X002969Y062120D01*
X002982Y062092D01*
X002992Y062062D01*
X002998Y062031D01*
X003000Y062000D01*
X002998Y061969D01*
X002992Y061938D01*
X002982Y061908D01*
X002969Y061880D01*
X002952Y061853D01*
X002932Y061829D01*
X002909Y061807D01*
X002884Y061789D01*
X002856Y061774D01*
X002827Y061762D01*
X002797Y061754D01*
X002766Y061750D01*
X002734Y061750D01*
X002703Y061754D01*
X002673Y061762D01*
X002644Y061774D01*
X002616Y061789D01*
X002591Y061807D01*
X002568Y061829D01*
X002548Y061853D01*
X002531Y061880D01*
X002518Y061908D01*
X002508Y061938D01*
X002502Y061969D01*
X002500Y062000D01*
X002500Y069500D02*
X002502Y069531D01*
X002508Y069562D01*
X002518Y069592D01*
X002531Y069620D01*
X002548Y069647D01*
X002568Y069671D01*
X002591Y069693D01*
X002616Y069711D01*
X002644Y069726D01*
X002673Y069738D01*
X002703Y069746D01*
X002734Y069750D01*
X002766Y069750D01*
X002797Y069746D01*
X002827Y069738D01*
X002856Y069726D01*
X002884Y069711D01*
X002909Y069693D01*
X002932Y069671D01*
X002952Y069647D01*
X002969Y069620D01*
X002982Y069592D01*
X002992Y069562D01*
X002998Y069531D01*
X003000Y069500D01*
X002998Y069469D01*
X002992Y069438D01*
X002982Y069408D01*
X002969Y069380D01*
X002952Y069353D01*
X002932Y069329D01*
X002909Y069307D01*
X002884Y069289D01*
X002856Y069274D01*
X002827Y069262D01*
X002797Y069254D01*
X002766Y069250D01*
X002734Y069250D01*
X002703Y069254D01*
X002673Y069262D01*
X002644Y069274D01*
X002616Y069289D01*
X002591Y069307D01*
X002568Y069329D01*
X002548Y069353D01*
X002531Y069380D01*
X002518Y069408D01*
X002508Y069438D01*
X002502Y069469D01*
X002500Y069500D01*
X010000Y069500D02*
X010002Y069531D01*
X010008Y069562D01*
X010018Y069592D01*
X010031Y069620D01*
X010048Y069647D01*
X010068Y069671D01*
X010091Y069693D01*
X010116Y069711D01*
X010144Y069726D01*
X010173Y069738D01*
X010203Y069746D01*
X010234Y069750D01*
X010266Y069750D01*
X010297Y069746D01*
X010327Y069738D01*
X010356Y069726D01*
X010384Y069711D01*
X010409Y069693D01*
X010432Y069671D01*
X010452Y069647D01*
X010469Y069620D01*
X010482Y069592D01*
X010492Y069562D01*
X010498Y069531D01*
X010500Y069500D01*
X010498Y069469D01*
X010492Y069438D01*
X010482Y069408D01*
X010469Y069380D01*
X010452Y069353D01*
X010432Y069329D01*
X010409Y069307D01*
X010384Y069289D01*
X010356Y069274D01*
X010327Y069262D01*
X010297Y069254D01*
X010266Y069250D01*
X010234Y069250D01*
X010203Y069254D01*
X010173Y069262D01*
X010144Y069274D01*
X010116Y069289D01*
X010091Y069307D01*
X010068Y069329D01*
X010048Y069353D01*
X010031Y069380D01*
X010018Y069408D01*
X010008Y069438D01*
X010002Y069469D01*
X010000Y069500D01*
X010000Y062000D02*
X010002Y062031D01*
X010008Y062062D01*
X010018Y062092D01*
X010031Y062120D01*
X010048Y062147D01*
X010068Y062171D01*
X010091Y062193D01*
X010116Y062211D01*
X010144Y062226D01*
X010173Y062238D01*
X010203Y062246D01*
X010234Y062250D01*
X010266Y062250D01*
X010297Y062246D01*
X010327Y062238D01*
X010356Y062226D01*
X010384Y062211D01*
X010409Y062193D01*
X010432Y062171D01*
X010452Y062147D01*
X010469Y062120D01*
X010482Y062092D01*
X010492Y062062D01*
X010498Y062031D01*
X010500Y062000D01*
X010498Y061969D01*
X010492Y061938D01*
X010482Y061908D01*
X010469Y061880D01*
X010452Y061853D01*
X010432Y061829D01*
X010409Y061807D01*
X010384Y061789D01*
X010356Y061774D01*
X010327Y061762D01*
X010297Y061754D01*
X010266Y061750D01*
X010234Y061750D01*
X010203Y061754D01*
X010173Y061762D01*
X010144Y061774D01*
X010116Y061789D01*
X010091Y061807D01*
X010068Y061829D01*
X010048Y061853D01*
X010031Y061880D01*
X010018Y061908D01*
X010008Y061938D01*
X010002Y061969D01*
X010000Y062000D01*
X010000Y054500D02*
X010002Y054531D01*
X010008Y054562D01*
X010018Y054592D01*
X010031Y054620D01*
X010048Y054647D01*
X010068Y054671D01*
X010091Y054693D01*
X010116Y054711D01*
X010144Y054726D01*
X010173Y054738D01*
X010203Y054746D01*
X010234Y054750D01*
X010266Y054750D01*
X010297Y054746D01*
X010327Y054738D01*
X010356Y054726D01*
X010384Y054711D01*
X010409Y054693D01*
X010432Y054671D01*
X010452Y054647D01*
X010469Y054620D01*
X010482Y054592D01*
X010492Y054562D01*
X010498Y054531D01*
X010500Y054500D01*
X010498Y054469D01*
X010492Y054438D01*
X010482Y054408D01*
X010469Y054380D01*
X010452Y054353D01*
X010432Y054329D01*
X010409Y054307D01*
X010384Y054289D01*
X010356Y054274D01*
X010327Y054262D01*
X010297Y054254D01*
X010266Y054250D01*
X010234Y054250D01*
X010203Y054254D01*
X010173Y054262D01*
X010144Y054274D01*
X010116Y054289D01*
X010091Y054307D01*
X010068Y054329D01*
X010048Y054353D01*
X010031Y054380D01*
X010018Y054408D01*
X010008Y054438D01*
X010002Y054469D01*
X010000Y054500D01*
X010000Y047000D02*
X010002Y047031D01*
X010008Y047062D01*
X010018Y047092D01*
X010031Y047120D01*
X010048Y047147D01*
X010068Y047171D01*
X010091Y047193D01*
X010116Y047211D01*
X010144Y047226D01*
X010173Y047238D01*
X010203Y047246D01*
X010234Y047250D01*
X010266Y047250D01*
X010297Y047246D01*
X010327Y047238D01*
X010356Y047226D01*
X010384Y047211D01*
X010409Y047193D01*
X010432Y047171D01*
X010452Y047147D01*
X010469Y047120D01*
X010482Y047092D01*
X010492Y047062D01*
X010498Y047031D01*
X010500Y047000D01*
X010498Y046969D01*
X010492Y046938D01*
X010482Y046908D01*
X010469Y046880D01*
X010452Y046853D01*
X010432Y046829D01*
X010409Y046807D01*
X010384Y046789D01*
X010356Y046774D01*
X010327Y046762D01*
X010297Y046754D01*
X010266Y046750D01*
X010234Y046750D01*
X010203Y046754D01*
X010173Y046762D01*
X010144Y046774D01*
X010116Y046789D01*
X010091Y046807D01*
X010068Y046829D01*
X010048Y046853D01*
X010031Y046880D01*
X010018Y046908D01*
X010008Y046938D01*
X010002Y046969D01*
X010000Y047000D01*
X017500Y047000D02*
X017502Y047031D01*
X017508Y047062D01*
X017518Y047092D01*
X017531Y047120D01*
X017548Y047147D01*
X017568Y047171D01*
X017591Y047193D01*
X017616Y047211D01*
X017644Y047226D01*
X017673Y047238D01*
X017703Y047246D01*
X017734Y047250D01*
X017766Y047250D01*
X017797Y047246D01*
X017827Y047238D01*
X017856Y047226D01*
X017884Y047211D01*
X017909Y047193D01*
X017932Y047171D01*
X017952Y047147D01*
X017969Y047120D01*
X017982Y047092D01*
X017992Y047062D01*
X017998Y047031D01*
X018000Y047000D01*
X017998Y046969D01*
X017992Y046938D01*
X017982Y046908D01*
X017969Y046880D01*
X017952Y046853D01*
X017932Y046829D01*
X017909Y046807D01*
X017884Y046789D01*
X017856Y046774D01*
X017827Y046762D01*
X017797Y046754D01*
X017766Y046750D01*
X017734Y046750D01*
X017703Y046754D01*
X017673Y046762D01*
X017644Y046774D01*
X017616Y046789D01*
X017591Y046807D01*
X017568Y046829D01*
X017548Y046853D01*
X017531Y046880D01*
X017518Y046908D01*
X017508Y046938D01*
X017502Y046969D01*
X017500Y047000D01*
X017500Y054500D02*
X017502Y054531D01*
X017508Y054562D01*
X017518Y054592D01*
X017531Y054620D01*
X017548Y054647D01*
X017568Y054671D01*
X017591Y054693D01*
X017616Y054711D01*
X017644Y054726D01*
X017673Y054738D01*
X017703Y054746D01*
X017734Y054750D01*
X017766Y054750D01*
X017797Y054746D01*
X017827Y054738D01*
X017856Y054726D01*
X017884Y054711D01*
X017909Y054693D01*
X017932Y054671D01*
X017952Y054647D01*
X017969Y054620D01*
X017982Y054592D01*
X017992Y054562D01*
X017998Y054531D01*
X018000Y054500D01*
X017998Y054469D01*
X017992Y054438D01*
X017982Y054408D01*
X017969Y054380D01*
X017952Y054353D01*
X017932Y054329D01*
X017909Y054307D01*
X017884Y054289D01*
X017856Y054274D01*
X017827Y054262D01*
X017797Y054254D01*
X017766Y054250D01*
X017734Y054250D01*
X017703Y054254D01*
X017673Y054262D01*
X017644Y054274D01*
X017616Y054289D01*
X017591Y054307D01*
X017568Y054329D01*
X017548Y054353D01*
X017531Y054380D01*
X017518Y054408D01*
X017508Y054438D01*
X017502Y054469D01*
X017500Y054500D01*
X017500Y062000D02*
X017502Y062031D01*
X017508Y062062D01*
X017518Y062092D01*
X017531Y062120D01*
X017548Y062147D01*
X017568Y062171D01*
X017591Y062193D01*
X017616Y062211D01*
X017644Y062226D01*
X017673Y062238D01*
X017703Y062246D01*
X017734Y062250D01*
X017766Y062250D01*
X017797Y062246D01*
X017827Y062238D01*
X017856Y062226D01*
X017884Y062211D01*
X017909Y062193D01*
X017932Y062171D01*
X017952Y062147D01*
X017969Y062120D01*
X017982Y062092D01*
X017992Y062062D01*
X017998Y062031D01*
X018000Y062000D01*
X017998Y061969D01*
X017992Y061938D01*
X017982Y061908D01*
X017969Y061880D01*
X017952Y061853D01*
X017932Y061829D01*
X017909Y061807D01*
X017884Y061789D01*
X017856Y061774D01*
X017827Y061762D01*
X017797Y061754D01*
X017766Y061750D01*
X017734Y061750D01*
X017703Y061754D01*
X017673Y061762D01*
X017644Y061774D01*
X017616Y061789D01*
X017591Y061807D01*
X017568Y061829D01*
X017548Y061853D01*
X017531Y061880D01*
X017518Y061908D01*
X017508Y061938D01*
X017502Y061969D01*
X017500Y062000D01*
X017500Y069500D02*
X017502Y069531D01*
X017508Y069562D01*
X017518Y069592D01*
X017531Y069620D01*
X017548Y069647D01*
X017568Y069671D01*
X017591Y069693D01*
X017616Y069711D01*
X017644Y069726D01*
X017673Y069738D01*
X017703Y069746D01*
X017734Y069750D01*
X017766Y069750D01*
X017797Y069746D01*
X017827Y069738D01*
X017856Y069726D01*
X017884Y069711D01*
X017909Y069693D01*
X017932Y069671D01*
X017952Y069647D01*
X017969Y069620D01*
X017982Y069592D01*
X017992Y069562D01*
X017998Y069531D01*
X018000Y069500D01*
X017998Y069469D01*
X017992Y069438D01*
X017982Y069408D01*
X017969Y069380D01*
X017952Y069353D01*
X017932Y069329D01*
X017909Y069307D01*
X017884Y069289D01*
X017856Y069274D01*
X017827Y069262D01*
X017797Y069254D01*
X017766Y069250D01*
X017734Y069250D01*
X017703Y069254D01*
X017673Y069262D01*
X017644Y069274D01*
X017616Y069289D01*
X017591Y069307D01*
X017568Y069329D01*
X017548Y069353D01*
X017531Y069380D01*
X017518Y069408D01*
X017508Y069438D01*
X017502Y069469D01*
X017500Y069500D01*
X025000Y069500D02*
X025002Y069531D01*
X025008Y069562D01*
X025018Y069592D01*
X025031Y069620D01*
X025048Y069647D01*
X025068Y069671D01*
X025091Y069693D01*
X025116Y069711D01*
X025144Y069726D01*
X025173Y069738D01*
X025203Y069746D01*
X025234Y069750D01*
X025266Y069750D01*
X025297Y069746D01*
X025327Y069738D01*
X025356Y069726D01*
X025384Y069711D01*
X025409Y069693D01*
X025432Y069671D01*
X025452Y069647D01*
X025469Y069620D01*
X025482Y069592D01*
X025492Y069562D01*
X025498Y069531D01*
X025500Y069500D01*
X025498Y069469D01*
X025492Y069438D01*
X025482Y069408D01*
X025469Y069380D01*
X025452Y069353D01*
X025432Y069329D01*
X025409Y069307D01*
X025384Y069289D01*
X025356Y069274D01*
X025327Y069262D01*
X025297Y069254D01*
X025266Y069250D01*
X025234Y069250D01*
X025203Y069254D01*
X025173Y069262D01*
X025144Y069274D01*
X025116Y069289D01*
X025091Y069307D01*
X025068Y069329D01*
X025048Y069353D01*
X025031Y069380D01*
X025018Y069408D01*
X025008Y069438D01*
X025002Y069469D01*
X025000Y069500D01*
X025000Y062000D02*
X025002Y062031D01*
X025008Y062062D01*
X025018Y062092D01*
X025031Y062120D01*
X025048Y062147D01*
X025068Y062171D01*
X025091Y062193D01*
X025116Y062211D01*
X025144Y062226D01*
X025173Y062238D01*
X025203Y062246D01*
X025234Y062250D01*
X025266Y062250D01*
X025297Y062246D01*
X025327Y062238D01*
X025356Y062226D01*
X025384Y062211D01*
X025409Y062193D01*
X025432Y062171D01*
X025452Y062147D01*
X025469Y062120D01*
X025482Y062092D01*
X025492Y062062D01*
X025498Y062031D01*
X025500Y062000D01*
X025498Y061969D01*
X025492Y061938D01*
X025482Y061908D01*
X025469Y061880D01*
X025452Y061853D01*
X025432Y061829D01*
X025409Y061807D01*
X025384Y061789D01*
X025356Y061774D01*
X025327Y061762D01*
X025297Y061754D01*
X025266Y061750D01*
X025234Y061750D01*
X025203Y061754D01*
X025173Y061762D01*
X025144Y061774D01*
X025116Y061789D01*
X025091Y061807D01*
X025068Y061829D01*
X025048Y061853D01*
X025031Y061880D01*
X025018Y061908D01*
X025008Y061938D01*
X025002Y061969D01*
X025000Y062000D01*
X025000Y054500D02*
X025002Y054531D01*
X025008Y054562D01*
X025018Y054592D01*
X025031Y054620D01*
X025048Y054647D01*
X025068Y054671D01*
X025091Y054693D01*
X025116Y054711D01*
X025144Y054726D01*
X025173Y054738D01*
X025203Y054746D01*
X025234Y054750D01*
X025266Y054750D01*
X025297Y054746D01*
X025327Y054738D01*
X025356Y054726D01*
X025384Y054711D01*
X025409Y054693D01*
X025432Y054671D01*
X025452Y054647D01*
X025469Y054620D01*
X025482Y054592D01*
X025492Y054562D01*
X025498Y054531D01*
X025500Y054500D01*
X025498Y054469D01*
X025492Y054438D01*
X025482Y054408D01*
X025469Y054380D01*
X025452Y054353D01*
X025432Y054329D01*
X025409Y054307D01*
X025384Y054289D01*
X025356Y054274D01*
X025327Y054262D01*
X025297Y054254D01*
X025266Y054250D01*
X025234Y054250D01*
X025203Y054254D01*
X025173Y054262D01*
X025144Y054274D01*
X025116Y054289D01*
X025091Y054307D01*
X025068Y054329D01*
X025048Y054353D01*
X025031Y054380D01*
X025018Y054408D01*
X025008Y054438D01*
X025002Y054469D01*
X025000Y054500D01*
X025000Y047000D02*
X025002Y047031D01*
X025008Y047062D01*
X025018Y047092D01*
X025031Y047120D01*
X025048Y047147D01*
X025068Y047171D01*
X025091Y047193D01*
X025116Y047211D01*
X025144Y047226D01*
X025173Y047238D01*
X025203Y047246D01*
X025234Y047250D01*
X025266Y047250D01*
X025297Y047246D01*
X025327Y047238D01*
X025356Y047226D01*
X025384Y047211D01*
X025409Y047193D01*
X025432Y047171D01*
X025452Y047147D01*
X025469Y047120D01*
X025482Y047092D01*
X025492Y047062D01*
X025498Y047031D01*
X025500Y047000D01*
X025498Y046969D01*
X025492Y046938D01*
X025482Y046908D01*
X025469Y046880D01*
X025452Y046853D01*
X025432Y046829D01*
X025409Y046807D01*
X025384Y046789D01*
X025356Y046774D01*
X025327Y046762D01*
X025297Y046754D01*
X025266Y046750D01*
X025234Y046750D01*
X025203Y046754D01*
X025173Y046762D01*
X025144Y046774D01*
X025116Y046789D01*
X025091Y046807D01*
X025068Y046829D01*
X025048Y046853D01*
X025031Y046880D01*
X025018Y046908D01*
X025008Y046938D01*
X025002Y046969D01*
X025000Y047000D01*
X032500Y047000D02*
X032502Y047031D01*
X032508Y047062D01*
X032518Y047092D01*
X032531Y047120D01*
X032548Y047147D01*
X032568Y047171D01*
X032591Y047193D01*
X032616Y047211D01*
X032644Y047226D01*
X032673Y047238D01*
X032703Y047246D01*
X032734Y047250D01*
X032766Y047250D01*
X032797Y047246D01*
X032827Y047238D01*
X032856Y047226D01*
X032884Y047211D01*
X032909Y047193D01*
X032932Y047171D01*
X032952Y047147D01*
X032969Y047120D01*
X032982Y047092D01*
X032992Y047062D01*
X032998Y047031D01*
X033000Y047000D01*
X032998Y046969D01*
X032992Y046938D01*
X032982Y046908D01*
X032969Y046880D01*
X032952Y046853D01*
X032932Y046829D01*
X032909Y046807D01*
X032884Y046789D01*
X032856Y046774D01*
X032827Y046762D01*
X032797Y046754D01*
X032766Y046750D01*
X032734Y046750D01*
X032703Y046754D01*
X032673Y046762D01*
X032644Y046774D01*
X032616Y046789D01*
X032591Y046807D01*
X032568Y046829D01*
X032548Y046853D01*
X032531Y046880D01*
X032518Y046908D01*
X032508Y046938D01*
X032502Y046969D01*
X032500Y047000D01*
X032500Y054500D02*
X032502Y054531D01*
X032508Y054562D01*
X032518Y054592D01*
X032531Y054620D01*
X032548Y054647D01*
X032568Y054671D01*
X032591Y054693D01*
X032616Y054711D01*
X032644Y054726D01*
X032673Y054738D01*
X032703Y054746D01*
X032734Y054750D01*
X032766Y054750D01*
X032797Y054746D01*
X032827Y054738D01*
X032856Y054726D01*
X032884Y054711D01*
X032909Y054693D01*
X032932Y054671D01*
X032952Y054647D01*
X032969Y054620D01*
X032982Y054592D01*
X032992Y054562D01*
X032998Y054531D01*
X033000Y054500D01*
X032998Y054469D01*
X032992Y054438D01*
X032982Y054408D01*
X032969Y054380D01*
X032952Y054353D01*
X032932Y054329D01*
X032909Y054307D01*
X032884Y054289D01*
X032856Y054274D01*
X032827Y054262D01*
X032797Y054254D01*
X032766Y054250D01*
X032734Y054250D01*
X032703Y054254D01*
X032673Y054262D01*
X032644Y054274D01*
X032616Y054289D01*
X032591Y054307D01*
X032568Y054329D01*
X032548Y054353D01*
X032531Y054380D01*
X032518Y054408D01*
X032508Y054438D01*
X032502Y054469D01*
X032500Y054500D01*
X032500Y062000D02*
X032502Y062031D01*
X032508Y062062D01*
X032518Y062092D01*
X032531Y062120D01*
X032548Y062147D01*
X032568Y062171D01*
X032591Y062193D01*
X032616Y062211D01*
X032644Y062226D01*
X032673Y062238D01*
X032703Y062246D01*
X032734Y062250D01*
X032766Y062250D01*
X032797Y062246D01*
X032827Y062238D01*
X032856Y062226D01*
X032884Y062211D01*
X032909Y062193D01*
X032932Y062171D01*
X032952Y062147D01*
X032969Y062120D01*
X032982Y062092D01*
X032992Y062062D01*
X032998Y062031D01*
X033000Y062000D01*
X032998Y061969D01*
X032992Y061938D01*
X032982Y061908D01*
X032969Y061880D01*
X032952Y061853D01*
X032932Y061829D01*
X032909Y061807D01*
X032884Y061789D01*
X032856Y061774D01*
X032827Y061762D01*
X032797Y061754D01*
X032766Y061750D01*
X032734Y061750D01*
X032703Y061754D01*
X032673Y061762D01*
X032644Y061774D01*
X032616Y061789D01*
X032591Y061807D01*
X032568Y061829D01*
X032548Y061853D01*
X032531Y061880D01*
X032518Y061908D01*
X032508Y061938D01*
X032502Y061969D01*
X032500Y062000D01*
X032500Y069500D02*
X032502Y069531D01*
X032508Y069562D01*
X032518Y069592D01*
X032531Y069620D01*
X032548Y069647D01*
X032568Y069671D01*
X032591Y069693D01*
X032616Y069711D01*
X032644Y069726D01*
X032673Y069738D01*
X032703Y069746D01*
X032734Y069750D01*
X032766Y069750D01*
X032797Y069746D01*
X032827Y069738D01*
X032856Y069726D01*
X032884Y069711D01*
X032909Y069693D01*
X032932Y069671D01*
X032952Y069647D01*
X032969Y069620D01*
X032982Y069592D01*
X032992Y069562D01*
X032998Y069531D01*
X033000Y069500D01*
X032998Y069469D01*
X032992Y069438D01*
X032982Y069408D01*
X032969Y069380D01*
X032952Y069353D01*
X032932Y069329D01*
X032909Y069307D01*
X032884Y069289D01*
X032856Y069274D01*
X032827Y069262D01*
X032797Y069254D01*
X032766Y069250D01*
X032734Y069250D01*
X032703Y069254D01*
X032673Y069262D01*
X032644Y069274D01*
X032616Y069289D01*
X032591Y069307D01*
X032568Y069329D01*
X032548Y069353D01*
X032531Y069380D01*
X032518Y069408D01*
X032508Y069438D01*
X032502Y069469D01*
X032500Y069500D01*
X040000Y069500D02*
X040002Y069531D01*
X040008Y069562D01*
X040018Y069592D01*
X040031Y069620D01*
X040048Y069647D01*
X040068Y069671D01*
X040091Y069693D01*
X040116Y069711D01*
X040144Y069726D01*
X040173Y069738D01*
X040203Y069746D01*
X040234Y069750D01*
X040266Y069750D01*
X040297Y069746D01*
X040327Y069738D01*
X040356Y069726D01*
X040384Y069711D01*
X040409Y069693D01*
X040432Y069671D01*
X040452Y069647D01*
X040469Y069620D01*
X040482Y069592D01*
X040492Y069562D01*
X040498Y069531D01*
X040500Y069500D01*
X040498Y069469D01*
X040492Y069438D01*
X040482Y069408D01*
X040469Y069380D01*
X040452Y069353D01*
X040432Y069329D01*
X040409Y069307D01*
X040384Y069289D01*
X040356Y069274D01*
X040327Y069262D01*
X040297Y069254D01*
X040266Y069250D01*
X040234Y069250D01*
X040203Y069254D01*
X040173Y069262D01*
X040144Y069274D01*
X040116Y069289D01*
X040091Y069307D01*
X040068Y069329D01*
X040048Y069353D01*
X040031Y069380D01*
X040018Y069408D01*
X040008Y069438D01*
X040002Y069469D01*
X040000Y069500D01*
X040000Y062000D02*
X040002Y062031D01*
X040008Y062062D01*
X040018Y062092D01*
X040031Y062120D01*
X040048Y062147D01*
X040068Y062171D01*
X040091Y062193D01*
X040116Y062211D01*
X040144Y062226D01*
X040173Y062238D01*
X040203Y062246D01*
X040234Y062250D01*
X040266Y062250D01*
X040297Y062246D01*
X040327Y062238D01*
X040356Y062226D01*
X040384Y062211D01*
X040409Y062193D01*
X040432Y062171D01*
X040452Y062147D01*
X040469Y062120D01*
X040482Y062092D01*
X040492Y062062D01*
X040498Y062031D01*
X040500Y062000D01*
X040498Y061969D01*
X040492Y061938D01*
X040482Y061908D01*
X040469Y061880D01*
X040452Y061853D01*
X040432Y061829D01*
X040409Y061807D01*
X040384Y061789D01*
X040356Y061774D01*
X040327Y061762D01*
X040297Y061754D01*
X040266Y061750D01*
X040234Y061750D01*
X040203Y061754D01*
X040173Y061762D01*
X040144Y061774D01*
X040116Y061789D01*
X040091Y061807D01*
X040068Y061829D01*
X040048Y061853D01*
X040031Y061880D01*
X040018Y061908D01*
X040008Y061938D01*
X040002Y061969D01*
X040000Y062000D01*
X040000Y054500D02*
X040002Y054531D01*
X040008Y054562D01*
X040018Y054592D01*
X040031Y054620D01*
X040048Y054647D01*
X040068Y054671D01*
X040091Y054693D01*
X040116Y054711D01*
X040144Y054726D01*
X040173Y054738D01*
X040203Y054746D01*
X040234Y054750D01*
X040266Y054750D01*
X040297Y054746D01*
X040327Y054738D01*
X040356Y054726D01*
X040384Y054711D01*
X040409Y054693D01*
X040432Y054671D01*
X040452Y054647D01*
X040469Y054620D01*
X040482Y054592D01*
X040492Y054562D01*
X040498Y054531D01*
X040500Y054500D01*
X040498Y054469D01*
X040492Y054438D01*
X040482Y054408D01*
X040469Y054380D01*
X040452Y054353D01*
X040432Y054329D01*
X040409Y054307D01*
X040384Y054289D01*
X040356Y054274D01*
X040327Y054262D01*
X040297Y054254D01*
X040266Y054250D01*
X040234Y054250D01*
X040203Y054254D01*
X040173Y054262D01*
X040144Y054274D01*
X040116Y054289D01*
X040091Y054307D01*
X040068Y054329D01*
X040048Y054353D01*
X040031Y054380D01*
X040018Y054408D01*
X040008Y054438D01*
X040002Y054469D01*
X040000Y054500D01*
X040000Y047000D02*
X040002Y047031D01*
X040008Y047062D01*
X040018Y047092D01*
X040031Y047120D01*
X040048Y047147D01*
X040068Y047171D01*
X040091Y047193D01*
X040116Y047211D01*
X040144Y047226D01*
X040173Y047238D01*
X040203Y047246D01*
X040234Y047250D01*
X040266Y047250D01*
X040297Y047246D01*
X040327Y047238D01*
X040356Y047226D01*
X040384Y047211D01*
X040409Y047193D01*
X040432Y047171D01*
X040452Y047147D01*
X040469Y047120D01*
X040482Y047092D01*
X040492Y047062D01*
X040498Y047031D01*
X040500Y047000D01*
X040498Y046969D01*
X040492Y046938D01*
X040482Y046908D01*
X040469Y046880D01*
X040452Y046853D01*
X040432Y046829D01*
X040409Y046807D01*
X040384Y046789D01*
X040356Y046774D01*
X040327Y046762D01*
X040297Y046754D01*
X040266Y046750D01*
X040234Y046750D01*
X040203Y046754D01*
X040173Y046762D01*
X040144Y046774D01*
X040116Y046789D01*
X040091Y046807D01*
X040068Y046829D01*
X040048Y046853D01*
X040031Y046880D01*
X040018Y046908D01*
X040008Y046938D01*
X040002Y046969D01*
X040000Y047000D01*
X047500Y047000D02*
X047502Y047031D01*
X047508Y047062D01*
X047518Y047092D01*
X047531Y047120D01*
X047548Y047147D01*
X047568Y047171D01*
X047591Y047193D01*
X047616Y047211D01*
X047644Y047226D01*
X047673Y047238D01*
X047703Y047246D01*
X047734Y047250D01*
X047766Y047250D01*
X047797Y047246D01*
X047827Y047238D01*
X047856Y047226D01*
X047884Y047211D01*
X047909Y047193D01*
X047932Y047171D01*
X047952Y047147D01*
X047969Y047120D01*
X047982Y047092D01*
X047992Y047062D01*
X047998Y047031D01*
X048000Y047000D01*
X047998Y046969D01*
X047992Y046938D01*
X047982Y046908D01*
X047969Y046880D01*
X047952Y046853D01*
X047932Y046829D01*
X047909Y046807D01*
X047884Y046789D01*
X047856Y046774D01*
X047827Y046762D01*
X047797Y046754D01*
X047766Y046750D01*
X047734Y046750D01*
X047703Y046754D01*
X047673Y046762D01*
X047644Y046774D01*
X047616Y046789D01*
X047591Y046807D01*
X047568Y046829D01*
X047548Y046853D01*
X047531Y046880D01*
X047518Y046908D01*
X047508Y046938D01*
X047502Y046969D01*
X047500Y047000D01*
X047500Y054500D02*
X047502Y054531D01*
X047508Y054562D01*
X047518Y054592D01*
X047531Y054620D01*
X047548Y054647D01*
X047568Y054671D01*
X047591Y054693D01*
X047616Y054711D01*
X047644Y054726D01*
X047673Y054738D01*
X047703Y054746D01*
X047734Y054750D01*
X047766Y054750D01*
X047797Y054746D01*
X047827Y054738D01*
X047856Y054726D01*
X047884Y054711D01*
X047909Y054693D01*
X047932Y054671D01*
X047952Y054647D01*
X047969Y054620D01*
X047982Y054592D01*
X047992Y054562D01*
X047998Y054531D01*
X048000Y054500D01*
X047998Y054469D01*
X047992Y054438D01*
X047982Y054408D01*
X047969Y054380D01*
X047952Y054353D01*
X047932Y054329D01*
X047909Y054307D01*
X047884Y054289D01*
X047856Y054274D01*
X047827Y054262D01*
X047797Y054254D01*
X047766Y054250D01*
X047734Y054250D01*
X047703Y054254D01*
X047673Y054262D01*
X047644Y054274D01*
X047616Y054289D01*
X047591Y054307D01*
X047568Y054329D01*
X047548Y054353D01*
X047531Y054380D01*
X047518Y054408D01*
X047508Y054438D01*
X047502Y054469D01*
X047500Y054500D01*
X047500Y062000D02*
X047502Y062031D01*
X047508Y062062D01*
X047518Y062092D01*
X047531Y062120D01*
X047548Y062147D01*
X047568Y062171D01*
X047591Y062193D01*
X047616Y062211D01*
X047644Y062226D01*
X047673Y062238D01*
X047703Y062246D01*
X047734Y062250D01*
X047766Y062250D01*
X047797Y062246D01*
X047827Y062238D01*
X047856Y062226D01*
X047884Y062211D01*
X047909Y062193D01*
X047932Y062171D01*
X047952Y062147D01*
X047969Y062120D01*
X047982Y062092D01*
X047992Y062062D01*
X047998Y062031D01*
X048000Y062000D01*
X047998Y061969D01*
X047992Y061938D01*
X047982Y061908D01*
X047969Y061880D01*
X047952Y061853D01*
X047932Y061829D01*
X047909Y061807D01*
X047884Y061789D01*
X047856Y061774D01*
X047827Y061762D01*
X047797Y061754D01*
X047766Y061750D01*
X047734Y061750D01*
X047703Y061754D01*
X047673Y061762D01*
X047644Y061774D01*
X047616Y061789D01*
X047591Y061807D01*
X047568Y061829D01*
X047548Y061853D01*
X047531Y061880D01*
X047518Y061908D01*
X047508Y061938D01*
X047502Y061969D01*
X047500Y062000D01*
X047500Y069500D02*
X047502Y069531D01*
X047508Y069562D01*
X047518Y069592D01*
X047531Y069620D01*
X047548Y069647D01*
X047568Y069671D01*
X047591Y069693D01*
X047616Y069711D01*
X047644Y069726D01*
X047673Y069738D01*
X047703Y069746D01*
X047734Y069750D01*
X047766Y069750D01*
X047797Y069746D01*
X047827Y069738D01*
X047856Y069726D01*
X047884Y069711D01*
X047909Y069693D01*
X047932Y069671D01*
X047952Y069647D01*
X047969Y069620D01*
X047982Y069592D01*
X047992Y069562D01*
X047998Y069531D01*
X048000Y069500D01*
X047998Y069469D01*
X047992Y069438D01*
X047982Y069408D01*
X047969Y069380D01*
X047952Y069353D01*
X047932Y069329D01*
X047909Y069307D01*
X047884Y069289D01*
X047856Y069274D01*
X047827Y069262D01*
X047797Y069254D01*
X047766Y069250D01*
X047734Y069250D01*
X047703Y069254D01*
X047673Y069262D01*
X047644Y069274D01*
X047616Y069289D01*
X047591Y069307D01*
X047568Y069329D01*
X047548Y069353D01*
X047531Y069380D01*
X047518Y069408D01*
X047508Y069438D01*
X047502Y069469D01*
X047500Y069500D01*
X055000Y069500D02*
X055002Y069531D01*
X055008Y069562D01*
X055018Y069592D01*
X055031Y069620D01*
X055048Y069647D01*
X055068Y069671D01*
X055091Y069693D01*
X055116Y069711D01*
X055144Y069726D01*
X055173Y069738D01*
X055203Y069746D01*
X055234Y069750D01*
X055266Y069750D01*
X055297Y069746D01*
X055327Y069738D01*
X055356Y069726D01*
X055384Y069711D01*
X055409Y069693D01*
X055432Y069671D01*
X055452Y069647D01*
X055469Y069620D01*
X055482Y069592D01*
X055492Y069562D01*
X055498Y069531D01*
X055500Y069500D01*
X055498Y069469D01*
X055492Y069438D01*
X055482Y069408D01*
X055469Y069380D01*
X055452Y069353D01*
X055432Y069329D01*
X055409Y069307D01*
X055384Y069289D01*
X055356Y069274D01*
X055327Y069262D01*
X055297Y069254D01*
X055266Y069250D01*
X055234Y069250D01*
X055203Y069254D01*
X055173Y069262D01*
X055144Y069274D01*
X055116Y069289D01*
X055091Y069307D01*
X055068Y069329D01*
X055048Y069353D01*
X055031Y069380D01*
X055018Y069408D01*
X055008Y069438D01*
X055002Y069469D01*
X055000Y069500D01*
X055000Y062000D02*
X055002Y062031D01*
X055008Y062062D01*
X055018Y062092D01*
X055031Y062120D01*
X055048Y062147D01*
X055068Y062171D01*
X055091Y062193D01*
X055116Y062211D01*
X055144Y062226D01*
X055173Y062238D01*
X055203Y062246D01*
X055234Y062250D01*
X055266Y062250D01*
X055297Y062246D01*
X055327Y062238D01*
X055356Y062226D01*
X055384Y062211D01*
X055409Y062193D01*
X055432Y062171D01*
X055452Y062147D01*
X055469Y062120D01*
X055482Y062092D01*
X055492Y062062D01*
X055498Y062031D01*
X055500Y062000D01*
X055498Y061969D01*
X055492Y061938D01*
X055482Y061908D01*
X055469Y061880D01*
X055452Y061853D01*
X055432Y061829D01*
X055409Y061807D01*
X055384Y061789D01*
X055356Y061774D01*
X055327Y061762D01*
X055297Y061754D01*
X055266Y061750D01*
X055234Y061750D01*
X055203Y061754D01*
X055173Y061762D01*
X055144Y061774D01*
X055116Y061789D01*
X055091Y061807D01*
X055068Y061829D01*
X055048Y061853D01*
X055031Y061880D01*
X055018Y061908D01*
X055008Y061938D01*
X055002Y061969D01*
X055000Y062000D01*
X055000Y054500D02*
X055002Y054531D01*
X055008Y054562D01*
X055018Y054592D01*
X055031Y054620D01*
X055048Y054647D01*
X055068Y054671D01*
X055091Y054693D01*
X055116Y054711D01*
X055144Y054726D01*
X055173Y054738D01*
X055203Y054746D01*
X055234Y054750D01*
X055266Y054750D01*
X055297Y054746D01*
X055327Y054738D01*
X055356Y054726D01*
X055384Y054711D01*
X055409Y054693D01*
X055432Y054671D01*
X055452Y054647D01*
X055469Y054620D01*
X055482Y054592D01*
X055492Y054562D01*
X055498Y054531D01*
X055500Y054500D01*
X055498Y054469D01*
X055492Y054438D01*
X055482Y054408D01*
X055469Y054380D01*
X055452Y054353D01*
X055432Y054329D01*
X055409Y054307D01*
X055384Y054289D01*
X055356Y054274D01*
X055327Y054262D01*
X055297Y054254D01*
X055266Y054250D01*
X055234Y054250D01*
X055203Y054254D01*
X055173Y054262D01*
X055144Y054274D01*
X055116Y054289D01*
X055091Y054307D01*
X055068Y054329D01*
X055048Y054353D01*
X055031Y054380D01*
X055018Y054408D01*
X055008Y054438D01*
X055002Y054469D01*
X055000Y054500D01*
X055000Y047000D02*
X055002Y047031D01*
X055008Y047062D01*
X055018Y047092D01*
X055031Y047120D01*
X055048Y047147D01*
X055068Y047171D01*
X055091Y047193D01*
X055116Y047211D01*
X055144Y047226D01*
X055173Y047238D01*
X055203Y047246D01*
X055234Y047250D01*
X055266Y047250D01*
X055297Y047246D01*
X055327Y047238D01*
X055356Y047226D01*
X055384Y047211D01*
X055409Y047193D01*
X055432Y047171D01*
X055452Y047147D01*
X055469Y047120D01*
X055482Y047092D01*
X055492Y047062D01*
X055498Y047031D01*
X055500Y047000D01*
X055498Y046969D01*
X055492Y046938D01*
X055482Y046908D01*
X055469Y046880D01*
X055452Y046853D01*
X055432Y046829D01*
X055409Y046807D01*
X055384Y046789D01*
X055356Y046774D01*
X055327Y046762D01*
X055297Y046754D01*
X055266Y046750D01*
X055234Y046750D01*
X055203Y046754D01*
X055173Y046762D01*
X055144Y046774D01*
X055116Y046789D01*
X055091Y046807D01*
X055068Y046829D01*
X055048Y046853D01*
X055031Y046880D01*
X055018Y046908D01*
X055008Y046938D01*
X055002Y046969D01*
X055000Y047000D01*
X062500Y047000D02*
X062502Y047031D01*
X062508Y047062D01*
X062518Y047092D01*
X062531Y047120D01*
X062548Y047147D01*
X062568Y047171D01*
X062591Y047193D01*
X062616Y047211D01*
X062644Y047226D01*
X062673Y047238D01*
X062703Y047246D01*
X062734Y047250D01*
X062766Y047250D01*
X062797Y047246D01*
X062827Y047238D01*
X062856Y047226D01*
X062884Y047211D01*
X062909Y047193D01*
X062932Y047171D01*
X062952Y047147D01*
X062969Y047120D01*
X062982Y047092D01*
X062992Y047062D01*
X062998Y047031D01*
X063000Y047000D01*
X062998Y046969D01*
X062992Y046938D01*
X062982Y046908D01*
X062969Y046880D01*
X062952Y046853D01*
X062932Y046829D01*
X062909Y046807D01*
X062884Y046789D01*
X062856Y046774D01*
X062827Y046762D01*
X062797Y046754D01*
X062766Y046750D01*
X062734Y046750D01*
X062703Y046754D01*
X062673Y046762D01*
X062644Y046774D01*
X062616Y046789D01*
X062591Y046807D01*
X062568Y046829D01*
X062548Y046853D01*
X062531Y046880D01*
X062518Y046908D01*
X062508Y046938D01*
X062502Y046969D01*
X062500Y047000D01*
X062500Y054500D02*
X062502Y054531D01*
X062508Y054562D01*
X062518Y054592D01*
X062531Y054620D01*
X062548Y054647D01*
X062568Y054671D01*
X062591Y054693D01*
X062616Y054711D01*
X062644Y054726D01*
X062673Y054738D01*
X062703Y054746D01*
X062734Y054750D01*
X062766Y054750D01*
X062797Y054746D01*
X062827Y054738D01*
X062856Y054726D01*
X062884Y054711D01*
X062909Y054693D01*
X062932Y054671D01*
X062952Y054647D01*
X062969Y054620D01*
X062982Y054592D01*
X062992Y054562D01*
X062998Y054531D01*
X063000Y054500D01*
X062998Y054469D01*
X062992Y054438D01*
X062982Y054408D01*
X062969Y054380D01*
X062952Y054353D01*
X062932Y054329D01*
X062909Y054307D01*
X062884Y054289D01*
X062856Y054274D01*
X062827Y054262D01*
X062797Y054254D01*
X062766Y054250D01*
X062734Y054250D01*
X062703Y054254D01*
X062673Y054262D01*
X062644Y054274D01*
X062616Y054289D01*
X062591Y054307D01*
X062568Y054329D01*
X062548Y054353D01*
X062531Y054380D01*
X062518Y054408D01*
X062508Y054438D01*
X062502Y054469D01*
X062500Y054500D01*
X062500Y062000D02*
X062502Y062031D01*
X062508Y062062D01*
X062518Y062092D01*
X062531Y062120D01*
X062548Y062147D01*
X062568Y062171D01*
X062591Y062193D01*
X062616Y062211D01*
X062644Y062226D01*
X062673Y062238D01*
X062703Y062246D01*
X062734Y062250D01*
X062766Y062250D01*
X062797Y062246D01*
X062827Y062238D01*
X062856Y062226D01*
X062884Y062211D01*
X062909Y062193D01*
X062932Y062171D01*
X062952Y062147D01*
X062969Y062120D01*
X062982Y062092D01*
X062992Y062062D01*
X062998Y062031D01*
X063000Y062000D01*
X062998Y061969D01*
X062992Y061938D01*
X062982Y061908D01*
X062969Y061880D01*
X062952Y061853D01*
X062932Y061829D01*
X062909Y061807D01*
X062884Y061789D01*
X062856Y061774D01*
X062827Y061762D01*
X062797Y061754D01*
X062766Y061750D01*
X062734Y061750D01*
X062703Y061754D01*
X062673Y061762D01*
X062644Y061774D01*
X062616Y061789D01*
X062591Y061807D01*
X062568Y061829D01*
X062548Y061853D01*
X062531Y061880D01*
X062518Y061908D01*
X062508Y061938D01*
X062502Y061969D01*
X062500Y062000D01*
X062500Y069500D02*
X062502Y069531D01*
X062508Y069562D01*
X062518Y069592D01*
X062531Y069620D01*
X062548Y069647D01*
X062568Y069671D01*
X062591Y069693D01*
X062616Y069711D01*
X062644Y069726D01*
X062673Y069738D01*
X062703Y069746D01*
X062734Y069750D01*
X062766Y069750D01*
X062797Y069746D01*
X062827Y069738D01*
X062856Y069726D01*
X062884Y069711D01*
X062909Y069693D01*
X062932Y069671D01*
X062952Y069647D01*
X062969Y069620D01*
X062982Y069592D01*
X062992Y069562D01*
X062998Y069531D01*
X063000Y069500D01*
X062998Y069469D01*
X062992Y069438D01*
X062982Y069408D01*
X062969Y069380D01*
X062952Y069353D01*
X062932Y069329D01*
X062909Y069307D01*
X062884Y069289D01*
X062856Y069274D01*
X062827Y069262D01*
X062797Y069254D01*
X062766Y069250D01*
X062734Y069250D01*
X062703Y069254D01*
X062673Y069262D01*
X062644Y069274D01*
X062616Y069289D01*
X062591Y069307D01*
X062568Y069329D01*
X062548Y069353D01*
X062531Y069380D01*
X062518Y069408D01*
X062508Y069438D01*
X062502Y069469D01*
X062500Y069500D01*
X070000Y069500D02*
X070002Y069531D01*
X070008Y069562D01*
X070018Y069592D01*
X070031Y069620D01*
X070048Y069647D01*
X070068Y069671D01*
X070091Y069693D01*
X070116Y069711D01*
X070144Y069726D01*
X070173Y069738D01*
X070203Y069746D01*
X070234Y069750D01*
X070266Y069750D01*
X070297Y069746D01*
X070327Y069738D01*
X070356Y069726D01*
X070384Y069711D01*
X070409Y069693D01*
X070432Y069671D01*
X070452Y069647D01*
X070469Y069620D01*
X070482Y069592D01*
X070492Y069562D01*
X070498Y069531D01*
X070500Y069500D01*
X070498Y069469D01*
X070492Y069438D01*
X070482Y069408D01*
X070469Y069380D01*
X070452Y069353D01*
X070432Y069329D01*
X070409Y069307D01*
X070384Y069289D01*
X070356Y069274D01*
X070327Y069262D01*
X070297Y069254D01*
X070266Y069250D01*
X070234Y069250D01*
X070203Y069254D01*
X070173Y069262D01*
X070144Y069274D01*
X070116Y069289D01*
X070091Y069307D01*
X070068Y069329D01*
X070048Y069353D01*
X070031Y069380D01*
X070018Y069408D01*
X070008Y069438D01*
X070002Y069469D01*
X070000Y069500D01*
X070000Y062000D02*
X070002Y062031D01*
X070008Y062062D01*
X070018Y062092D01*
X070031Y062120D01*
X070048Y062147D01*
X070068Y062171D01*
X070091Y062193D01*
X070116Y062211D01*
X070144Y062226D01*
X070173Y062238D01*
X070203Y062246D01*
X070234Y062250D01*
X070266Y062250D01*
X070297Y062246D01*
X070327Y062238D01*
X070356Y062226D01*
X070384Y062211D01*
X070409Y062193D01*
X070432Y062171D01*
X070452Y062147D01*
X070469Y062120D01*
X070482Y062092D01*
X070492Y062062D01*
X070498Y062031D01*
X070500Y062000D01*
X070498Y061969D01*
X070492Y061938D01*
X070482Y061908D01*
X070469Y061880D01*
X070452Y061853D01*
X070432Y061829D01*
X070409Y061807D01*
X070384Y061789D01*
X070356Y061774D01*
X070327Y061762D01*
X070297Y061754D01*
X070266Y061750D01*
X070234Y061750D01*
X070203Y061754D01*
X070173Y061762D01*
X070144Y061774D01*
X070116Y061789D01*
X070091Y061807D01*
X070068Y061829D01*
X070048Y061853D01*
X070031Y061880D01*
X070018Y061908D01*
X070008Y061938D01*
X070002Y061969D01*
X070000Y062000D01*
X070000Y054500D02*
X070002Y054531D01*
X070008Y054562D01*
X070018Y054592D01*
X070031Y054620D01*
X070048Y054647D01*
X070068Y054671D01*
X070091Y054693D01*
X070116Y054711D01*
X070144Y054726D01*
X070173Y054738D01*
X070203Y054746D01*
X070234Y054750D01*
X070266Y054750D01*
X070297Y054746D01*
X070327Y054738D01*
X070356Y054726D01*
X070384Y054711D01*
X070409Y054693D01*
X070432Y054671D01*
X070452Y054647D01*
X070469Y054620D01*
X070482Y054592D01*
X070492Y054562D01*
X070498Y054531D01*
X070500Y054500D01*
X070498Y054469D01*
X070492Y054438D01*
X070482Y054408D01*
X070469Y054380D01*
X070452Y054353D01*
X070432Y054329D01*
X070409Y054307D01*
X070384Y054289D01*
X070356Y054274D01*
X070327Y054262D01*
X070297Y054254D01*
X070266Y054250D01*
X070234Y054250D01*
X070203Y054254D01*
X070173Y054262D01*
X070144Y054274D01*
X070116Y054289D01*
X070091Y054307D01*
X070068Y054329D01*
X070048Y054353D01*
X070031Y054380D01*
X070018Y054408D01*
X070008Y054438D01*
X070002Y054469D01*
X070000Y054500D01*
X070000Y047000D02*
X070002Y047031D01*
X070008Y047062D01*
X070018Y047092D01*
X070031Y047120D01*
X070048Y047147D01*
X070068Y047171D01*
X070091Y047193D01*
X070116Y047211D01*
X070144Y047226D01*
X070173Y047238D01*
X070203Y047246D01*
X070234Y047250D01*
X070266Y047250D01*
X070297Y047246D01*
X070327Y047238D01*
X070356Y047226D01*
X070384Y047211D01*
X070409Y047193D01*
X070432Y047171D01*
X070452Y047147D01*
X070469Y047120D01*
X070482Y047092D01*
X070492Y047062D01*
X070498Y047031D01*
X070500Y047000D01*
X070498Y046969D01*
X070492Y046938D01*
X070482Y046908D01*
X070469Y046880D01*
X070452Y046853D01*
X070432Y046829D01*
X070409Y046807D01*
X070384Y046789D01*
X070356Y046774D01*
X070327Y046762D01*
X070297Y046754D01*
X070266Y046750D01*
X070234Y046750D01*
X070203Y046754D01*
X070173Y046762D01*
X070144Y046774D01*
X070116Y046789D01*
X070091Y046807D01*
X070068Y046829D01*
X070048Y046853D01*
X070031Y046880D01*
X070018Y046908D01*
X070008Y046938D01*
X070002Y046969D01*
X070000Y047000D01*
D18*
X072750Y048000D03*
X065750Y040750D03*
X064750Y040750D03*
X063750Y040750D03*
X062750Y040750D03*
X065250Y048000D03*
X065250Y055500D03*
X065250Y063000D03*
X065250Y070500D03*
X066500Y076750D03*
X067500Y076750D03*
X068500Y076750D03*
X069500Y076750D03*
X072750Y070500D03*
X072750Y063000D03*
X072750Y055500D03*
X057750Y055500D03*
X057750Y048000D03*
X050750Y040750D03*
X049750Y040750D03*
X048750Y040750D03*
X047750Y040750D03*
X050250Y048000D03*
X050250Y055500D03*
X050250Y063000D03*
X050250Y070500D03*
X051500Y076750D03*
X052500Y076750D03*
X053500Y076750D03*
X054500Y076750D03*
X057750Y070500D03*
X057750Y063000D03*
X042750Y063000D03*
X042750Y070500D03*
X039500Y076750D03*
X038500Y076750D03*
X037500Y076750D03*
X036500Y076750D03*
X035250Y070500D03*
X035250Y063000D03*
X027750Y063000D03*
X027750Y070500D03*
X024500Y076750D03*
X023500Y076750D03*
X022500Y076750D03*
X021500Y076750D03*
X020250Y070500D03*
X020250Y063000D03*
X020250Y055500D03*
X020250Y048000D03*
X012750Y048000D03*
X012750Y055500D03*
X012750Y063000D03*
X012750Y070500D03*
X009500Y076750D03*
X008500Y076750D03*
X007500Y076750D03*
X006500Y076750D03*
X005250Y070500D03*
X005250Y063000D03*
X005250Y055500D03*
X005250Y048000D03*
X004750Y040750D03*
X003750Y040750D03*
X002750Y040750D03*
X005750Y040750D03*
X005250Y025250D03*
X005250Y017750D03*
X005250Y010250D03*
X005250Y002750D03*
X012750Y002750D03*
X012750Y010250D03*
X012750Y017750D03*
X012750Y025250D03*
X020250Y025250D03*
X020250Y017750D03*
X020250Y010250D03*
X020250Y002750D03*
X027750Y002750D03*
X035250Y002750D03*
X035250Y010250D03*
X027750Y010250D03*
X027750Y017750D03*
X027750Y025250D03*
X035250Y025250D03*
X035250Y017750D03*
X042750Y017750D03*
X042750Y025250D03*
X050250Y025250D03*
X050250Y017750D03*
X050250Y010250D03*
X050250Y002750D03*
X042750Y002750D03*
X042750Y010250D03*
X057750Y010250D03*
X057750Y002750D03*
X065250Y002750D03*
X065250Y010250D03*
X065250Y017750D03*
X065250Y025250D03*
X057750Y025250D03*
X057750Y017750D03*
X072750Y017750D03*
X072750Y025250D03*
X072750Y010250D03*
X072750Y002750D03*
X035750Y040750D03*
X034750Y040750D03*
X033750Y040750D03*
X032750Y040750D03*
X026750Y034750D03*
X025750Y034750D03*
X027750Y048000D03*
X035250Y048000D03*
X035250Y055500D03*
X027750Y055500D03*
X042750Y055500D03*
X042750Y048000D03*
D19*
X040327Y047000D02*
X039773Y047000D01*
X032827Y047000D02*
X032273Y047000D01*
X025327Y047000D02*
X024773Y047000D01*
X017827Y047000D02*
X017273Y047000D01*
X010327Y047000D02*
X009773Y047000D01*
X002827Y047000D02*
X002273Y047000D01*
X002273Y054500D02*
X002827Y054500D01*
X002827Y062000D02*
X002273Y062000D01*
X002273Y069500D02*
X002827Y069500D01*
X009773Y069500D02*
X010327Y069500D01*
X017273Y069500D02*
X017827Y069500D01*
X024773Y069500D02*
X025327Y069500D01*
X032273Y069500D02*
X032827Y069500D01*
X039773Y069500D02*
X040327Y069500D01*
X047273Y069500D02*
X047827Y069500D01*
X054773Y069500D02*
X055327Y069500D01*
X062273Y069500D02*
X062827Y069500D01*
X069773Y069500D02*
X070327Y069500D01*
X070327Y062000D02*
X069773Y062000D01*
X062827Y062000D02*
X062273Y062000D01*
X055327Y062000D02*
X054773Y062000D01*
X047827Y062000D02*
X047273Y062000D01*
X040327Y062000D02*
X039773Y062000D01*
X032827Y062000D02*
X032273Y062000D01*
X025327Y062000D02*
X024773Y062000D01*
X024773Y054500D02*
X025327Y054500D01*
X032273Y054500D02*
X032827Y054500D01*
X039773Y054500D02*
X040327Y054500D01*
X047273Y054500D02*
X047827Y054500D01*
X054773Y054500D02*
X055327Y054500D01*
X062273Y054500D02*
X062827Y054500D01*
X069773Y054500D02*
X070327Y054500D01*
X070327Y047000D02*
X069773Y047000D01*
X062827Y047000D02*
X062273Y047000D01*
X055327Y047000D02*
X054773Y047000D01*
X047827Y047000D02*
X047273Y047000D01*
X047273Y024250D02*
X047827Y024250D01*
X054773Y024250D02*
X055327Y024250D01*
X062273Y024250D02*
X062827Y024250D01*
X069773Y024250D02*
X070327Y024250D01*
X070327Y016750D02*
X069773Y016750D01*
X062827Y016750D02*
X062273Y016750D01*
X055327Y016750D02*
X054773Y016750D01*
X047827Y016750D02*
X047273Y016750D01*
X040327Y016750D02*
X039773Y016750D01*
X032827Y016750D02*
X032273Y016750D01*
X025327Y016750D02*
X024773Y016750D01*
X024773Y009250D02*
X025327Y009250D01*
X032273Y009250D02*
X032827Y009250D01*
X039773Y009250D02*
X040327Y009250D01*
X047273Y009250D02*
X047827Y009250D01*
X054773Y009250D02*
X055327Y009250D01*
X062273Y009250D02*
X062827Y009250D01*
X069773Y009250D02*
X070327Y009250D01*
X070327Y001750D02*
X069773Y001750D01*
X062827Y001750D02*
X062273Y001750D01*
X055327Y001750D02*
X054773Y001750D01*
X047827Y001750D02*
X047273Y001750D01*
X040327Y001750D02*
X039773Y001750D01*
X032827Y001750D02*
X032273Y001750D01*
X025327Y001750D02*
X024773Y001750D01*
X017827Y001750D02*
X017273Y001750D01*
X010327Y001750D02*
X009773Y001750D01*
X002827Y001750D02*
X002273Y001750D01*
X002273Y009250D02*
X002827Y009250D01*
X002827Y016750D02*
X002273Y016750D01*
X002273Y024250D02*
X002827Y024250D01*
X009773Y024250D02*
X010327Y024250D01*
X017273Y024250D02*
X017827Y024250D01*
X024773Y024250D02*
X025327Y024250D01*
X032273Y024250D02*
X032827Y024250D01*
X039773Y024250D02*
X040327Y024250D01*
X017827Y016750D02*
X017273Y016750D01*
X017273Y009250D02*
X017827Y009250D01*
X010327Y009250D02*
X009773Y009250D01*
X009773Y016750D02*
X010327Y016750D01*
X010327Y054500D02*
X009773Y054500D01*
X009773Y062000D02*
X010327Y062000D01*
X017273Y062000D02*
X017827Y062000D01*
X017827Y054500D02*
X017273Y054500D01*
D20*
X017100Y056500D03*
X020350Y056500D03*
X024600Y056500D03*
X027850Y056500D03*
X032100Y056500D03*
X035350Y056500D03*
X039600Y056500D03*
X042850Y056500D03*
X047100Y056500D03*
X050350Y056500D03*
X054600Y056500D03*
X057850Y056500D03*
X062100Y056500D03*
X065350Y056500D03*
X069600Y056500D03*
X072850Y056500D03*
X072850Y049000D03*
X069600Y049000D03*
X065350Y049000D03*
X062100Y049000D03*
X057850Y049000D03*
X054600Y049000D03*
X050350Y049000D03*
X047100Y049000D03*
X042850Y049000D03*
X039600Y049000D03*
X035350Y049000D03*
X032100Y049000D03*
X027850Y049000D03*
X024600Y049000D03*
X020350Y049000D03*
X017100Y049000D03*
X012850Y049000D03*
X009600Y049000D03*
X005350Y049000D03*
X002100Y049000D03*
X002100Y056500D03*
X005350Y056500D03*
X009600Y056500D03*
X012850Y056500D03*
X012850Y064000D03*
X009600Y064000D03*
X005350Y064000D03*
X002100Y064000D03*
X002100Y071500D03*
X005350Y071500D03*
X009600Y071500D03*
X012850Y071500D03*
X017100Y071500D03*
X020350Y071500D03*
X024600Y071500D03*
X027850Y071500D03*
X032100Y071500D03*
X035350Y071500D03*
X039600Y071500D03*
X042850Y071500D03*
X047100Y071500D03*
X050350Y071500D03*
X054600Y071500D03*
X057850Y071500D03*
X062100Y071500D03*
X065350Y071500D03*
X069600Y071500D03*
X072850Y071500D03*
X072850Y064000D03*
X069600Y064000D03*
X065350Y064000D03*
X062100Y064000D03*
X057850Y064000D03*
X054600Y064000D03*
X050350Y064000D03*
X047100Y064000D03*
X042850Y064000D03*
X039600Y064000D03*
X035350Y064000D03*
X032100Y064000D03*
X027850Y064000D03*
X024600Y064000D03*
X020350Y064000D03*
X017100Y064000D03*
X017100Y026250D03*
X020350Y026250D03*
X024600Y026250D03*
X027850Y026250D03*
X032100Y026250D03*
X035350Y026250D03*
X039600Y026250D03*
X042850Y026250D03*
X047100Y026250D03*
X050350Y026250D03*
X054600Y026250D03*
X057850Y026250D03*
X062100Y026250D03*
X065350Y026250D03*
X069600Y026250D03*
X072850Y026250D03*
X072850Y018750D03*
X069600Y018750D03*
X065350Y018750D03*
X062100Y018750D03*
X057850Y018750D03*
X054600Y018750D03*
X050350Y018750D03*
X047100Y018750D03*
X042850Y018750D03*
X039600Y018750D03*
X035350Y018750D03*
X032100Y018750D03*
X027850Y018750D03*
X024600Y018750D03*
X020350Y018750D03*
X017100Y018750D03*
X012850Y018750D03*
X009600Y018750D03*
X005350Y018750D03*
X002100Y018750D03*
X002100Y026250D03*
X005350Y026250D03*
X009600Y026250D03*
X012850Y026250D03*
X012850Y011250D03*
X009600Y011250D03*
X005350Y011250D03*
X002100Y011250D03*
X002100Y003750D03*
X005350Y003750D03*
X009600Y003750D03*
X012850Y003750D03*
X017100Y003750D03*
X020350Y003750D03*
X024600Y003750D03*
X027850Y003750D03*
X032100Y003750D03*
X035350Y003750D03*
X039600Y003750D03*
X042850Y003750D03*
X047100Y003750D03*
X050350Y003750D03*
X054600Y003750D03*
X057850Y003750D03*
X062100Y003750D03*
X065350Y003750D03*
X069600Y003750D03*
X072850Y003750D03*
X072850Y011250D03*
X069600Y011250D03*
X065350Y011250D03*
X062100Y011250D03*
X057850Y011250D03*
X054600Y011250D03*
X050350Y011250D03*
X047100Y011250D03*
X042850Y011250D03*
X039600Y011250D03*
X035350Y011250D03*
X032100Y011250D03*
X027850Y011250D03*
X024600Y011250D03*
X020350Y011250D03*
X017100Y011250D03*
D21*
X018250Y012750D03*
X019250Y012750D03*
X020250Y009250D03*
X019250Y005250D03*
X018250Y005250D03*
X020250Y001750D03*
X025750Y005250D03*
X026750Y005250D03*
X027750Y001750D03*
X033250Y005250D03*
X034250Y005250D03*
X035250Y001750D03*
X040750Y005250D03*
X041750Y005250D03*
X042750Y001750D03*
X048250Y005250D03*
X049250Y005250D03*
X050250Y001750D03*
X055750Y005250D03*
X056750Y005250D03*
X057750Y001750D03*
X063250Y005250D03*
X064250Y005250D03*
X065250Y001750D03*
X070750Y005250D03*
X071750Y005250D03*
X072750Y001750D03*
X072750Y009250D03*
X071750Y012750D03*
X070750Y012750D03*
X072750Y016750D03*
X071750Y020250D03*
X070750Y020250D03*
X072750Y024250D03*
X071750Y027750D03*
X070750Y027750D03*
X065250Y024250D03*
X064250Y027750D03*
X063250Y027750D03*
X057750Y024250D03*
X056750Y027750D03*
X055750Y027750D03*
X050250Y024250D03*
X049250Y027750D03*
X048250Y027750D03*
X042750Y024250D03*
X041750Y027750D03*
X040750Y027750D03*
X035250Y024250D03*
X034250Y027750D03*
X033250Y027750D03*
X027750Y024250D03*
X026750Y027750D03*
X025750Y027750D03*
X020250Y024250D03*
X019250Y027750D03*
X018250Y027750D03*
X012750Y024250D03*
X011750Y027750D03*
X010750Y027750D03*
X005250Y024250D03*
X004250Y027750D03*
X003250Y027750D03*
X003250Y020250D03*
X004250Y020250D03*
X005250Y016750D03*
X004250Y012750D03*
X003250Y012750D03*
X005250Y009250D03*
X004250Y005250D03*
X003250Y005250D03*
X005250Y001750D03*
X010750Y005250D03*
X011750Y005250D03*
X012750Y001750D03*
X012750Y009250D03*
X011750Y012750D03*
X010750Y012750D03*
X012750Y016750D03*
X011750Y020250D03*
X010750Y020250D03*
X018250Y020250D03*
X019250Y020250D03*
X020250Y016750D03*
X025750Y020250D03*
X026750Y020250D03*
X027750Y016750D03*
X026750Y012750D03*
X025750Y012750D03*
X027750Y009250D03*
X033250Y012750D03*
X034250Y012750D03*
X035250Y009250D03*
X040750Y012750D03*
X041750Y012750D03*
X042750Y009250D03*
X048250Y012750D03*
X049250Y012750D03*
X050250Y009250D03*
X055750Y012750D03*
X056750Y012750D03*
X057750Y009250D03*
X063250Y012750D03*
X064250Y012750D03*
X065250Y009250D03*
X065250Y016750D03*
X064250Y020250D03*
X063250Y020250D03*
X057750Y016750D03*
X056750Y020250D03*
X055750Y020250D03*
X050250Y016750D03*
X049250Y020250D03*
X048250Y020250D03*
X042750Y016750D03*
X041750Y020250D03*
X040750Y020250D03*
X035250Y016750D03*
X034250Y020250D03*
X033250Y020250D03*
X035250Y047000D03*
X034250Y050500D03*
X033250Y050500D03*
X035250Y054500D03*
X034250Y058000D03*
X033250Y058000D03*
X035250Y062000D03*
X034250Y065500D03*
X033250Y065500D03*
X035250Y069500D03*
X034250Y073000D03*
X033250Y073000D03*
X027750Y069500D03*
X026750Y073000D03*
X025750Y073000D03*
X020250Y069500D03*
X019250Y073000D03*
X018250Y073000D03*
X012750Y069500D03*
X011750Y073000D03*
X010750Y073000D03*
X005250Y069500D03*
X004250Y073000D03*
X003250Y073000D03*
X003250Y065500D03*
X004250Y065500D03*
X005250Y062000D03*
X004250Y058000D03*
X003250Y058000D03*
X005250Y054500D03*
X004250Y050500D03*
X003250Y050500D03*
X005250Y047000D03*
X010750Y050500D03*
X011750Y050500D03*
X012750Y047000D03*
X018250Y050500D03*
X019250Y050500D03*
X020250Y047000D03*
X025750Y050500D03*
X026750Y050500D03*
X027750Y047000D03*
X027750Y054500D03*
X026750Y058000D03*
X025750Y058000D03*
X027750Y062000D03*
X026750Y065500D03*
X025750Y065500D03*
X020250Y062000D03*
X019250Y065500D03*
X018250Y065500D03*
X012750Y062000D03*
X011750Y065500D03*
X010750Y065500D03*
X010750Y058000D03*
X011750Y058000D03*
X012750Y054500D03*
X018250Y058000D03*
X019250Y058000D03*
X020250Y054500D03*
X040750Y058000D03*
X041750Y058000D03*
X042750Y054500D03*
X041750Y050500D03*
X040750Y050500D03*
X042750Y047000D03*
X048250Y050500D03*
X049250Y050500D03*
X050250Y047000D03*
X055750Y050500D03*
X056750Y050500D03*
X057750Y047000D03*
X063250Y050500D03*
X064250Y050500D03*
X065250Y047000D03*
X070750Y050500D03*
X071750Y050500D03*
X072750Y047000D03*
X072750Y054500D03*
X071750Y058000D03*
X070750Y058000D03*
X072750Y062000D03*
X071750Y065500D03*
X070750Y065500D03*
X072750Y069500D03*
X071750Y073000D03*
X070750Y073000D03*
X065250Y069500D03*
X064250Y073000D03*
X063250Y073000D03*
X057750Y069500D03*
X056750Y073000D03*
X055750Y073000D03*
X050250Y069500D03*
X049250Y073000D03*
X048250Y073000D03*
X042750Y069500D03*
X041750Y073000D03*
X040750Y073000D03*
X040750Y065500D03*
X041750Y065500D03*
X042750Y062000D03*
X048250Y065500D03*
X049250Y065500D03*
X050250Y062000D03*
X049250Y058000D03*
X048250Y058000D03*
X050250Y054500D03*
X055750Y058000D03*
X056750Y058000D03*
X057750Y054500D03*
X063250Y058000D03*
X064250Y058000D03*
X065250Y054500D03*
X065250Y062000D03*
X064250Y065500D03*
X063250Y065500D03*
X057750Y062000D03*
X056750Y065500D03*
X055750Y065500D03*
D22*
X064000Y044490D02*
X064000Y044010D01*
X065000Y044010D02*
X065000Y044490D01*
X066000Y044490D02*
X066000Y044010D01*
X067000Y044010D02*
X067000Y044490D01*
X068000Y044490D02*
X068000Y044010D01*
X069000Y044010D02*
X069000Y044490D01*
X070000Y044490D02*
X070000Y044010D01*
X071000Y044010D02*
X071000Y044490D01*
X072000Y044490D02*
X072000Y044010D01*
X072000Y031240D02*
X072000Y030760D01*
X071000Y030760D02*
X071000Y031240D01*
X070000Y031240D02*
X070000Y030760D01*
X069000Y030760D02*
X069000Y031240D01*
X068000Y031240D02*
X068000Y030760D01*
X067000Y030760D02*
X067000Y031240D01*
X066000Y031240D02*
X066000Y030760D01*
X065000Y030760D02*
X065000Y031240D01*
X064000Y031240D02*
X064000Y030760D01*
X057000Y033260D02*
X057000Y033740D01*
X056000Y033740D02*
X056000Y033260D01*
X055000Y033260D02*
X055000Y033740D01*
X054000Y033740D02*
X054000Y033260D01*
X053000Y033260D02*
X053000Y033740D01*
X052000Y033740D02*
X052000Y033260D01*
X051000Y033260D02*
X051000Y033740D01*
X050000Y033740D02*
X050000Y033260D01*
X049000Y033260D02*
X049000Y033740D01*
X042000Y033740D02*
X042000Y033260D01*
X041000Y033260D02*
X041000Y033740D01*
X040000Y033740D02*
X040000Y033260D01*
X039000Y033260D02*
X039000Y033740D01*
X038000Y033740D02*
X038000Y033260D01*
X037000Y033260D02*
X037000Y033740D01*
X036000Y033740D02*
X036000Y033260D01*
X035000Y033260D02*
X035000Y033740D01*
X034000Y033740D02*
X034000Y033260D01*
X027000Y033260D02*
X027000Y033740D01*
X026000Y033740D02*
X026000Y033260D01*
X025000Y033260D02*
X025000Y033740D01*
X024000Y033740D02*
X024000Y033260D01*
X023000Y033260D02*
X023000Y033740D01*
X022000Y033740D02*
X022000Y033260D01*
X021000Y033260D02*
X021000Y033740D01*
X020000Y033740D02*
X020000Y033260D01*
X019000Y033260D02*
X019000Y033740D01*
X012000Y033740D02*
X012000Y033260D01*
X011000Y033260D02*
X011000Y033740D01*
X010000Y033740D02*
X010000Y033260D01*
X009000Y033260D02*
X009000Y033740D01*
X008000Y033740D02*
X008000Y033260D01*
X007000Y033260D02*
X007000Y033740D01*
X006000Y033740D02*
X006000Y033260D01*
X005000Y033260D02*
X005000Y033740D01*
X004000Y033740D02*
X004000Y033260D01*
X004000Y041760D02*
X004000Y042240D01*
X005000Y042240D02*
X005000Y041760D01*
X006000Y041760D02*
X006000Y042240D01*
X007000Y042240D02*
X007000Y041760D01*
X008000Y041760D02*
X008000Y042240D01*
X009000Y042240D02*
X009000Y041760D01*
X010000Y041760D02*
X010000Y042240D01*
X011000Y042240D02*
X011000Y041760D01*
X012000Y041760D02*
X012000Y042240D01*
X019000Y042240D02*
X019000Y041760D01*
X020000Y041760D02*
X020000Y042240D01*
X021000Y042240D02*
X021000Y041760D01*
X022000Y041760D02*
X022000Y042240D01*
X023000Y042240D02*
X023000Y041760D01*
X024000Y041760D02*
X024000Y042240D01*
X025000Y042240D02*
X025000Y041760D01*
X026000Y041760D02*
X026000Y042240D01*
X027000Y042240D02*
X027000Y041760D01*
X034000Y041760D02*
X034000Y042240D01*
X035000Y042240D02*
X035000Y041760D01*
X036000Y041760D02*
X036000Y042240D01*
X037000Y042240D02*
X037000Y041760D01*
X038000Y041760D02*
X038000Y042240D01*
X039000Y042240D02*
X039000Y041760D01*
X040000Y041760D02*
X040000Y042240D01*
X041000Y042240D02*
X041000Y041760D01*
X042000Y041760D02*
X042000Y042240D01*
X049000Y042240D02*
X049000Y041760D01*
X050000Y041760D02*
X050000Y042240D01*
X051000Y042240D02*
X051000Y041760D01*
X052000Y041760D02*
X052000Y042240D01*
X053000Y042240D02*
X053000Y041760D01*
X054000Y041760D02*
X054000Y042240D01*
X055000Y042240D02*
X055000Y041760D01*
X056000Y041760D02*
X056000Y042240D01*
X057000Y042240D02*
X057000Y041760D01*
X021750Y071510D02*
X021750Y071990D01*
X021750Y073510D02*
X021750Y073990D01*
D23*
X023250Y073500D03*
X023250Y071500D03*
X026500Y076000D03*
X025750Y076750D03*
X027750Y076750D03*
X028500Y076000D03*
X030750Y073500D03*
X030750Y071500D03*
X030750Y066000D03*
X030750Y064000D03*
X030750Y058500D03*
X030750Y056500D03*
X030750Y049500D03*
X030750Y047500D03*
X023250Y049000D03*
X023250Y051000D03*
X023250Y056500D03*
X023250Y058500D03*
X023250Y063250D03*
X023250Y065250D03*
X023750Y066000D03*
X021750Y066000D03*
X015750Y066000D03*
X015750Y064000D03*
X015750Y058500D03*
X015750Y056500D03*
X015750Y049500D03*
X015750Y047500D03*
X008250Y049000D03*
X008250Y051000D03*
X008250Y056500D03*
X008250Y058500D03*
X008250Y064000D03*
X008250Y066000D03*
X008250Y071500D03*
X008250Y073500D03*
X000750Y073500D03*
X000750Y071500D03*
X000500Y066000D03*
X000500Y064000D03*
X000500Y058500D03*
X000500Y056500D03*
X000500Y049500D03*
X000500Y047500D03*
X000750Y029500D03*
X000750Y027500D03*
X000750Y022750D03*
X000750Y020750D03*
X000750Y015250D03*
X000750Y013250D03*
X000750Y007750D03*
X000750Y005750D03*
X008250Y005750D03*
X008250Y007750D03*
X008250Y013250D03*
X008250Y015250D03*
X008250Y020750D03*
X008250Y022750D03*
X008250Y027500D03*
X008250Y029500D03*
X015750Y029500D03*
X015750Y027500D03*
X015750Y022750D03*
X015750Y020750D03*
X015750Y015250D03*
X015750Y013250D03*
X015750Y007750D03*
X015750Y005750D03*
X023250Y005750D03*
X023250Y007750D03*
X023250Y013250D03*
X023250Y015250D03*
X023250Y020750D03*
X023250Y022750D03*
X023250Y027500D03*
X023250Y029500D03*
X030750Y029500D03*
X030750Y027500D03*
X030750Y022750D03*
X030750Y020750D03*
X030750Y015250D03*
X030750Y013250D03*
X030750Y007750D03*
X030750Y005750D03*
X038250Y005750D03*
X038250Y007750D03*
X038250Y013250D03*
X038250Y015250D03*
X038250Y020750D03*
X038250Y022750D03*
X038250Y027500D03*
X038250Y029500D03*
X045750Y029500D03*
X045750Y027500D03*
X045750Y022750D03*
X045750Y020750D03*
X045750Y015250D03*
X045750Y013250D03*
X045750Y007750D03*
X045750Y005750D03*
X053250Y005750D03*
X053250Y007750D03*
X053250Y013250D03*
X053250Y015250D03*
X053250Y020750D03*
X053250Y022750D03*
X053250Y027500D03*
X053250Y029500D03*
X060750Y029500D03*
X060750Y027500D03*
X060750Y022750D03*
X060750Y020750D03*
X060750Y015250D03*
X060750Y013250D03*
X060750Y007750D03*
X060750Y005750D03*
X068250Y005750D03*
X068250Y007750D03*
X068250Y013250D03*
X068250Y015250D03*
X068250Y020750D03*
X068250Y022750D03*
X068250Y027500D03*
X068250Y029500D03*
X060750Y047500D03*
X060750Y049500D03*
X060750Y056500D03*
X060750Y058500D03*
X060750Y064000D03*
X060750Y066000D03*
X060750Y071500D03*
X060750Y073500D03*
X053250Y073500D03*
X053250Y071500D03*
X053250Y066000D03*
X053250Y064000D03*
X053250Y058500D03*
X053250Y056500D03*
X053250Y051000D03*
X053250Y049000D03*
X045750Y049500D03*
X045750Y047500D03*
X038250Y049000D03*
X038250Y051000D03*
X038250Y056500D03*
X038250Y058500D03*
X038250Y064000D03*
X038250Y066000D03*
X038250Y071500D03*
X038250Y073500D03*
X045750Y073500D03*
X045750Y071500D03*
X045750Y066000D03*
X045750Y064000D03*
X045750Y058500D03*
X045750Y056500D03*
X068250Y056500D03*
X068250Y058500D03*
X068250Y064000D03*
X068250Y066000D03*
X068250Y071500D03*
X068250Y073500D03*
X068250Y051000D03*
X068250Y049000D03*
X019250Y075750D03*
X017250Y075750D03*
X015750Y073500D03*
X015750Y071500D03*
D24*
X020500Y076750D03*
X005500Y076750D03*
X035500Y076750D03*
X050500Y076750D03*
X065500Y076750D03*
X066750Y040750D03*
X051750Y040750D03*
X036750Y040750D03*
X006750Y040750D03*
D25*
X000500Y040750D03*
X000500Y039750D03*
X000500Y038750D03*
X000500Y037750D03*
X000500Y036750D03*
X000500Y035750D03*
X000500Y034750D03*
X000500Y033750D03*
X013750Y033750D03*
X013750Y034750D03*
X013750Y035750D03*
X013750Y036750D03*
X013750Y037750D03*
X013750Y037750D03*
X013750Y038750D03*
X013750Y039750D03*
X013750Y040750D03*
X015500Y040750D03*
X015500Y039750D03*
X015500Y038750D03*
X015500Y037750D03*
X015500Y036750D03*
X015500Y035750D03*
X015500Y034750D03*
X015500Y033750D03*
X018750Y034750D03*
X017750Y040750D03*
X028750Y040750D03*
X028750Y039750D03*
X028750Y038750D03*
X028750Y037750D03*
X028750Y037750D03*
X028750Y036750D03*
X028750Y035750D03*
X028750Y034750D03*
X028750Y033750D03*
X030500Y033750D03*
X030500Y034750D03*
X030500Y035750D03*
X030500Y036750D03*
X030500Y037750D03*
X030500Y038750D03*
X030500Y039750D03*
X030500Y040750D03*
X043750Y040750D03*
X043750Y039750D03*
X043750Y038750D03*
X043750Y037750D03*
X043750Y037750D03*
X043750Y036750D03*
X043750Y035750D03*
X043750Y034750D03*
X043750Y033750D03*
X045500Y033750D03*
X045500Y034750D03*
X045500Y035750D03*
X045500Y036750D03*
X045500Y037750D03*
X045500Y038750D03*
X045500Y039750D03*
X045500Y040750D03*
X058750Y040750D03*
X058750Y039750D03*
X058750Y038750D03*
X058750Y037750D03*
X058750Y037750D03*
X058750Y036750D03*
X058750Y035750D03*
X058750Y034750D03*
X058750Y033750D03*
X060500Y033750D03*
X060500Y034750D03*
X060500Y035750D03*
X060500Y036750D03*
X060500Y037750D03*
X060500Y038750D03*
X060500Y039750D03*
X060500Y040750D03*
X073750Y040750D03*
X073750Y039750D03*
X073750Y038750D03*
X073750Y037750D03*
X073750Y037750D03*
X073750Y036750D03*
X073750Y035750D03*
X073750Y034750D03*
X073750Y033750D03*
X065500Y075500D03*
X050500Y075500D03*
X035500Y075500D03*
X005500Y075500D03*
D26*
X030500Y048250D03*
X034000Y046000D03*
X036500Y048000D03*
X032250Y042000D03*
X032250Y041500D03*
X033250Y041250D03*
X035750Y039000D03*
X034250Y038250D03*
X034250Y037750D03*
X034750Y035813D03*
X036500Y035500D03*
X037500Y036000D03*
X037000Y036750D03*
X037000Y037750D03*
X037500Y038250D03*
X040500Y037625D03*
X041500Y036000D03*
X042000Y035000D03*
X043250Y033250D03*
X043250Y031250D03*
X039750Y035000D03*
X036500Y034375D03*
X034500Y029500D03*
X037250Y029250D03*
X037250Y028500D03*
X038500Y029000D03*
X034500Y023750D03*
X028250Y029900D03*
X028250Y033250D03*
X026500Y036000D03*
X025500Y037625D03*
X025500Y040000D03*
X026500Y040500D03*
X026500Y044750D03*
X022500Y038250D03*
X022000Y037750D03*
X022000Y036750D03*
X022500Y036000D03*
X021500Y034375D03*
X019750Y035813D03*
X019250Y037750D03*
X019250Y038250D03*
X020750Y039000D03*
X017250Y041500D03*
X017250Y042000D03*
X011500Y040500D03*
X010500Y040000D03*
X010250Y037625D03*
X011500Y036000D03*
X012000Y035000D03*
X013500Y033000D03*
X013250Y028750D03*
X009750Y029000D03*
X007250Y029250D03*
X007250Y028500D03*
X004500Y023750D03*
X006500Y034375D03*
X007500Y036000D03*
X007000Y036750D03*
X007000Y037750D03*
X007500Y038250D03*
X005750Y039000D03*
X004250Y038250D03*
X004250Y037750D03*
X004750Y035813D03*
X003250Y041250D03*
X002750Y041875D03*
X002250Y041500D03*
X004250Y046000D03*
X006500Y048000D03*
X001500Y047750D03*
X019500Y029500D03*
X022250Y029250D03*
X022250Y028500D03*
X024750Y029000D03*
X019500Y023750D03*
X022250Y007250D03*
X028500Y007500D03*
X028500Y005375D03*
X029000Y004750D03*
X037250Y007250D03*
X043500Y007500D03*
X043500Y005375D03*
X044000Y004750D03*
X052250Y007250D03*
X058500Y007500D03*
X058500Y005375D03*
X059000Y004750D03*
X067250Y007250D03*
X073500Y007500D03*
X073500Y005375D03*
X074000Y004750D03*
X064500Y023750D03*
X067250Y028500D03*
X067250Y029250D03*
X069750Y029000D03*
X073250Y028750D03*
X073750Y030750D03*
X069750Y035000D03*
X071500Y036000D03*
X070500Y037625D03*
X070500Y040000D03*
X071500Y040500D03*
X067500Y038250D03*
X067000Y037750D03*
X067000Y036750D03*
X067500Y036000D03*
X066500Y035500D03*
X066500Y034375D03*
X064750Y035813D03*
X064250Y037750D03*
X064250Y038250D03*
X065750Y039000D03*
X063250Y041250D03*
X062250Y041500D03*
X062250Y042500D03*
X064250Y046000D03*
X066500Y048000D03*
X060500Y048000D03*
X056500Y040500D03*
X055500Y040000D03*
X055500Y037625D03*
X056500Y036000D03*
X057000Y035000D03*
X058250Y033250D03*
X054750Y035000D03*
X052500Y036000D03*
X052000Y036750D03*
X052000Y037750D03*
X052500Y038250D03*
X050750Y039000D03*
X049250Y038250D03*
X049250Y037750D03*
X049750Y035813D03*
X051500Y035500D03*
X051500Y034375D03*
X049500Y029500D03*
X052250Y029250D03*
X052250Y028500D03*
X054750Y029000D03*
X058250Y028750D03*
X064500Y029000D03*
X069700Y025400D03*
X049500Y023750D03*
X040500Y040000D03*
X041500Y040500D03*
X047250Y041500D03*
X047250Y042000D03*
X048250Y041250D03*
X049250Y045000D03*
X051500Y048250D03*
X045500Y048250D03*
X013500Y007500D03*
X013500Y005375D03*
X014000Y004750D03*
X007250Y007250D03*
D27*
X001500Y007250D03*
X001500Y006250D03*
X001500Y005250D03*
X001500Y008250D03*
X001500Y012750D03*
X001500Y013750D03*
X001250Y017250D03*
X001500Y021250D03*
X003750Y031500D03*
X004500Y032000D03*
X007250Y032500D03*
X007250Y031250D03*
X010750Y032000D03*
X013750Y032250D03*
X016250Y032250D03*
X018250Y032500D03*
X014250Y035250D03*
X011500Y040000D03*
X013500Y041500D03*
X008000Y038750D03*
X006750Y039000D03*
X005500Y049875D03*
X006000Y050250D03*
X006500Y050625D03*
X006000Y054750D03*
X001250Y057750D03*
X000500Y055250D03*
X001000Y051000D03*
X006250Y060625D03*
X006500Y061125D03*
X020500Y049875D03*
X021000Y050250D03*
X021500Y050625D03*
X021000Y055500D03*
X021250Y060625D03*
X021750Y061125D03*
X024750Y067250D03*
X026500Y067250D03*
X027000Y068250D03*
X029000Y068250D03*
X036000Y060625D03*
X036500Y060875D03*
X036000Y055500D03*
X036500Y050625D03*
X036000Y050250D03*
X035500Y049875D03*
X029250Y043750D03*
X028250Y044750D03*
X028500Y041500D03*
X026500Y040000D03*
X026500Y040000D03*
X029750Y039250D03*
X029750Y037750D03*
X028250Y036250D03*
X028750Y032250D03*
X023000Y038750D03*
X021750Y039000D03*
X036750Y039000D03*
X038000Y038750D03*
X041500Y040000D03*
X041500Y040000D03*
X043500Y041500D03*
X044250Y035250D03*
X051750Y039000D03*
X053000Y038750D03*
X056500Y040000D03*
X056500Y040000D03*
X058500Y041500D03*
X059250Y035250D03*
X066750Y039000D03*
X068000Y038750D03*
X071500Y040000D03*
X073250Y041500D03*
X066000Y050250D03*
X065500Y049875D03*
X066500Y050625D03*
X066000Y055500D03*
X065750Y060625D03*
X066250Y061125D03*
X072000Y075250D03*
X074250Y075250D03*
X051500Y061125D03*
X051250Y060625D03*
X051000Y055500D03*
X051500Y050625D03*
X051000Y050250D03*
X050500Y049875D03*
D28*
X072250Y027000D03*
X072000Y023500D03*
X023250Y040500D03*
X021750Y040500D03*
X000500Y062500D03*
X006250Y068250D03*
X021750Y067250D03*
X023500Y067250D03*
X022250Y065250D03*
X021750Y075500D03*
D29*
X009500Y075500D03*
X039500Y075500D03*
X054500Y075500D03*
X069500Y075500D03*
X036750Y040750D03*
X032750Y034750D03*
X017750Y034750D03*
X002750Y034750D03*
X047750Y034750D03*
X062750Y034750D03*
D30*
X064000Y034750D03*
X065000Y034750D03*
X066250Y036250D03*
X069750Y034500D03*
X070750Y034500D03*
X068500Y039500D03*
X068250Y040500D03*
X070000Y041000D03*
X062250Y039750D03*
X055750Y034500D03*
X054750Y034500D03*
X051250Y036250D03*
X050000Y034750D03*
X049000Y034750D03*
X047750Y033000D03*
X046250Y033000D03*
X040750Y034500D03*
X039750Y034500D03*
X036250Y036250D03*
X035000Y034750D03*
X034000Y034750D03*
X032750Y033000D03*
X031250Y033000D03*
X025750Y035500D03*
X024750Y034750D03*
X021250Y036250D03*
X023500Y039500D03*
X025000Y041000D03*
X032250Y039750D03*
X038250Y040500D03*
X038500Y039500D03*
X040000Y041000D03*
X047250Y039750D03*
X053250Y040500D03*
X053500Y039500D03*
X055000Y041000D03*
X061250Y033000D03*
X062750Y033000D03*
X063500Y023000D03*
X065000Y023000D03*
X071000Y023000D03*
X072500Y023000D03*
X057500Y023000D03*
X056000Y023000D03*
X050000Y023000D03*
X048500Y023000D03*
X042500Y023000D03*
X041000Y023000D03*
X035000Y023000D03*
X033500Y023000D03*
X027500Y023000D03*
X026000Y023000D03*
X020000Y023000D03*
X018500Y023000D03*
X012500Y023000D03*
X011000Y023000D03*
X005000Y023000D03*
X003500Y023000D03*
X002750Y034000D03*
X004000Y034500D03*
X005000Y034500D03*
X006250Y036250D03*
X008500Y039500D03*
X008250Y040500D03*
X010000Y041000D03*
X017250Y039750D03*
X017750Y031500D03*
X016250Y031500D03*
X002250Y039750D03*
X001250Y034000D03*
X003500Y053000D03*
X005250Y053000D03*
X008500Y053000D03*
X008000Y061750D03*
X008000Y062875D03*
X006625Y061750D03*
X009000Y062875D03*
X008250Y070500D03*
X006250Y070500D03*
X006500Y074250D03*
X008000Y074250D03*
X018750Y067750D03*
X018750Y066750D03*
X021750Y069500D03*
X023250Y069500D03*
X023000Y062375D03*
X023000Y061750D03*
X024000Y062375D03*
X021625Y061750D03*
X020250Y053000D03*
X018500Y053000D03*
X023500Y053000D03*
X033500Y053000D03*
X035250Y053000D03*
X038500Y053000D03*
X038000Y061750D03*
X038000Y062875D03*
X039000Y062875D03*
X036625Y061750D03*
X036750Y070500D03*
X038250Y070500D03*
X033750Y073750D03*
X033750Y074750D03*
X048750Y074750D03*
X048750Y073750D03*
X051750Y070500D03*
X053250Y070500D03*
X053000Y062875D03*
X054000Y062875D03*
X053000Y061750D03*
X051625Y061750D03*
X050250Y053000D03*
X048500Y053000D03*
X053500Y053000D03*
X063500Y053000D03*
X065250Y053000D03*
X068500Y053000D03*
X068000Y061750D03*
X068000Y062875D03*
X069000Y062875D03*
X066625Y061750D03*
X066750Y070500D03*
X068250Y070500D03*
X063750Y073750D03*
X063750Y074750D03*
M02*
