%
M48
M72
T01C0.0197
T02C0.0236
T03C0.0276
T04C0.0315
T05C0.0320
T06C0.0354
T07C0.0360
T08C0.0394
T09C0.0433
T10C0.0690
T11C0.1250
T12C0.1260
T13C0.1570
%
T01
X7250Y7250
X13500Y7500
X13500Y5375
X14000Y4750
X22250Y7250
X28500Y7500
X28500Y5375
X29000Y4750
X37250Y7250
X43500Y7500
X43500Y5375
X44000Y4750
X52250Y7250
X58500Y7500
X58500Y5375
X59000Y4750
X67250Y7250
X73500Y7500
X73500Y5375
X74000Y4750
X72500Y23000
X71000Y23000
X69700Y25400
X67250Y28500
X67250Y29250
X69750Y29000
X73250Y28750
X73750Y30750
X70750Y34500
X69750Y34500
X69750Y35000
X71500Y36000
X70500Y37625
X70500Y40000
X70000Y41000
X71500Y40500
X68500Y39500
X67500Y38250
X67000Y37750
X67000Y36750
X66250Y36250
X66500Y35500
X67500Y36000
X66500Y34375
X65000Y34750
X64000Y34750
X64750Y35813
X64250Y37750
X64250Y38250
X65750Y39000
X68250Y40500
X63250Y41250
X62250Y41500
X62250Y42500
X62250Y39750
X56500Y40500
X55500Y40000
X55000Y41000
X53500Y39500
X53250Y40500
X52500Y38250
X52000Y37750
X52000Y36750
X51250Y36250
X51500Y35500
X52500Y36000
X51500Y34375
X50000Y34750
X49000Y34750
X49750Y35813
X49250Y37750
X49250Y38250
X50750Y39000
X48250Y41250
X47250Y41500
X47250Y42000
X47250Y39750
X49250Y45000
X51500Y48250
X50250Y53000
X48500Y53000
X45500Y48250
X38500Y53000
X35250Y53000
X33500Y53000
X30500Y48250
X34000Y46000
X36500Y48000
X32250Y42000
X32250Y41500
X33250Y41250
X32250Y39750
X34250Y38250
X34250Y37750
X35750Y39000
X37000Y37750
X37500Y38250
X37000Y36750
X36250Y36250
X36500Y35500
X37500Y36000
X36500Y34375
X35000Y34750
X34000Y34750
X34750Y35813
X32750Y33000
X31250Y33000
X28250Y33250
X25750Y35500
X26500Y36000
X25500Y37625
X25500Y40000
X25000Y41000
X26500Y40500
X23500Y39500
X22500Y38250
X22000Y37750
X22000Y36750
X21250Y36250
X22500Y36000
X21500Y34375
X19750Y35813
X19250Y37750
X19250Y38250
X20750Y39000
X17250Y39750
X17250Y41500
X17250Y42000
X11500Y40500
X10500Y40000
X10000Y41000
X8250Y40500
X8500Y39500
X7500Y38250
X7000Y37750
X7000Y36750
X6250Y36250
X7500Y36000
X6500Y34375
X5000Y34500
X4000Y34500
X2750Y34000
X1250Y34000
X4750Y35813
X4250Y37750
X4250Y38250
X5750Y39000
X3250Y41250
X2750Y41875
X2250Y41500
X2250Y39750
X4250Y46000
X6500Y48000
X1500Y47750
X3500Y53000
X5250Y53000
X8500Y53000
X8000Y61750
X8000Y62875
X6625Y61750
X9000Y62875
X8250Y70500
X6250Y70500
X6500Y74250
X8000Y74250
X18750Y67750
X18750Y66750
X21750Y69500
X23250Y69500
X23000Y62375
X23000Y61750
X24000Y62375
X21625Y61750
X20250Y53000
X18500Y53000
X23500Y53000
X26500Y44750
X24750Y34750
X28250Y29900
X24750Y29000
X22250Y29250
X22250Y28500
X19500Y29500
X17750Y31500
X16250Y31500
X13500Y33000
X12000Y35000
X11500Y36000
X10250Y37625
X9750Y29000
X7250Y29250
X7250Y28500
X4500Y23750
X5000Y23000
X3500Y23000
X11000Y23000
X12500Y23000
X13250Y28750
X18500Y23000
X19500Y23750
X20000Y23000
X26000Y23000
X27500Y23000
X33500Y23000
X34500Y23750
X35000Y23000
X37250Y28500
X37250Y29250
X38500Y29000
X34500Y29500
X39750Y34500
X39750Y35000
X40750Y34500
X42000Y35000
X41500Y36000
X40500Y37625
X38500Y39500
X38250Y40500
X40000Y41000
X40500Y40000
X41500Y40500
X43250Y33250
X43250Y31250
X46250Y33000
X47750Y33000
X49500Y29500
X52250Y29250
X52250Y28500
X54750Y29000
X58250Y28750
X58250Y33250
X57000Y35000
X56500Y36000
X55750Y34500
X54750Y34500
X54750Y35000
X55500Y37625
X61250Y33000
X62750Y33000
X64500Y29000
X64500Y23750
X65000Y23000
X63500Y23000
X57500Y23000
X56000Y23000
X50000Y23000
X49500Y23750
X48500Y23000
X42500Y23000
X41000Y23000
X64250Y46000
X66500Y48000
X65250Y53000
X63500Y53000
X68500Y53000
X60500Y48000
X53500Y53000
X53000Y61750
X53000Y62875
X54000Y62875
X51625Y61750
X51750Y70500
X53250Y70500
X48750Y73750
X48750Y74750
X38250Y70500
X36750Y70500
X33750Y73750
X33750Y74750
X38000Y62875
X39000Y62875
X38000Y61750
X36625Y61750
X63750Y73750
X63750Y74750
X66750Y70500
X68250Y70500
X68000Y62875
X69000Y62875
X68000Y61750
X66625Y61750
T02
X66250Y61125
X65750Y60625
X66000Y55500
X66500Y50625
X66000Y50250
X65500Y49875
X58500Y41500
X56500Y40000
X56500Y40000
X53000Y38750
X51750Y39000
X44250Y35250
X41500Y40000
X41500Y40000
X43500Y41500
X38000Y38750
X36750Y39000
X29750Y39250
X29750Y37750
X28250Y36250
X28750Y32250
X23000Y38750
X21750Y39000
X21750Y40500
X23250Y40500
X26500Y40000
X26500Y40000
X28500Y41500
X29250Y43750
X28250Y44750
X21500Y50625
X21000Y50250
X20500Y49875
X21000Y55500
X21250Y60625
X21750Y61125
X22250Y65250
X21750Y67250
X23500Y67250
X24750Y67250
X26500Y67250
X27000Y68250
X29000Y68250
X36000Y60625
X36500Y60875
X36000Y55500
X36500Y50625
X36000Y50250
X35500Y49875
X50500Y49875
X51000Y50250
X51500Y50625
X51000Y55500
X51250Y60625
X51500Y61125
X72000Y75250
X74250Y75250
X73250Y41500
X71500Y40000
X68000Y38750
X66750Y39000
X59250Y35250
X72250Y27000
X72000Y23500
X21750Y75500
X6250Y68250
X500Y62500
X1250Y57750
X500Y55250
X1000Y51000
X5500Y49875
X6000Y50250
X6500Y50625
X6000Y54750
X6250Y60625
X6500Y61125
X13500Y41500
X11500Y40000
X8000Y38750
X6750Y39000
X7250Y32500
X7250Y31250
X4500Y32000
X3750Y31500
X10750Y32000
X13750Y32250
X16250Y32250
X18250Y32500
X14250Y35250
X1500Y21250
X1250Y17250
X1500Y13750
X1500Y12750
X1500Y8250
X1500Y7250
X1500Y6250
X1500Y5250
T03
X2250Y750
X5250Y6750
X2250Y8250
X5250Y14250
X2250Y15750
X5250Y21750
X2250Y23250
X5250Y29250
X9750Y23250
X12750Y21750
X17250Y23250
X20250Y21750
X24750Y23250
X27750Y21750
X32250Y23250
X35250Y21750
X39750Y23250
X42750Y21750
X47250Y23250
X50250Y21750
X54750Y23250
X57750Y21750
X62250Y23250
X65250Y21750
X69750Y23250
X72750Y21750
X69750Y15750
X72750Y14250
X69750Y8250
X72750Y6750
X69750Y750
X65250Y6750
X62250Y8250
X57750Y6750
X54750Y8250
X50250Y6750
X47250Y8250
X42750Y6750
X39750Y8250
X35250Y6750
X32250Y8250
X27750Y6750
X24750Y8250
X20250Y6750
X17250Y8250
X12750Y6750
X9750Y8250
X12750Y14250
X9750Y15750
X17250Y15750
X20250Y14250
X24750Y15750
X27750Y14250
X32250Y15750
X35250Y14250
X39750Y15750
X42750Y14250
X47250Y15750
X50250Y14250
X54750Y15750
X57750Y14250
X62250Y15750
X65250Y14250
X62250Y750
X54750Y750
X47250Y750
X39750Y750
X32250Y750
X24750Y750
X17250Y750
X9750Y750
X12750Y29250
X20250Y29250
X27750Y29250
X35250Y29250
X42750Y29250
X50250Y29250
X57750Y29250
X65250Y29250
X72750Y29250
X69750Y46000
X72750Y52000
X69750Y53500
X65250Y52000
X62250Y53500
X57750Y52000
X54750Y53500
X50250Y52000
X47250Y53500
X42750Y52000
X39750Y53500
X35250Y52000
X32250Y53500
X27750Y52000
X24750Y53500
X20250Y52000
X17250Y53500
X12750Y52000
X9750Y53500
X5250Y52000
X2250Y53500
X5250Y59500
X2250Y61000
X5250Y67000
X2250Y68500
X5250Y74500
X9750Y68500
X12750Y67000
X17250Y68500
X20250Y67000
X24750Y68500
X27750Y67000
X32250Y68500
X35250Y67000
X39750Y68500
X42750Y67000
X47250Y68500
X50250Y67000
X54750Y68500
X57750Y67000
X62250Y68500
X65250Y67000
X69750Y68500
X72750Y67000
X69750Y61000
X72750Y59500
X65250Y59500
X62250Y61000
X57750Y59500
X54750Y61000
X50250Y59500
X47250Y61000
X42750Y59500
X39750Y61000
X35250Y59500
X32250Y61000
X27750Y59500
X24750Y61000
X20250Y59500
X17250Y61000
X12750Y59500
X9750Y61000
X12750Y74500
X20250Y74500
X27750Y74500
X35250Y74500
X42750Y74500
X50250Y74500
X57750Y74500
X65250Y74500
X72750Y74500
X62250Y46000
X54750Y46000
X47250Y46000
X39750Y46000
X32250Y46000
X24750Y46000
X17250Y46000
X9750Y46000
X2250Y46000
T04
X500Y40750
X500Y39750
X500Y38750
X500Y37750
X500Y36750
X500Y35750
X500Y34750
X500Y33750
X2750Y34750
X13750Y34750
X13750Y33750
X15500Y33750
X15500Y34750
X15500Y35750
X15500Y36750
X15500Y37750
X15500Y38750
X15500Y39750
X15500Y40750
X13750Y40750
X13750Y39750
X13750Y38750
X13750Y37750
X13750Y37750
X13750Y36750
X13750Y35750
X17750Y34750
X18750Y34750
X17750Y40750
X28750Y40750
X28750Y39750
X28750Y38750
X28750Y37750
X28750Y37750
X28750Y36750
X28750Y35750
X28750Y34750
X28750Y33750
X30500Y33750
X30500Y34750
X30500Y35750
X30500Y36750
X30500Y37750
X30500Y38750
X30500Y39750
X30500Y40750
X36750Y40750
X32750Y34750
X43750Y34750
X43750Y33750
X45500Y33750
X45500Y34750
X45500Y35750
X45500Y36750
X45500Y37750
X45500Y38750
X45500Y39750
X45500Y40750
X43750Y40750
X43750Y39750
X43750Y38750
X43750Y37750
X43750Y37750
X43750Y36750
X43750Y35750
X47750Y34750
X58750Y34750
X58750Y33750
X60500Y33750
X60500Y34750
X60500Y35750
X60500Y36750
X60500Y37750
X60500Y38750
X60500Y39750
X60500Y40750
X58750Y40750
X58750Y39750
X58750Y38750
X58750Y37750
X58750Y37750
X58750Y36750
X58750Y35750
X62750Y34750
X73750Y34750
X73750Y33750
X73750Y35750
X73750Y36750
X73750Y37750
X73750Y37750
X73750Y38750
X73750Y39750
X73750Y40750
X69500Y75500
X65500Y75500
X54500Y75500
X50500Y75500
X39500Y75500
X35500Y75500
X9500Y75500
X5500Y75500
T05
X8250Y73500
X8250Y71500
X8250Y66000
X8250Y64000
X8250Y58500
X8250Y56500
X8250Y51000
X8250Y49000
X8000Y42000
X7000Y42000
X6000Y42000
X5000Y42000
X4000Y42000
X9000Y42000
X10000Y42000
X11000Y42000
X12000Y42000
X15750Y47500
X15750Y49500
X15750Y56500
X15750Y58500
X15750Y64000
X15750Y66000
X15750Y71500
X15750Y73500
X17250Y75750
X19250Y75750
X21750Y73750
X23250Y73500
X23250Y71500
X21750Y71750
X26500Y76000
X25750Y76750
X27750Y76750
X28500Y76000
X30750Y73500
X30750Y71500
X30750Y66000
X30750Y64000
X30750Y58500
X30750Y56500
X30750Y49500
X30750Y47500
X34000Y42000
X35000Y42000
X36000Y42000
X37000Y42000
X38000Y42000
X39000Y42000
X40000Y42000
X41000Y42000
X42000Y42000
X45750Y47500
X45750Y49500
X45750Y56500
X45750Y58500
X45750Y64000
X45750Y66000
X45750Y71500
X45750Y73500
X38250Y73500
X38250Y71500
X38250Y66000
X38250Y64000
X38250Y58500
X38250Y56500
X38250Y51000
X38250Y49000
X27000Y42000
X26000Y42000
X25000Y42000
X24000Y42000
X23000Y42000
X22000Y42000
X21000Y42000
X20000Y42000
X19000Y42000
X23250Y49000
X23250Y51000
X23250Y56500
X23250Y58500
X23250Y63250
X23250Y65250
X23750Y66000
X21750Y66000
X750Y71500
X750Y73500
X500Y66000
X500Y64000
X500Y58500
X500Y56500
X500Y49500
X500Y47500
X4000Y33500
X5000Y33500
X6000Y33500
X7000Y33500
X8000Y33500
X9000Y33500
X10000Y33500
X11000Y33500
X12000Y33500
X8250Y29500
X8250Y27500
X8250Y22750
X8250Y20750
X8250Y15250
X8250Y13250
X8250Y7750
X8250Y5750
X750Y5750
X750Y7750
X750Y13250
X750Y15250
X750Y20750
X750Y22750
X750Y27500
X750Y29500
X15750Y29500
X15750Y27500
X15750Y22750
X15750Y20750
X15750Y15250
X15750Y13250
X15750Y7750
X15750Y5750
X23250Y5750
X23250Y7750
X23250Y13250
X23250Y15250
X23250Y20750
X23250Y22750
X23250Y27500
X23250Y29500
X23000Y33500
X22000Y33500
X21000Y33500
X20000Y33500
X19000Y33500
X24000Y33500
X25000Y33500
X26000Y33500
X27000Y33500
X30750Y29500
X30750Y27500
X30750Y22750
X30750Y20750
X30750Y15250
X30750Y13250
X30750Y7750
X30750Y5750
X38250Y5750
X38250Y7750
X38250Y13250
X38250Y15250
X38250Y20750
X38250Y22750
X38250Y27500
X38250Y29500
X38000Y33500
X37000Y33500
X36000Y33500
X35000Y33500
X34000Y33500
X39000Y33500
X40000Y33500
X41000Y33500
X42000Y33500
X45750Y29500
X45750Y27500
X45750Y22750
X45750Y20750
X45750Y15250
X45750Y13250
X45750Y7750
X45750Y5750
X53250Y5750
X53250Y7750
X53250Y13250
X53250Y15250
X53250Y20750
X53250Y22750
X53250Y27500
X53250Y29500
X53000Y33500
X52000Y33500
X51000Y33500
X50000Y33500
X49000Y33500
X54000Y33500
X55000Y33500
X56000Y33500
X57000Y33500
X60750Y29500
X60750Y27500
X64000Y31000
X65000Y31000
X66000Y31000
X67000Y31000
X68000Y31000
X69000Y31000
X70000Y31000
X71000Y31000
X72000Y31000
X68250Y29500
X68250Y27500
X68250Y22750
X68250Y20750
X68250Y15250
X68250Y13250
X68250Y7750
X68250Y5750
X60750Y5750
X60750Y7750
X60750Y13250
X60750Y15250
X60750Y20750
X60750Y22750
X57000Y42000
X56000Y42000
X55000Y42000
X54000Y42000
X53000Y42000
X52000Y42000
X51000Y42000
X50000Y42000
X49000Y42000
X53250Y49000
X53250Y51000
X53250Y56500
X53250Y58500
X53250Y64000
X53250Y66000
X53250Y71500
X53250Y73500
X60750Y73500
X60750Y71500
X60750Y66000
X60750Y64000
X60750Y58500
X60750Y56500
X60750Y49500
X60750Y47500
X64000Y44250
X65000Y44250
X66000Y44250
X67000Y44250
X68000Y44250
X69000Y44250
X70000Y44250
X71000Y44250
X72000Y44250
X68250Y49000
X68250Y51000
X68250Y56500
X68250Y58500
X68250Y64000
X68250Y66000
X68250Y71500
X68250Y73500
T06
X69750Y73500
X72750Y73500
X72750Y66000
X69750Y66000
X65250Y66000
X62250Y66000
X57750Y66000
X54750Y66000
X50250Y66000
X47250Y66000
X42750Y66000
X39750Y66000
X35250Y66000
X32250Y66000
X27750Y66000
X24750Y66000
X20250Y66000
X17250Y66000
X12750Y66000
X9750Y66000
X5250Y66000
X2250Y66000
X2250Y58500
X5250Y58500
X9750Y58500
X12750Y58500
X17250Y58500
X20250Y58500
X24750Y58500
X27750Y58500
X32250Y58500
X35250Y58500
X39750Y58500
X42750Y58500
X47250Y58500
X50250Y58500
X54750Y58500
X57750Y58500
X62250Y58500
X65250Y58500
X69750Y58500
X72750Y58500
X72750Y51000
X69750Y51000
X65250Y51000
X62250Y51000
X57750Y51000
X54750Y51000
X50250Y51000
X47250Y51000
X42750Y51000
X39750Y51000
X35250Y51000
X32250Y51000
X27750Y51000
X24750Y51000
X20250Y51000
X17250Y51000
X12750Y51000
X9750Y51000
X5250Y51000
X2250Y51000
X2250Y73500
X5250Y73500
X9750Y73500
X12750Y73500
X17250Y73500
X20250Y73500
X24750Y73500
X27750Y73500
X32250Y73500
X35250Y73500
X39750Y73500
X42750Y73500
X47250Y73500
X50250Y73500
X54750Y73500
X57750Y73500
X62250Y73500
X65250Y73500
X65250Y28250
X62250Y28250
X57750Y28250
X54750Y28250
X50250Y28250
X47250Y28250
X42750Y28250
X39750Y28250
X35250Y28250
X32250Y28250
X27750Y28250
X24750Y28250
X20250Y28250
X17250Y28250
X12750Y28250
X9750Y28250
X5250Y28250
X2250Y28250
X2250Y20750
X5250Y20750
X9750Y20750
X12750Y20750
X17250Y20750
X20250Y20750
X24750Y20750
X27750Y20750
X32250Y20750
X35250Y20750
X39750Y20750
X42750Y20750
X47250Y20750
X50250Y20750
X54750Y20750
X57750Y20750
X62250Y20750
X65250Y20750
X69750Y20750
X72750Y20750
X72750Y13250
X69750Y13250
X65250Y13250
X62250Y13250
X57750Y13250
X54750Y13250
X50250Y13250
X47250Y13250
X42750Y13250
X39750Y13250
X35250Y13250
X32250Y13250
X27750Y13250
X24750Y13250
X20250Y13250
X17250Y13250
X12750Y13250
X9750Y13250
X5250Y13250
X2250Y13250
X2250Y5750
X5250Y5750
X9750Y5750
X12750Y5750
X17250Y5750
X20250Y5750
X24750Y5750
X27750Y5750
X32250Y5750
X35250Y5750
X39750Y5750
X42750Y5750
X47250Y5750
X50250Y5750
X54750Y5750
X57750Y5750
X62250Y5750
X65250Y5750
X69750Y5750
X72750Y5750
X72750Y28250
X69750Y28250
T07
X66750Y40750
X65750Y40750
X64750Y40750
X63750Y40750
X62750Y40750
X51750Y40750
X50750Y40750
X49750Y40750
X48750Y40750
X47750Y40750
X36750Y40750
X35750Y40750
X34750Y40750
X33750Y40750
X32750Y40750
X26750Y34750
X25750Y34750
X6750Y40750
X5750Y40750
X4750Y40750
X3750Y40750
X2750Y40750
X5500Y76750
X6500Y76750
X7500Y76750
X8500Y76750
X9500Y76750
X20500Y76750
X21500Y76750
X22500Y76750
X23500Y76750
X24500Y76750
X35500Y76750
X36500Y76750
X37500Y76750
X38500Y76750
X39500Y76750
X50500Y76750
X51500Y76750
X52500Y76750
X53500Y76750
X54500Y76750
X65500Y76750
X66500Y76750
X67500Y76750
X68500Y76750
X69500Y76750
T08
X72750Y70500
X70050Y69500
X65250Y70500
X62550Y69500
X57750Y70500
X55050Y69500
X50250Y70500
X47550Y69500
X42750Y70500
X40050Y69500
X35250Y70500
X32550Y69500
X27750Y70500
X25050Y69500
X20250Y70500
X17550Y69500
X12750Y70500
X10050Y69500
X5250Y70500
X2550Y69500
X5250Y63000
X2550Y62000
X5250Y55500
X2550Y54500
X5250Y48000
X2550Y47000
X10050Y47000
X12750Y48000
X17550Y47000
X20250Y48000
X25050Y47000
X27750Y48000
X32550Y47000
X35250Y48000
X40050Y47000
X42750Y48000
X47550Y47000
X50250Y48000
X55050Y47000
X57750Y48000
X62550Y47000
X65250Y48000
X70050Y47000
X72750Y48000
X70050Y54500
X72750Y55500
X70050Y62000
X72750Y63000
X65250Y63000
X62550Y62000
X57750Y63000
X55050Y62000
X50250Y63000
X47550Y62000
X42750Y63000
X40050Y62000
X35250Y63000
X32550Y62000
X27750Y63000
X25050Y62000
X20250Y63000
X17550Y62000
X12750Y63000
X10050Y62000
X12750Y55500
X10050Y54500
X17550Y54500
X20250Y55500
X25050Y54500
X27750Y55500
X32550Y54500
X35250Y55500
X40050Y54500
X42750Y55500
X47550Y54500
X50250Y55500
X55050Y54500
X57750Y55500
X62550Y54500
X65250Y55500
X65250Y25250
X62550Y24250
X57750Y25250
X55050Y24250
X50250Y25250
X47550Y24250
X42750Y25250
X40050Y24250
X35250Y25250
X32550Y24250
X27750Y25250
X25050Y24250
X20250Y25250
X17550Y24250
X12750Y25250
X10050Y24250
X5250Y25250
X2550Y24250
X5250Y17750
X2550Y16750
X5250Y10250
X2550Y9250
X5250Y2750
X2550Y1750
X10050Y1750
X12750Y2750
X17550Y1750
X20250Y2750
X25050Y1750
X27750Y2750
X32550Y1750
X35250Y2750
X40050Y1750
X42750Y2750
X47550Y1750
X50250Y2750
X55050Y1750
X57750Y2750
X62550Y1750
X65250Y2750
X70050Y1750
X72750Y2750
X70050Y9250
X72750Y10250
X70050Y16750
X72750Y17750
X70050Y24250
X72750Y25250
X65250Y17750
X62550Y16750
X57750Y17750
X55050Y16750
X50250Y17750
X47550Y16750
X42750Y17750
X40050Y16750
X35250Y17750
X32550Y16750
X27750Y17750
X25050Y16750
X20250Y17750
X17550Y16750
X12750Y17750
X10050Y16750
X12750Y10250
X10050Y9250
X17550Y9250
X20250Y10250
X25050Y9250
X27750Y10250
X32550Y9250
X35250Y10250
X40050Y9250
X42750Y10250
X47550Y9250
X50250Y10250
X55050Y9250
X57750Y10250
X62550Y9250
X65250Y10250
T09
X65250Y9250
X64250Y12750
X63250Y12750
X65250Y16750
X64250Y20250
X63250Y20250
X65250Y24250
X64250Y27750
X63250Y27750
X57750Y24250
X56750Y27750
X55750Y27750
X50250Y24250
X49250Y27750
X48250Y27750
X42750Y24250
X41750Y27750
X40750Y27750
X35250Y24250
X34250Y27750
X33250Y27750
X27750Y24250
X26750Y27750
X25750Y27750
X20250Y24250
X19250Y27750
X18250Y27750
X12750Y24250
X11750Y27750
X10750Y27750
X5250Y24250
X4250Y27750
X3250Y27750
X3250Y20250
X4250Y20250
X5250Y16750
X4250Y12750
X3250Y12750
X5250Y9250
X4250Y5250
X3250Y5250
X5250Y1750
X10750Y5250
X11750Y5250
X12750Y1750
X18250Y5250
X19250Y5250
X20250Y1750
X25750Y5250
X26750Y5250
X27750Y1750
X33250Y5250
X34250Y5250
X35250Y1750
X40750Y5250
X41750Y5250
X42750Y1750
X48250Y5250
X49250Y5250
X50250Y1750
X55750Y5250
X56750Y5250
X57750Y1750
X63250Y5250
X64250Y5250
X65250Y1750
X70750Y5250
X71750Y5250
X72750Y1750
X72750Y9250
X71750Y12750
X70750Y12750
X72750Y16750
X71750Y20250
X70750Y20250
X72750Y24250
X71750Y27750
X70750Y27750
X57750Y16750
X56750Y20250
X55750Y20250
X50250Y16750
X49250Y20250
X48250Y20250
X42750Y16750
X41750Y20250
X40750Y20250
X35250Y16750
X34250Y20250
X33250Y20250
X27750Y16750
X26750Y20250
X25750Y20250
X20250Y16750
X19250Y20250
X18250Y20250
X12750Y16750
X11750Y20250
X10750Y20250
X10750Y12750
X11750Y12750
X12750Y9250
X18250Y12750
X19250Y12750
X20250Y9250
X25750Y12750
X26750Y12750
X27750Y9250
X33250Y12750
X34250Y12750
X35250Y9250
X40750Y12750
X41750Y12750
X42750Y9250
X48250Y12750
X49250Y12750
X50250Y9250
X55750Y12750
X56750Y12750
X57750Y9250
X57750Y47000
X56750Y50500
X55750Y50500
X57750Y54500
X56750Y58000
X55750Y58000
X57750Y62000
X56750Y65500
X55750Y65500
X57750Y69500
X56750Y73000
X55750Y73000
X50250Y69500
X49250Y73000
X48250Y73000
X42750Y69500
X41750Y73000
X40750Y73000
X35250Y69500
X34250Y73000
X33250Y73000
X27750Y69500
X26750Y73000
X25750Y73000
X20250Y69500
X19250Y73000
X18250Y73000
X12750Y69500
X11750Y73000
X10750Y73000
X5250Y69500
X4250Y73000
X3250Y73000
X3250Y65500
X4250Y65500
X5250Y62000
X4250Y58000
X3250Y58000
X5250Y54500
X4250Y50500
X3250Y50500
X5250Y47000
X10750Y50500
X11750Y50500
X12750Y47000
X18250Y50500
X19250Y50500
X20250Y47000
X25750Y50500
X26750Y50500
X27750Y47000
X33250Y50500
X34250Y50500
X35250Y47000
X40750Y50500
X41750Y50500
X42750Y47000
X48250Y50500
X49250Y50500
X50250Y47000
X50250Y54500
X49250Y58000
X48250Y58000
X50250Y62000
X49250Y65500
X48250Y65500
X42750Y62000
X41750Y65500
X40750Y65500
X35250Y62000
X34250Y65500
X33250Y65500
X27750Y62000
X26750Y65500
X25750Y65500
X20250Y62000
X19250Y65500
X18250Y65500
X12750Y62000
X11750Y65500
X10750Y65500
X10750Y58000
X11750Y58000
X12750Y54500
X18250Y58000
X19250Y58000
X20250Y54500
X25750Y58000
X26750Y58000
X27750Y54500
X33250Y58000
X34250Y58000
X35250Y54500
X40750Y58000
X41750Y58000
X42750Y54500
X63250Y58000
X64250Y58000
X65250Y54500
X64250Y50500
X63250Y50500
X65250Y47000
X70750Y50500
X71750Y50500
X72750Y47000
X72750Y54500
X71750Y58000
X70750Y58000
X72750Y62000
X71750Y65500
X70750Y65500
X72750Y69500
X71750Y73000
X70750Y73000
X65250Y69500
X64250Y73000
X63250Y73000
X63250Y65500
X64250Y65500
X65250Y62000
T10
X65350Y64000
X62100Y64000
X57850Y64000
X54600Y64000
X50350Y64000
X47100Y64000
X42850Y64000
X39600Y64000
X35350Y64000
X32100Y64000
X27850Y64000
X24600Y64000
X20350Y64000
X17100Y64000
X12850Y64000
X9600Y64000
X5350Y64000
X2100Y64000
X2100Y56500
X5350Y56500
X9600Y56500
X12850Y56500
X17100Y56500
X20350Y56500
X24600Y56500
X27850Y56500
X32100Y56500
X35350Y56500
X39600Y56500
X42850Y56500
X47100Y56500
X50350Y56500
X54600Y56500
X57850Y56500
X62100Y56500
X65350Y56500
X69600Y56500
X72850Y56500
X72850Y49000
X69600Y49000
X65350Y49000
X62100Y49000
X57850Y49000
X54600Y49000
X50350Y49000
X47100Y49000
X42850Y49000
X39600Y49000
X35350Y49000
X32100Y49000
X27850Y49000
X24600Y49000
X20350Y49000
X17100Y49000
X12850Y49000
X9600Y49000
X5350Y49000
X2100Y49000
X2100Y71500
X5350Y71500
X9600Y71500
X12850Y71500
X17100Y71500
X20350Y71500
X24600Y71500
X27850Y71500
X32100Y71500
X35350Y71500
X39600Y71500
X42850Y71500
X47100Y71500
X50350Y71500
X54600Y71500
X57850Y71500
X62100Y71500
X65350Y71500
X69600Y71500
X72850Y71500
X72850Y64000
X69600Y64000
X69600Y26250
X72850Y26250
X72850Y18750
X69600Y18750
X65350Y18750
X62100Y18750
X57850Y18750
X54600Y18750
X50350Y18750
X47100Y18750
X42850Y18750
X39600Y18750
X35350Y18750
X32100Y18750
X27850Y18750
X24600Y18750
X20350Y18750
X17100Y18750
X12850Y18750
X9600Y18750
X5350Y18750
X2100Y18750
X2100Y26250
X5350Y26250
X9600Y26250
X12850Y26250
X17100Y26250
X20350Y26250
X24600Y26250
X27850Y26250
X32100Y26250
X35350Y26250
X39600Y26250
X42850Y26250
X47100Y26250
X50350Y26250
X54600Y26250
X57850Y26250
X62100Y26250
X65350Y26250
X65350Y11250
X62100Y11250
X57850Y11250
X54600Y11250
X50350Y11250
X47100Y11250
X42850Y11250
X39600Y11250
X35350Y11250
X32100Y11250
X27850Y11250
X24600Y11250
X20350Y11250
X17100Y11250
X12850Y11250
X9600Y11250
X5350Y11250
X2100Y11250
X2100Y3750
X5350Y3750
X9600Y3750
X12850Y3750
X17100Y3750
X20350Y3750
X24600Y3750
X27850Y3750
X32100Y3750
X35350Y3750
X39600Y3750
X42850Y3750
X47100Y3750
X50350Y3750
X54600Y3750
X57850Y3750
X62100Y3750
X65350Y3750
X69600Y3750
X72850Y3750
X72850Y11250
X69600Y11250
T11
X70970Y32380
X70970Y42810
X2070Y42810
X2070Y32380
T12
X7750Y46500
X22750Y46500
X37750Y46500
X52750Y46500
X67750Y46500
X73750Y76250
X60000Y76250
X45000Y76250
X30000Y76250
X15000Y76250
X1250Y76250
X7500Y2500
X22500Y2500
X37500Y2500
X52500Y2500
X67500Y2500
T13
X63750Y3750
X63750Y11250
X63750Y18750
X63750Y26250
X56250Y26250
X56250Y18750
X56250Y11250
X56250Y3750
X48750Y3750
X48750Y11250
X48750Y18750
X48750Y26250
X41250Y26250
X41250Y18750
X41250Y11250
X41250Y3750
X33750Y3750
X33750Y11250
X26250Y11250
X26250Y3750
X18750Y3750
X18750Y11250
X18750Y18750
X18750Y26250
X11250Y26250
X11250Y18750
X11250Y11250
X11250Y3750
X3750Y3750
X3750Y11250
X3750Y18750
X3750Y26250
X26250Y26250
X26250Y18750
X33750Y18750
X33750Y26250
X33750Y49000
X33750Y56500
X26250Y56500
X26250Y49000
X18750Y49000
X18750Y56500
X18750Y64000
X18750Y71500
X11250Y71500
X11250Y64000
X11250Y56500
X11250Y49000
X3750Y49000
X3750Y56500
X3750Y64000
X3750Y71500
X26250Y71500
X33750Y71500
X33750Y64000
X26250Y64000
X41250Y64000
X41250Y56500
X41250Y49000
X48750Y49000
X48750Y56500
X48750Y64000
X48750Y71500
X41250Y71500
X56250Y71500
X56250Y64000
X56250Y56500
X56250Y49000
X63750Y49000
X63750Y56500
X63750Y64000
X63750Y71500
X71250Y71500
X71250Y64000
X71250Y56500
X71250Y49000
X71250Y26250
X71250Y18750
X71250Y11250
X71250Y3750
M30
