G75*
G70*
%OFA0B0*%
%FSLAX24Y24*%
%IPPOS*%
%LPD*%
%AMOC8*
5,1,8,0,0,1.08239X$1,22.5*
%
%ADD10C,0.1260*%
%ADD11C,0.1250*%
%ADD12C,0.1570*%
%ADD13R,0.0591X0.0591*%
%ADD14C,0.0276*%
%ADD15C,0.0500*%
%ADD16C,0.0512*%
%ADD17C,0.0700*%
%ADD18C,0.0554*%
%ADD19C,0.0850*%
%ADD20C,0.0593*%
%ADD21R,0.0800X0.0260*%
%ADD22C,0.0480*%
%ADD23OC8,0.0480*%
%ADD24R,0.0701X0.0598*%
%ADD25R,0.0700X0.0700*%
%ADD26C,0.0660*%
%ADD27C,0.0357*%
%ADD28C,0.0396*%
%ADD29R,0.0396X0.0396*%
%ADD30R,0.0660X0.0660*%
%ADD31R,0.0357X0.0357*%
D10*
X007500Y002500D03*
X022500Y002500D03*
X037500Y002500D03*
X052500Y002500D03*
X067500Y002500D03*
X067750Y046500D03*
X052750Y046500D03*
X037750Y046500D03*
X022750Y046500D03*
X007750Y046500D03*
X001250Y076250D03*
X015000Y076250D03*
X030000Y076250D03*
X045000Y076250D03*
X060000Y076250D03*
X073750Y076250D03*
D11*
X070970Y042810D03*
X070970Y032380D03*
X002070Y032380D03*
X002070Y042810D03*
D12*
X003750Y049000D03*
X003750Y056500D03*
X003750Y064000D03*
X003750Y071500D03*
X011250Y071500D03*
X011250Y064000D03*
X011250Y056500D03*
X011250Y049000D03*
X018750Y049000D03*
X018750Y056500D03*
X018750Y064000D03*
X018750Y071500D03*
X026250Y071500D03*
X033750Y071500D03*
X033750Y064000D03*
X026250Y064000D03*
X026250Y056500D03*
X026250Y049000D03*
X033750Y049000D03*
X033750Y056500D03*
X041250Y056500D03*
X041250Y049000D03*
X048750Y049000D03*
X048750Y056500D03*
X048750Y064000D03*
X048750Y071500D03*
X041250Y071500D03*
X041250Y064000D03*
X056250Y064000D03*
X056250Y056500D03*
X056250Y049000D03*
X063750Y049000D03*
X063750Y056500D03*
X063750Y064000D03*
X063750Y071500D03*
X056250Y071500D03*
X071250Y071500D03*
X071250Y064000D03*
X071250Y056500D03*
X071250Y049000D03*
X071250Y026250D03*
X071250Y018750D03*
X071250Y011250D03*
X071250Y003750D03*
X063750Y003750D03*
X063750Y011250D03*
X063750Y018750D03*
X063750Y026250D03*
X056250Y026250D03*
X056250Y018750D03*
X056250Y011250D03*
X056250Y003750D03*
X048750Y003750D03*
X048750Y011250D03*
X048750Y018750D03*
X048750Y026250D03*
X041250Y026250D03*
X041250Y018750D03*
X041250Y011250D03*
X041250Y003750D03*
X033750Y003750D03*
X033750Y011250D03*
X026250Y011250D03*
X026250Y003750D03*
X018750Y003750D03*
X018750Y011250D03*
X018750Y018750D03*
X018750Y026250D03*
X011250Y026250D03*
X011250Y018750D03*
X011250Y011250D03*
X011250Y003750D03*
X003750Y003750D03*
X003750Y011250D03*
X003750Y018750D03*
X003750Y026250D03*
X026250Y026250D03*
X026250Y018750D03*
X033750Y018750D03*
X033750Y026250D03*
D13*
X032250Y028250D03*
X035250Y028250D03*
X039750Y028250D03*
X042750Y028250D03*
X047250Y028250D03*
X050250Y028250D03*
X054750Y028250D03*
X057750Y028250D03*
X062250Y028250D03*
X065250Y028250D03*
X069750Y028250D03*
X072750Y028250D03*
X072750Y020750D03*
X069750Y020750D03*
X065250Y020750D03*
X062250Y020750D03*
X057750Y020750D03*
X054750Y020750D03*
X050250Y020750D03*
X047250Y020750D03*
X042750Y020750D03*
X039750Y020750D03*
X035250Y020750D03*
X032250Y020750D03*
X027750Y020750D03*
X024750Y020750D03*
X020250Y020750D03*
X017250Y020750D03*
X012750Y020750D03*
X009750Y020750D03*
X005250Y020750D03*
X002250Y020750D03*
X002250Y013250D03*
X005250Y013250D03*
X009750Y013250D03*
X012750Y013250D03*
X017250Y013250D03*
X020250Y013250D03*
X024750Y013250D03*
X027750Y013250D03*
X032250Y013250D03*
X035250Y013250D03*
X039750Y013250D03*
X042750Y013250D03*
X047250Y013250D03*
X050250Y013250D03*
X054750Y013250D03*
X057750Y013250D03*
X062250Y013250D03*
X065250Y013250D03*
X069750Y013250D03*
X072750Y013250D03*
X072750Y005750D03*
X069750Y005750D03*
X065250Y005750D03*
X062250Y005750D03*
X057750Y005750D03*
X054750Y005750D03*
X050250Y005750D03*
X047250Y005750D03*
X042750Y005750D03*
X039750Y005750D03*
X035250Y005750D03*
X032250Y005750D03*
X027750Y005750D03*
X024750Y005750D03*
X020250Y005750D03*
X017250Y005750D03*
X012750Y005750D03*
X009750Y005750D03*
X005250Y005750D03*
X002250Y005750D03*
X002250Y028250D03*
X005250Y028250D03*
X009750Y028250D03*
X012750Y028250D03*
X017250Y028250D03*
X020250Y028250D03*
X024750Y028250D03*
X027750Y028250D03*
X027750Y051000D03*
X024750Y051000D03*
X020250Y051000D03*
X017250Y051000D03*
X012750Y051000D03*
X009750Y051000D03*
X005250Y051000D03*
X002250Y051000D03*
X002250Y058500D03*
X005250Y058500D03*
X009750Y058500D03*
X012750Y058500D03*
X017250Y058500D03*
X020250Y058500D03*
X024750Y058500D03*
X027750Y058500D03*
X032250Y058500D03*
X035250Y058500D03*
X039750Y058500D03*
X042750Y058500D03*
X047250Y058500D03*
X050250Y058500D03*
X054750Y058500D03*
X057750Y058500D03*
X062250Y058500D03*
X065250Y058500D03*
X069750Y058500D03*
X072750Y058500D03*
X072750Y066000D03*
X069750Y066000D03*
X065250Y066000D03*
X062250Y066000D03*
X057750Y066000D03*
X054750Y066000D03*
X050250Y066000D03*
X047250Y066000D03*
X042750Y066000D03*
X039750Y066000D03*
X035250Y066000D03*
X032250Y066000D03*
X027750Y066000D03*
X024750Y066000D03*
X020250Y066000D03*
X017250Y066000D03*
X012750Y066000D03*
X009750Y066000D03*
X005250Y066000D03*
X002250Y066000D03*
X002250Y073500D03*
X005250Y073500D03*
X009750Y073500D03*
X012750Y073500D03*
X017250Y073500D03*
X020250Y073500D03*
X024750Y073500D03*
X027750Y073500D03*
X032250Y073500D03*
X035250Y073500D03*
X039750Y073500D03*
X042750Y073500D03*
X047250Y073500D03*
X050250Y073500D03*
X054750Y073500D03*
X057750Y073500D03*
X062250Y073500D03*
X065250Y073500D03*
X069750Y073500D03*
X072750Y073500D03*
X072750Y051000D03*
X069750Y051000D03*
X065250Y051000D03*
X062250Y051000D03*
X057750Y051000D03*
X054750Y051000D03*
X050250Y051000D03*
X047250Y051000D03*
X042750Y051000D03*
X039750Y051000D03*
X035250Y051000D03*
X032250Y051000D03*
D14*
X002250Y000750D03*
X005250Y006750D03*
X002250Y008250D03*
X005250Y014250D03*
X002250Y015750D03*
X005250Y021750D03*
X002250Y023250D03*
X005250Y029250D03*
X009750Y023250D03*
X012750Y021750D03*
X017250Y023250D03*
X020250Y021750D03*
X024750Y023250D03*
X027750Y021750D03*
X032250Y023250D03*
X035250Y021750D03*
X039750Y023250D03*
X042750Y021750D03*
X047250Y023250D03*
X050250Y021750D03*
X054750Y023250D03*
X057750Y021750D03*
X062250Y023250D03*
X065250Y021750D03*
X069750Y023250D03*
X072750Y021750D03*
X069750Y015750D03*
X072750Y014250D03*
X069750Y008250D03*
X072750Y006750D03*
X069750Y000750D03*
X065250Y006750D03*
X062250Y008250D03*
X057750Y006750D03*
X054750Y008250D03*
X050250Y006750D03*
X047250Y008250D03*
X042750Y006750D03*
X039750Y008250D03*
X035250Y006750D03*
X032250Y008250D03*
X027750Y006750D03*
X024750Y008250D03*
X020250Y006750D03*
X017250Y008250D03*
X012750Y006750D03*
X009750Y008250D03*
X012750Y014250D03*
X009750Y015750D03*
X017250Y015750D03*
X020250Y014250D03*
X024750Y015750D03*
X027750Y014250D03*
X032250Y015750D03*
X035250Y014250D03*
X039750Y015750D03*
X042750Y014250D03*
X047250Y015750D03*
X050250Y014250D03*
X054750Y015750D03*
X057750Y014250D03*
X062250Y015750D03*
X065250Y014250D03*
X062250Y000750D03*
X054750Y000750D03*
X047250Y000750D03*
X039750Y000750D03*
X032250Y000750D03*
X024750Y000750D03*
X017250Y000750D03*
X009750Y000750D03*
X012750Y029250D03*
X020250Y029250D03*
X027750Y029250D03*
X035250Y029250D03*
X042750Y029250D03*
X050250Y029250D03*
X057750Y029250D03*
X065250Y029250D03*
X072750Y029250D03*
X069750Y046000D03*
X072750Y052000D03*
X069750Y053500D03*
X065250Y052000D03*
X062250Y053500D03*
X057750Y052000D03*
X054750Y053500D03*
X050250Y052000D03*
X047250Y053500D03*
X042750Y052000D03*
X039750Y053500D03*
X035250Y052000D03*
X032250Y053500D03*
X027750Y052000D03*
X024750Y053500D03*
X020250Y052000D03*
X017250Y053500D03*
X012750Y052000D03*
X009750Y053500D03*
X005250Y052000D03*
X002250Y053500D03*
X005250Y059500D03*
X002250Y061000D03*
X005250Y067000D03*
X002250Y068500D03*
X005250Y074500D03*
X009750Y068500D03*
X012750Y067000D03*
X017250Y068500D03*
X020250Y067000D03*
X024750Y068500D03*
X027750Y067000D03*
X032250Y068500D03*
X035250Y067000D03*
X039750Y068500D03*
X042750Y067000D03*
X047250Y068500D03*
X050250Y067000D03*
X054750Y068500D03*
X057750Y067000D03*
X062250Y068500D03*
X065250Y067000D03*
X069750Y068500D03*
X072750Y067000D03*
X069750Y061000D03*
X072750Y059500D03*
X065250Y059500D03*
X062250Y061000D03*
X057750Y059500D03*
X054750Y061000D03*
X050250Y059500D03*
X047250Y061000D03*
X042750Y059500D03*
X039750Y061000D03*
X035250Y059500D03*
X032250Y061000D03*
X027750Y059500D03*
X024750Y061000D03*
X020250Y059500D03*
X017250Y061000D03*
X012750Y059500D03*
X009750Y061000D03*
X012750Y074500D03*
X020250Y074500D03*
X027750Y074500D03*
X035250Y074500D03*
X042750Y074500D03*
X050250Y074500D03*
X057750Y074500D03*
X065250Y074500D03*
X072750Y074500D03*
X062250Y046000D03*
X054750Y046000D03*
X047250Y046000D03*
X039750Y046000D03*
X032250Y046000D03*
X024750Y046000D03*
X017250Y046000D03*
X009750Y046000D03*
X002250Y046000D03*
D15*
X002150Y047000D02*
X002152Y047020D01*
X002158Y047038D01*
X002167Y047056D01*
X002179Y047071D01*
X002194Y047083D01*
X002212Y047092D01*
X002230Y047098D01*
X002250Y047100D01*
X002270Y047098D01*
X002288Y047092D01*
X002306Y047083D01*
X002321Y047071D01*
X002333Y047056D01*
X002342Y047038D01*
X002348Y047020D01*
X002350Y047000D01*
X002348Y046980D01*
X002342Y046962D01*
X002333Y046944D01*
X002321Y046929D01*
X002306Y046917D01*
X002288Y046908D01*
X002270Y046902D01*
X002250Y046900D01*
X002230Y046902D01*
X002212Y046908D01*
X002194Y046917D01*
X002179Y046929D01*
X002167Y046944D01*
X002158Y046962D01*
X002152Y046980D01*
X002150Y047000D01*
X002150Y054500D02*
X002152Y054520D01*
X002158Y054538D01*
X002167Y054556D01*
X002179Y054571D01*
X002194Y054583D01*
X002212Y054592D01*
X002230Y054598D01*
X002250Y054600D01*
X002270Y054598D01*
X002288Y054592D01*
X002306Y054583D01*
X002321Y054571D01*
X002333Y054556D01*
X002342Y054538D01*
X002348Y054520D01*
X002350Y054500D01*
X002348Y054480D01*
X002342Y054462D01*
X002333Y054444D01*
X002321Y054429D01*
X002306Y054417D01*
X002288Y054408D01*
X002270Y054402D01*
X002250Y054400D01*
X002230Y054402D01*
X002212Y054408D01*
X002194Y054417D01*
X002179Y054429D01*
X002167Y054444D01*
X002158Y054462D01*
X002152Y054480D01*
X002150Y054500D01*
X002150Y062000D02*
X002152Y062020D01*
X002158Y062038D01*
X002167Y062056D01*
X002179Y062071D01*
X002194Y062083D01*
X002212Y062092D01*
X002230Y062098D01*
X002250Y062100D01*
X002270Y062098D01*
X002288Y062092D01*
X002306Y062083D01*
X002321Y062071D01*
X002333Y062056D01*
X002342Y062038D01*
X002348Y062020D01*
X002350Y062000D01*
X002348Y061980D01*
X002342Y061962D01*
X002333Y061944D01*
X002321Y061929D01*
X002306Y061917D01*
X002288Y061908D01*
X002270Y061902D01*
X002250Y061900D01*
X002230Y061902D01*
X002212Y061908D01*
X002194Y061917D01*
X002179Y061929D01*
X002167Y061944D01*
X002158Y061962D01*
X002152Y061980D01*
X002150Y062000D01*
X002150Y069500D02*
X002152Y069520D01*
X002158Y069538D01*
X002167Y069556D01*
X002179Y069571D01*
X002194Y069583D01*
X002212Y069592D01*
X002230Y069598D01*
X002250Y069600D01*
X002270Y069598D01*
X002288Y069592D01*
X002306Y069583D01*
X002321Y069571D01*
X002333Y069556D01*
X002342Y069538D01*
X002348Y069520D01*
X002350Y069500D01*
X002348Y069480D01*
X002342Y069462D01*
X002333Y069444D01*
X002321Y069429D01*
X002306Y069417D01*
X002288Y069408D01*
X002270Y069402D01*
X002250Y069400D01*
X002230Y069402D01*
X002212Y069408D01*
X002194Y069417D01*
X002179Y069429D01*
X002167Y069444D01*
X002158Y069462D01*
X002152Y069480D01*
X002150Y069500D01*
X009650Y069500D02*
X009652Y069520D01*
X009658Y069538D01*
X009667Y069556D01*
X009679Y069571D01*
X009694Y069583D01*
X009712Y069592D01*
X009730Y069598D01*
X009750Y069600D01*
X009770Y069598D01*
X009788Y069592D01*
X009806Y069583D01*
X009821Y069571D01*
X009833Y069556D01*
X009842Y069538D01*
X009848Y069520D01*
X009850Y069500D01*
X009848Y069480D01*
X009842Y069462D01*
X009833Y069444D01*
X009821Y069429D01*
X009806Y069417D01*
X009788Y069408D01*
X009770Y069402D01*
X009750Y069400D01*
X009730Y069402D01*
X009712Y069408D01*
X009694Y069417D01*
X009679Y069429D01*
X009667Y069444D01*
X009658Y069462D01*
X009652Y069480D01*
X009650Y069500D01*
X009650Y062000D02*
X009652Y062020D01*
X009658Y062038D01*
X009667Y062056D01*
X009679Y062071D01*
X009694Y062083D01*
X009712Y062092D01*
X009730Y062098D01*
X009750Y062100D01*
X009770Y062098D01*
X009788Y062092D01*
X009806Y062083D01*
X009821Y062071D01*
X009833Y062056D01*
X009842Y062038D01*
X009848Y062020D01*
X009850Y062000D01*
X009848Y061980D01*
X009842Y061962D01*
X009833Y061944D01*
X009821Y061929D01*
X009806Y061917D01*
X009788Y061908D01*
X009770Y061902D01*
X009750Y061900D01*
X009730Y061902D01*
X009712Y061908D01*
X009694Y061917D01*
X009679Y061929D01*
X009667Y061944D01*
X009658Y061962D01*
X009652Y061980D01*
X009650Y062000D01*
X009650Y054500D02*
X009652Y054520D01*
X009658Y054538D01*
X009667Y054556D01*
X009679Y054571D01*
X009694Y054583D01*
X009712Y054592D01*
X009730Y054598D01*
X009750Y054600D01*
X009770Y054598D01*
X009788Y054592D01*
X009806Y054583D01*
X009821Y054571D01*
X009833Y054556D01*
X009842Y054538D01*
X009848Y054520D01*
X009850Y054500D01*
X009848Y054480D01*
X009842Y054462D01*
X009833Y054444D01*
X009821Y054429D01*
X009806Y054417D01*
X009788Y054408D01*
X009770Y054402D01*
X009750Y054400D01*
X009730Y054402D01*
X009712Y054408D01*
X009694Y054417D01*
X009679Y054429D01*
X009667Y054444D01*
X009658Y054462D01*
X009652Y054480D01*
X009650Y054500D01*
X009650Y047000D02*
X009652Y047020D01*
X009658Y047038D01*
X009667Y047056D01*
X009679Y047071D01*
X009694Y047083D01*
X009712Y047092D01*
X009730Y047098D01*
X009750Y047100D01*
X009770Y047098D01*
X009788Y047092D01*
X009806Y047083D01*
X009821Y047071D01*
X009833Y047056D01*
X009842Y047038D01*
X009848Y047020D01*
X009850Y047000D01*
X009848Y046980D01*
X009842Y046962D01*
X009833Y046944D01*
X009821Y046929D01*
X009806Y046917D01*
X009788Y046908D01*
X009770Y046902D01*
X009750Y046900D01*
X009730Y046902D01*
X009712Y046908D01*
X009694Y046917D01*
X009679Y046929D01*
X009667Y046944D01*
X009658Y046962D01*
X009652Y046980D01*
X009650Y047000D01*
X017150Y047000D02*
X017152Y047020D01*
X017158Y047038D01*
X017167Y047056D01*
X017179Y047071D01*
X017194Y047083D01*
X017212Y047092D01*
X017230Y047098D01*
X017250Y047100D01*
X017270Y047098D01*
X017288Y047092D01*
X017306Y047083D01*
X017321Y047071D01*
X017333Y047056D01*
X017342Y047038D01*
X017348Y047020D01*
X017350Y047000D01*
X017348Y046980D01*
X017342Y046962D01*
X017333Y046944D01*
X017321Y046929D01*
X017306Y046917D01*
X017288Y046908D01*
X017270Y046902D01*
X017250Y046900D01*
X017230Y046902D01*
X017212Y046908D01*
X017194Y046917D01*
X017179Y046929D01*
X017167Y046944D01*
X017158Y046962D01*
X017152Y046980D01*
X017150Y047000D01*
X017150Y054500D02*
X017152Y054520D01*
X017158Y054538D01*
X017167Y054556D01*
X017179Y054571D01*
X017194Y054583D01*
X017212Y054592D01*
X017230Y054598D01*
X017250Y054600D01*
X017270Y054598D01*
X017288Y054592D01*
X017306Y054583D01*
X017321Y054571D01*
X017333Y054556D01*
X017342Y054538D01*
X017348Y054520D01*
X017350Y054500D01*
X017348Y054480D01*
X017342Y054462D01*
X017333Y054444D01*
X017321Y054429D01*
X017306Y054417D01*
X017288Y054408D01*
X017270Y054402D01*
X017250Y054400D01*
X017230Y054402D01*
X017212Y054408D01*
X017194Y054417D01*
X017179Y054429D01*
X017167Y054444D01*
X017158Y054462D01*
X017152Y054480D01*
X017150Y054500D01*
X017150Y062000D02*
X017152Y062020D01*
X017158Y062038D01*
X017167Y062056D01*
X017179Y062071D01*
X017194Y062083D01*
X017212Y062092D01*
X017230Y062098D01*
X017250Y062100D01*
X017270Y062098D01*
X017288Y062092D01*
X017306Y062083D01*
X017321Y062071D01*
X017333Y062056D01*
X017342Y062038D01*
X017348Y062020D01*
X017350Y062000D01*
X017348Y061980D01*
X017342Y061962D01*
X017333Y061944D01*
X017321Y061929D01*
X017306Y061917D01*
X017288Y061908D01*
X017270Y061902D01*
X017250Y061900D01*
X017230Y061902D01*
X017212Y061908D01*
X017194Y061917D01*
X017179Y061929D01*
X017167Y061944D01*
X017158Y061962D01*
X017152Y061980D01*
X017150Y062000D01*
X017150Y069500D02*
X017152Y069520D01*
X017158Y069538D01*
X017167Y069556D01*
X017179Y069571D01*
X017194Y069583D01*
X017212Y069592D01*
X017230Y069598D01*
X017250Y069600D01*
X017270Y069598D01*
X017288Y069592D01*
X017306Y069583D01*
X017321Y069571D01*
X017333Y069556D01*
X017342Y069538D01*
X017348Y069520D01*
X017350Y069500D01*
X017348Y069480D01*
X017342Y069462D01*
X017333Y069444D01*
X017321Y069429D01*
X017306Y069417D01*
X017288Y069408D01*
X017270Y069402D01*
X017250Y069400D01*
X017230Y069402D01*
X017212Y069408D01*
X017194Y069417D01*
X017179Y069429D01*
X017167Y069444D01*
X017158Y069462D01*
X017152Y069480D01*
X017150Y069500D01*
X024650Y069500D02*
X024652Y069520D01*
X024658Y069538D01*
X024667Y069556D01*
X024679Y069571D01*
X024694Y069583D01*
X024712Y069592D01*
X024730Y069598D01*
X024750Y069600D01*
X024770Y069598D01*
X024788Y069592D01*
X024806Y069583D01*
X024821Y069571D01*
X024833Y069556D01*
X024842Y069538D01*
X024848Y069520D01*
X024850Y069500D01*
X024848Y069480D01*
X024842Y069462D01*
X024833Y069444D01*
X024821Y069429D01*
X024806Y069417D01*
X024788Y069408D01*
X024770Y069402D01*
X024750Y069400D01*
X024730Y069402D01*
X024712Y069408D01*
X024694Y069417D01*
X024679Y069429D01*
X024667Y069444D01*
X024658Y069462D01*
X024652Y069480D01*
X024650Y069500D01*
X024650Y062000D02*
X024652Y062020D01*
X024658Y062038D01*
X024667Y062056D01*
X024679Y062071D01*
X024694Y062083D01*
X024712Y062092D01*
X024730Y062098D01*
X024750Y062100D01*
X024770Y062098D01*
X024788Y062092D01*
X024806Y062083D01*
X024821Y062071D01*
X024833Y062056D01*
X024842Y062038D01*
X024848Y062020D01*
X024850Y062000D01*
X024848Y061980D01*
X024842Y061962D01*
X024833Y061944D01*
X024821Y061929D01*
X024806Y061917D01*
X024788Y061908D01*
X024770Y061902D01*
X024750Y061900D01*
X024730Y061902D01*
X024712Y061908D01*
X024694Y061917D01*
X024679Y061929D01*
X024667Y061944D01*
X024658Y061962D01*
X024652Y061980D01*
X024650Y062000D01*
X024650Y054500D02*
X024652Y054520D01*
X024658Y054538D01*
X024667Y054556D01*
X024679Y054571D01*
X024694Y054583D01*
X024712Y054592D01*
X024730Y054598D01*
X024750Y054600D01*
X024770Y054598D01*
X024788Y054592D01*
X024806Y054583D01*
X024821Y054571D01*
X024833Y054556D01*
X024842Y054538D01*
X024848Y054520D01*
X024850Y054500D01*
X024848Y054480D01*
X024842Y054462D01*
X024833Y054444D01*
X024821Y054429D01*
X024806Y054417D01*
X024788Y054408D01*
X024770Y054402D01*
X024750Y054400D01*
X024730Y054402D01*
X024712Y054408D01*
X024694Y054417D01*
X024679Y054429D01*
X024667Y054444D01*
X024658Y054462D01*
X024652Y054480D01*
X024650Y054500D01*
X024650Y047000D02*
X024652Y047020D01*
X024658Y047038D01*
X024667Y047056D01*
X024679Y047071D01*
X024694Y047083D01*
X024712Y047092D01*
X024730Y047098D01*
X024750Y047100D01*
X024770Y047098D01*
X024788Y047092D01*
X024806Y047083D01*
X024821Y047071D01*
X024833Y047056D01*
X024842Y047038D01*
X024848Y047020D01*
X024850Y047000D01*
X024848Y046980D01*
X024842Y046962D01*
X024833Y046944D01*
X024821Y046929D01*
X024806Y046917D01*
X024788Y046908D01*
X024770Y046902D01*
X024750Y046900D01*
X024730Y046902D01*
X024712Y046908D01*
X024694Y046917D01*
X024679Y046929D01*
X024667Y046944D01*
X024658Y046962D01*
X024652Y046980D01*
X024650Y047000D01*
X032150Y047000D02*
X032152Y047020D01*
X032158Y047038D01*
X032167Y047056D01*
X032179Y047071D01*
X032194Y047083D01*
X032212Y047092D01*
X032230Y047098D01*
X032250Y047100D01*
X032270Y047098D01*
X032288Y047092D01*
X032306Y047083D01*
X032321Y047071D01*
X032333Y047056D01*
X032342Y047038D01*
X032348Y047020D01*
X032350Y047000D01*
X032348Y046980D01*
X032342Y046962D01*
X032333Y046944D01*
X032321Y046929D01*
X032306Y046917D01*
X032288Y046908D01*
X032270Y046902D01*
X032250Y046900D01*
X032230Y046902D01*
X032212Y046908D01*
X032194Y046917D01*
X032179Y046929D01*
X032167Y046944D01*
X032158Y046962D01*
X032152Y046980D01*
X032150Y047000D01*
X032150Y054500D02*
X032152Y054520D01*
X032158Y054538D01*
X032167Y054556D01*
X032179Y054571D01*
X032194Y054583D01*
X032212Y054592D01*
X032230Y054598D01*
X032250Y054600D01*
X032270Y054598D01*
X032288Y054592D01*
X032306Y054583D01*
X032321Y054571D01*
X032333Y054556D01*
X032342Y054538D01*
X032348Y054520D01*
X032350Y054500D01*
X032348Y054480D01*
X032342Y054462D01*
X032333Y054444D01*
X032321Y054429D01*
X032306Y054417D01*
X032288Y054408D01*
X032270Y054402D01*
X032250Y054400D01*
X032230Y054402D01*
X032212Y054408D01*
X032194Y054417D01*
X032179Y054429D01*
X032167Y054444D01*
X032158Y054462D01*
X032152Y054480D01*
X032150Y054500D01*
X032150Y062000D02*
X032152Y062020D01*
X032158Y062038D01*
X032167Y062056D01*
X032179Y062071D01*
X032194Y062083D01*
X032212Y062092D01*
X032230Y062098D01*
X032250Y062100D01*
X032270Y062098D01*
X032288Y062092D01*
X032306Y062083D01*
X032321Y062071D01*
X032333Y062056D01*
X032342Y062038D01*
X032348Y062020D01*
X032350Y062000D01*
X032348Y061980D01*
X032342Y061962D01*
X032333Y061944D01*
X032321Y061929D01*
X032306Y061917D01*
X032288Y061908D01*
X032270Y061902D01*
X032250Y061900D01*
X032230Y061902D01*
X032212Y061908D01*
X032194Y061917D01*
X032179Y061929D01*
X032167Y061944D01*
X032158Y061962D01*
X032152Y061980D01*
X032150Y062000D01*
X032150Y069500D02*
X032152Y069520D01*
X032158Y069538D01*
X032167Y069556D01*
X032179Y069571D01*
X032194Y069583D01*
X032212Y069592D01*
X032230Y069598D01*
X032250Y069600D01*
X032270Y069598D01*
X032288Y069592D01*
X032306Y069583D01*
X032321Y069571D01*
X032333Y069556D01*
X032342Y069538D01*
X032348Y069520D01*
X032350Y069500D01*
X032348Y069480D01*
X032342Y069462D01*
X032333Y069444D01*
X032321Y069429D01*
X032306Y069417D01*
X032288Y069408D01*
X032270Y069402D01*
X032250Y069400D01*
X032230Y069402D01*
X032212Y069408D01*
X032194Y069417D01*
X032179Y069429D01*
X032167Y069444D01*
X032158Y069462D01*
X032152Y069480D01*
X032150Y069500D01*
X039650Y069500D02*
X039652Y069520D01*
X039658Y069538D01*
X039667Y069556D01*
X039679Y069571D01*
X039694Y069583D01*
X039712Y069592D01*
X039730Y069598D01*
X039750Y069600D01*
X039770Y069598D01*
X039788Y069592D01*
X039806Y069583D01*
X039821Y069571D01*
X039833Y069556D01*
X039842Y069538D01*
X039848Y069520D01*
X039850Y069500D01*
X039848Y069480D01*
X039842Y069462D01*
X039833Y069444D01*
X039821Y069429D01*
X039806Y069417D01*
X039788Y069408D01*
X039770Y069402D01*
X039750Y069400D01*
X039730Y069402D01*
X039712Y069408D01*
X039694Y069417D01*
X039679Y069429D01*
X039667Y069444D01*
X039658Y069462D01*
X039652Y069480D01*
X039650Y069500D01*
X039650Y062000D02*
X039652Y062020D01*
X039658Y062038D01*
X039667Y062056D01*
X039679Y062071D01*
X039694Y062083D01*
X039712Y062092D01*
X039730Y062098D01*
X039750Y062100D01*
X039770Y062098D01*
X039788Y062092D01*
X039806Y062083D01*
X039821Y062071D01*
X039833Y062056D01*
X039842Y062038D01*
X039848Y062020D01*
X039850Y062000D01*
X039848Y061980D01*
X039842Y061962D01*
X039833Y061944D01*
X039821Y061929D01*
X039806Y061917D01*
X039788Y061908D01*
X039770Y061902D01*
X039750Y061900D01*
X039730Y061902D01*
X039712Y061908D01*
X039694Y061917D01*
X039679Y061929D01*
X039667Y061944D01*
X039658Y061962D01*
X039652Y061980D01*
X039650Y062000D01*
X039650Y054500D02*
X039652Y054520D01*
X039658Y054538D01*
X039667Y054556D01*
X039679Y054571D01*
X039694Y054583D01*
X039712Y054592D01*
X039730Y054598D01*
X039750Y054600D01*
X039770Y054598D01*
X039788Y054592D01*
X039806Y054583D01*
X039821Y054571D01*
X039833Y054556D01*
X039842Y054538D01*
X039848Y054520D01*
X039850Y054500D01*
X039848Y054480D01*
X039842Y054462D01*
X039833Y054444D01*
X039821Y054429D01*
X039806Y054417D01*
X039788Y054408D01*
X039770Y054402D01*
X039750Y054400D01*
X039730Y054402D01*
X039712Y054408D01*
X039694Y054417D01*
X039679Y054429D01*
X039667Y054444D01*
X039658Y054462D01*
X039652Y054480D01*
X039650Y054500D01*
X039650Y047000D02*
X039652Y047020D01*
X039658Y047038D01*
X039667Y047056D01*
X039679Y047071D01*
X039694Y047083D01*
X039712Y047092D01*
X039730Y047098D01*
X039750Y047100D01*
X039770Y047098D01*
X039788Y047092D01*
X039806Y047083D01*
X039821Y047071D01*
X039833Y047056D01*
X039842Y047038D01*
X039848Y047020D01*
X039850Y047000D01*
X039848Y046980D01*
X039842Y046962D01*
X039833Y046944D01*
X039821Y046929D01*
X039806Y046917D01*
X039788Y046908D01*
X039770Y046902D01*
X039750Y046900D01*
X039730Y046902D01*
X039712Y046908D01*
X039694Y046917D01*
X039679Y046929D01*
X039667Y046944D01*
X039658Y046962D01*
X039652Y046980D01*
X039650Y047000D01*
X047150Y047000D02*
X047152Y047020D01*
X047158Y047038D01*
X047167Y047056D01*
X047179Y047071D01*
X047194Y047083D01*
X047212Y047092D01*
X047230Y047098D01*
X047250Y047100D01*
X047270Y047098D01*
X047288Y047092D01*
X047306Y047083D01*
X047321Y047071D01*
X047333Y047056D01*
X047342Y047038D01*
X047348Y047020D01*
X047350Y047000D01*
X047348Y046980D01*
X047342Y046962D01*
X047333Y046944D01*
X047321Y046929D01*
X047306Y046917D01*
X047288Y046908D01*
X047270Y046902D01*
X047250Y046900D01*
X047230Y046902D01*
X047212Y046908D01*
X047194Y046917D01*
X047179Y046929D01*
X047167Y046944D01*
X047158Y046962D01*
X047152Y046980D01*
X047150Y047000D01*
X047150Y054500D02*
X047152Y054520D01*
X047158Y054538D01*
X047167Y054556D01*
X047179Y054571D01*
X047194Y054583D01*
X047212Y054592D01*
X047230Y054598D01*
X047250Y054600D01*
X047270Y054598D01*
X047288Y054592D01*
X047306Y054583D01*
X047321Y054571D01*
X047333Y054556D01*
X047342Y054538D01*
X047348Y054520D01*
X047350Y054500D01*
X047348Y054480D01*
X047342Y054462D01*
X047333Y054444D01*
X047321Y054429D01*
X047306Y054417D01*
X047288Y054408D01*
X047270Y054402D01*
X047250Y054400D01*
X047230Y054402D01*
X047212Y054408D01*
X047194Y054417D01*
X047179Y054429D01*
X047167Y054444D01*
X047158Y054462D01*
X047152Y054480D01*
X047150Y054500D01*
X047150Y062000D02*
X047152Y062020D01*
X047158Y062038D01*
X047167Y062056D01*
X047179Y062071D01*
X047194Y062083D01*
X047212Y062092D01*
X047230Y062098D01*
X047250Y062100D01*
X047270Y062098D01*
X047288Y062092D01*
X047306Y062083D01*
X047321Y062071D01*
X047333Y062056D01*
X047342Y062038D01*
X047348Y062020D01*
X047350Y062000D01*
X047348Y061980D01*
X047342Y061962D01*
X047333Y061944D01*
X047321Y061929D01*
X047306Y061917D01*
X047288Y061908D01*
X047270Y061902D01*
X047250Y061900D01*
X047230Y061902D01*
X047212Y061908D01*
X047194Y061917D01*
X047179Y061929D01*
X047167Y061944D01*
X047158Y061962D01*
X047152Y061980D01*
X047150Y062000D01*
X047150Y069500D02*
X047152Y069520D01*
X047158Y069538D01*
X047167Y069556D01*
X047179Y069571D01*
X047194Y069583D01*
X047212Y069592D01*
X047230Y069598D01*
X047250Y069600D01*
X047270Y069598D01*
X047288Y069592D01*
X047306Y069583D01*
X047321Y069571D01*
X047333Y069556D01*
X047342Y069538D01*
X047348Y069520D01*
X047350Y069500D01*
X047348Y069480D01*
X047342Y069462D01*
X047333Y069444D01*
X047321Y069429D01*
X047306Y069417D01*
X047288Y069408D01*
X047270Y069402D01*
X047250Y069400D01*
X047230Y069402D01*
X047212Y069408D01*
X047194Y069417D01*
X047179Y069429D01*
X047167Y069444D01*
X047158Y069462D01*
X047152Y069480D01*
X047150Y069500D01*
X054650Y069500D02*
X054652Y069520D01*
X054658Y069538D01*
X054667Y069556D01*
X054679Y069571D01*
X054694Y069583D01*
X054712Y069592D01*
X054730Y069598D01*
X054750Y069600D01*
X054770Y069598D01*
X054788Y069592D01*
X054806Y069583D01*
X054821Y069571D01*
X054833Y069556D01*
X054842Y069538D01*
X054848Y069520D01*
X054850Y069500D01*
X054848Y069480D01*
X054842Y069462D01*
X054833Y069444D01*
X054821Y069429D01*
X054806Y069417D01*
X054788Y069408D01*
X054770Y069402D01*
X054750Y069400D01*
X054730Y069402D01*
X054712Y069408D01*
X054694Y069417D01*
X054679Y069429D01*
X054667Y069444D01*
X054658Y069462D01*
X054652Y069480D01*
X054650Y069500D01*
X054650Y062000D02*
X054652Y062020D01*
X054658Y062038D01*
X054667Y062056D01*
X054679Y062071D01*
X054694Y062083D01*
X054712Y062092D01*
X054730Y062098D01*
X054750Y062100D01*
X054770Y062098D01*
X054788Y062092D01*
X054806Y062083D01*
X054821Y062071D01*
X054833Y062056D01*
X054842Y062038D01*
X054848Y062020D01*
X054850Y062000D01*
X054848Y061980D01*
X054842Y061962D01*
X054833Y061944D01*
X054821Y061929D01*
X054806Y061917D01*
X054788Y061908D01*
X054770Y061902D01*
X054750Y061900D01*
X054730Y061902D01*
X054712Y061908D01*
X054694Y061917D01*
X054679Y061929D01*
X054667Y061944D01*
X054658Y061962D01*
X054652Y061980D01*
X054650Y062000D01*
X054650Y054500D02*
X054652Y054520D01*
X054658Y054538D01*
X054667Y054556D01*
X054679Y054571D01*
X054694Y054583D01*
X054712Y054592D01*
X054730Y054598D01*
X054750Y054600D01*
X054770Y054598D01*
X054788Y054592D01*
X054806Y054583D01*
X054821Y054571D01*
X054833Y054556D01*
X054842Y054538D01*
X054848Y054520D01*
X054850Y054500D01*
X054848Y054480D01*
X054842Y054462D01*
X054833Y054444D01*
X054821Y054429D01*
X054806Y054417D01*
X054788Y054408D01*
X054770Y054402D01*
X054750Y054400D01*
X054730Y054402D01*
X054712Y054408D01*
X054694Y054417D01*
X054679Y054429D01*
X054667Y054444D01*
X054658Y054462D01*
X054652Y054480D01*
X054650Y054500D01*
X054650Y047000D02*
X054652Y047020D01*
X054658Y047038D01*
X054667Y047056D01*
X054679Y047071D01*
X054694Y047083D01*
X054712Y047092D01*
X054730Y047098D01*
X054750Y047100D01*
X054770Y047098D01*
X054788Y047092D01*
X054806Y047083D01*
X054821Y047071D01*
X054833Y047056D01*
X054842Y047038D01*
X054848Y047020D01*
X054850Y047000D01*
X054848Y046980D01*
X054842Y046962D01*
X054833Y046944D01*
X054821Y046929D01*
X054806Y046917D01*
X054788Y046908D01*
X054770Y046902D01*
X054750Y046900D01*
X054730Y046902D01*
X054712Y046908D01*
X054694Y046917D01*
X054679Y046929D01*
X054667Y046944D01*
X054658Y046962D01*
X054652Y046980D01*
X054650Y047000D01*
X062150Y047000D02*
X062152Y047020D01*
X062158Y047038D01*
X062167Y047056D01*
X062179Y047071D01*
X062194Y047083D01*
X062212Y047092D01*
X062230Y047098D01*
X062250Y047100D01*
X062270Y047098D01*
X062288Y047092D01*
X062306Y047083D01*
X062321Y047071D01*
X062333Y047056D01*
X062342Y047038D01*
X062348Y047020D01*
X062350Y047000D01*
X062348Y046980D01*
X062342Y046962D01*
X062333Y046944D01*
X062321Y046929D01*
X062306Y046917D01*
X062288Y046908D01*
X062270Y046902D01*
X062250Y046900D01*
X062230Y046902D01*
X062212Y046908D01*
X062194Y046917D01*
X062179Y046929D01*
X062167Y046944D01*
X062158Y046962D01*
X062152Y046980D01*
X062150Y047000D01*
X062150Y054500D02*
X062152Y054520D01*
X062158Y054538D01*
X062167Y054556D01*
X062179Y054571D01*
X062194Y054583D01*
X062212Y054592D01*
X062230Y054598D01*
X062250Y054600D01*
X062270Y054598D01*
X062288Y054592D01*
X062306Y054583D01*
X062321Y054571D01*
X062333Y054556D01*
X062342Y054538D01*
X062348Y054520D01*
X062350Y054500D01*
X062348Y054480D01*
X062342Y054462D01*
X062333Y054444D01*
X062321Y054429D01*
X062306Y054417D01*
X062288Y054408D01*
X062270Y054402D01*
X062250Y054400D01*
X062230Y054402D01*
X062212Y054408D01*
X062194Y054417D01*
X062179Y054429D01*
X062167Y054444D01*
X062158Y054462D01*
X062152Y054480D01*
X062150Y054500D01*
X062150Y062000D02*
X062152Y062020D01*
X062158Y062038D01*
X062167Y062056D01*
X062179Y062071D01*
X062194Y062083D01*
X062212Y062092D01*
X062230Y062098D01*
X062250Y062100D01*
X062270Y062098D01*
X062288Y062092D01*
X062306Y062083D01*
X062321Y062071D01*
X062333Y062056D01*
X062342Y062038D01*
X062348Y062020D01*
X062350Y062000D01*
X062348Y061980D01*
X062342Y061962D01*
X062333Y061944D01*
X062321Y061929D01*
X062306Y061917D01*
X062288Y061908D01*
X062270Y061902D01*
X062250Y061900D01*
X062230Y061902D01*
X062212Y061908D01*
X062194Y061917D01*
X062179Y061929D01*
X062167Y061944D01*
X062158Y061962D01*
X062152Y061980D01*
X062150Y062000D01*
X062150Y069500D02*
X062152Y069520D01*
X062158Y069538D01*
X062167Y069556D01*
X062179Y069571D01*
X062194Y069583D01*
X062212Y069592D01*
X062230Y069598D01*
X062250Y069600D01*
X062270Y069598D01*
X062288Y069592D01*
X062306Y069583D01*
X062321Y069571D01*
X062333Y069556D01*
X062342Y069538D01*
X062348Y069520D01*
X062350Y069500D01*
X062348Y069480D01*
X062342Y069462D01*
X062333Y069444D01*
X062321Y069429D01*
X062306Y069417D01*
X062288Y069408D01*
X062270Y069402D01*
X062250Y069400D01*
X062230Y069402D01*
X062212Y069408D01*
X062194Y069417D01*
X062179Y069429D01*
X062167Y069444D01*
X062158Y069462D01*
X062152Y069480D01*
X062150Y069500D01*
X069650Y069500D02*
X069652Y069520D01*
X069658Y069538D01*
X069667Y069556D01*
X069679Y069571D01*
X069694Y069583D01*
X069712Y069592D01*
X069730Y069598D01*
X069750Y069600D01*
X069770Y069598D01*
X069788Y069592D01*
X069806Y069583D01*
X069821Y069571D01*
X069833Y069556D01*
X069842Y069538D01*
X069848Y069520D01*
X069850Y069500D01*
X069848Y069480D01*
X069842Y069462D01*
X069833Y069444D01*
X069821Y069429D01*
X069806Y069417D01*
X069788Y069408D01*
X069770Y069402D01*
X069750Y069400D01*
X069730Y069402D01*
X069712Y069408D01*
X069694Y069417D01*
X069679Y069429D01*
X069667Y069444D01*
X069658Y069462D01*
X069652Y069480D01*
X069650Y069500D01*
X069650Y062000D02*
X069652Y062020D01*
X069658Y062038D01*
X069667Y062056D01*
X069679Y062071D01*
X069694Y062083D01*
X069712Y062092D01*
X069730Y062098D01*
X069750Y062100D01*
X069770Y062098D01*
X069788Y062092D01*
X069806Y062083D01*
X069821Y062071D01*
X069833Y062056D01*
X069842Y062038D01*
X069848Y062020D01*
X069850Y062000D01*
X069848Y061980D01*
X069842Y061962D01*
X069833Y061944D01*
X069821Y061929D01*
X069806Y061917D01*
X069788Y061908D01*
X069770Y061902D01*
X069750Y061900D01*
X069730Y061902D01*
X069712Y061908D01*
X069694Y061917D01*
X069679Y061929D01*
X069667Y061944D01*
X069658Y061962D01*
X069652Y061980D01*
X069650Y062000D01*
X069650Y054500D02*
X069652Y054520D01*
X069658Y054538D01*
X069667Y054556D01*
X069679Y054571D01*
X069694Y054583D01*
X069712Y054592D01*
X069730Y054598D01*
X069750Y054600D01*
X069770Y054598D01*
X069788Y054592D01*
X069806Y054583D01*
X069821Y054571D01*
X069833Y054556D01*
X069842Y054538D01*
X069848Y054520D01*
X069850Y054500D01*
X069848Y054480D01*
X069842Y054462D01*
X069833Y054444D01*
X069821Y054429D01*
X069806Y054417D01*
X069788Y054408D01*
X069770Y054402D01*
X069750Y054400D01*
X069730Y054402D01*
X069712Y054408D01*
X069694Y054417D01*
X069679Y054429D01*
X069667Y054444D01*
X069658Y054462D01*
X069652Y054480D01*
X069650Y054500D01*
X069650Y047000D02*
X069652Y047020D01*
X069658Y047038D01*
X069667Y047056D01*
X069679Y047071D01*
X069694Y047083D01*
X069712Y047092D01*
X069730Y047098D01*
X069750Y047100D01*
X069770Y047098D01*
X069788Y047092D01*
X069806Y047083D01*
X069821Y047071D01*
X069833Y047056D01*
X069842Y047038D01*
X069848Y047020D01*
X069850Y047000D01*
X069848Y046980D01*
X069842Y046962D01*
X069833Y046944D01*
X069821Y046929D01*
X069806Y046917D01*
X069788Y046908D01*
X069770Y046902D01*
X069750Y046900D01*
X069730Y046902D01*
X069712Y046908D01*
X069694Y046917D01*
X069679Y046929D01*
X069667Y046944D01*
X069658Y046962D01*
X069652Y046980D01*
X069650Y047000D01*
X069650Y024250D02*
X069652Y024270D01*
X069658Y024288D01*
X069667Y024306D01*
X069679Y024321D01*
X069694Y024333D01*
X069712Y024342D01*
X069730Y024348D01*
X069750Y024350D01*
X069770Y024348D01*
X069788Y024342D01*
X069806Y024333D01*
X069821Y024321D01*
X069833Y024306D01*
X069842Y024288D01*
X069848Y024270D01*
X069850Y024250D01*
X069848Y024230D01*
X069842Y024212D01*
X069833Y024194D01*
X069821Y024179D01*
X069806Y024167D01*
X069788Y024158D01*
X069770Y024152D01*
X069750Y024150D01*
X069730Y024152D01*
X069712Y024158D01*
X069694Y024167D01*
X069679Y024179D01*
X069667Y024194D01*
X069658Y024212D01*
X069652Y024230D01*
X069650Y024250D01*
X062150Y024250D02*
X062152Y024270D01*
X062158Y024288D01*
X062167Y024306D01*
X062179Y024321D01*
X062194Y024333D01*
X062212Y024342D01*
X062230Y024348D01*
X062250Y024350D01*
X062270Y024348D01*
X062288Y024342D01*
X062306Y024333D01*
X062321Y024321D01*
X062333Y024306D01*
X062342Y024288D01*
X062348Y024270D01*
X062350Y024250D01*
X062348Y024230D01*
X062342Y024212D01*
X062333Y024194D01*
X062321Y024179D01*
X062306Y024167D01*
X062288Y024158D01*
X062270Y024152D01*
X062250Y024150D01*
X062230Y024152D01*
X062212Y024158D01*
X062194Y024167D01*
X062179Y024179D01*
X062167Y024194D01*
X062158Y024212D01*
X062152Y024230D01*
X062150Y024250D01*
X054650Y024250D02*
X054652Y024270D01*
X054658Y024288D01*
X054667Y024306D01*
X054679Y024321D01*
X054694Y024333D01*
X054712Y024342D01*
X054730Y024348D01*
X054750Y024350D01*
X054770Y024348D01*
X054788Y024342D01*
X054806Y024333D01*
X054821Y024321D01*
X054833Y024306D01*
X054842Y024288D01*
X054848Y024270D01*
X054850Y024250D01*
X054848Y024230D01*
X054842Y024212D01*
X054833Y024194D01*
X054821Y024179D01*
X054806Y024167D01*
X054788Y024158D01*
X054770Y024152D01*
X054750Y024150D01*
X054730Y024152D01*
X054712Y024158D01*
X054694Y024167D01*
X054679Y024179D01*
X054667Y024194D01*
X054658Y024212D01*
X054652Y024230D01*
X054650Y024250D01*
X047150Y024250D02*
X047152Y024270D01*
X047158Y024288D01*
X047167Y024306D01*
X047179Y024321D01*
X047194Y024333D01*
X047212Y024342D01*
X047230Y024348D01*
X047250Y024350D01*
X047270Y024348D01*
X047288Y024342D01*
X047306Y024333D01*
X047321Y024321D01*
X047333Y024306D01*
X047342Y024288D01*
X047348Y024270D01*
X047350Y024250D01*
X047348Y024230D01*
X047342Y024212D01*
X047333Y024194D01*
X047321Y024179D01*
X047306Y024167D01*
X047288Y024158D01*
X047270Y024152D01*
X047250Y024150D01*
X047230Y024152D01*
X047212Y024158D01*
X047194Y024167D01*
X047179Y024179D01*
X047167Y024194D01*
X047158Y024212D01*
X047152Y024230D01*
X047150Y024250D01*
X039650Y024250D02*
X039652Y024270D01*
X039658Y024288D01*
X039667Y024306D01*
X039679Y024321D01*
X039694Y024333D01*
X039712Y024342D01*
X039730Y024348D01*
X039750Y024350D01*
X039770Y024348D01*
X039788Y024342D01*
X039806Y024333D01*
X039821Y024321D01*
X039833Y024306D01*
X039842Y024288D01*
X039848Y024270D01*
X039850Y024250D01*
X039848Y024230D01*
X039842Y024212D01*
X039833Y024194D01*
X039821Y024179D01*
X039806Y024167D01*
X039788Y024158D01*
X039770Y024152D01*
X039750Y024150D01*
X039730Y024152D01*
X039712Y024158D01*
X039694Y024167D01*
X039679Y024179D01*
X039667Y024194D01*
X039658Y024212D01*
X039652Y024230D01*
X039650Y024250D01*
X032150Y024250D02*
X032152Y024270D01*
X032158Y024288D01*
X032167Y024306D01*
X032179Y024321D01*
X032194Y024333D01*
X032212Y024342D01*
X032230Y024348D01*
X032250Y024350D01*
X032270Y024348D01*
X032288Y024342D01*
X032306Y024333D01*
X032321Y024321D01*
X032333Y024306D01*
X032342Y024288D01*
X032348Y024270D01*
X032350Y024250D01*
X032348Y024230D01*
X032342Y024212D01*
X032333Y024194D01*
X032321Y024179D01*
X032306Y024167D01*
X032288Y024158D01*
X032270Y024152D01*
X032250Y024150D01*
X032230Y024152D01*
X032212Y024158D01*
X032194Y024167D01*
X032179Y024179D01*
X032167Y024194D01*
X032158Y024212D01*
X032152Y024230D01*
X032150Y024250D01*
X024650Y024250D02*
X024652Y024270D01*
X024658Y024288D01*
X024667Y024306D01*
X024679Y024321D01*
X024694Y024333D01*
X024712Y024342D01*
X024730Y024348D01*
X024750Y024350D01*
X024770Y024348D01*
X024788Y024342D01*
X024806Y024333D01*
X024821Y024321D01*
X024833Y024306D01*
X024842Y024288D01*
X024848Y024270D01*
X024850Y024250D01*
X024848Y024230D01*
X024842Y024212D01*
X024833Y024194D01*
X024821Y024179D01*
X024806Y024167D01*
X024788Y024158D01*
X024770Y024152D01*
X024750Y024150D01*
X024730Y024152D01*
X024712Y024158D01*
X024694Y024167D01*
X024679Y024179D01*
X024667Y024194D01*
X024658Y024212D01*
X024652Y024230D01*
X024650Y024250D01*
X017150Y024250D02*
X017152Y024270D01*
X017158Y024288D01*
X017167Y024306D01*
X017179Y024321D01*
X017194Y024333D01*
X017212Y024342D01*
X017230Y024348D01*
X017250Y024350D01*
X017270Y024348D01*
X017288Y024342D01*
X017306Y024333D01*
X017321Y024321D01*
X017333Y024306D01*
X017342Y024288D01*
X017348Y024270D01*
X017350Y024250D01*
X017348Y024230D01*
X017342Y024212D01*
X017333Y024194D01*
X017321Y024179D01*
X017306Y024167D01*
X017288Y024158D01*
X017270Y024152D01*
X017250Y024150D01*
X017230Y024152D01*
X017212Y024158D01*
X017194Y024167D01*
X017179Y024179D01*
X017167Y024194D01*
X017158Y024212D01*
X017152Y024230D01*
X017150Y024250D01*
X009650Y024250D02*
X009652Y024270D01*
X009658Y024288D01*
X009667Y024306D01*
X009679Y024321D01*
X009694Y024333D01*
X009712Y024342D01*
X009730Y024348D01*
X009750Y024350D01*
X009770Y024348D01*
X009788Y024342D01*
X009806Y024333D01*
X009821Y024321D01*
X009833Y024306D01*
X009842Y024288D01*
X009848Y024270D01*
X009850Y024250D01*
X009848Y024230D01*
X009842Y024212D01*
X009833Y024194D01*
X009821Y024179D01*
X009806Y024167D01*
X009788Y024158D01*
X009770Y024152D01*
X009750Y024150D01*
X009730Y024152D01*
X009712Y024158D01*
X009694Y024167D01*
X009679Y024179D01*
X009667Y024194D01*
X009658Y024212D01*
X009652Y024230D01*
X009650Y024250D01*
X002150Y024250D02*
X002152Y024270D01*
X002158Y024288D01*
X002167Y024306D01*
X002179Y024321D01*
X002194Y024333D01*
X002212Y024342D01*
X002230Y024348D01*
X002250Y024350D01*
X002270Y024348D01*
X002288Y024342D01*
X002306Y024333D01*
X002321Y024321D01*
X002333Y024306D01*
X002342Y024288D01*
X002348Y024270D01*
X002350Y024250D01*
X002348Y024230D01*
X002342Y024212D01*
X002333Y024194D01*
X002321Y024179D01*
X002306Y024167D01*
X002288Y024158D01*
X002270Y024152D01*
X002250Y024150D01*
X002230Y024152D01*
X002212Y024158D01*
X002194Y024167D01*
X002179Y024179D01*
X002167Y024194D01*
X002158Y024212D01*
X002152Y024230D01*
X002150Y024250D01*
X002150Y016750D02*
X002152Y016770D01*
X002158Y016788D01*
X002167Y016806D01*
X002179Y016821D01*
X002194Y016833D01*
X002212Y016842D01*
X002230Y016848D01*
X002250Y016850D01*
X002270Y016848D01*
X002288Y016842D01*
X002306Y016833D01*
X002321Y016821D01*
X002333Y016806D01*
X002342Y016788D01*
X002348Y016770D01*
X002350Y016750D01*
X002348Y016730D01*
X002342Y016712D01*
X002333Y016694D01*
X002321Y016679D01*
X002306Y016667D01*
X002288Y016658D01*
X002270Y016652D01*
X002250Y016650D01*
X002230Y016652D01*
X002212Y016658D01*
X002194Y016667D01*
X002179Y016679D01*
X002167Y016694D01*
X002158Y016712D01*
X002152Y016730D01*
X002150Y016750D01*
X002150Y009250D02*
X002152Y009270D01*
X002158Y009288D01*
X002167Y009306D01*
X002179Y009321D01*
X002194Y009333D01*
X002212Y009342D01*
X002230Y009348D01*
X002250Y009350D01*
X002270Y009348D01*
X002288Y009342D01*
X002306Y009333D01*
X002321Y009321D01*
X002333Y009306D01*
X002342Y009288D01*
X002348Y009270D01*
X002350Y009250D01*
X002348Y009230D01*
X002342Y009212D01*
X002333Y009194D01*
X002321Y009179D01*
X002306Y009167D01*
X002288Y009158D01*
X002270Y009152D01*
X002250Y009150D01*
X002230Y009152D01*
X002212Y009158D01*
X002194Y009167D01*
X002179Y009179D01*
X002167Y009194D01*
X002158Y009212D01*
X002152Y009230D01*
X002150Y009250D01*
X002150Y001750D02*
X002152Y001770D01*
X002158Y001788D01*
X002167Y001806D01*
X002179Y001821D01*
X002194Y001833D01*
X002212Y001842D01*
X002230Y001848D01*
X002250Y001850D01*
X002270Y001848D01*
X002288Y001842D01*
X002306Y001833D01*
X002321Y001821D01*
X002333Y001806D01*
X002342Y001788D01*
X002348Y001770D01*
X002350Y001750D01*
X002348Y001730D01*
X002342Y001712D01*
X002333Y001694D01*
X002321Y001679D01*
X002306Y001667D01*
X002288Y001658D01*
X002270Y001652D01*
X002250Y001650D01*
X002230Y001652D01*
X002212Y001658D01*
X002194Y001667D01*
X002179Y001679D01*
X002167Y001694D01*
X002158Y001712D01*
X002152Y001730D01*
X002150Y001750D01*
X009650Y001750D02*
X009652Y001770D01*
X009658Y001788D01*
X009667Y001806D01*
X009679Y001821D01*
X009694Y001833D01*
X009712Y001842D01*
X009730Y001848D01*
X009750Y001850D01*
X009770Y001848D01*
X009788Y001842D01*
X009806Y001833D01*
X009821Y001821D01*
X009833Y001806D01*
X009842Y001788D01*
X009848Y001770D01*
X009850Y001750D01*
X009848Y001730D01*
X009842Y001712D01*
X009833Y001694D01*
X009821Y001679D01*
X009806Y001667D01*
X009788Y001658D01*
X009770Y001652D01*
X009750Y001650D01*
X009730Y001652D01*
X009712Y001658D01*
X009694Y001667D01*
X009679Y001679D01*
X009667Y001694D01*
X009658Y001712D01*
X009652Y001730D01*
X009650Y001750D01*
X009650Y009250D02*
X009652Y009270D01*
X009658Y009288D01*
X009667Y009306D01*
X009679Y009321D01*
X009694Y009333D01*
X009712Y009342D01*
X009730Y009348D01*
X009750Y009350D01*
X009770Y009348D01*
X009788Y009342D01*
X009806Y009333D01*
X009821Y009321D01*
X009833Y009306D01*
X009842Y009288D01*
X009848Y009270D01*
X009850Y009250D01*
X009848Y009230D01*
X009842Y009212D01*
X009833Y009194D01*
X009821Y009179D01*
X009806Y009167D01*
X009788Y009158D01*
X009770Y009152D01*
X009750Y009150D01*
X009730Y009152D01*
X009712Y009158D01*
X009694Y009167D01*
X009679Y009179D01*
X009667Y009194D01*
X009658Y009212D01*
X009652Y009230D01*
X009650Y009250D01*
X009650Y016750D02*
X009652Y016770D01*
X009658Y016788D01*
X009667Y016806D01*
X009679Y016821D01*
X009694Y016833D01*
X009712Y016842D01*
X009730Y016848D01*
X009750Y016850D01*
X009770Y016848D01*
X009788Y016842D01*
X009806Y016833D01*
X009821Y016821D01*
X009833Y016806D01*
X009842Y016788D01*
X009848Y016770D01*
X009850Y016750D01*
X009848Y016730D01*
X009842Y016712D01*
X009833Y016694D01*
X009821Y016679D01*
X009806Y016667D01*
X009788Y016658D01*
X009770Y016652D01*
X009750Y016650D01*
X009730Y016652D01*
X009712Y016658D01*
X009694Y016667D01*
X009679Y016679D01*
X009667Y016694D01*
X009658Y016712D01*
X009652Y016730D01*
X009650Y016750D01*
X017150Y016750D02*
X017152Y016770D01*
X017158Y016788D01*
X017167Y016806D01*
X017179Y016821D01*
X017194Y016833D01*
X017212Y016842D01*
X017230Y016848D01*
X017250Y016850D01*
X017270Y016848D01*
X017288Y016842D01*
X017306Y016833D01*
X017321Y016821D01*
X017333Y016806D01*
X017342Y016788D01*
X017348Y016770D01*
X017350Y016750D01*
X017348Y016730D01*
X017342Y016712D01*
X017333Y016694D01*
X017321Y016679D01*
X017306Y016667D01*
X017288Y016658D01*
X017270Y016652D01*
X017250Y016650D01*
X017230Y016652D01*
X017212Y016658D01*
X017194Y016667D01*
X017179Y016679D01*
X017167Y016694D01*
X017158Y016712D01*
X017152Y016730D01*
X017150Y016750D01*
X017150Y009250D02*
X017152Y009270D01*
X017158Y009288D01*
X017167Y009306D01*
X017179Y009321D01*
X017194Y009333D01*
X017212Y009342D01*
X017230Y009348D01*
X017250Y009350D01*
X017270Y009348D01*
X017288Y009342D01*
X017306Y009333D01*
X017321Y009321D01*
X017333Y009306D01*
X017342Y009288D01*
X017348Y009270D01*
X017350Y009250D01*
X017348Y009230D01*
X017342Y009212D01*
X017333Y009194D01*
X017321Y009179D01*
X017306Y009167D01*
X017288Y009158D01*
X017270Y009152D01*
X017250Y009150D01*
X017230Y009152D01*
X017212Y009158D01*
X017194Y009167D01*
X017179Y009179D01*
X017167Y009194D01*
X017158Y009212D01*
X017152Y009230D01*
X017150Y009250D01*
X017150Y001750D02*
X017152Y001770D01*
X017158Y001788D01*
X017167Y001806D01*
X017179Y001821D01*
X017194Y001833D01*
X017212Y001842D01*
X017230Y001848D01*
X017250Y001850D01*
X017270Y001848D01*
X017288Y001842D01*
X017306Y001833D01*
X017321Y001821D01*
X017333Y001806D01*
X017342Y001788D01*
X017348Y001770D01*
X017350Y001750D01*
X017348Y001730D01*
X017342Y001712D01*
X017333Y001694D01*
X017321Y001679D01*
X017306Y001667D01*
X017288Y001658D01*
X017270Y001652D01*
X017250Y001650D01*
X017230Y001652D01*
X017212Y001658D01*
X017194Y001667D01*
X017179Y001679D01*
X017167Y001694D01*
X017158Y001712D01*
X017152Y001730D01*
X017150Y001750D01*
X024650Y001750D02*
X024652Y001770D01*
X024658Y001788D01*
X024667Y001806D01*
X024679Y001821D01*
X024694Y001833D01*
X024712Y001842D01*
X024730Y001848D01*
X024750Y001850D01*
X024770Y001848D01*
X024788Y001842D01*
X024806Y001833D01*
X024821Y001821D01*
X024833Y001806D01*
X024842Y001788D01*
X024848Y001770D01*
X024850Y001750D01*
X024848Y001730D01*
X024842Y001712D01*
X024833Y001694D01*
X024821Y001679D01*
X024806Y001667D01*
X024788Y001658D01*
X024770Y001652D01*
X024750Y001650D01*
X024730Y001652D01*
X024712Y001658D01*
X024694Y001667D01*
X024679Y001679D01*
X024667Y001694D01*
X024658Y001712D01*
X024652Y001730D01*
X024650Y001750D01*
X024650Y009250D02*
X024652Y009270D01*
X024658Y009288D01*
X024667Y009306D01*
X024679Y009321D01*
X024694Y009333D01*
X024712Y009342D01*
X024730Y009348D01*
X024750Y009350D01*
X024770Y009348D01*
X024788Y009342D01*
X024806Y009333D01*
X024821Y009321D01*
X024833Y009306D01*
X024842Y009288D01*
X024848Y009270D01*
X024850Y009250D01*
X024848Y009230D01*
X024842Y009212D01*
X024833Y009194D01*
X024821Y009179D01*
X024806Y009167D01*
X024788Y009158D01*
X024770Y009152D01*
X024750Y009150D01*
X024730Y009152D01*
X024712Y009158D01*
X024694Y009167D01*
X024679Y009179D01*
X024667Y009194D01*
X024658Y009212D01*
X024652Y009230D01*
X024650Y009250D01*
X024650Y016750D02*
X024652Y016770D01*
X024658Y016788D01*
X024667Y016806D01*
X024679Y016821D01*
X024694Y016833D01*
X024712Y016842D01*
X024730Y016848D01*
X024750Y016850D01*
X024770Y016848D01*
X024788Y016842D01*
X024806Y016833D01*
X024821Y016821D01*
X024833Y016806D01*
X024842Y016788D01*
X024848Y016770D01*
X024850Y016750D01*
X024848Y016730D01*
X024842Y016712D01*
X024833Y016694D01*
X024821Y016679D01*
X024806Y016667D01*
X024788Y016658D01*
X024770Y016652D01*
X024750Y016650D01*
X024730Y016652D01*
X024712Y016658D01*
X024694Y016667D01*
X024679Y016679D01*
X024667Y016694D01*
X024658Y016712D01*
X024652Y016730D01*
X024650Y016750D01*
X032150Y016750D02*
X032152Y016770D01*
X032158Y016788D01*
X032167Y016806D01*
X032179Y016821D01*
X032194Y016833D01*
X032212Y016842D01*
X032230Y016848D01*
X032250Y016850D01*
X032270Y016848D01*
X032288Y016842D01*
X032306Y016833D01*
X032321Y016821D01*
X032333Y016806D01*
X032342Y016788D01*
X032348Y016770D01*
X032350Y016750D01*
X032348Y016730D01*
X032342Y016712D01*
X032333Y016694D01*
X032321Y016679D01*
X032306Y016667D01*
X032288Y016658D01*
X032270Y016652D01*
X032250Y016650D01*
X032230Y016652D01*
X032212Y016658D01*
X032194Y016667D01*
X032179Y016679D01*
X032167Y016694D01*
X032158Y016712D01*
X032152Y016730D01*
X032150Y016750D01*
X032150Y009250D02*
X032152Y009270D01*
X032158Y009288D01*
X032167Y009306D01*
X032179Y009321D01*
X032194Y009333D01*
X032212Y009342D01*
X032230Y009348D01*
X032250Y009350D01*
X032270Y009348D01*
X032288Y009342D01*
X032306Y009333D01*
X032321Y009321D01*
X032333Y009306D01*
X032342Y009288D01*
X032348Y009270D01*
X032350Y009250D01*
X032348Y009230D01*
X032342Y009212D01*
X032333Y009194D01*
X032321Y009179D01*
X032306Y009167D01*
X032288Y009158D01*
X032270Y009152D01*
X032250Y009150D01*
X032230Y009152D01*
X032212Y009158D01*
X032194Y009167D01*
X032179Y009179D01*
X032167Y009194D01*
X032158Y009212D01*
X032152Y009230D01*
X032150Y009250D01*
X032150Y001750D02*
X032152Y001770D01*
X032158Y001788D01*
X032167Y001806D01*
X032179Y001821D01*
X032194Y001833D01*
X032212Y001842D01*
X032230Y001848D01*
X032250Y001850D01*
X032270Y001848D01*
X032288Y001842D01*
X032306Y001833D01*
X032321Y001821D01*
X032333Y001806D01*
X032342Y001788D01*
X032348Y001770D01*
X032350Y001750D01*
X032348Y001730D01*
X032342Y001712D01*
X032333Y001694D01*
X032321Y001679D01*
X032306Y001667D01*
X032288Y001658D01*
X032270Y001652D01*
X032250Y001650D01*
X032230Y001652D01*
X032212Y001658D01*
X032194Y001667D01*
X032179Y001679D01*
X032167Y001694D01*
X032158Y001712D01*
X032152Y001730D01*
X032150Y001750D01*
X039650Y001750D02*
X039652Y001770D01*
X039658Y001788D01*
X039667Y001806D01*
X039679Y001821D01*
X039694Y001833D01*
X039712Y001842D01*
X039730Y001848D01*
X039750Y001850D01*
X039770Y001848D01*
X039788Y001842D01*
X039806Y001833D01*
X039821Y001821D01*
X039833Y001806D01*
X039842Y001788D01*
X039848Y001770D01*
X039850Y001750D01*
X039848Y001730D01*
X039842Y001712D01*
X039833Y001694D01*
X039821Y001679D01*
X039806Y001667D01*
X039788Y001658D01*
X039770Y001652D01*
X039750Y001650D01*
X039730Y001652D01*
X039712Y001658D01*
X039694Y001667D01*
X039679Y001679D01*
X039667Y001694D01*
X039658Y001712D01*
X039652Y001730D01*
X039650Y001750D01*
X039650Y009250D02*
X039652Y009270D01*
X039658Y009288D01*
X039667Y009306D01*
X039679Y009321D01*
X039694Y009333D01*
X039712Y009342D01*
X039730Y009348D01*
X039750Y009350D01*
X039770Y009348D01*
X039788Y009342D01*
X039806Y009333D01*
X039821Y009321D01*
X039833Y009306D01*
X039842Y009288D01*
X039848Y009270D01*
X039850Y009250D01*
X039848Y009230D01*
X039842Y009212D01*
X039833Y009194D01*
X039821Y009179D01*
X039806Y009167D01*
X039788Y009158D01*
X039770Y009152D01*
X039750Y009150D01*
X039730Y009152D01*
X039712Y009158D01*
X039694Y009167D01*
X039679Y009179D01*
X039667Y009194D01*
X039658Y009212D01*
X039652Y009230D01*
X039650Y009250D01*
X039650Y016750D02*
X039652Y016770D01*
X039658Y016788D01*
X039667Y016806D01*
X039679Y016821D01*
X039694Y016833D01*
X039712Y016842D01*
X039730Y016848D01*
X039750Y016850D01*
X039770Y016848D01*
X039788Y016842D01*
X039806Y016833D01*
X039821Y016821D01*
X039833Y016806D01*
X039842Y016788D01*
X039848Y016770D01*
X039850Y016750D01*
X039848Y016730D01*
X039842Y016712D01*
X039833Y016694D01*
X039821Y016679D01*
X039806Y016667D01*
X039788Y016658D01*
X039770Y016652D01*
X039750Y016650D01*
X039730Y016652D01*
X039712Y016658D01*
X039694Y016667D01*
X039679Y016679D01*
X039667Y016694D01*
X039658Y016712D01*
X039652Y016730D01*
X039650Y016750D01*
X047150Y016750D02*
X047152Y016770D01*
X047158Y016788D01*
X047167Y016806D01*
X047179Y016821D01*
X047194Y016833D01*
X047212Y016842D01*
X047230Y016848D01*
X047250Y016850D01*
X047270Y016848D01*
X047288Y016842D01*
X047306Y016833D01*
X047321Y016821D01*
X047333Y016806D01*
X047342Y016788D01*
X047348Y016770D01*
X047350Y016750D01*
X047348Y016730D01*
X047342Y016712D01*
X047333Y016694D01*
X047321Y016679D01*
X047306Y016667D01*
X047288Y016658D01*
X047270Y016652D01*
X047250Y016650D01*
X047230Y016652D01*
X047212Y016658D01*
X047194Y016667D01*
X047179Y016679D01*
X047167Y016694D01*
X047158Y016712D01*
X047152Y016730D01*
X047150Y016750D01*
X047150Y009250D02*
X047152Y009270D01*
X047158Y009288D01*
X047167Y009306D01*
X047179Y009321D01*
X047194Y009333D01*
X047212Y009342D01*
X047230Y009348D01*
X047250Y009350D01*
X047270Y009348D01*
X047288Y009342D01*
X047306Y009333D01*
X047321Y009321D01*
X047333Y009306D01*
X047342Y009288D01*
X047348Y009270D01*
X047350Y009250D01*
X047348Y009230D01*
X047342Y009212D01*
X047333Y009194D01*
X047321Y009179D01*
X047306Y009167D01*
X047288Y009158D01*
X047270Y009152D01*
X047250Y009150D01*
X047230Y009152D01*
X047212Y009158D01*
X047194Y009167D01*
X047179Y009179D01*
X047167Y009194D01*
X047158Y009212D01*
X047152Y009230D01*
X047150Y009250D01*
X047150Y001750D02*
X047152Y001770D01*
X047158Y001788D01*
X047167Y001806D01*
X047179Y001821D01*
X047194Y001833D01*
X047212Y001842D01*
X047230Y001848D01*
X047250Y001850D01*
X047270Y001848D01*
X047288Y001842D01*
X047306Y001833D01*
X047321Y001821D01*
X047333Y001806D01*
X047342Y001788D01*
X047348Y001770D01*
X047350Y001750D01*
X047348Y001730D01*
X047342Y001712D01*
X047333Y001694D01*
X047321Y001679D01*
X047306Y001667D01*
X047288Y001658D01*
X047270Y001652D01*
X047250Y001650D01*
X047230Y001652D01*
X047212Y001658D01*
X047194Y001667D01*
X047179Y001679D01*
X047167Y001694D01*
X047158Y001712D01*
X047152Y001730D01*
X047150Y001750D01*
X054650Y001750D02*
X054652Y001770D01*
X054658Y001788D01*
X054667Y001806D01*
X054679Y001821D01*
X054694Y001833D01*
X054712Y001842D01*
X054730Y001848D01*
X054750Y001850D01*
X054770Y001848D01*
X054788Y001842D01*
X054806Y001833D01*
X054821Y001821D01*
X054833Y001806D01*
X054842Y001788D01*
X054848Y001770D01*
X054850Y001750D01*
X054848Y001730D01*
X054842Y001712D01*
X054833Y001694D01*
X054821Y001679D01*
X054806Y001667D01*
X054788Y001658D01*
X054770Y001652D01*
X054750Y001650D01*
X054730Y001652D01*
X054712Y001658D01*
X054694Y001667D01*
X054679Y001679D01*
X054667Y001694D01*
X054658Y001712D01*
X054652Y001730D01*
X054650Y001750D01*
X054650Y009250D02*
X054652Y009270D01*
X054658Y009288D01*
X054667Y009306D01*
X054679Y009321D01*
X054694Y009333D01*
X054712Y009342D01*
X054730Y009348D01*
X054750Y009350D01*
X054770Y009348D01*
X054788Y009342D01*
X054806Y009333D01*
X054821Y009321D01*
X054833Y009306D01*
X054842Y009288D01*
X054848Y009270D01*
X054850Y009250D01*
X054848Y009230D01*
X054842Y009212D01*
X054833Y009194D01*
X054821Y009179D01*
X054806Y009167D01*
X054788Y009158D01*
X054770Y009152D01*
X054750Y009150D01*
X054730Y009152D01*
X054712Y009158D01*
X054694Y009167D01*
X054679Y009179D01*
X054667Y009194D01*
X054658Y009212D01*
X054652Y009230D01*
X054650Y009250D01*
X054650Y016750D02*
X054652Y016770D01*
X054658Y016788D01*
X054667Y016806D01*
X054679Y016821D01*
X054694Y016833D01*
X054712Y016842D01*
X054730Y016848D01*
X054750Y016850D01*
X054770Y016848D01*
X054788Y016842D01*
X054806Y016833D01*
X054821Y016821D01*
X054833Y016806D01*
X054842Y016788D01*
X054848Y016770D01*
X054850Y016750D01*
X054848Y016730D01*
X054842Y016712D01*
X054833Y016694D01*
X054821Y016679D01*
X054806Y016667D01*
X054788Y016658D01*
X054770Y016652D01*
X054750Y016650D01*
X054730Y016652D01*
X054712Y016658D01*
X054694Y016667D01*
X054679Y016679D01*
X054667Y016694D01*
X054658Y016712D01*
X054652Y016730D01*
X054650Y016750D01*
X062150Y016750D02*
X062152Y016770D01*
X062158Y016788D01*
X062167Y016806D01*
X062179Y016821D01*
X062194Y016833D01*
X062212Y016842D01*
X062230Y016848D01*
X062250Y016850D01*
X062270Y016848D01*
X062288Y016842D01*
X062306Y016833D01*
X062321Y016821D01*
X062333Y016806D01*
X062342Y016788D01*
X062348Y016770D01*
X062350Y016750D01*
X062348Y016730D01*
X062342Y016712D01*
X062333Y016694D01*
X062321Y016679D01*
X062306Y016667D01*
X062288Y016658D01*
X062270Y016652D01*
X062250Y016650D01*
X062230Y016652D01*
X062212Y016658D01*
X062194Y016667D01*
X062179Y016679D01*
X062167Y016694D01*
X062158Y016712D01*
X062152Y016730D01*
X062150Y016750D01*
X062150Y009250D02*
X062152Y009270D01*
X062158Y009288D01*
X062167Y009306D01*
X062179Y009321D01*
X062194Y009333D01*
X062212Y009342D01*
X062230Y009348D01*
X062250Y009350D01*
X062270Y009348D01*
X062288Y009342D01*
X062306Y009333D01*
X062321Y009321D01*
X062333Y009306D01*
X062342Y009288D01*
X062348Y009270D01*
X062350Y009250D01*
X062348Y009230D01*
X062342Y009212D01*
X062333Y009194D01*
X062321Y009179D01*
X062306Y009167D01*
X062288Y009158D01*
X062270Y009152D01*
X062250Y009150D01*
X062230Y009152D01*
X062212Y009158D01*
X062194Y009167D01*
X062179Y009179D01*
X062167Y009194D01*
X062158Y009212D01*
X062152Y009230D01*
X062150Y009250D01*
X062150Y001750D02*
X062152Y001770D01*
X062158Y001788D01*
X062167Y001806D01*
X062179Y001821D01*
X062194Y001833D01*
X062212Y001842D01*
X062230Y001848D01*
X062250Y001850D01*
X062270Y001848D01*
X062288Y001842D01*
X062306Y001833D01*
X062321Y001821D01*
X062333Y001806D01*
X062342Y001788D01*
X062348Y001770D01*
X062350Y001750D01*
X062348Y001730D01*
X062342Y001712D01*
X062333Y001694D01*
X062321Y001679D01*
X062306Y001667D01*
X062288Y001658D01*
X062270Y001652D01*
X062250Y001650D01*
X062230Y001652D01*
X062212Y001658D01*
X062194Y001667D01*
X062179Y001679D01*
X062167Y001694D01*
X062158Y001712D01*
X062152Y001730D01*
X062150Y001750D01*
X069650Y001750D02*
X069652Y001770D01*
X069658Y001788D01*
X069667Y001806D01*
X069679Y001821D01*
X069694Y001833D01*
X069712Y001842D01*
X069730Y001848D01*
X069750Y001850D01*
X069770Y001848D01*
X069788Y001842D01*
X069806Y001833D01*
X069821Y001821D01*
X069833Y001806D01*
X069842Y001788D01*
X069848Y001770D01*
X069850Y001750D01*
X069848Y001730D01*
X069842Y001712D01*
X069833Y001694D01*
X069821Y001679D01*
X069806Y001667D01*
X069788Y001658D01*
X069770Y001652D01*
X069750Y001650D01*
X069730Y001652D01*
X069712Y001658D01*
X069694Y001667D01*
X069679Y001679D01*
X069667Y001694D01*
X069658Y001712D01*
X069652Y001730D01*
X069650Y001750D01*
X069650Y009250D02*
X069652Y009270D01*
X069658Y009288D01*
X069667Y009306D01*
X069679Y009321D01*
X069694Y009333D01*
X069712Y009342D01*
X069730Y009348D01*
X069750Y009350D01*
X069770Y009348D01*
X069788Y009342D01*
X069806Y009333D01*
X069821Y009321D01*
X069833Y009306D01*
X069842Y009288D01*
X069848Y009270D01*
X069850Y009250D01*
X069848Y009230D01*
X069842Y009212D01*
X069833Y009194D01*
X069821Y009179D01*
X069806Y009167D01*
X069788Y009158D01*
X069770Y009152D01*
X069750Y009150D01*
X069730Y009152D01*
X069712Y009158D01*
X069694Y009167D01*
X069679Y009179D01*
X069667Y009194D01*
X069658Y009212D01*
X069652Y009230D01*
X069650Y009250D01*
X069650Y016750D02*
X069652Y016770D01*
X069658Y016788D01*
X069667Y016806D01*
X069679Y016821D01*
X069694Y016833D01*
X069712Y016842D01*
X069730Y016848D01*
X069750Y016850D01*
X069770Y016848D01*
X069788Y016842D01*
X069806Y016833D01*
X069821Y016821D01*
X069833Y016806D01*
X069842Y016788D01*
X069848Y016770D01*
X069850Y016750D01*
X069848Y016730D01*
X069842Y016712D01*
X069833Y016694D01*
X069821Y016679D01*
X069806Y016667D01*
X069788Y016658D01*
X069770Y016652D01*
X069750Y016650D01*
X069730Y016652D01*
X069712Y016658D01*
X069694Y016667D01*
X069679Y016679D01*
X069667Y016694D01*
X069658Y016712D01*
X069652Y016730D01*
X069650Y016750D01*
D16*
X070000Y016750D02*
X070002Y016781D01*
X070008Y016812D01*
X070018Y016842D01*
X070031Y016870D01*
X070048Y016897D01*
X070068Y016921D01*
X070091Y016943D01*
X070116Y016961D01*
X070144Y016976D01*
X070173Y016988D01*
X070203Y016996D01*
X070234Y017000D01*
X070266Y017000D01*
X070297Y016996D01*
X070327Y016988D01*
X070356Y016976D01*
X070384Y016961D01*
X070409Y016943D01*
X070432Y016921D01*
X070452Y016897D01*
X070469Y016870D01*
X070482Y016842D01*
X070492Y016812D01*
X070498Y016781D01*
X070500Y016750D01*
X070498Y016719D01*
X070492Y016688D01*
X070482Y016658D01*
X070469Y016630D01*
X070452Y016603D01*
X070432Y016579D01*
X070409Y016557D01*
X070384Y016539D01*
X070356Y016524D01*
X070327Y016512D01*
X070297Y016504D01*
X070266Y016500D01*
X070234Y016500D01*
X070203Y016504D01*
X070173Y016512D01*
X070144Y016524D01*
X070116Y016539D01*
X070091Y016557D01*
X070068Y016579D01*
X070048Y016603D01*
X070031Y016630D01*
X070018Y016658D01*
X070008Y016688D01*
X070002Y016719D01*
X070000Y016750D01*
X062500Y016750D02*
X062502Y016781D01*
X062508Y016812D01*
X062518Y016842D01*
X062531Y016870D01*
X062548Y016897D01*
X062568Y016921D01*
X062591Y016943D01*
X062616Y016961D01*
X062644Y016976D01*
X062673Y016988D01*
X062703Y016996D01*
X062734Y017000D01*
X062766Y017000D01*
X062797Y016996D01*
X062827Y016988D01*
X062856Y016976D01*
X062884Y016961D01*
X062909Y016943D01*
X062932Y016921D01*
X062952Y016897D01*
X062969Y016870D01*
X062982Y016842D01*
X062992Y016812D01*
X062998Y016781D01*
X063000Y016750D01*
X062998Y016719D01*
X062992Y016688D01*
X062982Y016658D01*
X062969Y016630D01*
X062952Y016603D01*
X062932Y016579D01*
X062909Y016557D01*
X062884Y016539D01*
X062856Y016524D01*
X062827Y016512D01*
X062797Y016504D01*
X062766Y016500D01*
X062734Y016500D01*
X062703Y016504D01*
X062673Y016512D01*
X062644Y016524D01*
X062616Y016539D01*
X062591Y016557D01*
X062568Y016579D01*
X062548Y016603D01*
X062531Y016630D01*
X062518Y016658D01*
X062508Y016688D01*
X062502Y016719D01*
X062500Y016750D01*
X062500Y009250D02*
X062502Y009281D01*
X062508Y009312D01*
X062518Y009342D01*
X062531Y009370D01*
X062548Y009397D01*
X062568Y009421D01*
X062591Y009443D01*
X062616Y009461D01*
X062644Y009476D01*
X062673Y009488D01*
X062703Y009496D01*
X062734Y009500D01*
X062766Y009500D01*
X062797Y009496D01*
X062827Y009488D01*
X062856Y009476D01*
X062884Y009461D01*
X062909Y009443D01*
X062932Y009421D01*
X062952Y009397D01*
X062969Y009370D01*
X062982Y009342D01*
X062992Y009312D01*
X062998Y009281D01*
X063000Y009250D01*
X062998Y009219D01*
X062992Y009188D01*
X062982Y009158D01*
X062969Y009130D01*
X062952Y009103D01*
X062932Y009079D01*
X062909Y009057D01*
X062884Y009039D01*
X062856Y009024D01*
X062827Y009012D01*
X062797Y009004D01*
X062766Y009000D01*
X062734Y009000D01*
X062703Y009004D01*
X062673Y009012D01*
X062644Y009024D01*
X062616Y009039D01*
X062591Y009057D01*
X062568Y009079D01*
X062548Y009103D01*
X062531Y009130D01*
X062518Y009158D01*
X062508Y009188D01*
X062502Y009219D01*
X062500Y009250D01*
X055000Y009250D02*
X055002Y009281D01*
X055008Y009312D01*
X055018Y009342D01*
X055031Y009370D01*
X055048Y009397D01*
X055068Y009421D01*
X055091Y009443D01*
X055116Y009461D01*
X055144Y009476D01*
X055173Y009488D01*
X055203Y009496D01*
X055234Y009500D01*
X055266Y009500D01*
X055297Y009496D01*
X055327Y009488D01*
X055356Y009476D01*
X055384Y009461D01*
X055409Y009443D01*
X055432Y009421D01*
X055452Y009397D01*
X055469Y009370D01*
X055482Y009342D01*
X055492Y009312D01*
X055498Y009281D01*
X055500Y009250D01*
X055498Y009219D01*
X055492Y009188D01*
X055482Y009158D01*
X055469Y009130D01*
X055452Y009103D01*
X055432Y009079D01*
X055409Y009057D01*
X055384Y009039D01*
X055356Y009024D01*
X055327Y009012D01*
X055297Y009004D01*
X055266Y009000D01*
X055234Y009000D01*
X055203Y009004D01*
X055173Y009012D01*
X055144Y009024D01*
X055116Y009039D01*
X055091Y009057D01*
X055068Y009079D01*
X055048Y009103D01*
X055031Y009130D01*
X055018Y009158D01*
X055008Y009188D01*
X055002Y009219D01*
X055000Y009250D01*
X055000Y016750D02*
X055002Y016781D01*
X055008Y016812D01*
X055018Y016842D01*
X055031Y016870D01*
X055048Y016897D01*
X055068Y016921D01*
X055091Y016943D01*
X055116Y016961D01*
X055144Y016976D01*
X055173Y016988D01*
X055203Y016996D01*
X055234Y017000D01*
X055266Y017000D01*
X055297Y016996D01*
X055327Y016988D01*
X055356Y016976D01*
X055384Y016961D01*
X055409Y016943D01*
X055432Y016921D01*
X055452Y016897D01*
X055469Y016870D01*
X055482Y016842D01*
X055492Y016812D01*
X055498Y016781D01*
X055500Y016750D01*
X055498Y016719D01*
X055492Y016688D01*
X055482Y016658D01*
X055469Y016630D01*
X055452Y016603D01*
X055432Y016579D01*
X055409Y016557D01*
X055384Y016539D01*
X055356Y016524D01*
X055327Y016512D01*
X055297Y016504D01*
X055266Y016500D01*
X055234Y016500D01*
X055203Y016504D01*
X055173Y016512D01*
X055144Y016524D01*
X055116Y016539D01*
X055091Y016557D01*
X055068Y016579D01*
X055048Y016603D01*
X055031Y016630D01*
X055018Y016658D01*
X055008Y016688D01*
X055002Y016719D01*
X055000Y016750D01*
X047500Y016750D02*
X047502Y016781D01*
X047508Y016812D01*
X047518Y016842D01*
X047531Y016870D01*
X047548Y016897D01*
X047568Y016921D01*
X047591Y016943D01*
X047616Y016961D01*
X047644Y016976D01*
X047673Y016988D01*
X047703Y016996D01*
X047734Y017000D01*
X047766Y017000D01*
X047797Y016996D01*
X047827Y016988D01*
X047856Y016976D01*
X047884Y016961D01*
X047909Y016943D01*
X047932Y016921D01*
X047952Y016897D01*
X047969Y016870D01*
X047982Y016842D01*
X047992Y016812D01*
X047998Y016781D01*
X048000Y016750D01*
X047998Y016719D01*
X047992Y016688D01*
X047982Y016658D01*
X047969Y016630D01*
X047952Y016603D01*
X047932Y016579D01*
X047909Y016557D01*
X047884Y016539D01*
X047856Y016524D01*
X047827Y016512D01*
X047797Y016504D01*
X047766Y016500D01*
X047734Y016500D01*
X047703Y016504D01*
X047673Y016512D01*
X047644Y016524D01*
X047616Y016539D01*
X047591Y016557D01*
X047568Y016579D01*
X047548Y016603D01*
X047531Y016630D01*
X047518Y016658D01*
X047508Y016688D01*
X047502Y016719D01*
X047500Y016750D01*
X047500Y009250D02*
X047502Y009281D01*
X047508Y009312D01*
X047518Y009342D01*
X047531Y009370D01*
X047548Y009397D01*
X047568Y009421D01*
X047591Y009443D01*
X047616Y009461D01*
X047644Y009476D01*
X047673Y009488D01*
X047703Y009496D01*
X047734Y009500D01*
X047766Y009500D01*
X047797Y009496D01*
X047827Y009488D01*
X047856Y009476D01*
X047884Y009461D01*
X047909Y009443D01*
X047932Y009421D01*
X047952Y009397D01*
X047969Y009370D01*
X047982Y009342D01*
X047992Y009312D01*
X047998Y009281D01*
X048000Y009250D01*
X047998Y009219D01*
X047992Y009188D01*
X047982Y009158D01*
X047969Y009130D01*
X047952Y009103D01*
X047932Y009079D01*
X047909Y009057D01*
X047884Y009039D01*
X047856Y009024D01*
X047827Y009012D01*
X047797Y009004D01*
X047766Y009000D01*
X047734Y009000D01*
X047703Y009004D01*
X047673Y009012D01*
X047644Y009024D01*
X047616Y009039D01*
X047591Y009057D01*
X047568Y009079D01*
X047548Y009103D01*
X047531Y009130D01*
X047518Y009158D01*
X047508Y009188D01*
X047502Y009219D01*
X047500Y009250D01*
X040000Y009250D02*
X040002Y009281D01*
X040008Y009312D01*
X040018Y009342D01*
X040031Y009370D01*
X040048Y009397D01*
X040068Y009421D01*
X040091Y009443D01*
X040116Y009461D01*
X040144Y009476D01*
X040173Y009488D01*
X040203Y009496D01*
X040234Y009500D01*
X040266Y009500D01*
X040297Y009496D01*
X040327Y009488D01*
X040356Y009476D01*
X040384Y009461D01*
X040409Y009443D01*
X040432Y009421D01*
X040452Y009397D01*
X040469Y009370D01*
X040482Y009342D01*
X040492Y009312D01*
X040498Y009281D01*
X040500Y009250D01*
X040498Y009219D01*
X040492Y009188D01*
X040482Y009158D01*
X040469Y009130D01*
X040452Y009103D01*
X040432Y009079D01*
X040409Y009057D01*
X040384Y009039D01*
X040356Y009024D01*
X040327Y009012D01*
X040297Y009004D01*
X040266Y009000D01*
X040234Y009000D01*
X040203Y009004D01*
X040173Y009012D01*
X040144Y009024D01*
X040116Y009039D01*
X040091Y009057D01*
X040068Y009079D01*
X040048Y009103D01*
X040031Y009130D01*
X040018Y009158D01*
X040008Y009188D01*
X040002Y009219D01*
X040000Y009250D01*
X040000Y016750D02*
X040002Y016781D01*
X040008Y016812D01*
X040018Y016842D01*
X040031Y016870D01*
X040048Y016897D01*
X040068Y016921D01*
X040091Y016943D01*
X040116Y016961D01*
X040144Y016976D01*
X040173Y016988D01*
X040203Y016996D01*
X040234Y017000D01*
X040266Y017000D01*
X040297Y016996D01*
X040327Y016988D01*
X040356Y016976D01*
X040384Y016961D01*
X040409Y016943D01*
X040432Y016921D01*
X040452Y016897D01*
X040469Y016870D01*
X040482Y016842D01*
X040492Y016812D01*
X040498Y016781D01*
X040500Y016750D01*
X040498Y016719D01*
X040492Y016688D01*
X040482Y016658D01*
X040469Y016630D01*
X040452Y016603D01*
X040432Y016579D01*
X040409Y016557D01*
X040384Y016539D01*
X040356Y016524D01*
X040327Y016512D01*
X040297Y016504D01*
X040266Y016500D01*
X040234Y016500D01*
X040203Y016504D01*
X040173Y016512D01*
X040144Y016524D01*
X040116Y016539D01*
X040091Y016557D01*
X040068Y016579D01*
X040048Y016603D01*
X040031Y016630D01*
X040018Y016658D01*
X040008Y016688D01*
X040002Y016719D01*
X040000Y016750D01*
X032500Y016750D02*
X032502Y016781D01*
X032508Y016812D01*
X032518Y016842D01*
X032531Y016870D01*
X032548Y016897D01*
X032568Y016921D01*
X032591Y016943D01*
X032616Y016961D01*
X032644Y016976D01*
X032673Y016988D01*
X032703Y016996D01*
X032734Y017000D01*
X032766Y017000D01*
X032797Y016996D01*
X032827Y016988D01*
X032856Y016976D01*
X032884Y016961D01*
X032909Y016943D01*
X032932Y016921D01*
X032952Y016897D01*
X032969Y016870D01*
X032982Y016842D01*
X032992Y016812D01*
X032998Y016781D01*
X033000Y016750D01*
X032998Y016719D01*
X032992Y016688D01*
X032982Y016658D01*
X032969Y016630D01*
X032952Y016603D01*
X032932Y016579D01*
X032909Y016557D01*
X032884Y016539D01*
X032856Y016524D01*
X032827Y016512D01*
X032797Y016504D01*
X032766Y016500D01*
X032734Y016500D01*
X032703Y016504D01*
X032673Y016512D01*
X032644Y016524D01*
X032616Y016539D01*
X032591Y016557D01*
X032568Y016579D01*
X032548Y016603D01*
X032531Y016630D01*
X032518Y016658D01*
X032508Y016688D01*
X032502Y016719D01*
X032500Y016750D01*
X032500Y009250D02*
X032502Y009281D01*
X032508Y009312D01*
X032518Y009342D01*
X032531Y009370D01*
X032548Y009397D01*
X032568Y009421D01*
X032591Y009443D01*
X032616Y009461D01*
X032644Y009476D01*
X032673Y009488D01*
X032703Y009496D01*
X032734Y009500D01*
X032766Y009500D01*
X032797Y009496D01*
X032827Y009488D01*
X032856Y009476D01*
X032884Y009461D01*
X032909Y009443D01*
X032932Y009421D01*
X032952Y009397D01*
X032969Y009370D01*
X032982Y009342D01*
X032992Y009312D01*
X032998Y009281D01*
X033000Y009250D01*
X032998Y009219D01*
X032992Y009188D01*
X032982Y009158D01*
X032969Y009130D01*
X032952Y009103D01*
X032932Y009079D01*
X032909Y009057D01*
X032884Y009039D01*
X032856Y009024D01*
X032827Y009012D01*
X032797Y009004D01*
X032766Y009000D01*
X032734Y009000D01*
X032703Y009004D01*
X032673Y009012D01*
X032644Y009024D01*
X032616Y009039D01*
X032591Y009057D01*
X032568Y009079D01*
X032548Y009103D01*
X032531Y009130D01*
X032518Y009158D01*
X032508Y009188D01*
X032502Y009219D01*
X032500Y009250D01*
X025000Y009250D02*
X025002Y009281D01*
X025008Y009312D01*
X025018Y009342D01*
X025031Y009370D01*
X025048Y009397D01*
X025068Y009421D01*
X025091Y009443D01*
X025116Y009461D01*
X025144Y009476D01*
X025173Y009488D01*
X025203Y009496D01*
X025234Y009500D01*
X025266Y009500D01*
X025297Y009496D01*
X025327Y009488D01*
X025356Y009476D01*
X025384Y009461D01*
X025409Y009443D01*
X025432Y009421D01*
X025452Y009397D01*
X025469Y009370D01*
X025482Y009342D01*
X025492Y009312D01*
X025498Y009281D01*
X025500Y009250D01*
X025498Y009219D01*
X025492Y009188D01*
X025482Y009158D01*
X025469Y009130D01*
X025452Y009103D01*
X025432Y009079D01*
X025409Y009057D01*
X025384Y009039D01*
X025356Y009024D01*
X025327Y009012D01*
X025297Y009004D01*
X025266Y009000D01*
X025234Y009000D01*
X025203Y009004D01*
X025173Y009012D01*
X025144Y009024D01*
X025116Y009039D01*
X025091Y009057D01*
X025068Y009079D01*
X025048Y009103D01*
X025031Y009130D01*
X025018Y009158D01*
X025008Y009188D01*
X025002Y009219D01*
X025000Y009250D01*
X025000Y016750D02*
X025002Y016781D01*
X025008Y016812D01*
X025018Y016842D01*
X025031Y016870D01*
X025048Y016897D01*
X025068Y016921D01*
X025091Y016943D01*
X025116Y016961D01*
X025144Y016976D01*
X025173Y016988D01*
X025203Y016996D01*
X025234Y017000D01*
X025266Y017000D01*
X025297Y016996D01*
X025327Y016988D01*
X025356Y016976D01*
X025384Y016961D01*
X025409Y016943D01*
X025432Y016921D01*
X025452Y016897D01*
X025469Y016870D01*
X025482Y016842D01*
X025492Y016812D01*
X025498Y016781D01*
X025500Y016750D01*
X025498Y016719D01*
X025492Y016688D01*
X025482Y016658D01*
X025469Y016630D01*
X025452Y016603D01*
X025432Y016579D01*
X025409Y016557D01*
X025384Y016539D01*
X025356Y016524D01*
X025327Y016512D01*
X025297Y016504D01*
X025266Y016500D01*
X025234Y016500D01*
X025203Y016504D01*
X025173Y016512D01*
X025144Y016524D01*
X025116Y016539D01*
X025091Y016557D01*
X025068Y016579D01*
X025048Y016603D01*
X025031Y016630D01*
X025018Y016658D01*
X025008Y016688D01*
X025002Y016719D01*
X025000Y016750D01*
X017500Y016750D02*
X017502Y016781D01*
X017508Y016812D01*
X017518Y016842D01*
X017531Y016870D01*
X017548Y016897D01*
X017568Y016921D01*
X017591Y016943D01*
X017616Y016961D01*
X017644Y016976D01*
X017673Y016988D01*
X017703Y016996D01*
X017734Y017000D01*
X017766Y017000D01*
X017797Y016996D01*
X017827Y016988D01*
X017856Y016976D01*
X017884Y016961D01*
X017909Y016943D01*
X017932Y016921D01*
X017952Y016897D01*
X017969Y016870D01*
X017982Y016842D01*
X017992Y016812D01*
X017998Y016781D01*
X018000Y016750D01*
X017998Y016719D01*
X017992Y016688D01*
X017982Y016658D01*
X017969Y016630D01*
X017952Y016603D01*
X017932Y016579D01*
X017909Y016557D01*
X017884Y016539D01*
X017856Y016524D01*
X017827Y016512D01*
X017797Y016504D01*
X017766Y016500D01*
X017734Y016500D01*
X017703Y016504D01*
X017673Y016512D01*
X017644Y016524D01*
X017616Y016539D01*
X017591Y016557D01*
X017568Y016579D01*
X017548Y016603D01*
X017531Y016630D01*
X017518Y016658D01*
X017508Y016688D01*
X017502Y016719D01*
X017500Y016750D01*
X017500Y009250D02*
X017502Y009281D01*
X017508Y009312D01*
X017518Y009342D01*
X017531Y009370D01*
X017548Y009397D01*
X017568Y009421D01*
X017591Y009443D01*
X017616Y009461D01*
X017644Y009476D01*
X017673Y009488D01*
X017703Y009496D01*
X017734Y009500D01*
X017766Y009500D01*
X017797Y009496D01*
X017827Y009488D01*
X017856Y009476D01*
X017884Y009461D01*
X017909Y009443D01*
X017932Y009421D01*
X017952Y009397D01*
X017969Y009370D01*
X017982Y009342D01*
X017992Y009312D01*
X017998Y009281D01*
X018000Y009250D01*
X017998Y009219D01*
X017992Y009188D01*
X017982Y009158D01*
X017969Y009130D01*
X017952Y009103D01*
X017932Y009079D01*
X017909Y009057D01*
X017884Y009039D01*
X017856Y009024D01*
X017827Y009012D01*
X017797Y009004D01*
X017766Y009000D01*
X017734Y009000D01*
X017703Y009004D01*
X017673Y009012D01*
X017644Y009024D01*
X017616Y009039D01*
X017591Y009057D01*
X017568Y009079D01*
X017548Y009103D01*
X017531Y009130D01*
X017518Y009158D01*
X017508Y009188D01*
X017502Y009219D01*
X017500Y009250D01*
X010000Y009250D02*
X010002Y009281D01*
X010008Y009312D01*
X010018Y009342D01*
X010031Y009370D01*
X010048Y009397D01*
X010068Y009421D01*
X010091Y009443D01*
X010116Y009461D01*
X010144Y009476D01*
X010173Y009488D01*
X010203Y009496D01*
X010234Y009500D01*
X010266Y009500D01*
X010297Y009496D01*
X010327Y009488D01*
X010356Y009476D01*
X010384Y009461D01*
X010409Y009443D01*
X010432Y009421D01*
X010452Y009397D01*
X010469Y009370D01*
X010482Y009342D01*
X010492Y009312D01*
X010498Y009281D01*
X010500Y009250D01*
X010498Y009219D01*
X010492Y009188D01*
X010482Y009158D01*
X010469Y009130D01*
X010452Y009103D01*
X010432Y009079D01*
X010409Y009057D01*
X010384Y009039D01*
X010356Y009024D01*
X010327Y009012D01*
X010297Y009004D01*
X010266Y009000D01*
X010234Y009000D01*
X010203Y009004D01*
X010173Y009012D01*
X010144Y009024D01*
X010116Y009039D01*
X010091Y009057D01*
X010068Y009079D01*
X010048Y009103D01*
X010031Y009130D01*
X010018Y009158D01*
X010008Y009188D01*
X010002Y009219D01*
X010000Y009250D01*
X010000Y016750D02*
X010002Y016781D01*
X010008Y016812D01*
X010018Y016842D01*
X010031Y016870D01*
X010048Y016897D01*
X010068Y016921D01*
X010091Y016943D01*
X010116Y016961D01*
X010144Y016976D01*
X010173Y016988D01*
X010203Y016996D01*
X010234Y017000D01*
X010266Y017000D01*
X010297Y016996D01*
X010327Y016988D01*
X010356Y016976D01*
X010384Y016961D01*
X010409Y016943D01*
X010432Y016921D01*
X010452Y016897D01*
X010469Y016870D01*
X010482Y016842D01*
X010492Y016812D01*
X010498Y016781D01*
X010500Y016750D01*
X010498Y016719D01*
X010492Y016688D01*
X010482Y016658D01*
X010469Y016630D01*
X010452Y016603D01*
X010432Y016579D01*
X010409Y016557D01*
X010384Y016539D01*
X010356Y016524D01*
X010327Y016512D01*
X010297Y016504D01*
X010266Y016500D01*
X010234Y016500D01*
X010203Y016504D01*
X010173Y016512D01*
X010144Y016524D01*
X010116Y016539D01*
X010091Y016557D01*
X010068Y016579D01*
X010048Y016603D01*
X010031Y016630D01*
X010018Y016658D01*
X010008Y016688D01*
X010002Y016719D01*
X010000Y016750D01*
X002500Y016750D02*
X002502Y016781D01*
X002508Y016812D01*
X002518Y016842D01*
X002531Y016870D01*
X002548Y016897D01*
X002568Y016921D01*
X002591Y016943D01*
X002616Y016961D01*
X002644Y016976D01*
X002673Y016988D01*
X002703Y016996D01*
X002734Y017000D01*
X002766Y017000D01*
X002797Y016996D01*
X002827Y016988D01*
X002856Y016976D01*
X002884Y016961D01*
X002909Y016943D01*
X002932Y016921D01*
X002952Y016897D01*
X002969Y016870D01*
X002982Y016842D01*
X002992Y016812D01*
X002998Y016781D01*
X003000Y016750D01*
X002998Y016719D01*
X002992Y016688D01*
X002982Y016658D01*
X002969Y016630D01*
X002952Y016603D01*
X002932Y016579D01*
X002909Y016557D01*
X002884Y016539D01*
X002856Y016524D01*
X002827Y016512D01*
X002797Y016504D01*
X002766Y016500D01*
X002734Y016500D01*
X002703Y016504D01*
X002673Y016512D01*
X002644Y016524D01*
X002616Y016539D01*
X002591Y016557D01*
X002568Y016579D01*
X002548Y016603D01*
X002531Y016630D01*
X002518Y016658D01*
X002508Y016688D01*
X002502Y016719D01*
X002500Y016750D01*
X002500Y009250D02*
X002502Y009281D01*
X002508Y009312D01*
X002518Y009342D01*
X002531Y009370D01*
X002548Y009397D01*
X002568Y009421D01*
X002591Y009443D01*
X002616Y009461D01*
X002644Y009476D01*
X002673Y009488D01*
X002703Y009496D01*
X002734Y009500D01*
X002766Y009500D01*
X002797Y009496D01*
X002827Y009488D01*
X002856Y009476D01*
X002884Y009461D01*
X002909Y009443D01*
X002932Y009421D01*
X002952Y009397D01*
X002969Y009370D01*
X002982Y009342D01*
X002992Y009312D01*
X002998Y009281D01*
X003000Y009250D01*
X002998Y009219D01*
X002992Y009188D01*
X002982Y009158D01*
X002969Y009130D01*
X002952Y009103D01*
X002932Y009079D01*
X002909Y009057D01*
X002884Y009039D01*
X002856Y009024D01*
X002827Y009012D01*
X002797Y009004D01*
X002766Y009000D01*
X002734Y009000D01*
X002703Y009004D01*
X002673Y009012D01*
X002644Y009024D01*
X002616Y009039D01*
X002591Y009057D01*
X002568Y009079D01*
X002548Y009103D01*
X002531Y009130D01*
X002518Y009158D01*
X002508Y009188D01*
X002502Y009219D01*
X002500Y009250D01*
X002500Y001750D02*
X002502Y001781D01*
X002508Y001812D01*
X002518Y001842D01*
X002531Y001870D01*
X002548Y001897D01*
X002568Y001921D01*
X002591Y001943D01*
X002616Y001961D01*
X002644Y001976D01*
X002673Y001988D01*
X002703Y001996D01*
X002734Y002000D01*
X002766Y002000D01*
X002797Y001996D01*
X002827Y001988D01*
X002856Y001976D01*
X002884Y001961D01*
X002909Y001943D01*
X002932Y001921D01*
X002952Y001897D01*
X002969Y001870D01*
X002982Y001842D01*
X002992Y001812D01*
X002998Y001781D01*
X003000Y001750D01*
X002998Y001719D01*
X002992Y001688D01*
X002982Y001658D01*
X002969Y001630D01*
X002952Y001603D01*
X002932Y001579D01*
X002909Y001557D01*
X002884Y001539D01*
X002856Y001524D01*
X002827Y001512D01*
X002797Y001504D01*
X002766Y001500D01*
X002734Y001500D01*
X002703Y001504D01*
X002673Y001512D01*
X002644Y001524D01*
X002616Y001539D01*
X002591Y001557D01*
X002568Y001579D01*
X002548Y001603D01*
X002531Y001630D01*
X002518Y001658D01*
X002508Y001688D01*
X002502Y001719D01*
X002500Y001750D01*
X010000Y001750D02*
X010002Y001781D01*
X010008Y001812D01*
X010018Y001842D01*
X010031Y001870D01*
X010048Y001897D01*
X010068Y001921D01*
X010091Y001943D01*
X010116Y001961D01*
X010144Y001976D01*
X010173Y001988D01*
X010203Y001996D01*
X010234Y002000D01*
X010266Y002000D01*
X010297Y001996D01*
X010327Y001988D01*
X010356Y001976D01*
X010384Y001961D01*
X010409Y001943D01*
X010432Y001921D01*
X010452Y001897D01*
X010469Y001870D01*
X010482Y001842D01*
X010492Y001812D01*
X010498Y001781D01*
X010500Y001750D01*
X010498Y001719D01*
X010492Y001688D01*
X010482Y001658D01*
X010469Y001630D01*
X010452Y001603D01*
X010432Y001579D01*
X010409Y001557D01*
X010384Y001539D01*
X010356Y001524D01*
X010327Y001512D01*
X010297Y001504D01*
X010266Y001500D01*
X010234Y001500D01*
X010203Y001504D01*
X010173Y001512D01*
X010144Y001524D01*
X010116Y001539D01*
X010091Y001557D01*
X010068Y001579D01*
X010048Y001603D01*
X010031Y001630D01*
X010018Y001658D01*
X010008Y001688D01*
X010002Y001719D01*
X010000Y001750D01*
X017500Y001750D02*
X017502Y001781D01*
X017508Y001812D01*
X017518Y001842D01*
X017531Y001870D01*
X017548Y001897D01*
X017568Y001921D01*
X017591Y001943D01*
X017616Y001961D01*
X017644Y001976D01*
X017673Y001988D01*
X017703Y001996D01*
X017734Y002000D01*
X017766Y002000D01*
X017797Y001996D01*
X017827Y001988D01*
X017856Y001976D01*
X017884Y001961D01*
X017909Y001943D01*
X017932Y001921D01*
X017952Y001897D01*
X017969Y001870D01*
X017982Y001842D01*
X017992Y001812D01*
X017998Y001781D01*
X018000Y001750D01*
X017998Y001719D01*
X017992Y001688D01*
X017982Y001658D01*
X017969Y001630D01*
X017952Y001603D01*
X017932Y001579D01*
X017909Y001557D01*
X017884Y001539D01*
X017856Y001524D01*
X017827Y001512D01*
X017797Y001504D01*
X017766Y001500D01*
X017734Y001500D01*
X017703Y001504D01*
X017673Y001512D01*
X017644Y001524D01*
X017616Y001539D01*
X017591Y001557D01*
X017568Y001579D01*
X017548Y001603D01*
X017531Y001630D01*
X017518Y001658D01*
X017508Y001688D01*
X017502Y001719D01*
X017500Y001750D01*
X025000Y001750D02*
X025002Y001781D01*
X025008Y001812D01*
X025018Y001842D01*
X025031Y001870D01*
X025048Y001897D01*
X025068Y001921D01*
X025091Y001943D01*
X025116Y001961D01*
X025144Y001976D01*
X025173Y001988D01*
X025203Y001996D01*
X025234Y002000D01*
X025266Y002000D01*
X025297Y001996D01*
X025327Y001988D01*
X025356Y001976D01*
X025384Y001961D01*
X025409Y001943D01*
X025432Y001921D01*
X025452Y001897D01*
X025469Y001870D01*
X025482Y001842D01*
X025492Y001812D01*
X025498Y001781D01*
X025500Y001750D01*
X025498Y001719D01*
X025492Y001688D01*
X025482Y001658D01*
X025469Y001630D01*
X025452Y001603D01*
X025432Y001579D01*
X025409Y001557D01*
X025384Y001539D01*
X025356Y001524D01*
X025327Y001512D01*
X025297Y001504D01*
X025266Y001500D01*
X025234Y001500D01*
X025203Y001504D01*
X025173Y001512D01*
X025144Y001524D01*
X025116Y001539D01*
X025091Y001557D01*
X025068Y001579D01*
X025048Y001603D01*
X025031Y001630D01*
X025018Y001658D01*
X025008Y001688D01*
X025002Y001719D01*
X025000Y001750D01*
X032500Y001750D02*
X032502Y001781D01*
X032508Y001812D01*
X032518Y001842D01*
X032531Y001870D01*
X032548Y001897D01*
X032568Y001921D01*
X032591Y001943D01*
X032616Y001961D01*
X032644Y001976D01*
X032673Y001988D01*
X032703Y001996D01*
X032734Y002000D01*
X032766Y002000D01*
X032797Y001996D01*
X032827Y001988D01*
X032856Y001976D01*
X032884Y001961D01*
X032909Y001943D01*
X032932Y001921D01*
X032952Y001897D01*
X032969Y001870D01*
X032982Y001842D01*
X032992Y001812D01*
X032998Y001781D01*
X033000Y001750D01*
X032998Y001719D01*
X032992Y001688D01*
X032982Y001658D01*
X032969Y001630D01*
X032952Y001603D01*
X032932Y001579D01*
X032909Y001557D01*
X032884Y001539D01*
X032856Y001524D01*
X032827Y001512D01*
X032797Y001504D01*
X032766Y001500D01*
X032734Y001500D01*
X032703Y001504D01*
X032673Y001512D01*
X032644Y001524D01*
X032616Y001539D01*
X032591Y001557D01*
X032568Y001579D01*
X032548Y001603D01*
X032531Y001630D01*
X032518Y001658D01*
X032508Y001688D01*
X032502Y001719D01*
X032500Y001750D01*
X040000Y001750D02*
X040002Y001781D01*
X040008Y001812D01*
X040018Y001842D01*
X040031Y001870D01*
X040048Y001897D01*
X040068Y001921D01*
X040091Y001943D01*
X040116Y001961D01*
X040144Y001976D01*
X040173Y001988D01*
X040203Y001996D01*
X040234Y002000D01*
X040266Y002000D01*
X040297Y001996D01*
X040327Y001988D01*
X040356Y001976D01*
X040384Y001961D01*
X040409Y001943D01*
X040432Y001921D01*
X040452Y001897D01*
X040469Y001870D01*
X040482Y001842D01*
X040492Y001812D01*
X040498Y001781D01*
X040500Y001750D01*
X040498Y001719D01*
X040492Y001688D01*
X040482Y001658D01*
X040469Y001630D01*
X040452Y001603D01*
X040432Y001579D01*
X040409Y001557D01*
X040384Y001539D01*
X040356Y001524D01*
X040327Y001512D01*
X040297Y001504D01*
X040266Y001500D01*
X040234Y001500D01*
X040203Y001504D01*
X040173Y001512D01*
X040144Y001524D01*
X040116Y001539D01*
X040091Y001557D01*
X040068Y001579D01*
X040048Y001603D01*
X040031Y001630D01*
X040018Y001658D01*
X040008Y001688D01*
X040002Y001719D01*
X040000Y001750D01*
X047500Y001750D02*
X047502Y001781D01*
X047508Y001812D01*
X047518Y001842D01*
X047531Y001870D01*
X047548Y001897D01*
X047568Y001921D01*
X047591Y001943D01*
X047616Y001961D01*
X047644Y001976D01*
X047673Y001988D01*
X047703Y001996D01*
X047734Y002000D01*
X047766Y002000D01*
X047797Y001996D01*
X047827Y001988D01*
X047856Y001976D01*
X047884Y001961D01*
X047909Y001943D01*
X047932Y001921D01*
X047952Y001897D01*
X047969Y001870D01*
X047982Y001842D01*
X047992Y001812D01*
X047998Y001781D01*
X048000Y001750D01*
X047998Y001719D01*
X047992Y001688D01*
X047982Y001658D01*
X047969Y001630D01*
X047952Y001603D01*
X047932Y001579D01*
X047909Y001557D01*
X047884Y001539D01*
X047856Y001524D01*
X047827Y001512D01*
X047797Y001504D01*
X047766Y001500D01*
X047734Y001500D01*
X047703Y001504D01*
X047673Y001512D01*
X047644Y001524D01*
X047616Y001539D01*
X047591Y001557D01*
X047568Y001579D01*
X047548Y001603D01*
X047531Y001630D01*
X047518Y001658D01*
X047508Y001688D01*
X047502Y001719D01*
X047500Y001750D01*
X055000Y001750D02*
X055002Y001781D01*
X055008Y001812D01*
X055018Y001842D01*
X055031Y001870D01*
X055048Y001897D01*
X055068Y001921D01*
X055091Y001943D01*
X055116Y001961D01*
X055144Y001976D01*
X055173Y001988D01*
X055203Y001996D01*
X055234Y002000D01*
X055266Y002000D01*
X055297Y001996D01*
X055327Y001988D01*
X055356Y001976D01*
X055384Y001961D01*
X055409Y001943D01*
X055432Y001921D01*
X055452Y001897D01*
X055469Y001870D01*
X055482Y001842D01*
X055492Y001812D01*
X055498Y001781D01*
X055500Y001750D01*
X055498Y001719D01*
X055492Y001688D01*
X055482Y001658D01*
X055469Y001630D01*
X055452Y001603D01*
X055432Y001579D01*
X055409Y001557D01*
X055384Y001539D01*
X055356Y001524D01*
X055327Y001512D01*
X055297Y001504D01*
X055266Y001500D01*
X055234Y001500D01*
X055203Y001504D01*
X055173Y001512D01*
X055144Y001524D01*
X055116Y001539D01*
X055091Y001557D01*
X055068Y001579D01*
X055048Y001603D01*
X055031Y001630D01*
X055018Y001658D01*
X055008Y001688D01*
X055002Y001719D01*
X055000Y001750D01*
X062500Y001750D02*
X062502Y001781D01*
X062508Y001812D01*
X062518Y001842D01*
X062531Y001870D01*
X062548Y001897D01*
X062568Y001921D01*
X062591Y001943D01*
X062616Y001961D01*
X062644Y001976D01*
X062673Y001988D01*
X062703Y001996D01*
X062734Y002000D01*
X062766Y002000D01*
X062797Y001996D01*
X062827Y001988D01*
X062856Y001976D01*
X062884Y001961D01*
X062909Y001943D01*
X062932Y001921D01*
X062952Y001897D01*
X062969Y001870D01*
X062982Y001842D01*
X062992Y001812D01*
X062998Y001781D01*
X063000Y001750D01*
X062998Y001719D01*
X062992Y001688D01*
X062982Y001658D01*
X062969Y001630D01*
X062952Y001603D01*
X062932Y001579D01*
X062909Y001557D01*
X062884Y001539D01*
X062856Y001524D01*
X062827Y001512D01*
X062797Y001504D01*
X062766Y001500D01*
X062734Y001500D01*
X062703Y001504D01*
X062673Y001512D01*
X062644Y001524D01*
X062616Y001539D01*
X062591Y001557D01*
X062568Y001579D01*
X062548Y001603D01*
X062531Y001630D01*
X062518Y001658D01*
X062508Y001688D01*
X062502Y001719D01*
X062500Y001750D01*
X070000Y001750D02*
X070002Y001781D01*
X070008Y001812D01*
X070018Y001842D01*
X070031Y001870D01*
X070048Y001897D01*
X070068Y001921D01*
X070091Y001943D01*
X070116Y001961D01*
X070144Y001976D01*
X070173Y001988D01*
X070203Y001996D01*
X070234Y002000D01*
X070266Y002000D01*
X070297Y001996D01*
X070327Y001988D01*
X070356Y001976D01*
X070384Y001961D01*
X070409Y001943D01*
X070432Y001921D01*
X070452Y001897D01*
X070469Y001870D01*
X070482Y001842D01*
X070492Y001812D01*
X070498Y001781D01*
X070500Y001750D01*
X070498Y001719D01*
X070492Y001688D01*
X070482Y001658D01*
X070469Y001630D01*
X070452Y001603D01*
X070432Y001579D01*
X070409Y001557D01*
X070384Y001539D01*
X070356Y001524D01*
X070327Y001512D01*
X070297Y001504D01*
X070266Y001500D01*
X070234Y001500D01*
X070203Y001504D01*
X070173Y001512D01*
X070144Y001524D01*
X070116Y001539D01*
X070091Y001557D01*
X070068Y001579D01*
X070048Y001603D01*
X070031Y001630D01*
X070018Y001658D01*
X070008Y001688D01*
X070002Y001719D01*
X070000Y001750D01*
X070000Y009250D02*
X070002Y009281D01*
X070008Y009312D01*
X070018Y009342D01*
X070031Y009370D01*
X070048Y009397D01*
X070068Y009421D01*
X070091Y009443D01*
X070116Y009461D01*
X070144Y009476D01*
X070173Y009488D01*
X070203Y009496D01*
X070234Y009500D01*
X070266Y009500D01*
X070297Y009496D01*
X070327Y009488D01*
X070356Y009476D01*
X070384Y009461D01*
X070409Y009443D01*
X070432Y009421D01*
X070452Y009397D01*
X070469Y009370D01*
X070482Y009342D01*
X070492Y009312D01*
X070498Y009281D01*
X070500Y009250D01*
X070498Y009219D01*
X070492Y009188D01*
X070482Y009158D01*
X070469Y009130D01*
X070452Y009103D01*
X070432Y009079D01*
X070409Y009057D01*
X070384Y009039D01*
X070356Y009024D01*
X070327Y009012D01*
X070297Y009004D01*
X070266Y009000D01*
X070234Y009000D01*
X070203Y009004D01*
X070173Y009012D01*
X070144Y009024D01*
X070116Y009039D01*
X070091Y009057D01*
X070068Y009079D01*
X070048Y009103D01*
X070031Y009130D01*
X070018Y009158D01*
X070008Y009188D01*
X070002Y009219D01*
X070000Y009250D01*
X070000Y024250D02*
X070002Y024281D01*
X070008Y024312D01*
X070018Y024342D01*
X070031Y024370D01*
X070048Y024397D01*
X070068Y024421D01*
X070091Y024443D01*
X070116Y024461D01*
X070144Y024476D01*
X070173Y024488D01*
X070203Y024496D01*
X070234Y024500D01*
X070266Y024500D01*
X070297Y024496D01*
X070327Y024488D01*
X070356Y024476D01*
X070384Y024461D01*
X070409Y024443D01*
X070432Y024421D01*
X070452Y024397D01*
X070469Y024370D01*
X070482Y024342D01*
X070492Y024312D01*
X070498Y024281D01*
X070500Y024250D01*
X070498Y024219D01*
X070492Y024188D01*
X070482Y024158D01*
X070469Y024130D01*
X070452Y024103D01*
X070432Y024079D01*
X070409Y024057D01*
X070384Y024039D01*
X070356Y024024D01*
X070327Y024012D01*
X070297Y024004D01*
X070266Y024000D01*
X070234Y024000D01*
X070203Y024004D01*
X070173Y024012D01*
X070144Y024024D01*
X070116Y024039D01*
X070091Y024057D01*
X070068Y024079D01*
X070048Y024103D01*
X070031Y024130D01*
X070018Y024158D01*
X070008Y024188D01*
X070002Y024219D01*
X070000Y024250D01*
X062500Y024250D02*
X062502Y024281D01*
X062508Y024312D01*
X062518Y024342D01*
X062531Y024370D01*
X062548Y024397D01*
X062568Y024421D01*
X062591Y024443D01*
X062616Y024461D01*
X062644Y024476D01*
X062673Y024488D01*
X062703Y024496D01*
X062734Y024500D01*
X062766Y024500D01*
X062797Y024496D01*
X062827Y024488D01*
X062856Y024476D01*
X062884Y024461D01*
X062909Y024443D01*
X062932Y024421D01*
X062952Y024397D01*
X062969Y024370D01*
X062982Y024342D01*
X062992Y024312D01*
X062998Y024281D01*
X063000Y024250D01*
X062998Y024219D01*
X062992Y024188D01*
X062982Y024158D01*
X062969Y024130D01*
X062952Y024103D01*
X062932Y024079D01*
X062909Y024057D01*
X062884Y024039D01*
X062856Y024024D01*
X062827Y024012D01*
X062797Y024004D01*
X062766Y024000D01*
X062734Y024000D01*
X062703Y024004D01*
X062673Y024012D01*
X062644Y024024D01*
X062616Y024039D01*
X062591Y024057D01*
X062568Y024079D01*
X062548Y024103D01*
X062531Y024130D01*
X062518Y024158D01*
X062508Y024188D01*
X062502Y024219D01*
X062500Y024250D01*
X055000Y024250D02*
X055002Y024281D01*
X055008Y024312D01*
X055018Y024342D01*
X055031Y024370D01*
X055048Y024397D01*
X055068Y024421D01*
X055091Y024443D01*
X055116Y024461D01*
X055144Y024476D01*
X055173Y024488D01*
X055203Y024496D01*
X055234Y024500D01*
X055266Y024500D01*
X055297Y024496D01*
X055327Y024488D01*
X055356Y024476D01*
X055384Y024461D01*
X055409Y024443D01*
X055432Y024421D01*
X055452Y024397D01*
X055469Y024370D01*
X055482Y024342D01*
X055492Y024312D01*
X055498Y024281D01*
X055500Y024250D01*
X055498Y024219D01*
X055492Y024188D01*
X055482Y024158D01*
X055469Y024130D01*
X055452Y024103D01*
X055432Y024079D01*
X055409Y024057D01*
X055384Y024039D01*
X055356Y024024D01*
X055327Y024012D01*
X055297Y024004D01*
X055266Y024000D01*
X055234Y024000D01*
X055203Y024004D01*
X055173Y024012D01*
X055144Y024024D01*
X055116Y024039D01*
X055091Y024057D01*
X055068Y024079D01*
X055048Y024103D01*
X055031Y024130D01*
X055018Y024158D01*
X055008Y024188D01*
X055002Y024219D01*
X055000Y024250D01*
X047500Y024250D02*
X047502Y024281D01*
X047508Y024312D01*
X047518Y024342D01*
X047531Y024370D01*
X047548Y024397D01*
X047568Y024421D01*
X047591Y024443D01*
X047616Y024461D01*
X047644Y024476D01*
X047673Y024488D01*
X047703Y024496D01*
X047734Y024500D01*
X047766Y024500D01*
X047797Y024496D01*
X047827Y024488D01*
X047856Y024476D01*
X047884Y024461D01*
X047909Y024443D01*
X047932Y024421D01*
X047952Y024397D01*
X047969Y024370D01*
X047982Y024342D01*
X047992Y024312D01*
X047998Y024281D01*
X048000Y024250D01*
X047998Y024219D01*
X047992Y024188D01*
X047982Y024158D01*
X047969Y024130D01*
X047952Y024103D01*
X047932Y024079D01*
X047909Y024057D01*
X047884Y024039D01*
X047856Y024024D01*
X047827Y024012D01*
X047797Y024004D01*
X047766Y024000D01*
X047734Y024000D01*
X047703Y024004D01*
X047673Y024012D01*
X047644Y024024D01*
X047616Y024039D01*
X047591Y024057D01*
X047568Y024079D01*
X047548Y024103D01*
X047531Y024130D01*
X047518Y024158D01*
X047508Y024188D01*
X047502Y024219D01*
X047500Y024250D01*
X040000Y024250D02*
X040002Y024281D01*
X040008Y024312D01*
X040018Y024342D01*
X040031Y024370D01*
X040048Y024397D01*
X040068Y024421D01*
X040091Y024443D01*
X040116Y024461D01*
X040144Y024476D01*
X040173Y024488D01*
X040203Y024496D01*
X040234Y024500D01*
X040266Y024500D01*
X040297Y024496D01*
X040327Y024488D01*
X040356Y024476D01*
X040384Y024461D01*
X040409Y024443D01*
X040432Y024421D01*
X040452Y024397D01*
X040469Y024370D01*
X040482Y024342D01*
X040492Y024312D01*
X040498Y024281D01*
X040500Y024250D01*
X040498Y024219D01*
X040492Y024188D01*
X040482Y024158D01*
X040469Y024130D01*
X040452Y024103D01*
X040432Y024079D01*
X040409Y024057D01*
X040384Y024039D01*
X040356Y024024D01*
X040327Y024012D01*
X040297Y024004D01*
X040266Y024000D01*
X040234Y024000D01*
X040203Y024004D01*
X040173Y024012D01*
X040144Y024024D01*
X040116Y024039D01*
X040091Y024057D01*
X040068Y024079D01*
X040048Y024103D01*
X040031Y024130D01*
X040018Y024158D01*
X040008Y024188D01*
X040002Y024219D01*
X040000Y024250D01*
X032500Y024250D02*
X032502Y024281D01*
X032508Y024312D01*
X032518Y024342D01*
X032531Y024370D01*
X032548Y024397D01*
X032568Y024421D01*
X032591Y024443D01*
X032616Y024461D01*
X032644Y024476D01*
X032673Y024488D01*
X032703Y024496D01*
X032734Y024500D01*
X032766Y024500D01*
X032797Y024496D01*
X032827Y024488D01*
X032856Y024476D01*
X032884Y024461D01*
X032909Y024443D01*
X032932Y024421D01*
X032952Y024397D01*
X032969Y024370D01*
X032982Y024342D01*
X032992Y024312D01*
X032998Y024281D01*
X033000Y024250D01*
X032998Y024219D01*
X032992Y024188D01*
X032982Y024158D01*
X032969Y024130D01*
X032952Y024103D01*
X032932Y024079D01*
X032909Y024057D01*
X032884Y024039D01*
X032856Y024024D01*
X032827Y024012D01*
X032797Y024004D01*
X032766Y024000D01*
X032734Y024000D01*
X032703Y024004D01*
X032673Y024012D01*
X032644Y024024D01*
X032616Y024039D01*
X032591Y024057D01*
X032568Y024079D01*
X032548Y024103D01*
X032531Y024130D01*
X032518Y024158D01*
X032508Y024188D01*
X032502Y024219D01*
X032500Y024250D01*
X025000Y024250D02*
X025002Y024281D01*
X025008Y024312D01*
X025018Y024342D01*
X025031Y024370D01*
X025048Y024397D01*
X025068Y024421D01*
X025091Y024443D01*
X025116Y024461D01*
X025144Y024476D01*
X025173Y024488D01*
X025203Y024496D01*
X025234Y024500D01*
X025266Y024500D01*
X025297Y024496D01*
X025327Y024488D01*
X025356Y024476D01*
X025384Y024461D01*
X025409Y024443D01*
X025432Y024421D01*
X025452Y024397D01*
X025469Y024370D01*
X025482Y024342D01*
X025492Y024312D01*
X025498Y024281D01*
X025500Y024250D01*
X025498Y024219D01*
X025492Y024188D01*
X025482Y024158D01*
X025469Y024130D01*
X025452Y024103D01*
X025432Y024079D01*
X025409Y024057D01*
X025384Y024039D01*
X025356Y024024D01*
X025327Y024012D01*
X025297Y024004D01*
X025266Y024000D01*
X025234Y024000D01*
X025203Y024004D01*
X025173Y024012D01*
X025144Y024024D01*
X025116Y024039D01*
X025091Y024057D01*
X025068Y024079D01*
X025048Y024103D01*
X025031Y024130D01*
X025018Y024158D01*
X025008Y024188D01*
X025002Y024219D01*
X025000Y024250D01*
X017500Y024250D02*
X017502Y024281D01*
X017508Y024312D01*
X017518Y024342D01*
X017531Y024370D01*
X017548Y024397D01*
X017568Y024421D01*
X017591Y024443D01*
X017616Y024461D01*
X017644Y024476D01*
X017673Y024488D01*
X017703Y024496D01*
X017734Y024500D01*
X017766Y024500D01*
X017797Y024496D01*
X017827Y024488D01*
X017856Y024476D01*
X017884Y024461D01*
X017909Y024443D01*
X017932Y024421D01*
X017952Y024397D01*
X017969Y024370D01*
X017982Y024342D01*
X017992Y024312D01*
X017998Y024281D01*
X018000Y024250D01*
X017998Y024219D01*
X017992Y024188D01*
X017982Y024158D01*
X017969Y024130D01*
X017952Y024103D01*
X017932Y024079D01*
X017909Y024057D01*
X017884Y024039D01*
X017856Y024024D01*
X017827Y024012D01*
X017797Y024004D01*
X017766Y024000D01*
X017734Y024000D01*
X017703Y024004D01*
X017673Y024012D01*
X017644Y024024D01*
X017616Y024039D01*
X017591Y024057D01*
X017568Y024079D01*
X017548Y024103D01*
X017531Y024130D01*
X017518Y024158D01*
X017508Y024188D01*
X017502Y024219D01*
X017500Y024250D01*
X010000Y024250D02*
X010002Y024281D01*
X010008Y024312D01*
X010018Y024342D01*
X010031Y024370D01*
X010048Y024397D01*
X010068Y024421D01*
X010091Y024443D01*
X010116Y024461D01*
X010144Y024476D01*
X010173Y024488D01*
X010203Y024496D01*
X010234Y024500D01*
X010266Y024500D01*
X010297Y024496D01*
X010327Y024488D01*
X010356Y024476D01*
X010384Y024461D01*
X010409Y024443D01*
X010432Y024421D01*
X010452Y024397D01*
X010469Y024370D01*
X010482Y024342D01*
X010492Y024312D01*
X010498Y024281D01*
X010500Y024250D01*
X010498Y024219D01*
X010492Y024188D01*
X010482Y024158D01*
X010469Y024130D01*
X010452Y024103D01*
X010432Y024079D01*
X010409Y024057D01*
X010384Y024039D01*
X010356Y024024D01*
X010327Y024012D01*
X010297Y024004D01*
X010266Y024000D01*
X010234Y024000D01*
X010203Y024004D01*
X010173Y024012D01*
X010144Y024024D01*
X010116Y024039D01*
X010091Y024057D01*
X010068Y024079D01*
X010048Y024103D01*
X010031Y024130D01*
X010018Y024158D01*
X010008Y024188D01*
X010002Y024219D01*
X010000Y024250D01*
X002500Y024250D02*
X002502Y024281D01*
X002508Y024312D01*
X002518Y024342D01*
X002531Y024370D01*
X002548Y024397D01*
X002568Y024421D01*
X002591Y024443D01*
X002616Y024461D01*
X002644Y024476D01*
X002673Y024488D01*
X002703Y024496D01*
X002734Y024500D01*
X002766Y024500D01*
X002797Y024496D01*
X002827Y024488D01*
X002856Y024476D01*
X002884Y024461D01*
X002909Y024443D01*
X002932Y024421D01*
X002952Y024397D01*
X002969Y024370D01*
X002982Y024342D01*
X002992Y024312D01*
X002998Y024281D01*
X003000Y024250D01*
X002998Y024219D01*
X002992Y024188D01*
X002982Y024158D01*
X002969Y024130D01*
X002952Y024103D01*
X002932Y024079D01*
X002909Y024057D01*
X002884Y024039D01*
X002856Y024024D01*
X002827Y024012D01*
X002797Y024004D01*
X002766Y024000D01*
X002734Y024000D01*
X002703Y024004D01*
X002673Y024012D01*
X002644Y024024D01*
X002616Y024039D01*
X002591Y024057D01*
X002568Y024079D01*
X002548Y024103D01*
X002531Y024130D01*
X002518Y024158D01*
X002508Y024188D01*
X002502Y024219D01*
X002500Y024250D01*
X002500Y047000D02*
X002502Y047031D01*
X002508Y047062D01*
X002518Y047092D01*
X002531Y047120D01*
X002548Y047147D01*
X002568Y047171D01*
X002591Y047193D01*
X002616Y047211D01*
X002644Y047226D01*
X002673Y047238D01*
X002703Y047246D01*
X002734Y047250D01*
X002766Y047250D01*
X002797Y047246D01*
X002827Y047238D01*
X002856Y047226D01*
X002884Y047211D01*
X002909Y047193D01*
X002932Y047171D01*
X002952Y047147D01*
X002969Y047120D01*
X002982Y047092D01*
X002992Y047062D01*
X002998Y047031D01*
X003000Y047000D01*
X002998Y046969D01*
X002992Y046938D01*
X002982Y046908D01*
X002969Y046880D01*
X002952Y046853D01*
X002932Y046829D01*
X002909Y046807D01*
X002884Y046789D01*
X002856Y046774D01*
X002827Y046762D01*
X002797Y046754D01*
X002766Y046750D01*
X002734Y046750D01*
X002703Y046754D01*
X002673Y046762D01*
X002644Y046774D01*
X002616Y046789D01*
X002591Y046807D01*
X002568Y046829D01*
X002548Y046853D01*
X002531Y046880D01*
X002518Y046908D01*
X002508Y046938D01*
X002502Y046969D01*
X002500Y047000D01*
X002500Y054500D02*
X002502Y054531D01*
X002508Y054562D01*
X002518Y054592D01*
X002531Y054620D01*
X002548Y054647D01*
X002568Y054671D01*
X002591Y054693D01*
X002616Y054711D01*
X002644Y054726D01*
X002673Y054738D01*
X002703Y054746D01*
X002734Y054750D01*
X002766Y054750D01*
X002797Y054746D01*
X002827Y054738D01*
X002856Y054726D01*
X002884Y054711D01*
X002909Y054693D01*
X002932Y054671D01*
X002952Y054647D01*
X002969Y054620D01*
X002982Y054592D01*
X002992Y054562D01*
X002998Y054531D01*
X003000Y054500D01*
X002998Y054469D01*
X002992Y054438D01*
X002982Y054408D01*
X002969Y054380D01*
X002952Y054353D01*
X002932Y054329D01*
X002909Y054307D01*
X002884Y054289D01*
X002856Y054274D01*
X002827Y054262D01*
X002797Y054254D01*
X002766Y054250D01*
X002734Y054250D01*
X002703Y054254D01*
X002673Y054262D01*
X002644Y054274D01*
X002616Y054289D01*
X002591Y054307D01*
X002568Y054329D01*
X002548Y054353D01*
X002531Y054380D01*
X002518Y054408D01*
X002508Y054438D01*
X002502Y054469D01*
X002500Y054500D01*
X002500Y062000D02*
X002502Y062031D01*
X002508Y062062D01*
X002518Y062092D01*
X002531Y062120D01*
X002548Y062147D01*
X002568Y062171D01*
X002591Y062193D01*
X002616Y062211D01*
X002644Y062226D01*
X002673Y062238D01*
X002703Y062246D01*
X002734Y062250D01*
X002766Y062250D01*
X002797Y062246D01*
X002827Y062238D01*
X002856Y062226D01*
X002884Y062211D01*
X002909Y062193D01*
X002932Y062171D01*
X002952Y062147D01*
X002969Y062120D01*
X002982Y062092D01*
X002992Y062062D01*
X002998Y062031D01*
X003000Y062000D01*
X002998Y061969D01*
X002992Y061938D01*
X002982Y061908D01*
X002969Y061880D01*
X002952Y061853D01*
X002932Y061829D01*
X002909Y061807D01*
X002884Y061789D01*
X002856Y061774D01*
X002827Y061762D01*
X002797Y061754D01*
X002766Y061750D01*
X002734Y061750D01*
X002703Y061754D01*
X002673Y061762D01*
X002644Y061774D01*
X002616Y061789D01*
X002591Y061807D01*
X002568Y061829D01*
X002548Y061853D01*
X002531Y061880D01*
X002518Y061908D01*
X002508Y061938D01*
X002502Y061969D01*
X002500Y062000D01*
X002500Y069500D02*
X002502Y069531D01*
X002508Y069562D01*
X002518Y069592D01*
X002531Y069620D01*
X002548Y069647D01*
X002568Y069671D01*
X002591Y069693D01*
X002616Y069711D01*
X002644Y069726D01*
X002673Y069738D01*
X002703Y069746D01*
X002734Y069750D01*
X002766Y069750D01*
X002797Y069746D01*
X002827Y069738D01*
X002856Y069726D01*
X002884Y069711D01*
X002909Y069693D01*
X002932Y069671D01*
X002952Y069647D01*
X002969Y069620D01*
X002982Y069592D01*
X002992Y069562D01*
X002998Y069531D01*
X003000Y069500D01*
X002998Y069469D01*
X002992Y069438D01*
X002982Y069408D01*
X002969Y069380D01*
X002952Y069353D01*
X002932Y069329D01*
X002909Y069307D01*
X002884Y069289D01*
X002856Y069274D01*
X002827Y069262D01*
X002797Y069254D01*
X002766Y069250D01*
X002734Y069250D01*
X002703Y069254D01*
X002673Y069262D01*
X002644Y069274D01*
X002616Y069289D01*
X002591Y069307D01*
X002568Y069329D01*
X002548Y069353D01*
X002531Y069380D01*
X002518Y069408D01*
X002508Y069438D01*
X002502Y069469D01*
X002500Y069500D01*
X010000Y069500D02*
X010002Y069531D01*
X010008Y069562D01*
X010018Y069592D01*
X010031Y069620D01*
X010048Y069647D01*
X010068Y069671D01*
X010091Y069693D01*
X010116Y069711D01*
X010144Y069726D01*
X010173Y069738D01*
X010203Y069746D01*
X010234Y069750D01*
X010266Y069750D01*
X010297Y069746D01*
X010327Y069738D01*
X010356Y069726D01*
X010384Y069711D01*
X010409Y069693D01*
X010432Y069671D01*
X010452Y069647D01*
X010469Y069620D01*
X010482Y069592D01*
X010492Y069562D01*
X010498Y069531D01*
X010500Y069500D01*
X010498Y069469D01*
X010492Y069438D01*
X010482Y069408D01*
X010469Y069380D01*
X010452Y069353D01*
X010432Y069329D01*
X010409Y069307D01*
X010384Y069289D01*
X010356Y069274D01*
X010327Y069262D01*
X010297Y069254D01*
X010266Y069250D01*
X010234Y069250D01*
X010203Y069254D01*
X010173Y069262D01*
X010144Y069274D01*
X010116Y069289D01*
X010091Y069307D01*
X010068Y069329D01*
X010048Y069353D01*
X010031Y069380D01*
X010018Y069408D01*
X010008Y069438D01*
X010002Y069469D01*
X010000Y069500D01*
X010000Y062000D02*
X010002Y062031D01*
X010008Y062062D01*
X010018Y062092D01*
X010031Y062120D01*
X010048Y062147D01*
X010068Y062171D01*
X010091Y062193D01*
X010116Y062211D01*
X010144Y062226D01*
X010173Y062238D01*
X010203Y062246D01*
X010234Y062250D01*
X010266Y062250D01*
X010297Y062246D01*
X010327Y062238D01*
X010356Y062226D01*
X010384Y062211D01*
X010409Y062193D01*
X010432Y062171D01*
X010452Y062147D01*
X010469Y062120D01*
X010482Y062092D01*
X010492Y062062D01*
X010498Y062031D01*
X010500Y062000D01*
X010498Y061969D01*
X010492Y061938D01*
X010482Y061908D01*
X010469Y061880D01*
X010452Y061853D01*
X010432Y061829D01*
X010409Y061807D01*
X010384Y061789D01*
X010356Y061774D01*
X010327Y061762D01*
X010297Y061754D01*
X010266Y061750D01*
X010234Y061750D01*
X010203Y061754D01*
X010173Y061762D01*
X010144Y061774D01*
X010116Y061789D01*
X010091Y061807D01*
X010068Y061829D01*
X010048Y061853D01*
X010031Y061880D01*
X010018Y061908D01*
X010008Y061938D01*
X010002Y061969D01*
X010000Y062000D01*
X010000Y054500D02*
X010002Y054531D01*
X010008Y054562D01*
X010018Y054592D01*
X010031Y054620D01*
X010048Y054647D01*
X010068Y054671D01*
X010091Y054693D01*
X010116Y054711D01*
X010144Y054726D01*
X010173Y054738D01*
X010203Y054746D01*
X010234Y054750D01*
X010266Y054750D01*
X010297Y054746D01*
X010327Y054738D01*
X010356Y054726D01*
X010384Y054711D01*
X010409Y054693D01*
X010432Y054671D01*
X010452Y054647D01*
X010469Y054620D01*
X010482Y054592D01*
X010492Y054562D01*
X010498Y054531D01*
X010500Y054500D01*
X010498Y054469D01*
X010492Y054438D01*
X010482Y054408D01*
X010469Y054380D01*
X010452Y054353D01*
X010432Y054329D01*
X010409Y054307D01*
X010384Y054289D01*
X010356Y054274D01*
X010327Y054262D01*
X010297Y054254D01*
X010266Y054250D01*
X010234Y054250D01*
X010203Y054254D01*
X010173Y054262D01*
X010144Y054274D01*
X010116Y054289D01*
X010091Y054307D01*
X010068Y054329D01*
X010048Y054353D01*
X010031Y054380D01*
X010018Y054408D01*
X010008Y054438D01*
X010002Y054469D01*
X010000Y054500D01*
X010000Y047000D02*
X010002Y047031D01*
X010008Y047062D01*
X010018Y047092D01*
X010031Y047120D01*
X010048Y047147D01*
X010068Y047171D01*
X010091Y047193D01*
X010116Y047211D01*
X010144Y047226D01*
X010173Y047238D01*
X010203Y047246D01*
X010234Y047250D01*
X010266Y047250D01*
X010297Y047246D01*
X010327Y047238D01*
X010356Y047226D01*
X010384Y047211D01*
X010409Y047193D01*
X010432Y047171D01*
X010452Y047147D01*
X010469Y047120D01*
X010482Y047092D01*
X010492Y047062D01*
X010498Y047031D01*
X010500Y047000D01*
X010498Y046969D01*
X010492Y046938D01*
X010482Y046908D01*
X010469Y046880D01*
X010452Y046853D01*
X010432Y046829D01*
X010409Y046807D01*
X010384Y046789D01*
X010356Y046774D01*
X010327Y046762D01*
X010297Y046754D01*
X010266Y046750D01*
X010234Y046750D01*
X010203Y046754D01*
X010173Y046762D01*
X010144Y046774D01*
X010116Y046789D01*
X010091Y046807D01*
X010068Y046829D01*
X010048Y046853D01*
X010031Y046880D01*
X010018Y046908D01*
X010008Y046938D01*
X010002Y046969D01*
X010000Y047000D01*
X017500Y047000D02*
X017502Y047031D01*
X017508Y047062D01*
X017518Y047092D01*
X017531Y047120D01*
X017548Y047147D01*
X017568Y047171D01*
X017591Y047193D01*
X017616Y047211D01*
X017644Y047226D01*
X017673Y047238D01*
X017703Y047246D01*
X017734Y047250D01*
X017766Y047250D01*
X017797Y047246D01*
X017827Y047238D01*
X017856Y047226D01*
X017884Y047211D01*
X017909Y047193D01*
X017932Y047171D01*
X017952Y047147D01*
X017969Y047120D01*
X017982Y047092D01*
X017992Y047062D01*
X017998Y047031D01*
X018000Y047000D01*
X017998Y046969D01*
X017992Y046938D01*
X017982Y046908D01*
X017969Y046880D01*
X017952Y046853D01*
X017932Y046829D01*
X017909Y046807D01*
X017884Y046789D01*
X017856Y046774D01*
X017827Y046762D01*
X017797Y046754D01*
X017766Y046750D01*
X017734Y046750D01*
X017703Y046754D01*
X017673Y046762D01*
X017644Y046774D01*
X017616Y046789D01*
X017591Y046807D01*
X017568Y046829D01*
X017548Y046853D01*
X017531Y046880D01*
X017518Y046908D01*
X017508Y046938D01*
X017502Y046969D01*
X017500Y047000D01*
X017500Y054500D02*
X017502Y054531D01*
X017508Y054562D01*
X017518Y054592D01*
X017531Y054620D01*
X017548Y054647D01*
X017568Y054671D01*
X017591Y054693D01*
X017616Y054711D01*
X017644Y054726D01*
X017673Y054738D01*
X017703Y054746D01*
X017734Y054750D01*
X017766Y054750D01*
X017797Y054746D01*
X017827Y054738D01*
X017856Y054726D01*
X017884Y054711D01*
X017909Y054693D01*
X017932Y054671D01*
X017952Y054647D01*
X017969Y054620D01*
X017982Y054592D01*
X017992Y054562D01*
X017998Y054531D01*
X018000Y054500D01*
X017998Y054469D01*
X017992Y054438D01*
X017982Y054408D01*
X017969Y054380D01*
X017952Y054353D01*
X017932Y054329D01*
X017909Y054307D01*
X017884Y054289D01*
X017856Y054274D01*
X017827Y054262D01*
X017797Y054254D01*
X017766Y054250D01*
X017734Y054250D01*
X017703Y054254D01*
X017673Y054262D01*
X017644Y054274D01*
X017616Y054289D01*
X017591Y054307D01*
X017568Y054329D01*
X017548Y054353D01*
X017531Y054380D01*
X017518Y054408D01*
X017508Y054438D01*
X017502Y054469D01*
X017500Y054500D01*
X017500Y062000D02*
X017502Y062031D01*
X017508Y062062D01*
X017518Y062092D01*
X017531Y062120D01*
X017548Y062147D01*
X017568Y062171D01*
X017591Y062193D01*
X017616Y062211D01*
X017644Y062226D01*
X017673Y062238D01*
X017703Y062246D01*
X017734Y062250D01*
X017766Y062250D01*
X017797Y062246D01*
X017827Y062238D01*
X017856Y062226D01*
X017884Y062211D01*
X017909Y062193D01*
X017932Y062171D01*
X017952Y062147D01*
X017969Y062120D01*
X017982Y062092D01*
X017992Y062062D01*
X017998Y062031D01*
X018000Y062000D01*
X017998Y061969D01*
X017992Y061938D01*
X017982Y061908D01*
X017969Y061880D01*
X017952Y061853D01*
X017932Y061829D01*
X017909Y061807D01*
X017884Y061789D01*
X017856Y061774D01*
X017827Y061762D01*
X017797Y061754D01*
X017766Y061750D01*
X017734Y061750D01*
X017703Y061754D01*
X017673Y061762D01*
X017644Y061774D01*
X017616Y061789D01*
X017591Y061807D01*
X017568Y061829D01*
X017548Y061853D01*
X017531Y061880D01*
X017518Y061908D01*
X017508Y061938D01*
X017502Y061969D01*
X017500Y062000D01*
X017500Y069500D02*
X017502Y069531D01*
X017508Y069562D01*
X017518Y069592D01*
X017531Y069620D01*
X017548Y069647D01*
X017568Y069671D01*
X017591Y069693D01*
X017616Y069711D01*
X017644Y069726D01*
X017673Y069738D01*
X017703Y069746D01*
X017734Y069750D01*
X017766Y069750D01*
X017797Y069746D01*
X017827Y069738D01*
X017856Y069726D01*
X017884Y069711D01*
X017909Y069693D01*
X017932Y069671D01*
X017952Y069647D01*
X017969Y069620D01*
X017982Y069592D01*
X017992Y069562D01*
X017998Y069531D01*
X018000Y069500D01*
X017998Y069469D01*
X017992Y069438D01*
X017982Y069408D01*
X017969Y069380D01*
X017952Y069353D01*
X017932Y069329D01*
X017909Y069307D01*
X017884Y069289D01*
X017856Y069274D01*
X017827Y069262D01*
X017797Y069254D01*
X017766Y069250D01*
X017734Y069250D01*
X017703Y069254D01*
X017673Y069262D01*
X017644Y069274D01*
X017616Y069289D01*
X017591Y069307D01*
X017568Y069329D01*
X017548Y069353D01*
X017531Y069380D01*
X017518Y069408D01*
X017508Y069438D01*
X017502Y069469D01*
X017500Y069500D01*
X025000Y069500D02*
X025002Y069531D01*
X025008Y069562D01*
X025018Y069592D01*
X025031Y069620D01*
X025048Y069647D01*
X025068Y069671D01*
X025091Y069693D01*
X025116Y069711D01*
X025144Y069726D01*
X025173Y069738D01*
X025203Y069746D01*
X025234Y069750D01*
X025266Y069750D01*
X025297Y069746D01*
X025327Y069738D01*
X025356Y069726D01*
X025384Y069711D01*
X025409Y069693D01*
X025432Y069671D01*
X025452Y069647D01*
X025469Y069620D01*
X025482Y069592D01*
X025492Y069562D01*
X025498Y069531D01*
X025500Y069500D01*
X025498Y069469D01*
X025492Y069438D01*
X025482Y069408D01*
X025469Y069380D01*
X025452Y069353D01*
X025432Y069329D01*
X025409Y069307D01*
X025384Y069289D01*
X025356Y069274D01*
X025327Y069262D01*
X025297Y069254D01*
X025266Y069250D01*
X025234Y069250D01*
X025203Y069254D01*
X025173Y069262D01*
X025144Y069274D01*
X025116Y069289D01*
X025091Y069307D01*
X025068Y069329D01*
X025048Y069353D01*
X025031Y069380D01*
X025018Y069408D01*
X025008Y069438D01*
X025002Y069469D01*
X025000Y069500D01*
X025000Y062000D02*
X025002Y062031D01*
X025008Y062062D01*
X025018Y062092D01*
X025031Y062120D01*
X025048Y062147D01*
X025068Y062171D01*
X025091Y062193D01*
X025116Y062211D01*
X025144Y062226D01*
X025173Y062238D01*
X025203Y062246D01*
X025234Y062250D01*
X025266Y062250D01*
X025297Y062246D01*
X025327Y062238D01*
X025356Y062226D01*
X025384Y062211D01*
X025409Y062193D01*
X025432Y062171D01*
X025452Y062147D01*
X025469Y062120D01*
X025482Y062092D01*
X025492Y062062D01*
X025498Y062031D01*
X025500Y062000D01*
X025498Y061969D01*
X025492Y061938D01*
X025482Y061908D01*
X025469Y061880D01*
X025452Y061853D01*
X025432Y061829D01*
X025409Y061807D01*
X025384Y061789D01*
X025356Y061774D01*
X025327Y061762D01*
X025297Y061754D01*
X025266Y061750D01*
X025234Y061750D01*
X025203Y061754D01*
X025173Y061762D01*
X025144Y061774D01*
X025116Y061789D01*
X025091Y061807D01*
X025068Y061829D01*
X025048Y061853D01*
X025031Y061880D01*
X025018Y061908D01*
X025008Y061938D01*
X025002Y061969D01*
X025000Y062000D01*
X025000Y054500D02*
X025002Y054531D01*
X025008Y054562D01*
X025018Y054592D01*
X025031Y054620D01*
X025048Y054647D01*
X025068Y054671D01*
X025091Y054693D01*
X025116Y054711D01*
X025144Y054726D01*
X025173Y054738D01*
X025203Y054746D01*
X025234Y054750D01*
X025266Y054750D01*
X025297Y054746D01*
X025327Y054738D01*
X025356Y054726D01*
X025384Y054711D01*
X025409Y054693D01*
X025432Y054671D01*
X025452Y054647D01*
X025469Y054620D01*
X025482Y054592D01*
X025492Y054562D01*
X025498Y054531D01*
X025500Y054500D01*
X025498Y054469D01*
X025492Y054438D01*
X025482Y054408D01*
X025469Y054380D01*
X025452Y054353D01*
X025432Y054329D01*
X025409Y054307D01*
X025384Y054289D01*
X025356Y054274D01*
X025327Y054262D01*
X025297Y054254D01*
X025266Y054250D01*
X025234Y054250D01*
X025203Y054254D01*
X025173Y054262D01*
X025144Y054274D01*
X025116Y054289D01*
X025091Y054307D01*
X025068Y054329D01*
X025048Y054353D01*
X025031Y054380D01*
X025018Y054408D01*
X025008Y054438D01*
X025002Y054469D01*
X025000Y054500D01*
X025000Y047000D02*
X025002Y047031D01*
X025008Y047062D01*
X025018Y047092D01*
X025031Y047120D01*
X025048Y047147D01*
X025068Y047171D01*
X025091Y047193D01*
X025116Y047211D01*
X025144Y047226D01*
X025173Y047238D01*
X025203Y047246D01*
X025234Y047250D01*
X025266Y047250D01*
X025297Y047246D01*
X025327Y047238D01*
X025356Y047226D01*
X025384Y047211D01*
X025409Y047193D01*
X025432Y047171D01*
X025452Y047147D01*
X025469Y047120D01*
X025482Y047092D01*
X025492Y047062D01*
X025498Y047031D01*
X025500Y047000D01*
X025498Y046969D01*
X025492Y046938D01*
X025482Y046908D01*
X025469Y046880D01*
X025452Y046853D01*
X025432Y046829D01*
X025409Y046807D01*
X025384Y046789D01*
X025356Y046774D01*
X025327Y046762D01*
X025297Y046754D01*
X025266Y046750D01*
X025234Y046750D01*
X025203Y046754D01*
X025173Y046762D01*
X025144Y046774D01*
X025116Y046789D01*
X025091Y046807D01*
X025068Y046829D01*
X025048Y046853D01*
X025031Y046880D01*
X025018Y046908D01*
X025008Y046938D01*
X025002Y046969D01*
X025000Y047000D01*
X032500Y047000D02*
X032502Y047031D01*
X032508Y047062D01*
X032518Y047092D01*
X032531Y047120D01*
X032548Y047147D01*
X032568Y047171D01*
X032591Y047193D01*
X032616Y047211D01*
X032644Y047226D01*
X032673Y047238D01*
X032703Y047246D01*
X032734Y047250D01*
X032766Y047250D01*
X032797Y047246D01*
X032827Y047238D01*
X032856Y047226D01*
X032884Y047211D01*
X032909Y047193D01*
X032932Y047171D01*
X032952Y047147D01*
X032969Y047120D01*
X032982Y047092D01*
X032992Y047062D01*
X032998Y047031D01*
X033000Y047000D01*
X032998Y046969D01*
X032992Y046938D01*
X032982Y046908D01*
X032969Y046880D01*
X032952Y046853D01*
X032932Y046829D01*
X032909Y046807D01*
X032884Y046789D01*
X032856Y046774D01*
X032827Y046762D01*
X032797Y046754D01*
X032766Y046750D01*
X032734Y046750D01*
X032703Y046754D01*
X032673Y046762D01*
X032644Y046774D01*
X032616Y046789D01*
X032591Y046807D01*
X032568Y046829D01*
X032548Y046853D01*
X032531Y046880D01*
X032518Y046908D01*
X032508Y046938D01*
X032502Y046969D01*
X032500Y047000D01*
X032500Y054500D02*
X032502Y054531D01*
X032508Y054562D01*
X032518Y054592D01*
X032531Y054620D01*
X032548Y054647D01*
X032568Y054671D01*
X032591Y054693D01*
X032616Y054711D01*
X032644Y054726D01*
X032673Y054738D01*
X032703Y054746D01*
X032734Y054750D01*
X032766Y054750D01*
X032797Y054746D01*
X032827Y054738D01*
X032856Y054726D01*
X032884Y054711D01*
X032909Y054693D01*
X032932Y054671D01*
X032952Y054647D01*
X032969Y054620D01*
X032982Y054592D01*
X032992Y054562D01*
X032998Y054531D01*
X033000Y054500D01*
X032998Y054469D01*
X032992Y054438D01*
X032982Y054408D01*
X032969Y054380D01*
X032952Y054353D01*
X032932Y054329D01*
X032909Y054307D01*
X032884Y054289D01*
X032856Y054274D01*
X032827Y054262D01*
X032797Y054254D01*
X032766Y054250D01*
X032734Y054250D01*
X032703Y054254D01*
X032673Y054262D01*
X032644Y054274D01*
X032616Y054289D01*
X032591Y054307D01*
X032568Y054329D01*
X032548Y054353D01*
X032531Y054380D01*
X032518Y054408D01*
X032508Y054438D01*
X032502Y054469D01*
X032500Y054500D01*
X032500Y062000D02*
X032502Y062031D01*
X032508Y062062D01*
X032518Y062092D01*
X032531Y062120D01*
X032548Y062147D01*
X032568Y062171D01*
X032591Y062193D01*
X032616Y062211D01*
X032644Y062226D01*
X032673Y062238D01*
X032703Y062246D01*
X032734Y062250D01*
X032766Y062250D01*
X032797Y062246D01*
X032827Y062238D01*
X032856Y062226D01*
X032884Y062211D01*
X032909Y062193D01*
X032932Y062171D01*
X032952Y062147D01*
X032969Y062120D01*
X032982Y062092D01*
X032992Y062062D01*
X032998Y062031D01*
X033000Y062000D01*
X032998Y061969D01*
X032992Y061938D01*
X032982Y061908D01*
X032969Y061880D01*
X032952Y061853D01*
X032932Y061829D01*
X032909Y061807D01*
X032884Y061789D01*
X032856Y061774D01*
X032827Y061762D01*
X032797Y061754D01*
X032766Y061750D01*
X032734Y061750D01*
X032703Y061754D01*
X032673Y061762D01*
X032644Y061774D01*
X032616Y061789D01*
X032591Y061807D01*
X032568Y061829D01*
X032548Y061853D01*
X032531Y061880D01*
X032518Y061908D01*
X032508Y061938D01*
X032502Y061969D01*
X032500Y062000D01*
X032500Y069500D02*
X032502Y069531D01*
X032508Y069562D01*
X032518Y069592D01*
X032531Y069620D01*
X032548Y069647D01*
X032568Y069671D01*
X032591Y069693D01*
X032616Y069711D01*
X032644Y069726D01*
X032673Y069738D01*
X032703Y069746D01*
X032734Y069750D01*
X032766Y069750D01*
X032797Y069746D01*
X032827Y069738D01*
X032856Y069726D01*
X032884Y069711D01*
X032909Y069693D01*
X032932Y069671D01*
X032952Y069647D01*
X032969Y069620D01*
X032982Y069592D01*
X032992Y069562D01*
X032998Y069531D01*
X033000Y069500D01*
X032998Y069469D01*
X032992Y069438D01*
X032982Y069408D01*
X032969Y069380D01*
X032952Y069353D01*
X032932Y069329D01*
X032909Y069307D01*
X032884Y069289D01*
X032856Y069274D01*
X032827Y069262D01*
X032797Y069254D01*
X032766Y069250D01*
X032734Y069250D01*
X032703Y069254D01*
X032673Y069262D01*
X032644Y069274D01*
X032616Y069289D01*
X032591Y069307D01*
X032568Y069329D01*
X032548Y069353D01*
X032531Y069380D01*
X032518Y069408D01*
X032508Y069438D01*
X032502Y069469D01*
X032500Y069500D01*
X040000Y069500D02*
X040002Y069531D01*
X040008Y069562D01*
X040018Y069592D01*
X040031Y069620D01*
X040048Y069647D01*
X040068Y069671D01*
X040091Y069693D01*
X040116Y069711D01*
X040144Y069726D01*
X040173Y069738D01*
X040203Y069746D01*
X040234Y069750D01*
X040266Y069750D01*
X040297Y069746D01*
X040327Y069738D01*
X040356Y069726D01*
X040384Y069711D01*
X040409Y069693D01*
X040432Y069671D01*
X040452Y069647D01*
X040469Y069620D01*
X040482Y069592D01*
X040492Y069562D01*
X040498Y069531D01*
X040500Y069500D01*
X040498Y069469D01*
X040492Y069438D01*
X040482Y069408D01*
X040469Y069380D01*
X040452Y069353D01*
X040432Y069329D01*
X040409Y069307D01*
X040384Y069289D01*
X040356Y069274D01*
X040327Y069262D01*
X040297Y069254D01*
X040266Y069250D01*
X040234Y069250D01*
X040203Y069254D01*
X040173Y069262D01*
X040144Y069274D01*
X040116Y069289D01*
X040091Y069307D01*
X040068Y069329D01*
X040048Y069353D01*
X040031Y069380D01*
X040018Y069408D01*
X040008Y069438D01*
X040002Y069469D01*
X040000Y069500D01*
X040000Y062000D02*
X040002Y062031D01*
X040008Y062062D01*
X040018Y062092D01*
X040031Y062120D01*
X040048Y062147D01*
X040068Y062171D01*
X040091Y062193D01*
X040116Y062211D01*
X040144Y062226D01*
X040173Y062238D01*
X040203Y062246D01*
X040234Y062250D01*
X040266Y062250D01*
X040297Y062246D01*
X040327Y062238D01*
X040356Y062226D01*
X040384Y062211D01*
X040409Y062193D01*
X040432Y062171D01*
X040452Y062147D01*
X040469Y062120D01*
X040482Y062092D01*
X040492Y062062D01*
X040498Y062031D01*
X040500Y062000D01*
X040498Y061969D01*
X040492Y061938D01*
X040482Y061908D01*
X040469Y061880D01*
X040452Y061853D01*
X040432Y061829D01*
X040409Y061807D01*
X040384Y061789D01*
X040356Y061774D01*
X040327Y061762D01*
X040297Y061754D01*
X040266Y061750D01*
X040234Y061750D01*
X040203Y061754D01*
X040173Y061762D01*
X040144Y061774D01*
X040116Y061789D01*
X040091Y061807D01*
X040068Y061829D01*
X040048Y061853D01*
X040031Y061880D01*
X040018Y061908D01*
X040008Y061938D01*
X040002Y061969D01*
X040000Y062000D01*
X040000Y054500D02*
X040002Y054531D01*
X040008Y054562D01*
X040018Y054592D01*
X040031Y054620D01*
X040048Y054647D01*
X040068Y054671D01*
X040091Y054693D01*
X040116Y054711D01*
X040144Y054726D01*
X040173Y054738D01*
X040203Y054746D01*
X040234Y054750D01*
X040266Y054750D01*
X040297Y054746D01*
X040327Y054738D01*
X040356Y054726D01*
X040384Y054711D01*
X040409Y054693D01*
X040432Y054671D01*
X040452Y054647D01*
X040469Y054620D01*
X040482Y054592D01*
X040492Y054562D01*
X040498Y054531D01*
X040500Y054500D01*
X040498Y054469D01*
X040492Y054438D01*
X040482Y054408D01*
X040469Y054380D01*
X040452Y054353D01*
X040432Y054329D01*
X040409Y054307D01*
X040384Y054289D01*
X040356Y054274D01*
X040327Y054262D01*
X040297Y054254D01*
X040266Y054250D01*
X040234Y054250D01*
X040203Y054254D01*
X040173Y054262D01*
X040144Y054274D01*
X040116Y054289D01*
X040091Y054307D01*
X040068Y054329D01*
X040048Y054353D01*
X040031Y054380D01*
X040018Y054408D01*
X040008Y054438D01*
X040002Y054469D01*
X040000Y054500D01*
X040000Y047000D02*
X040002Y047031D01*
X040008Y047062D01*
X040018Y047092D01*
X040031Y047120D01*
X040048Y047147D01*
X040068Y047171D01*
X040091Y047193D01*
X040116Y047211D01*
X040144Y047226D01*
X040173Y047238D01*
X040203Y047246D01*
X040234Y047250D01*
X040266Y047250D01*
X040297Y047246D01*
X040327Y047238D01*
X040356Y047226D01*
X040384Y047211D01*
X040409Y047193D01*
X040432Y047171D01*
X040452Y047147D01*
X040469Y047120D01*
X040482Y047092D01*
X040492Y047062D01*
X040498Y047031D01*
X040500Y047000D01*
X040498Y046969D01*
X040492Y046938D01*
X040482Y046908D01*
X040469Y046880D01*
X040452Y046853D01*
X040432Y046829D01*
X040409Y046807D01*
X040384Y046789D01*
X040356Y046774D01*
X040327Y046762D01*
X040297Y046754D01*
X040266Y046750D01*
X040234Y046750D01*
X040203Y046754D01*
X040173Y046762D01*
X040144Y046774D01*
X040116Y046789D01*
X040091Y046807D01*
X040068Y046829D01*
X040048Y046853D01*
X040031Y046880D01*
X040018Y046908D01*
X040008Y046938D01*
X040002Y046969D01*
X040000Y047000D01*
X047500Y047000D02*
X047502Y047031D01*
X047508Y047062D01*
X047518Y047092D01*
X047531Y047120D01*
X047548Y047147D01*
X047568Y047171D01*
X047591Y047193D01*
X047616Y047211D01*
X047644Y047226D01*
X047673Y047238D01*
X047703Y047246D01*
X047734Y047250D01*
X047766Y047250D01*
X047797Y047246D01*
X047827Y047238D01*
X047856Y047226D01*
X047884Y047211D01*
X047909Y047193D01*
X047932Y047171D01*
X047952Y047147D01*
X047969Y047120D01*
X047982Y047092D01*
X047992Y047062D01*
X047998Y047031D01*
X048000Y047000D01*
X047998Y046969D01*
X047992Y046938D01*
X047982Y046908D01*
X047969Y046880D01*
X047952Y046853D01*
X047932Y046829D01*
X047909Y046807D01*
X047884Y046789D01*
X047856Y046774D01*
X047827Y046762D01*
X047797Y046754D01*
X047766Y046750D01*
X047734Y046750D01*
X047703Y046754D01*
X047673Y046762D01*
X047644Y046774D01*
X047616Y046789D01*
X047591Y046807D01*
X047568Y046829D01*
X047548Y046853D01*
X047531Y046880D01*
X047518Y046908D01*
X047508Y046938D01*
X047502Y046969D01*
X047500Y047000D01*
X047500Y054500D02*
X047502Y054531D01*
X047508Y054562D01*
X047518Y054592D01*
X047531Y054620D01*
X047548Y054647D01*
X047568Y054671D01*
X047591Y054693D01*
X047616Y054711D01*
X047644Y054726D01*
X047673Y054738D01*
X047703Y054746D01*
X047734Y054750D01*
X047766Y054750D01*
X047797Y054746D01*
X047827Y054738D01*
X047856Y054726D01*
X047884Y054711D01*
X047909Y054693D01*
X047932Y054671D01*
X047952Y054647D01*
X047969Y054620D01*
X047982Y054592D01*
X047992Y054562D01*
X047998Y054531D01*
X048000Y054500D01*
X047998Y054469D01*
X047992Y054438D01*
X047982Y054408D01*
X047969Y054380D01*
X047952Y054353D01*
X047932Y054329D01*
X047909Y054307D01*
X047884Y054289D01*
X047856Y054274D01*
X047827Y054262D01*
X047797Y054254D01*
X047766Y054250D01*
X047734Y054250D01*
X047703Y054254D01*
X047673Y054262D01*
X047644Y054274D01*
X047616Y054289D01*
X047591Y054307D01*
X047568Y054329D01*
X047548Y054353D01*
X047531Y054380D01*
X047518Y054408D01*
X047508Y054438D01*
X047502Y054469D01*
X047500Y054500D01*
X047500Y062000D02*
X047502Y062031D01*
X047508Y062062D01*
X047518Y062092D01*
X047531Y062120D01*
X047548Y062147D01*
X047568Y062171D01*
X047591Y062193D01*
X047616Y062211D01*
X047644Y062226D01*
X047673Y062238D01*
X047703Y062246D01*
X047734Y062250D01*
X047766Y062250D01*
X047797Y062246D01*
X047827Y062238D01*
X047856Y062226D01*
X047884Y062211D01*
X047909Y062193D01*
X047932Y062171D01*
X047952Y062147D01*
X047969Y062120D01*
X047982Y062092D01*
X047992Y062062D01*
X047998Y062031D01*
X048000Y062000D01*
X047998Y061969D01*
X047992Y061938D01*
X047982Y061908D01*
X047969Y061880D01*
X047952Y061853D01*
X047932Y061829D01*
X047909Y061807D01*
X047884Y061789D01*
X047856Y061774D01*
X047827Y061762D01*
X047797Y061754D01*
X047766Y061750D01*
X047734Y061750D01*
X047703Y061754D01*
X047673Y061762D01*
X047644Y061774D01*
X047616Y061789D01*
X047591Y061807D01*
X047568Y061829D01*
X047548Y061853D01*
X047531Y061880D01*
X047518Y061908D01*
X047508Y061938D01*
X047502Y061969D01*
X047500Y062000D01*
X047500Y069500D02*
X047502Y069531D01*
X047508Y069562D01*
X047518Y069592D01*
X047531Y069620D01*
X047548Y069647D01*
X047568Y069671D01*
X047591Y069693D01*
X047616Y069711D01*
X047644Y069726D01*
X047673Y069738D01*
X047703Y069746D01*
X047734Y069750D01*
X047766Y069750D01*
X047797Y069746D01*
X047827Y069738D01*
X047856Y069726D01*
X047884Y069711D01*
X047909Y069693D01*
X047932Y069671D01*
X047952Y069647D01*
X047969Y069620D01*
X047982Y069592D01*
X047992Y069562D01*
X047998Y069531D01*
X048000Y069500D01*
X047998Y069469D01*
X047992Y069438D01*
X047982Y069408D01*
X047969Y069380D01*
X047952Y069353D01*
X047932Y069329D01*
X047909Y069307D01*
X047884Y069289D01*
X047856Y069274D01*
X047827Y069262D01*
X047797Y069254D01*
X047766Y069250D01*
X047734Y069250D01*
X047703Y069254D01*
X047673Y069262D01*
X047644Y069274D01*
X047616Y069289D01*
X047591Y069307D01*
X047568Y069329D01*
X047548Y069353D01*
X047531Y069380D01*
X047518Y069408D01*
X047508Y069438D01*
X047502Y069469D01*
X047500Y069500D01*
X055000Y069500D02*
X055002Y069531D01*
X055008Y069562D01*
X055018Y069592D01*
X055031Y069620D01*
X055048Y069647D01*
X055068Y069671D01*
X055091Y069693D01*
X055116Y069711D01*
X055144Y069726D01*
X055173Y069738D01*
X055203Y069746D01*
X055234Y069750D01*
X055266Y069750D01*
X055297Y069746D01*
X055327Y069738D01*
X055356Y069726D01*
X055384Y069711D01*
X055409Y069693D01*
X055432Y069671D01*
X055452Y069647D01*
X055469Y069620D01*
X055482Y069592D01*
X055492Y069562D01*
X055498Y069531D01*
X055500Y069500D01*
X055498Y069469D01*
X055492Y069438D01*
X055482Y069408D01*
X055469Y069380D01*
X055452Y069353D01*
X055432Y069329D01*
X055409Y069307D01*
X055384Y069289D01*
X055356Y069274D01*
X055327Y069262D01*
X055297Y069254D01*
X055266Y069250D01*
X055234Y069250D01*
X055203Y069254D01*
X055173Y069262D01*
X055144Y069274D01*
X055116Y069289D01*
X055091Y069307D01*
X055068Y069329D01*
X055048Y069353D01*
X055031Y069380D01*
X055018Y069408D01*
X055008Y069438D01*
X055002Y069469D01*
X055000Y069500D01*
X055000Y062000D02*
X055002Y062031D01*
X055008Y062062D01*
X055018Y062092D01*
X055031Y062120D01*
X055048Y062147D01*
X055068Y062171D01*
X055091Y062193D01*
X055116Y062211D01*
X055144Y062226D01*
X055173Y062238D01*
X055203Y062246D01*
X055234Y062250D01*
X055266Y062250D01*
X055297Y062246D01*
X055327Y062238D01*
X055356Y062226D01*
X055384Y062211D01*
X055409Y062193D01*
X055432Y062171D01*
X055452Y062147D01*
X055469Y062120D01*
X055482Y062092D01*
X055492Y062062D01*
X055498Y062031D01*
X055500Y062000D01*
X055498Y061969D01*
X055492Y061938D01*
X055482Y061908D01*
X055469Y061880D01*
X055452Y061853D01*
X055432Y061829D01*
X055409Y061807D01*
X055384Y061789D01*
X055356Y061774D01*
X055327Y061762D01*
X055297Y061754D01*
X055266Y061750D01*
X055234Y061750D01*
X055203Y061754D01*
X055173Y061762D01*
X055144Y061774D01*
X055116Y061789D01*
X055091Y061807D01*
X055068Y061829D01*
X055048Y061853D01*
X055031Y061880D01*
X055018Y061908D01*
X055008Y061938D01*
X055002Y061969D01*
X055000Y062000D01*
X055000Y054500D02*
X055002Y054531D01*
X055008Y054562D01*
X055018Y054592D01*
X055031Y054620D01*
X055048Y054647D01*
X055068Y054671D01*
X055091Y054693D01*
X055116Y054711D01*
X055144Y054726D01*
X055173Y054738D01*
X055203Y054746D01*
X055234Y054750D01*
X055266Y054750D01*
X055297Y054746D01*
X055327Y054738D01*
X055356Y054726D01*
X055384Y054711D01*
X055409Y054693D01*
X055432Y054671D01*
X055452Y054647D01*
X055469Y054620D01*
X055482Y054592D01*
X055492Y054562D01*
X055498Y054531D01*
X055500Y054500D01*
X055498Y054469D01*
X055492Y054438D01*
X055482Y054408D01*
X055469Y054380D01*
X055452Y054353D01*
X055432Y054329D01*
X055409Y054307D01*
X055384Y054289D01*
X055356Y054274D01*
X055327Y054262D01*
X055297Y054254D01*
X055266Y054250D01*
X055234Y054250D01*
X055203Y054254D01*
X055173Y054262D01*
X055144Y054274D01*
X055116Y054289D01*
X055091Y054307D01*
X055068Y054329D01*
X055048Y054353D01*
X055031Y054380D01*
X055018Y054408D01*
X055008Y054438D01*
X055002Y054469D01*
X055000Y054500D01*
X055000Y047000D02*
X055002Y047031D01*
X055008Y047062D01*
X055018Y047092D01*
X055031Y047120D01*
X055048Y047147D01*
X055068Y047171D01*
X055091Y047193D01*
X055116Y047211D01*
X055144Y047226D01*
X055173Y047238D01*
X055203Y047246D01*
X055234Y047250D01*
X055266Y047250D01*
X055297Y047246D01*
X055327Y047238D01*
X055356Y047226D01*
X055384Y047211D01*
X055409Y047193D01*
X055432Y047171D01*
X055452Y047147D01*
X055469Y047120D01*
X055482Y047092D01*
X055492Y047062D01*
X055498Y047031D01*
X055500Y047000D01*
X055498Y046969D01*
X055492Y046938D01*
X055482Y046908D01*
X055469Y046880D01*
X055452Y046853D01*
X055432Y046829D01*
X055409Y046807D01*
X055384Y046789D01*
X055356Y046774D01*
X055327Y046762D01*
X055297Y046754D01*
X055266Y046750D01*
X055234Y046750D01*
X055203Y046754D01*
X055173Y046762D01*
X055144Y046774D01*
X055116Y046789D01*
X055091Y046807D01*
X055068Y046829D01*
X055048Y046853D01*
X055031Y046880D01*
X055018Y046908D01*
X055008Y046938D01*
X055002Y046969D01*
X055000Y047000D01*
X062500Y047000D02*
X062502Y047031D01*
X062508Y047062D01*
X062518Y047092D01*
X062531Y047120D01*
X062548Y047147D01*
X062568Y047171D01*
X062591Y047193D01*
X062616Y047211D01*
X062644Y047226D01*
X062673Y047238D01*
X062703Y047246D01*
X062734Y047250D01*
X062766Y047250D01*
X062797Y047246D01*
X062827Y047238D01*
X062856Y047226D01*
X062884Y047211D01*
X062909Y047193D01*
X062932Y047171D01*
X062952Y047147D01*
X062969Y047120D01*
X062982Y047092D01*
X062992Y047062D01*
X062998Y047031D01*
X063000Y047000D01*
X062998Y046969D01*
X062992Y046938D01*
X062982Y046908D01*
X062969Y046880D01*
X062952Y046853D01*
X062932Y046829D01*
X062909Y046807D01*
X062884Y046789D01*
X062856Y046774D01*
X062827Y046762D01*
X062797Y046754D01*
X062766Y046750D01*
X062734Y046750D01*
X062703Y046754D01*
X062673Y046762D01*
X062644Y046774D01*
X062616Y046789D01*
X062591Y046807D01*
X062568Y046829D01*
X062548Y046853D01*
X062531Y046880D01*
X062518Y046908D01*
X062508Y046938D01*
X062502Y046969D01*
X062500Y047000D01*
X062500Y054500D02*
X062502Y054531D01*
X062508Y054562D01*
X062518Y054592D01*
X062531Y054620D01*
X062548Y054647D01*
X062568Y054671D01*
X062591Y054693D01*
X062616Y054711D01*
X062644Y054726D01*
X062673Y054738D01*
X062703Y054746D01*
X062734Y054750D01*
X062766Y054750D01*
X062797Y054746D01*
X062827Y054738D01*
X062856Y054726D01*
X062884Y054711D01*
X062909Y054693D01*
X062932Y054671D01*
X062952Y054647D01*
X062969Y054620D01*
X062982Y054592D01*
X062992Y054562D01*
X062998Y054531D01*
X063000Y054500D01*
X062998Y054469D01*
X062992Y054438D01*
X062982Y054408D01*
X062969Y054380D01*
X062952Y054353D01*
X062932Y054329D01*
X062909Y054307D01*
X062884Y054289D01*
X062856Y054274D01*
X062827Y054262D01*
X062797Y054254D01*
X062766Y054250D01*
X062734Y054250D01*
X062703Y054254D01*
X062673Y054262D01*
X062644Y054274D01*
X062616Y054289D01*
X062591Y054307D01*
X062568Y054329D01*
X062548Y054353D01*
X062531Y054380D01*
X062518Y054408D01*
X062508Y054438D01*
X062502Y054469D01*
X062500Y054500D01*
X062500Y062000D02*
X062502Y062031D01*
X062508Y062062D01*
X062518Y062092D01*
X062531Y062120D01*
X062548Y062147D01*
X062568Y062171D01*
X062591Y062193D01*
X062616Y062211D01*
X062644Y062226D01*
X062673Y062238D01*
X062703Y062246D01*
X062734Y062250D01*
X062766Y062250D01*
X062797Y062246D01*
X062827Y062238D01*
X062856Y062226D01*
X062884Y062211D01*
X062909Y062193D01*
X062932Y062171D01*
X062952Y062147D01*
X062969Y062120D01*
X062982Y062092D01*
X062992Y062062D01*
X062998Y062031D01*
X063000Y062000D01*
X062998Y061969D01*
X062992Y061938D01*
X062982Y061908D01*
X062969Y061880D01*
X062952Y061853D01*
X062932Y061829D01*
X062909Y061807D01*
X062884Y061789D01*
X062856Y061774D01*
X062827Y061762D01*
X062797Y061754D01*
X062766Y061750D01*
X062734Y061750D01*
X062703Y061754D01*
X062673Y061762D01*
X062644Y061774D01*
X062616Y061789D01*
X062591Y061807D01*
X062568Y061829D01*
X062548Y061853D01*
X062531Y061880D01*
X062518Y061908D01*
X062508Y061938D01*
X062502Y061969D01*
X062500Y062000D01*
X062500Y069500D02*
X062502Y069531D01*
X062508Y069562D01*
X062518Y069592D01*
X062531Y069620D01*
X062548Y069647D01*
X062568Y069671D01*
X062591Y069693D01*
X062616Y069711D01*
X062644Y069726D01*
X062673Y069738D01*
X062703Y069746D01*
X062734Y069750D01*
X062766Y069750D01*
X062797Y069746D01*
X062827Y069738D01*
X062856Y069726D01*
X062884Y069711D01*
X062909Y069693D01*
X062932Y069671D01*
X062952Y069647D01*
X062969Y069620D01*
X062982Y069592D01*
X062992Y069562D01*
X062998Y069531D01*
X063000Y069500D01*
X062998Y069469D01*
X062992Y069438D01*
X062982Y069408D01*
X062969Y069380D01*
X062952Y069353D01*
X062932Y069329D01*
X062909Y069307D01*
X062884Y069289D01*
X062856Y069274D01*
X062827Y069262D01*
X062797Y069254D01*
X062766Y069250D01*
X062734Y069250D01*
X062703Y069254D01*
X062673Y069262D01*
X062644Y069274D01*
X062616Y069289D01*
X062591Y069307D01*
X062568Y069329D01*
X062548Y069353D01*
X062531Y069380D01*
X062518Y069408D01*
X062508Y069438D01*
X062502Y069469D01*
X062500Y069500D01*
X070000Y069500D02*
X070002Y069531D01*
X070008Y069562D01*
X070018Y069592D01*
X070031Y069620D01*
X070048Y069647D01*
X070068Y069671D01*
X070091Y069693D01*
X070116Y069711D01*
X070144Y069726D01*
X070173Y069738D01*
X070203Y069746D01*
X070234Y069750D01*
X070266Y069750D01*
X070297Y069746D01*
X070327Y069738D01*
X070356Y069726D01*
X070384Y069711D01*
X070409Y069693D01*
X070432Y069671D01*
X070452Y069647D01*
X070469Y069620D01*
X070482Y069592D01*
X070492Y069562D01*
X070498Y069531D01*
X070500Y069500D01*
X070498Y069469D01*
X070492Y069438D01*
X070482Y069408D01*
X070469Y069380D01*
X070452Y069353D01*
X070432Y069329D01*
X070409Y069307D01*
X070384Y069289D01*
X070356Y069274D01*
X070327Y069262D01*
X070297Y069254D01*
X070266Y069250D01*
X070234Y069250D01*
X070203Y069254D01*
X070173Y069262D01*
X070144Y069274D01*
X070116Y069289D01*
X070091Y069307D01*
X070068Y069329D01*
X070048Y069353D01*
X070031Y069380D01*
X070018Y069408D01*
X070008Y069438D01*
X070002Y069469D01*
X070000Y069500D01*
X070000Y062000D02*
X070002Y062031D01*
X070008Y062062D01*
X070018Y062092D01*
X070031Y062120D01*
X070048Y062147D01*
X070068Y062171D01*
X070091Y062193D01*
X070116Y062211D01*
X070144Y062226D01*
X070173Y062238D01*
X070203Y062246D01*
X070234Y062250D01*
X070266Y062250D01*
X070297Y062246D01*
X070327Y062238D01*
X070356Y062226D01*
X070384Y062211D01*
X070409Y062193D01*
X070432Y062171D01*
X070452Y062147D01*
X070469Y062120D01*
X070482Y062092D01*
X070492Y062062D01*
X070498Y062031D01*
X070500Y062000D01*
X070498Y061969D01*
X070492Y061938D01*
X070482Y061908D01*
X070469Y061880D01*
X070452Y061853D01*
X070432Y061829D01*
X070409Y061807D01*
X070384Y061789D01*
X070356Y061774D01*
X070327Y061762D01*
X070297Y061754D01*
X070266Y061750D01*
X070234Y061750D01*
X070203Y061754D01*
X070173Y061762D01*
X070144Y061774D01*
X070116Y061789D01*
X070091Y061807D01*
X070068Y061829D01*
X070048Y061853D01*
X070031Y061880D01*
X070018Y061908D01*
X070008Y061938D01*
X070002Y061969D01*
X070000Y062000D01*
X070000Y054500D02*
X070002Y054531D01*
X070008Y054562D01*
X070018Y054592D01*
X070031Y054620D01*
X070048Y054647D01*
X070068Y054671D01*
X070091Y054693D01*
X070116Y054711D01*
X070144Y054726D01*
X070173Y054738D01*
X070203Y054746D01*
X070234Y054750D01*
X070266Y054750D01*
X070297Y054746D01*
X070327Y054738D01*
X070356Y054726D01*
X070384Y054711D01*
X070409Y054693D01*
X070432Y054671D01*
X070452Y054647D01*
X070469Y054620D01*
X070482Y054592D01*
X070492Y054562D01*
X070498Y054531D01*
X070500Y054500D01*
X070498Y054469D01*
X070492Y054438D01*
X070482Y054408D01*
X070469Y054380D01*
X070452Y054353D01*
X070432Y054329D01*
X070409Y054307D01*
X070384Y054289D01*
X070356Y054274D01*
X070327Y054262D01*
X070297Y054254D01*
X070266Y054250D01*
X070234Y054250D01*
X070203Y054254D01*
X070173Y054262D01*
X070144Y054274D01*
X070116Y054289D01*
X070091Y054307D01*
X070068Y054329D01*
X070048Y054353D01*
X070031Y054380D01*
X070018Y054408D01*
X070008Y054438D01*
X070002Y054469D01*
X070000Y054500D01*
X070000Y047000D02*
X070002Y047031D01*
X070008Y047062D01*
X070018Y047092D01*
X070031Y047120D01*
X070048Y047147D01*
X070068Y047171D01*
X070091Y047193D01*
X070116Y047211D01*
X070144Y047226D01*
X070173Y047238D01*
X070203Y047246D01*
X070234Y047250D01*
X070266Y047250D01*
X070297Y047246D01*
X070327Y047238D01*
X070356Y047226D01*
X070384Y047211D01*
X070409Y047193D01*
X070432Y047171D01*
X070452Y047147D01*
X070469Y047120D01*
X070482Y047092D01*
X070492Y047062D01*
X070498Y047031D01*
X070500Y047000D01*
X070498Y046969D01*
X070492Y046938D01*
X070482Y046908D01*
X070469Y046880D01*
X070452Y046853D01*
X070432Y046829D01*
X070409Y046807D01*
X070384Y046789D01*
X070356Y046774D01*
X070327Y046762D01*
X070297Y046754D01*
X070266Y046750D01*
X070234Y046750D01*
X070203Y046754D01*
X070173Y046762D01*
X070144Y046774D01*
X070116Y046789D01*
X070091Y046807D01*
X070068Y046829D01*
X070048Y046853D01*
X070031Y046880D01*
X070018Y046908D01*
X070008Y046938D01*
X070002Y046969D01*
X070000Y047000D01*
D17*
X072750Y048000D03*
X065750Y040750D03*
X064750Y040750D03*
X063750Y040750D03*
X062750Y040750D03*
X065250Y048000D03*
X065250Y055500D03*
X065250Y063000D03*
X065250Y070500D03*
X066500Y076750D03*
X067500Y076750D03*
X068500Y076750D03*
X069500Y076750D03*
X072750Y070500D03*
X072750Y063000D03*
X072750Y055500D03*
X057750Y055500D03*
X057750Y048000D03*
X050750Y040750D03*
X049750Y040750D03*
X048750Y040750D03*
X047750Y040750D03*
X050250Y048000D03*
X050250Y055500D03*
X050250Y063000D03*
X050250Y070500D03*
X051500Y076750D03*
X052500Y076750D03*
X053500Y076750D03*
X054500Y076750D03*
X057750Y070500D03*
X057750Y063000D03*
X042750Y063000D03*
X042750Y070500D03*
X039500Y076750D03*
X038500Y076750D03*
X037500Y076750D03*
X036500Y076750D03*
X035250Y070500D03*
X035250Y063000D03*
X027750Y063000D03*
X027750Y070500D03*
X024500Y076750D03*
X023500Y076750D03*
X022500Y076750D03*
X021500Y076750D03*
X020250Y070500D03*
X020250Y063000D03*
X020250Y055500D03*
X020250Y048000D03*
X012750Y048000D03*
X012750Y055500D03*
X012750Y063000D03*
X012750Y070500D03*
X009500Y076750D03*
X008500Y076750D03*
X007500Y076750D03*
X006500Y076750D03*
X005250Y070500D03*
X005250Y063000D03*
X005250Y055500D03*
X005250Y048000D03*
X004750Y040750D03*
X003750Y040750D03*
X002750Y040750D03*
X005750Y040750D03*
X005250Y025250D03*
X005250Y017750D03*
X005250Y010250D03*
X005250Y002750D03*
X012750Y002750D03*
X012750Y010250D03*
X012750Y017750D03*
X012750Y025250D03*
X020250Y025250D03*
X020250Y017750D03*
X020250Y010250D03*
X020250Y002750D03*
X027750Y002750D03*
X035250Y002750D03*
X035250Y010250D03*
X027750Y010250D03*
X027750Y017750D03*
X027750Y025250D03*
X035250Y025250D03*
X035250Y017750D03*
X042750Y017750D03*
X042750Y025250D03*
X050250Y025250D03*
X050250Y017750D03*
X050250Y010250D03*
X050250Y002750D03*
X042750Y002750D03*
X042750Y010250D03*
X057750Y010250D03*
X057750Y002750D03*
X065250Y002750D03*
X065250Y010250D03*
X065250Y017750D03*
X065250Y025250D03*
X057750Y025250D03*
X057750Y017750D03*
X072750Y017750D03*
X072750Y025250D03*
X072750Y010250D03*
X072750Y002750D03*
X035750Y040750D03*
X034750Y040750D03*
X033750Y040750D03*
X032750Y040750D03*
X026750Y034750D03*
X025750Y034750D03*
X027750Y048000D03*
X035250Y048000D03*
X035250Y055500D03*
X027750Y055500D03*
X042750Y055500D03*
X042750Y048000D03*
D18*
X040327Y047000D02*
X039773Y047000D01*
X032827Y047000D02*
X032273Y047000D01*
X025327Y047000D02*
X024773Y047000D01*
X017827Y047000D02*
X017273Y047000D01*
X010327Y047000D02*
X009773Y047000D01*
X002827Y047000D02*
X002273Y047000D01*
X002273Y054500D02*
X002827Y054500D01*
X002827Y062000D02*
X002273Y062000D01*
X002273Y069500D02*
X002827Y069500D01*
X009773Y069500D02*
X010327Y069500D01*
X017273Y069500D02*
X017827Y069500D01*
X024773Y069500D02*
X025327Y069500D01*
X032273Y069500D02*
X032827Y069500D01*
X039773Y069500D02*
X040327Y069500D01*
X047273Y069500D02*
X047827Y069500D01*
X054773Y069500D02*
X055327Y069500D01*
X062273Y069500D02*
X062827Y069500D01*
X069773Y069500D02*
X070327Y069500D01*
X070327Y062000D02*
X069773Y062000D01*
X062827Y062000D02*
X062273Y062000D01*
X055327Y062000D02*
X054773Y062000D01*
X047827Y062000D02*
X047273Y062000D01*
X040327Y062000D02*
X039773Y062000D01*
X032827Y062000D02*
X032273Y062000D01*
X025327Y062000D02*
X024773Y062000D01*
X024773Y054500D02*
X025327Y054500D01*
X032273Y054500D02*
X032827Y054500D01*
X039773Y054500D02*
X040327Y054500D01*
X047273Y054500D02*
X047827Y054500D01*
X054773Y054500D02*
X055327Y054500D01*
X062273Y054500D02*
X062827Y054500D01*
X069773Y054500D02*
X070327Y054500D01*
X070327Y047000D02*
X069773Y047000D01*
X062827Y047000D02*
X062273Y047000D01*
X055327Y047000D02*
X054773Y047000D01*
X047827Y047000D02*
X047273Y047000D01*
X047273Y024250D02*
X047827Y024250D01*
X054773Y024250D02*
X055327Y024250D01*
X062273Y024250D02*
X062827Y024250D01*
X069773Y024250D02*
X070327Y024250D01*
X070327Y016750D02*
X069773Y016750D01*
X062827Y016750D02*
X062273Y016750D01*
X055327Y016750D02*
X054773Y016750D01*
X047827Y016750D02*
X047273Y016750D01*
X040327Y016750D02*
X039773Y016750D01*
X032827Y016750D02*
X032273Y016750D01*
X025327Y016750D02*
X024773Y016750D01*
X024773Y009250D02*
X025327Y009250D01*
X032273Y009250D02*
X032827Y009250D01*
X039773Y009250D02*
X040327Y009250D01*
X047273Y009250D02*
X047827Y009250D01*
X054773Y009250D02*
X055327Y009250D01*
X062273Y009250D02*
X062827Y009250D01*
X069773Y009250D02*
X070327Y009250D01*
X070327Y001750D02*
X069773Y001750D01*
X062827Y001750D02*
X062273Y001750D01*
X055327Y001750D02*
X054773Y001750D01*
X047827Y001750D02*
X047273Y001750D01*
X040327Y001750D02*
X039773Y001750D01*
X032827Y001750D02*
X032273Y001750D01*
X025327Y001750D02*
X024773Y001750D01*
X017827Y001750D02*
X017273Y001750D01*
X010327Y001750D02*
X009773Y001750D01*
X002827Y001750D02*
X002273Y001750D01*
X002273Y009250D02*
X002827Y009250D01*
X002827Y016750D02*
X002273Y016750D01*
X002273Y024250D02*
X002827Y024250D01*
X009773Y024250D02*
X010327Y024250D01*
X017273Y024250D02*
X017827Y024250D01*
X024773Y024250D02*
X025327Y024250D01*
X032273Y024250D02*
X032827Y024250D01*
X039773Y024250D02*
X040327Y024250D01*
X017827Y016750D02*
X017273Y016750D01*
X017273Y009250D02*
X017827Y009250D01*
X010327Y009250D02*
X009773Y009250D01*
X009773Y016750D02*
X010327Y016750D01*
X010327Y054500D02*
X009773Y054500D01*
X009773Y062000D02*
X010327Y062000D01*
X017273Y062000D02*
X017827Y062000D01*
X017827Y054500D02*
X017273Y054500D01*
D19*
X017100Y056500D03*
X020350Y056500D03*
X024600Y056500D03*
X027850Y056500D03*
X032100Y056500D03*
X035350Y056500D03*
X039600Y056500D03*
X042850Y056500D03*
X047100Y056500D03*
X050350Y056500D03*
X054600Y056500D03*
X057850Y056500D03*
X062100Y056500D03*
X065350Y056500D03*
X069600Y056500D03*
X072850Y056500D03*
X072850Y049000D03*
X069600Y049000D03*
X065350Y049000D03*
X062100Y049000D03*
X057850Y049000D03*
X054600Y049000D03*
X050350Y049000D03*
X047100Y049000D03*
X042850Y049000D03*
X039600Y049000D03*
X035350Y049000D03*
X032100Y049000D03*
X027850Y049000D03*
X024600Y049000D03*
X020350Y049000D03*
X017100Y049000D03*
X012850Y049000D03*
X009600Y049000D03*
X005350Y049000D03*
X002100Y049000D03*
X002100Y056500D03*
X005350Y056500D03*
X009600Y056500D03*
X012850Y056500D03*
X012850Y064000D03*
X009600Y064000D03*
X005350Y064000D03*
X002100Y064000D03*
X002100Y071500D03*
X005350Y071500D03*
X009600Y071500D03*
X012850Y071500D03*
X017100Y071500D03*
X020350Y071500D03*
X024600Y071500D03*
X027850Y071500D03*
X032100Y071500D03*
X035350Y071500D03*
X039600Y071500D03*
X042850Y071500D03*
X047100Y071500D03*
X050350Y071500D03*
X054600Y071500D03*
X057850Y071500D03*
X062100Y071500D03*
X065350Y071500D03*
X069600Y071500D03*
X072850Y071500D03*
X072850Y064000D03*
X069600Y064000D03*
X065350Y064000D03*
X062100Y064000D03*
X057850Y064000D03*
X054600Y064000D03*
X050350Y064000D03*
X047100Y064000D03*
X042850Y064000D03*
X039600Y064000D03*
X035350Y064000D03*
X032100Y064000D03*
X027850Y064000D03*
X024600Y064000D03*
X020350Y064000D03*
X017100Y064000D03*
X017100Y026250D03*
X020350Y026250D03*
X024600Y026250D03*
X027850Y026250D03*
X032100Y026250D03*
X035350Y026250D03*
X039600Y026250D03*
X042850Y026250D03*
X047100Y026250D03*
X050350Y026250D03*
X054600Y026250D03*
X057850Y026250D03*
X062100Y026250D03*
X065350Y026250D03*
X069600Y026250D03*
X072850Y026250D03*
X072850Y018750D03*
X069600Y018750D03*
X065350Y018750D03*
X062100Y018750D03*
X057850Y018750D03*
X054600Y018750D03*
X050350Y018750D03*
X047100Y018750D03*
X042850Y018750D03*
X039600Y018750D03*
X035350Y018750D03*
X032100Y018750D03*
X027850Y018750D03*
X024600Y018750D03*
X020350Y018750D03*
X017100Y018750D03*
X012850Y018750D03*
X009600Y018750D03*
X005350Y018750D03*
X002100Y018750D03*
X002100Y026250D03*
X005350Y026250D03*
X009600Y026250D03*
X012850Y026250D03*
X012850Y011250D03*
X009600Y011250D03*
X005350Y011250D03*
X002100Y011250D03*
X002100Y003750D03*
X005350Y003750D03*
X009600Y003750D03*
X012850Y003750D03*
X017100Y003750D03*
X020350Y003750D03*
X024600Y003750D03*
X027850Y003750D03*
X032100Y003750D03*
X035350Y003750D03*
X039600Y003750D03*
X042850Y003750D03*
X047100Y003750D03*
X050350Y003750D03*
X054600Y003750D03*
X057850Y003750D03*
X062100Y003750D03*
X065350Y003750D03*
X069600Y003750D03*
X072850Y003750D03*
X072850Y011250D03*
X069600Y011250D03*
X065350Y011250D03*
X062100Y011250D03*
X057850Y011250D03*
X054600Y011250D03*
X050350Y011250D03*
X047100Y011250D03*
X042850Y011250D03*
X039600Y011250D03*
X035350Y011250D03*
X032100Y011250D03*
X027850Y011250D03*
X024600Y011250D03*
X020350Y011250D03*
X017100Y011250D03*
D20*
X018250Y012750D03*
X019250Y012750D03*
X020250Y009250D03*
X019250Y005250D03*
X018250Y005250D03*
X020250Y001750D03*
X025750Y005250D03*
X026750Y005250D03*
X027750Y001750D03*
X033250Y005250D03*
X034250Y005250D03*
X035250Y001750D03*
X040750Y005250D03*
X041750Y005250D03*
X042750Y001750D03*
X048250Y005250D03*
X049250Y005250D03*
X050250Y001750D03*
X055750Y005250D03*
X056750Y005250D03*
X057750Y001750D03*
X063250Y005250D03*
X064250Y005250D03*
X065250Y001750D03*
X070750Y005250D03*
X071750Y005250D03*
X072750Y001750D03*
X072750Y009250D03*
X071750Y012750D03*
X070750Y012750D03*
X072750Y016750D03*
X071750Y020250D03*
X070750Y020250D03*
X072750Y024250D03*
X071750Y027750D03*
X070750Y027750D03*
X065250Y024250D03*
X064250Y027750D03*
X063250Y027750D03*
X057750Y024250D03*
X056750Y027750D03*
X055750Y027750D03*
X050250Y024250D03*
X049250Y027750D03*
X048250Y027750D03*
X042750Y024250D03*
X041750Y027750D03*
X040750Y027750D03*
X035250Y024250D03*
X034250Y027750D03*
X033250Y027750D03*
X027750Y024250D03*
X026750Y027750D03*
X025750Y027750D03*
X020250Y024250D03*
X019250Y027750D03*
X018250Y027750D03*
X012750Y024250D03*
X011750Y027750D03*
X010750Y027750D03*
X005250Y024250D03*
X004250Y027750D03*
X003250Y027750D03*
X003250Y020250D03*
X004250Y020250D03*
X005250Y016750D03*
X004250Y012750D03*
X003250Y012750D03*
X005250Y009250D03*
X004250Y005250D03*
X003250Y005250D03*
X005250Y001750D03*
X010750Y005250D03*
X011750Y005250D03*
X012750Y001750D03*
X012750Y009250D03*
X011750Y012750D03*
X010750Y012750D03*
X012750Y016750D03*
X011750Y020250D03*
X010750Y020250D03*
X018250Y020250D03*
X019250Y020250D03*
X020250Y016750D03*
X025750Y020250D03*
X026750Y020250D03*
X027750Y016750D03*
X026750Y012750D03*
X025750Y012750D03*
X027750Y009250D03*
X033250Y012750D03*
X034250Y012750D03*
X035250Y009250D03*
X040750Y012750D03*
X041750Y012750D03*
X042750Y009250D03*
X048250Y012750D03*
X049250Y012750D03*
X050250Y009250D03*
X055750Y012750D03*
X056750Y012750D03*
X057750Y009250D03*
X063250Y012750D03*
X064250Y012750D03*
X065250Y009250D03*
X065250Y016750D03*
X064250Y020250D03*
X063250Y020250D03*
X057750Y016750D03*
X056750Y020250D03*
X055750Y020250D03*
X050250Y016750D03*
X049250Y020250D03*
X048250Y020250D03*
X042750Y016750D03*
X041750Y020250D03*
X040750Y020250D03*
X035250Y016750D03*
X034250Y020250D03*
X033250Y020250D03*
X035250Y047000D03*
X034250Y050500D03*
X033250Y050500D03*
X035250Y054500D03*
X034250Y058000D03*
X033250Y058000D03*
X035250Y062000D03*
X034250Y065500D03*
X033250Y065500D03*
X035250Y069500D03*
X034250Y073000D03*
X033250Y073000D03*
X027750Y069500D03*
X026750Y073000D03*
X025750Y073000D03*
X020250Y069500D03*
X019250Y073000D03*
X018250Y073000D03*
X012750Y069500D03*
X011750Y073000D03*
X010750Y073000D03*
X005250Y069500D03*
X004250Y073000D03*
X003250Y073000D03*
X003250Y065500D03*
X004250Y065500D03*
X005250Y062000D03*
X004250Y058000D03*
X003250Y058000D03*
X005250Y054500D03*
X004250Y050500D03*
X003250Y050500D03*
X005250Y047000D03*
X010750Y050500D03*
X011750Y050500D03*
X012750Y047000D03*
X018250Y050500D03*
X019250Y050500D03*
X020250Y047000D03*
X025750Y050500D03*
X026750Y050500D03*
X027750Y047000D03*
X027750Y054500D03*
X026750Y058000D03*
X025750Y058000D03*
X027750Y062000D03*
X026750Y065500D03*
X025750Y065500D03*
X020250Y062000D03*
X019250Y065500D03*
X018250Y065500D03*
X012750Y062000D03*
X011750Y065500D03*
X010750Y065500D03*
X010750Y058000D03*
X011750Y058000D03*
X012750Y054500D03*
X018250Y058000D03*
X019250Y058000D03*
X020250Y054500D03*
X040750Y058000D03*
X041750Y058000D03*
X042750Y054500D03*
X041750Y050500D03*
X040750Y050500D03*
X042750Y047000D03*
X048250Y050500D03*
X049250Y050500D03*
X050250Y047000D03*
X055750Y050500D03*
X056750Y050500D03*
X057750Y047000D03*
X063250Y050500D03*
X064250Y050500D03*
X065250Y047000D03*
X070750Y050500D03*
X071750Y050500D03*
X072750Y047000D03*
X072750Y054500D03*
X071750Y058000D03*
X070750Y058000D03*
X072750Y062000D03*
X071750Y065500D03*
X070750Y065500D03*
X072750Y069500D03*
X071750Y073000D03*
X070750Y073000D03*
X065250Y069500D03*
X064250Y073000D03*
X063250Y073000D03*
X057750Y069500D03*
X056750Y073000D03*
X055750Y073000D03*
X050250Y069500D03*
X049250Y073000D03*
X048250Y073000D03*
X042750Y069500D03*
X041750Y073000D03*
X040750Y073000D03*
X040750Y065500D03*
X041750Y065500D03*
X042750Y062000D03*
X048250Y065500D03*
X049250Y065500D03*
X050250Y062000D03*
X049250Y058000D03*
X048250Y058000D03*
X050250Y054500D03*
X055750Y058000D03*
X056750Y058000D03*
X057750Y054500D03*
X063250Y058000D03*
X064250Y058000D03*
X065250Y054500D03*
X065250Y062000D03*
X064250Y065500D03*
X063250Y065500D03*
X057750Y062000D03*
X056750Y065500D03*
X055750Y065500D03*
D21*
X056710Y039500D03*
X056710Y039000D03*
X056710Y038500D03*
X056710Y038000D03*
X056710Y037500D03*
X056710Y037000D03*
X056710Y036500D03*
X056710Y036000D03*
X054290Y036000D03*
X054290Y036500D03*
X054290Y037000D03*
X054290Y037500D03*
X054290Y038000D03*
X054290Y038500D03*
X054290Y039000D03*
X054290Y039500D03*
X049960Y039500D03*
X049960Y039000D03*
X049960Y038500D03*
X049960Y038000D03*
X049960Y037500D03*
X049960Y037000D03*
X049960Y036500D03*
X049960Y036000D03*
X047540Y036000D03*
X047540Y036500D03*
X047540Y037000D03*
X047540Y037500D03*
X047540Y038000D03*
X047540Y038500D03*
X047540Y039000D03*
X047540Y039500D03*
X041710Y039500D03*
X041710Y039000D03*
X041710Y038500D03*
X041710Y038000D03*
X041710Y037500D03*
X041710Y037000D03*
X041710Y036500D03*
X041710Y036000D03*
X039290Y036000D03*
X039290Y036500D03*
X039290Y037000D03*
X039290Y037500D03*
X039290Y038000D03*
X039290Y038500D03*
X039290Y039000D03*
X039290Y039500D03*
X034960Y039500D03*
X034960Y039000D03*
X034960Y038500D03*
X034960Y038000D03*
X034960Y037500D03*
X034960Y037000D03*
X034960Y036500D03*
X034960Y036000D03*
X032540Y036000D03*
X032540Y036500D03*
X032540Y037000D03*
X032540Y037500D03*
X032540Y038000D03*
X032540Y038500D03*
X032540Y039000D03*
X032540Y039500D03*
X026710Y039500D03*
X026710Y039000D03*
X026710Y038500D03*
X026710Y038000D03*
X026710Y037500D03*
X026710Y037000D03*
X026710Y036500D03*
X026710Y036000D03*
X024290Y036000D03*
X024290Y036500D03*
X024290Y037000D03*
X024290Y037500D03*
X024290Y038000D03*
X024290Y038500D03*
X024290Y039000D03*
X024290Y039500D03*
X019960Y039500D03*
X019960Y039000D03*
X019960Y038500D03*
X019960Y038000D03*
X019960Y037500D03*
X019960Y037000D03*
X019960Y036500D03*
X019960Y036000D03*
X017540Y036000D03*
X017540Y036500D03*
X017540Y037000D03*
X017540Y037500D03*
X017540Y038000D03*
X017540Y038500D03*
X017540Y039000D03*
X017540Y039500D03*
X011710Y039500D03*
X011710Y039000D03*
X011710Y038500D03*
X011710Y038000D03*
X011710Y037500D03*
X011710Y037000D03*
X011710Y036500D03*
X011710Y036000D03*
X009290Y036000D03*
X009290Y036500D03*
X009290Y037000D03*
X009290Y037500D03*
X009290Y038000D03*
X009290Y038500D03*
X009290Y039000D03*
X009290Y039500D03*
X004960Y039500D03*
X004960Y039000D03*
X004960Y038500D03*
X004960Y038000D03*
X004960Y037500D03*
X004960Y037000D03*
X004960Y036500D03*
X004960Y036000D03*
X002540Y036000D03*
X002540Y036500D03*
X002540Y037000D03*
X002540Y037500D03*
X002540Y038000D03*
X002540Y038500D03*
X002540Y039000D03*
X002540Y039500D03*
X062540Y039500D03*
X062540Y039000D03*
X062540Y038500D03*
X062540Y038000D03*
X062540Y037500D03*
X062540Y037000D03*
X062540Y036500D03*
X062540Y036000D03*
X064960Y036000D03*
X064960Y036500D03*
X064960Y037000D03*
X064960Y037500D03*
X064960Y038000D03*
X064960Y038500D03*
X064960Y039000D03*
X064960Y039500D03*
X069290Y039500D03*
X069290Y039000D03*
X069290Y038500D03*
X069290Y038000D03*
X069290Y037500D03*
X069290Y037000D03*
X069290Y036500D03*
X069290Y036000D03*
X071710Y036000D03*
X071710Y036500D03*
X071710Y037000D03*
X071710Y037500D03*
X071710Y038000D03*
X071710Y038500D03*
X071710Y039000D03*
X071710Y039500D03*
D22*
X072000Y044010D02*
X072000Y044490D01*
X071000Y044490D02*
X071000Y044010D01*
X070000Y044010D02*
X070000Y044490D01*
X069000Y044490D02*
X069000Y044010D01*
X068000Y044010D02*
X068000Y044490D01*
X067000Y044490D02*
X067000Y044010D01*
X066000Y044010D02*
X066000Y044490D01*
X065000Y044490D02*
X065000Y044010D01*
X064000Y044010D02*
X064000Y044490D01*
X057000Y042240D02*
X057000Y041760D01*
X056000Y041760D02*
X056000Y042240D01*
X055000Y042240D02*
X055000Y041760D01*
X054000Y041760D02*
X054000Y042240D01*
X053000Y042240D02*
X053000Y041760D01*
X052000Y041760D02*
X052000Y042240D01*
X051000Y042240D02*
X051000Y041760D01*
X050000Y041760D02*
X050000Y042240D01*
X049000Y042240D02*
X049000Y041760D01*
X042000Y041760D02*
X042000Y042240D01*
X041000Y042240D02*
X041000Y041760D01*
X040000Y041760D02*
X040000Y042240D01*
X039000Y042240D02*
X039000Y041760D01*
X038000Y041760D02*
X038000Y042240D01*
X037000Y042240D02*
X037000Y041760D01*
X036000Y041760D02*
X036000Y042240D01*
X035000Y042240D02*
X035000Y041760D01*
X034000Y041760D02*
X034000Y042240D01*
X027000Y042240D02*
X027000Y041760D01*
X026000Y041760D02*
X026000Y042240D01*
X025000Y042240D02*
X025000Y041760D01*
X024000Y041760D02*
X024000Y042240D01*
X023000Y042240D02*
X023000Y041760D01*
X022000Y041760D02*
X022000Y042240D01*
X021000Y042240D02*
X021000Y041760D01*
X020000Y041760D02*
X020000Y042240D01*
X019000Y042240D02*
X019000Y041760D01*
X012000Y041760D02*
X012000Y042240D01*
X011000Y042240D02*
X011000Y041760D01*
X010000Y041760D02*
X010000Y042240D01*
X009000Y042240D02*
X009000Y041760D01*
X008000Y041760D02*
X008000Y042240D01*
X007000Y042240D02*
X007000Y041760D01*
X006000Y041760D02*
X006000Y042240D01*
X005000Y042240D02*
X005000Y041760D01*
X004000Y041760D02*
X004000Y042240D01*
X004000Y033740D02*
X004000Y033260D01*
X005000Y033260D02*
X005000Y033740D01*
X006000Y033740D02*
X006000Y033260D01*
X007000Y033260D02*
X007000Y033740D01*
X008000Y033740D02*
X008000Y033260D01*
X009000Y033260D02*
X009000Y033740D01*
X010000Y033740D02*
X010000Y033260D01*
X011000Y033260D02*
X011000Y033740D01*
X012000Y033740D02*
X012000Y033260D01*
X019000Y033260D02*
X019000Y033740D01*
X020000Y033740D02*
X020000Y033260D01*
X021000Y033260D02*
X021000Y033740D01*
X022000Y033740D02*
X022000Y033260D01*
X023000Y033260D02*
X023000Y033740D01*
X024000Y033740D02*
X024000Y033260D01*
X025000Y033260D02*
X025000Y033740D01*
X026000Y033740D02*
X026000Y033260D01*
X027000Y033260D02*
X027000Y033740D01*
X034000Y033740D02*
X034000Y033260D01*
X035000Y033260D02*
X035000Y033740D01*
X036000Y033740D02*
X036000Y033260D01*
X037000Y033260D02*
X037000Y033740D01*
X038000Y033740D02*
X038000Y033260D01*
X039000Y033260D02*
X039000Y033740D01*
X040000Y033740D02*
X040000Y033260D01*
X041000Y033260D02*
X041000Y033740D01*
X042000Y033740D02*
X042000Y033260D01*
X049000Y033260D02*
X049000Y033740D01*
X050000Y033740D02*
X050000Y033260D01*
X051000Y033260D02*
X051000Y033740D01*
X052000Y033740D02*
X052000Y033260D01*
X053000Y033260D02*
X053000Y033740D01*
X054000Y033740D02*
X054000Y033260D01*
X055000Y033260D02*
X055000Y033740D01*
X056000Y033740D02*
X056000Y033260D01*
X057000Y033260D02*
X057000Y033740D01*
X064000Y031240D02*
X064000Y030760D01*
X065000Y030760D02*
X065000Y031240D01*
X066000Y031240D02*
X066000Y030760D01*
X067000Y030760D02*
X067000Y031240D01*
X068000Y031240D02*
X068000Y030760D01*
X069000Y030760D02*
X069000Y031240D01*
X070000Y031240D02*
X070000Y030760D01*
X071000Y030760D02*
X071000Y031240D01*
X072000Y031240D02*
X072000Y030760D01*
X021750Y071510D02*
X021750Y071990D01*
X021750Y073510D02*
X021750Y073990D01*
D23*
X023250Y073500D03*
X023250Y071500D03*
X026500Y076000D03*
X025750Y076750D03*
X027750Y076750D03*
X028500Y076000D03*
X030750Y073500D03*
X030750Y071500D03*
X030750Y066000D03*
X030750Y064000D03*
X030750Y058500D03*
X030750Y056500D03*
X030750Y049500D03*
X030750Y047500D03*
X023250Y049000D03*
X023250Y051000D03*
X023250Y056500D03*
X023250Y058500D03*
X023250Y063250D03*
X023250Y065250D03*
X023750Y066000D03*
X021750Y066000D03*
X015750Y066000D03*
X015750Y064000D03*
X015750Y058500D03*
X015750Y056500D03*
X015750Y049500D03*
X015750Y047500D03*
X008250Y049000D03*
X008250Y051000D03*
X008250Y056500D03*
X008250Y058500D03*
X008250Y064000D03*
X008250Y066000D03*
X008250Y071500D03*
X008250Y073500D03*
X000750Y073500D03*
X000750Y071500D03*
X000500Y066000D03*
X000500Y064000D03*
X000500Y058500D03*
X000500Y056500D03*
X000500Y049500D03*
X000500Y047500D03*
X000750Y029500D03*
X000750Y027500D03*
X000750Y022750D03*
X000750Y020750D03*
X000750Y015250D03*
X000750Y013250D03*
X000750Y007750D03*
X000750Y005750D03*
X008250Y005750D03*
X008250Y007750D03*
X008250Y013250D03*
X008250Y015250D03*
X008250Y020750D03*
X008250Y022750D03*
X008250Y027500D03*
X008250Y029500D03*
X015750Y029500D03*
X015750Y027500D03*
X015750Y022750D03*
X015750Y020750D03*
X015750Y015250D03*
X015750Y013250D03*
X015750Y007750D03*
X015750Y005750D03*
X023250Y005750D03*
X023250Y007750D03*
X023250Y013250D03*
X023250Y015250D03*
X023250Y020750D03*
X023250Y022750D03*
X023250Y027500D03*
X023250Y029500D03*
X030750Y029500D03*
X030750Y027500D03*
X030750Y022750D03*
X030750Y020750D03*
X030750Y015250D03*
X030750Y013250D03*
X030750Y007750D03*
X030750Y005750D03*
X038250Y005750D03*
X038250Y007750D03*
X038250Y013250D03*
X038250Y015250D03*
X038250Y020750D03*
X038250Y022750D03*
X038250Y027500D03*
X038250Y029500D03*
X045750Y029500D03*
X045750Y027500D03*
X045750Y022750D03*
X045750Y020750D03*
X045750Y015250D03*
X045750Y013250D03*
X045750Y007750D03*
X045750Y005750D03*
X053250Y005750D03*
X053250Y007750D03*
X053250Y013250D03*
X053250Y015250D03*
X053250Y020750D03*
X053250Y022750D03*
X053250Y027500D03*
X053250Y029500D03*
X060750Y029500D03*
X060750Y027500D03*
X060750Y022750D03*
X060750Y020750D03*
X060750Y015250D03*
X060750Y013250D03*
X060750Y007750D03*
X060750Y005750D03*
X068250Y005750D03*
X068250Y007750D03*
X068250Y013250D03*
X068250Y015250D03*
X068250Y020750D03*
X068250Y022750D03*
X068250Y027500D03*
X068250Y029500D03*
X060750Y047500D03*
X060750Y049500D03*
X060750Y056500D03*
X060750Y058500D03*
X060750Y064000D03*
X060750Y066000D03*
X060750Y071500D03*
X060750Y073500D03*
X053250Y073500D03*
X053250Y071500D03*
X053250Y066000D03*
X053250Y064000D03*
X053250Y058500D03*
X053250Y056500D03*
X053250Y051000D03*
X053250Y049000D03*
X045750Y049500D03*
X045750Y047500D03*
X038250Y049000D03*
X038250Y051000D03*
X038250Y056500D03*
X038250Y058500D03*
X038250Y064000D03*
X038250Y066000D03*
X038250Y071500D03*
X038250Y073500D03*
X045750Y073500D03*
X045750Y071500D03*
X045750Y066000D03*
X045750Y064000D03*
X045750Y058500D03*
X045750Y056500D03*
X068250Y056500D03*
X068250Y058500D03*
X068250Y064000D03*
X068250Y066000D03*
X068250Y071500D03*
X068250Y073500D03*
X068250Y051000D03*
X068250Y049000D03*
X019250Y075750D03*
X017250Y075750D03*
X015750Y073500D03*
X015750Y071500D03*
D24*
X021500Y070579D03*
X022500Y070579D03*
X023500Y070579D03*
X023500Y066921D03*
X022500Y066921D03*
X021500Y066921D03*
D25*
X020500Y076750D03*
X005500Y076750D03*
X035500Y076750D03*
X050500Y076750D03*
X065500Y076750D03*
X066750Y040750D03*
X051750Y040750D03*
X036750Y040750D03*
X006750Y040750D03*
D26*
X000500Y040750D03*
X000500Y039750D03*
X000500Y038750D03*
X000500Y037750D03*
X000500Y036750D03*
X000500Y035750D03*
X000500Y034750D03*
X000500Y033750D03*
X013750Y033750D03*
X013750Y034750D03*
X013750Y035750D03*
X013750Y036750D03*
X013750Y037750D03*
X013750Y037750D03*
X013750Y038750D03*
X013750Y039750D03*
X013750Y040750D03*
X015500Y040750D03*
X015500Y039750D03*
X015500Y038750D03*
X015500Y037750D03*
X015500Y036750D03*
X015500Y035750D03*
X015500Y034750D03*
X015500Y033750D03*
X018750Y034750D03*
X017750Y040750D03*
X028750Y040750D03*
X028750Y039750D03*
X028750Y038750D03*
X028750Y037750D03*
X028750Y037750D03*
X028750Y036750D03*
X028750Y035750D03*
X028750Y034750D03*
X028750Y033750D03*
X030500Y033750D03*
X030500Y034750D03*
X030500Y035750D03*
X030500Y036750D03*
X030500Y037750D03*
X030500Y038750D03*
X030500Y039750D03*
X030500Y040750D03*
X043750Y040750D03*
X043750Y039750D03*
X043750Y038750D03*
X043750Y037750D03*
X043750Y037750D03*
X043750Y036750D03*
X043750Y035750D03*
X043750Y034750D03*
X043750Y033750D03*
X045500Y033750D03*
X045500Y034750D03*
X045500Y035750D03*
X045500Y036750D03*
X045500Y037750D03*
X045500Y038750D03*
X045500Y039750D03*
X045500Y040750D03*
X058750Y040750D03*
X058750Y039750D03*
X058750Y038750D03*
X058750Y037750D03*
X058750Y037750D03*
X058750Y036750D03*
X058750Y035750D03*
X058750Y034750D03*
X058750Y033750D03*
X060500Y033750D03*
X060500Y034750D03*
X060500Y035750D03*
X060500Y036750D03*
X060500Y037750D03*
X060500Y038750D03*
X060500Y039750D03*
X060500Y040750D03*
X073750Y040750D03*
X073750Y039750D03*
X073750Y038750D03*
X073750Y037750D03*
X073750Y037750D03*
X073750Y036750D03*
X073750Y035750D03*
X073750Y034750D03*
X073750Y033750D03*
X065500Y075500D03*
X050500Y075500D03*
X035500Y075500D03*
X005500Y075500D03*
D27*
X030500Y048250D03*
X034000Y046000D03*
X036500Y048000D03*
X032250Y042000D03*
X032250Y041500D03*
X033250Y041250D03*
X035750Y039000D03*
X034250Y038250D03*
X034250Y037750D03*
X034750Y035813D03*
X036500Y035500D03*
X037500Y036000D03*
X037000Y036750D03*
X037000Y037750D03*
X037500Y038250D03*
X040500Y037625D03*
X041500Y036000D03*
X042000Y035000D03*
X043250Y033250D03*
X043250Y031250D03*
X039750Y035000D03*
X036500Y034375D03*
X034500Y029500D03*
X037250Y029250D03*
X037250Y028500D03*
X038500Y029000D03*
X034500Y023750D03*
X028250Y029900D03*
X028250Y033250D03*
X026500Y036000D03*
X025500Y037625D03*
X025500Y040000D03*
X026500Y040500D03*
X026500Y044750D03*
X022500Y038250D03*
X022000Y037750D03*
X022000Y036750D03*
X022500Y036000D03*
X021500Y034375D03*
X019750Y035813D03*
X019250Y037750D03*
X019250Y038250D03*
X020750Y039000D03*
X017250Y041500D03*
X017250Y042000D03*
X011500Y040500D03*
X010500Y040000D03*
X010250Y037625D03*
X011500Y036000D03*
X012000Y035000D03*
X013500Y033000D03*
X013250Y028750D03*
X009750Y029000D03*
X007250Y029250D03*
X007250Y028500D03*
X004500Y023750D03*
X006500Y034375D03*
X007500Y036000D03*
X007000Y036750D03*
X007000Y037750D03*
X007500Y038250D03*
X005750Y039000D03*
X004250Y038250D03*
X004250Y037750D03*
X004750Y035813D03*
X003250Y041250D03*
X002750Y041875D03*
X002250Y041500D03*
X004250Y046000D03*
X006500Y048000D03*
X001500Y047750D03*
X019500Y029500D03*
X022250Y029250D03*
X022250Y028500D03*
X024750Y029000D03*
X019500Y023750D03*
X022250Y007250D03*
X028500Y007500D03*
X028500Y005375D03*
X029000Y004750D03*
X037250Y007250D03*
X043500Y007500D03*
X043500Y005375D03*
X044000Y004750D03*
X052250Y007250D03*
X058500Y007500D03*
X058500Y005375D03*
X059000Y004750D03*
X067250Y007250D03*
X073500Y007500D03*
X073500Y005375D03*
X074000Y004750D03*
X064500Y023750D03*
X067250Y028500D03*
X067250Y029250D03*
X069750Y029000D03*
X073250Y028750D03*
X073750Y030750D03*
X069750Y035000D03*
X071500Y036000D03*
X070500Y037625D03*
X070500Y040000D03*
X071500Y040500D03*
X067500Y038250D03*
X067000Y037750D03*
X067000Y036750D03*
X067500Y036000D03*
X066500Y035500D03*
X066500Y034375D03*
X064750Y035813D03*
X064250Y037750D03*
X064250Y038250D03*
X065750Y039000D03*
X063250Y041250D03*
X062250Y041500D03*
X062250Y042500D03*
X064250Y046000D03*
X066500Y048000D03*
X060500Y048000D03*
X056500Y040500D03*
X055500Y040000D03*
X055500Y037625D03*
X056500Y036000D03*
X057000Y035000D03*
X058250Y033250D03*
X054750Y035000D03*
X052500Y036000D03*
X052000Y036750D03*
X052000Y037750D03*
X052500Y038250D03*
X050750Y039000D03*
X049250Y038250D03*
X049250Y037750D03*
X049750Y035813D03*
X051500Y035500D03*
X051500Y034375D03*
X049500Y029500D03*
X052250Y029250D03*
X052250Y028500D03*
X054750Y029000D03*
X058250Y028750D03*
X064500Y029000D03*
X069700Y025400D03*
X049500Y023750D03*
X040500Y040000D03*
X041500Y040500D03*
X047250Y041500D03*
X047250Y042000D03*
X048250Y041250D03*
X049250Y045000D03*
X051500Y048250D03*
X045500Y048250D03*
X013500Y007500D03*
X013500Y005375D03*
X014000Y004750D03*
X007250Y007250D03*
D28*
X001500Y007250D03*
X001500Y006250D03*
X001500Y005250D03*
X001500Y008250D03*
X001500Y012750D03*
X001500Y013750D03*
X001250Y017250D03*
X001500Y021250D03*
X003750Y031500D03*
X004500Y032000D03*
X007250Y032500D03*
X007250Y031250D03*
X010750Y032000D03*
X013750Y032250D03*
X016250Y032250D03*
X018250Y032500D03*
X014250Y035250D03*
X011500Y040000D03*
X013500Y041500D03*
X008000Y038750D03*
X006750Y039000D03*
X005500Y049875D03*
X006000Y050250D03*
X006500Y050625D03*
X006000Y054750D03*
X001250Y057750D03*
X000500Y055250D03*
X001000Y051000D03*
X006250Y060625D03*
X006500Y061125D03*
X020500Y049875D03*
X021000Y050250D03*
X021500Y050625D03*
X021000Y055500D03*
X021250Y060625D03*
X021750Y061125D03*
X024750Y067250D03*
X026500Y067250D03*
X027000Y068250D03*
X029000Y068250D03*
X036000Y060625D03*
X036500Y060875D03*
X036000Y055500D03*
X036500Y050625D03*
X036000Y050250D03*
X035500Y049875D03*
X029250Y043750D03*
X028250Y044750D03*
X028500Y041500D03*
X026500Y040000D03*
X026500Y040000D03*
X029750Y039250D03*
X029750Y037750D03*
X028250Y036250D03*
X028750Y032250D03*
X023000Y038750D03*
X021750Y039000D03*
X036750Y039000D03*
X038000Y038750D03*
X041500Y040000D03*
X041500Y040000D03*
X043500Y041500D03*
X044250Y035250D03*
X051750Y039000D03*
X053000Y038750D03*
X056500Y040000D03*
X056500Y040000D03*
X058500Y041500D03*
X059250Y035250D03*
X066750Y039000D03*
X068000Y038750D03*
X071500Y040000D03*
X073250Y041500D03*
X066000Y050250D03*
X065500Y049875D03*
X066500Y050625D03*
X066000Y055500D03*
X065750Y060625D03*
X066250Y061125D03*
X072000Y075250D03*
X074250Y075250D03*
X051500Y061125D03*
X051250Y060625D03*
X051000Y055500D03*
X051500Y050625D03*
X051000Y050250D03*
X050500Y049875D03*
D29*
X072250Y027000D03*
X072000Y023500D03*
X023250Y040500D03*
X021750Y040500D03*
X000500Y062500D03*
X006250Y068250D03*
X021750Y067250D03*
X023500Y067250D03*
X022250Y065250D03*
X021750Y075500D03*
D30*
X009500Y075500D03*
X039500Y075500D03*
X054500Y075500D03*
X069500Y075500D03*
X036750Y040750D03*
X032750Y034750D03*
X017750Y034750D03*
X002750Y034750D03*
X047750Y034750D03*
X062750Y034750D03*
D31*
X064000Y034750D03*
X065000Y034750D03*
X066250Y036250D03*
X069750Y034500D03*
X070750Y034500D03*
X068500Y039500D03*
X068250Y040500D03*
X070000Y041000D03*
X062250Y039750D03*
X055750Y034500D03*
X054750Y034500D03*
X051250Y036250D03*
X050000Y034750D03*
X049000Y034750D03*
X047750Y033000D03*
X046250Y033000D03*
X040750Y034500D03*
X039750Y034500D03*
X036250Y036250D03*
X035000Y034750D03*
X034000Y034750D03*
X032750Y033000D03*
X031250Y033000D03*
X025750Y035500D03*
X024750Y034750D03*
X021250Y036250D03*
X023500Y039500D03*
X025000Y041000D03*
X032250Y039750D03*
X038250Y040500D03*
X038500Y039500D03*
X040000Y041000D03*
X047250Y039750D03*
X053250Y040500D03*
X053500Y039500D03*
X055000Y041000D03*
X061250Y033000D03*
X062750Y033000D03*
X063500Y023000D03*
X065000Y023000D03*
X071000Y023000D03*
X072500Y023000D03*
X057500Y023000D03*
X056000Y023000D03*
X050000Y023000D03*
X048500Y023000D03*
X042500Y023000D03*
X041000Y023000D03*
X035000Y023000D03*
X033500Y023000D03*
X027500Y023000D03*
X026000Y023000D03*
X020000Y023000D03*
X018500Y023000D03*
X012500Y023000D03*
X011000Y023000D03*
X005000Y023000D03*
X003500Y023000D03*
X002750Y034000D03*
X004000Y034500D03*
X005000Y034500D03*
X006250Y036250D03*
X008500Y039500D03*
X008250Y040500D03*
X010000Y041000D03*
X017250Y039750D03*
X017750Y031500D03*
X016250Y031500D03*
X002250Y039750D03*
X001250Y034000D03*
X003500Y053000D03*
X005250Y053000D03*
X008500Y053000D03*
X008000Y061750D03*
X008000Y062875D03*
X006625Y061750D03*
X009000Y062875D03*
X008250Y070500D03*
X006250Y070500D03*
X006500Y074250D03*
X008000Y074250D03*
X018750Y067750D03*
X018750Y066750D03*
X021750Y069500D03*
X023250Y069500D03*
X023000Y062375D03*
X023000Y061750D03*
X024000Y062375D03*
X021625Y061750D03*
X020250Y053000D03*
X018500Y053000D03*
X023500Y053000D03*
X033500Y053000D03*
X035250Y053000D03*
X038500Y053000D03*
X038000Y061750D03*
X038000Y062875D03*
X039000Y062875D03*
X036625Y061750D03*
X036750Y070500D03*
X038250Y070500D03*
X033750Y073750D03*
X033750Y074750D03*
X048750Y074750D03*
X048750Y073750D03*
X051750Y070500D03*
X053250Y070500D03*
X053000Y062875D03*
X054000Y062875D03*
X053000Y061750D03*
X051625Y061750D03*
X050250Y053000D03*
X048500Y053000D03*
X053500Y053000D03*
X063500Y053000D03*
X065250Y053000D03*
X068500Y053000D03*
X068000Y061750D03*
X068000Y062875D03*
X069000Y062875D03*
X066625Y061750D03*
X066750Y070500D03*
X068250Y070500D03*
X063750Y073750D03*
X063750Y074750D03*
M02*
